G04 #@! TF.GenerationSoftware,KiCad,Pcbnew,5.1.5+dfsg1-2build2*
G04 #@! TF.CreationDate,2020-05-18T23:31:36+02:00*
G04 #@! TF.ProjectId,proto2,70726f74-6f32-42e6-9b69-6361645f7063,rev?*
G04 #@! TF.SameCoordinates,Original*
G04 #@! TF.FileFunction,Legend,Top*
G04 #@! TF.FilePolarity,Positive*
%FSLAX46Y46*%
G04 Gerber Fmt 4.6, Leading zero omitted, Abs format (unit mm)*
G04 Created by KiCad (PCBNEW 5.1.5+dfsg1-2build2) date 2020-05-18 23:31:36*
%MOMM*%
%LPD*%
G04 APERTURE LIST*
%ADD10C,0.300000*%
%ADD11C,0.100000*%
%ADD12C,0.200000*%
%ADD13C,0.127000*%
%ADD14C,0.120000*%
%ADD15C,0.254000*%
%ADD16C,0.015000*%
%ADD17C,0.150000*%
G04 APERTURE END LIST*
D10*
X186093571Y-90592857D02*
X184593571Y-90592857D01*
X184593571Y-90021428D01*
X184665000Y-89878571D01*
X184736428Y-89807142D01*
X184879285Y-89735714D01*
X185093571Y-89735714D01*
X185236428Y-89807142D01*
X185307857Y-89878571D01*
X185379285Y-90021428D01*
X185379285Y-90592857D01*
X186093571Y-88235714D02*
X185379285Y-88735714D01*
X186093571Y-89092857D02*
X184593571Y-89092857D01*
X184593571Y-88521428D01*
X184665000Y-88378571D01*
X184736428Y-88307142D01*
X184879285Y-88235714D01*
X185093571Y-88235714D01*
X185236428Y-88307142D01*
X185307857Y-88378571D01*
X185379285Y-88521428D01*
X185379285Y-89092857D01*
X184593571Y-87307142D02*
X184593571Y-87021428D01*
X184665000Y-86878571D01*
X184807857Y-86735714D01*
X185093571Y-86664285D01*
X185593571Y-86664285D01*
X185879285Y-86735714D01*
X186022142Y-86878571D01*
X186093571Y-87021428D01*
X186093571Y-87307142D01*
X186022142Y-87450000D01*
X185879285Y-87592857D01*
X185593571Y-87664285D01*
X185093571Y-87664285D01*
X184807857Y-87592857D01*
X184665000Y-87450000D01*
X184593571Y-87307142D01*
X184593571Y-86235714D02*
X184593571Y-85378571D01*
X186093571Y-85807142D02*
X184593571Y-85807142D01*
X184593571Y-84592857D02*
X184593571Y-84307142D01*
X184665000Y-84164285D01*
X184807857Y-84021428D01*
X185093571Y-83950000D01*
X185593571Y-83950000D01*
X185879285Y-84021428D01*
X186022142Y-84164285D01*
X186093571Y-84307142D01*
X186093571Y-84592857D01*
X186022142Y-84735714D01*
X185879285Y-84878571D01*
X185593571Y-84950000D01*
X185093571Y-84950000D01*
X184807857Y-84878571D01*
X184665000Y-84735714D01*
X184593571Y-84592857D01*
X184736428Y-83378571D02*
X184665000Y-83307142D01*
X184593571Y-83164285D01*
X184593571Y-82807142D01*
X184665000Y-82664285D01*
X184736428Y-82592857D01*
X184879285Y-82521428D01*
X185022142Y-82521428D01*
X185236428Y-82592857D01*
X186093571Y-83450000D01*
X186093571Y-82521428D01*
X185950714Y-79878571D02*
X186022142Y-79950000D01*
X186093571Y-80164285D01*
X186093571Y-80307142D01*
X186022142Y-80521428D01*
X185879285Y-80664285D01*
X185736428Y-80735714D01*
X185450714Y-80807142D01*
X185236428Y-80807142D01*
X184950714Y-80735714D01*
X184807857Y-80664285D01*
X184665000Y-80521428D01*
X184593571Y-80307142D01*
X184593571Y-80164285D01*
X184665000Y-79950000D01*
X184736428Y-79878571D01*
X186022142Y-79307142D02*
X186093571Y-79092857D01*
X186093571Y-78735714D01*
X186022142Y-78592857D01*
X185950714Y-78521428D01*
X185807857Y-78450000D01*
X185665000Y-78450000D01*
X185522142Y-78521428D01*
X185450714Y-78592857D01*
X185379285Y-78735714D01*
X185307857Y-79021428D01*
X185236428Y-79164285D01*
X185165000Y-79235714D01*
X185022142Y-79307142D01*
X184879285Y-79307142D01*
X184736428Y-79235714D01*
X184665000Y-79164285D01*
X184593571Y-79021428D01*
X184593571Y-78664285D01*
X184665000Y-78450000D01*
X184593571Y-77807142D02*
X185807857Y-77807142D01*
X185950714Y-77735714D01*
X186022142Y-77664285D01*
X186093571Y-77521428D01*
X186093571Y-77235714D01*
X186022142Y-77092857D01*
X185950714Y-77021428D01*
X185807857Y-76950000D01*
X184593571Y-76950000D01*
X185950714Y-74235714D02*
X186022142Y-74307142D01*
X186093571Y-74521428D01*
X186093571Y-74664285D01*
X186022142Y-74878571D01*
X185879285Y-75021428D01*
X185736428Y-75092857D01*
X185450714Y-75164285D01*
X185236428Y-75164285D01*
X184950714Y-75092857D01*
X184807857Y-75021428D01*
X184665000Y-74878571D01*
X184593571Y-74664285D01*
X184593571Y-74521428D01*
X184665000Y-74307142D01*
X184736428Y-74235714D01*
X184593571Y-73307142D02*
X184593571Y-73021428D01*
X184665000Y-72878571D01*
X184807857Y-72735714D01*
X185093571Y-72664285D01*
X185593571Y-72664285D01*
X185879285Y-72735714D01*
X186022142Y-72878571D01*
X186093571Y-73021428D01*
X186093571Y-73307142D01*
X186022142Y-73450000D01*
X185879285Y-73592857D01*
X185593571Y-73664285D01*
X185093571Y-73664285D01*
X184807857Y-73592857D01*
X184665000Y-73450000D01*
X184593571Y-73307142D01*
X184593571Y-72235714D02*
X184593571Y-71378571D01*
X186093571Y-71807142D02*
X184593571Y-71807142D01*
X185307857Y-70878571D02*
X185307857Y-70378571D01*
X186093571Y-70164285D02*
X186093571Y-70878571D01*
X184593571Y-70878571D01*
X184593571Y-70164285D01*
X186093571Y-68378571D02*
X184593571Y-68378571D01*
X184593571Y-68021428D01*
X184665000Y-67807142D01*
X184807857Y-67664285D01*
X184950714Y-67592857D01*
X185236428Y-67521428D01*
X185450714Y-67521428D01*
X185736428Y-67592857D01*
X185879285Y-67664285D01*
X186022142Y-67807142D01*
X186093571Y-68021428D01*
X186093571Y-68378571D01*
X185665000Y-66950000D02*
X185665000Y-66235714D01*
X186093571Y-67092857D02*
X184593571Y-66592857D01*
X186093571Y-66092857D01*
X184593571Y-65735714D02*
X184593571Y-64735714D01*
X186093571Y-65735714D01*
X186093571Y-64735714D01*
X184593571Y-64164285D02*
X185807857Y-64164285D01*
X185950714Y-64092857D01*
X186022142Y-64021428D01*
X186093571Y-63878571D01*
X186093571Y-63592857D01*
X186022142Y-63450000D01*
X185950714Y-63378571D01*
X185807857Y-63307142D01*
X184593571Y-63307142D01*
X186093571Y-61735714D02*
X185379285Y-62235714D01*
X186093571Y-62592857D02*
X184593571Y-62592857D01*
X184593571Y-62021428D01*
X184665000Y-61878571D01*
X184736428Y-61807142D01*
X184879285Y-61735714D01*
X185093571Y-61735714D01*
X185236428Y-61807142D01*
X185307857Y-61878571D01*
X185379285Y-62021428D01*
X185379285Y-62592857D01*
X188643571Y-85021428D02*
X187929285Y-85521428D01*
X188643571Y-85878571D02*
X187143571Y-85878571D01*
X187143571Y-85307142D01*
X187215000Y-85164285D01*
X187286428Y-85092857D01*
X187429285Y-85021428D01*
X187643571Y-85021428D01*
X187786428Y-85092857D01*
X187857857Y-85164285D01*
X187929285Y-85307142D01*
X187929285Y-85878571D01*
X187143571Y-84092857D02*
X187143571Y-83807142D01*
X187215000Y-83664285D01*
X187357857Y-83521428D01*
X187643571Y-83450000D01*
X188143571Y-83450000D01*
X188429285Y-83521428D01*
X188572142Y-83664285D01*
X188643571Y-83807142D01*
X188643571Y-84092857D01*
X188572142Y-84235714D01*
X188429285Y-84378571D01*
X188143571Y-84450000D01*
X187643571Y-84450000D01*
X187357857Y-84378571D01*
X187215000Y-84235714D01*
X187143571Y-84092857D01*
X188643571Y-82807142D02*
X187143571Y-82807142D01*
X188215000Y-82307142D01*
X187143571Y-81807142D01*
X188643571Y-81807142D01*
X188215000Y-81164285D02*
X188215000Y-80450000D01*
X188643571Y-81307142D02*
X187143571Y-80807142D01*
X188643571Y-80307142D01*
X188643571Y-79807142D02*
X187143571Y-79807142D01*
X188643571Y-79092857D02*
X187143571Y-79092857D01*
X188643571Y-78235714D01*
X187143571Y-78235714D01*
X188500714Y-75521428D02*
X188572142Y-75592857D01*
X188643571Y-75807142D01*
X188643571Y-75950000D01*
X188572142Y-76164285D01*
X188429285Y-76307142D01*
X188286428Y-76378571D01*
X188000714Y-76450000D01*
X187786428Y-76450000D01*
X187500714Y-76378571D01*
X187357857Y-76307142D01*
X187215000Y-76164285D01*
X187143571Y-75950000D01*
X187143571Y-75807142D01*
X187215000Y-75592857D01*
X187286428Y-75521428D01*
X187143571Y-74592857D02*
X187143571Y-74307142D01*
X187215000Y-74164285D01*
X187357857Y-74021428D01*
X187643571Y-73950000D01*
X188143571Y-73950000D01*
X188429285Y-74021428D01*
X188572142Y-74164285D01*
X188643571Y-74307142D01*
X188643571Y-74592857D01*
X188572142Y-74735714D01*
X188429285Y-74878571D01*
X188143571Y-74950000D01*
X187643571Y-74950000D01*
X187357857Y-74878571D01*
X187215000Y-74735714D01*
X187143571Y-74592857D01*
X188500714Y-72450000D02*
X188572142Y-72521428D01*
X188643571Y-72735714D01*
X188643571Y-72878571D01*
X188572142Y-73092857D01*
X188429285Y-73235714D01*
X188286428Y-73307142D01*
X188000714Y-73378571D01*
X187786428Y-73378571D01*
X187500714Y-73307142D01*
X187357857Y-73235714D01*
X187215000Y-73092857D01*
X187143571Y-72878571D01*
X187143571Y-72735714D01*
X187215000Y-72521428D01*
X187286428Y-72450000D01*
X187143571Y-71521428D02*
X187143571Y-71235714D01*
X187215000Y-71092857D01*
X187357857Y-70950000D01*
X187643571Y-70878571D01*
X188143571Y-70878571D01*
X188429285Y-70950000D01*
X188572142Y-71092857D01*
X188643571Y-71235714D01*
X188643571Y-71521428D01*
X188572142Y-71664285D01*
X188429285Y-71807142D01*
X188143571Y-71878571D01*
X187643571Y-71878571D01*
X187357857Y-71807142D01*
X187215000Y-71664285D01*
X187143571Y-71521428D01*
X187215000Y-69450000D02*
X187143571Y-69592857D01*
X187143571Y-69807142D01*
X187215000Y-70021428D01*
X187357857Y-70164285D01*
X187500714Y-70235714D01*
X187786428Y-70307142D01*
X188000714Y-70307142D01*
X188286428Y-70235714D01*
X188429285Y-70164285D01*
X188572142Y-70021428D01*
X188643571Y-69807142D01*
X188643571Y-69664285D01*
X188572142Y-69450000D01*
X188500714Y-69378571D01*
X188000714Y-69378571D01*
X188000714Y-69664285D01*
X188643571Y-68735714D02*
X187143571Y-68735714D01*
X188643571Y-67878571D01*
X187143571Y-67878571D01*
X187857857Y-67164285D02*
X187857857Y-66664285D01*
X188643571Y-66450000D02*
X188643571Y-67164285D01*
X187143571Y-67164285D01*
X187143571Y-66450000D01*
D11*
X140144000Y-145032000D02*
X140144000Y-144642000D01*
X140633000Y-145032000D02*
X140144000Y-145032000D01*
X140633000Y-144642000D02*
X140633000Y-145032000D01*
X140144000Y-144642000D02*
X140633000Y-144642000D01*
X134160000Y-143970000D02*
X134160000Y-137970000D01*
X140160000Y-143970000D02*
X134160000Y-143970000D01*
X140160000Y-137970000D02*
X140160000Y-143970000D01*
X134160000Y-137970000D02*
X140160000Y-137970000D01*
D12*
X98507000Y-108782000D02*
G75*
G03X98507000Y-108782000I-100000J0D01*
G01*
D13*
X92007000Y-120532000D02*
X92287000Y-120532000D01*
X92007000Y-105782000D02*
X92007000Y-120532000D01*
X92287000Y-105782000D02*
X92007000Y-105782000D01*
X96207000Y-120532000D02*
X95927000Y-120532000D01*
X96207000Y-118257000D02*
X96207000Y-120532000D01*
X96207000Y-105782000D02*
X96207000Y-108057000D01*
X95927000Y-105782000D02*
X96207000Y-105782000D01*
D12*
X181225000Y-105130000D02*
X182650000Y-105130000D01*
X183000000Y-108180000D02*
X183000000Y-105180000D01*
X185300000Y-108180000D02*
X183000000Y-108180000D01*
X185300000Y-105180000D02*
X185300000Y-108180000D01*
X183000000Y-105180000D02*
X185300000Y-105180000D01*
D11*
X94105200Y-128447800D02*
G75*
G02X103405200Y-128447800I4650000J0D01*
G01*
X103405200Y-128447800D02*
G75*
G02X94105200Y-128447800I-4650000J0D01*
G01*
X103405200Y-128447800D02*
X103405200Y-128447800D01*
X94105200Y-128447800D02*
X94105200Y-128447800D01*
D14*
X186125000Y-94545000D02*
X186125000Y-92145000D01*
X188525000Y-94545000D02*
X186125000Y-94545000D01*
X188525000Y-92145000D02*
X188525000Y-94545000D01*
X186125000Y-92145000D02*
X188525000Y-92145000D01*
X133420000Y-113595000D02*
X133420000Y-111195000D01*
X135820000Y-113595000D02*
X133420000Y-113595000D01*
X135820000Y-111195000D02*
X135820000Y-113595000D01*
X133420000Y-111195000D02*
X135820000Y-111195000D01*
X156178400Y-55810000D02*
X156178400Y-53410000D01*
X158578400Y-55810000D02*
X156178400Y-55810000D01*
X158578400Y-53410000D02*
X158578400Y-55810000D01*
X156178400Y-53410000D02*
X158578400Y-53410000D01*
X161601300Y-55810000D02*
X161601300Y-53410000D01*
X164001300Y-55810000D02*
X161601300Y-55810000D01*
X164001300Y-53410000D02*
X164001300Y-55810000D01*
X161601300Y-53410000D02*
X164001300Y-53410000D01*
X167024200Y-55810000D02*
X167024200Y-53410000D01*
X169424200Y-55810000D02*
X167024200Y-55810000D01*
X169424200Y-53410000D02*
X169424200Y-55810000D01*
X167024200Y-53410000D02*
X169424200Y-53410000D01*
X172447100Y-55810000D02*
X172447100Y-53410000D01*
X174847100Y-55810000D02*
X172447100Y-55810000D01*
X174847100Y-53410000D02*
X174847100Y-55810000D01*
X172447100Y-53410000D02*
X174847100Y-53410000D01*
X177870000Y-55810000D02*
X177870000Y-53410000D01*
X180270000Y-55810000D02*
X177870000Y-55810000D01*
X180270000Y-53410000D02*
X180270000Y-55810000D01*
X177870000Y-53410000D02*
X180270000Y-53410000D01*
X129063900Y-55810000D02*
X129063900Y-53410000D01*
X131463900Y-55810000D02*
X129063900Y-55810000D01*
X131463900Y-53410000D02*
X131463900Y-55810000D01*
X129063900Y-53410000D02*
X131463900Y-53410000D01*
X134486800Y-55810000D02*
X134486800Y-53410000D01*
X136886800Y-55810000D02*
X134486800Y-55810000D01*
X136886800Y-53410000D02*
X136886800Y-55810000D01*
X134486800Y-53410000D02*
X136886800Y-53410000D01*
X139909700Y-55810000D02*
X139909700Y-53410000D01*
X142309700Y-55810000D02*
X139909700Y-55810000D01*
X142309700Y-53410000D02*
X142309700Y-55810000D01*
X139909700Y-53410000D02*
X142309700Y-53410000D01*
X145332600Y-55810000D02*
X145332600Y-53410000D01*
X147732600Y-55810000D02*
X145332600Y-55810000D01*
X147732600Y-53410000D02*
X147732600Y-55810000D01*
X145332600Y-53410000D02*
X147732600Y-53410000D01*
X150755500Y-55810000D02*
X150755500Y-53410000D01*
X153155500Y-55810000D02*
X150755500Y-55810000D01*
X153155500Y-53410000D02*
X153155500Y-55810000D01*
X150755500Y-53410000D02*
X153155500Y-53410000D01*
X101949400Y-55810000D02*
X101949400Y-53410000D01*
X104349400Y-55810000D02*
X101949400Y-55810000D01*
X104349400Y-53410000D02*
X104349400Y-55810000D01*
X101949400Y-53410000D02*
X104349400Y-53410000D01*
X107372300Y-55810000D02*
X107372300Y-53410000D01*
X109772300Y-55810000D02*
X107372300Y-55810000D01*
X109772300Y-53410000D02*
X109772300Y-55810000D01*
X107372300Y-53410000D02*
X109772300Y-53410000D01*
X112795200Y-55810000D02*
X112795200Y-53410000D01*
X115195200Y-55810000D02*
X112795200Y-55810000D01*
X115195200Y-53410000D02*
X115195200Y-55810000D01*
X112795200Y-53410000D02*
X115195200Y-53410000D01*
X118218100Y-55810000D02*
X118218100Y-53410000D01*
X120618100Y-55810000D02*
X118218100Y-55810000D01*
X120618100Y-53410000D02*
X120618100Y-55810000D01*
X118218100Y-53410000D02*
X120618100Y-53410000D01*
X123641000Y-55810000D02*
X123641000Y-53410000D01*
X126041000Y-55810000D02*
X123641000Y-55810000D01*
X126041000Y-53410000D02*
X126041000Y-55810000D01*
X123641000Y-53410000D02*
X126041000Y-53410000D01*
X178072000Y-122845000D02*
X178072000Y-129884999D01*
X178072000Y-129884999D02*
X186926000Y-129885000D01*
X186926000Y-129885000D02*
X186926000Y-122845001D01*
X186926000Y-122845001D02*
X184059333Y-122845000D01*
X184059333Y-122845000D02*
X184059333Y-123205000D01*
X184059333Y-123205000D02*
X181192667Y-123205000D01*
X181192667Y-123205000D02*
X181192667Y-122845000D01*
X181192667Y-122845000D02*
X178054000Y-122845000D01*
X170070200Y-131772000D02*
X177110199Y-131772000D01*
X177110199Y-131772000D02*
X177110200Y-122918000D01*
X177110200Y-122918000D02*
X170070201Y-122918000D01*
X170070201Y-122918000D02*
X170070200Y-125784667D01*
X170070200Y-125784667D02*
X170430200Y-125784667D01*
X170430200Y-125784667D02*
X170430200Y-128651333D01*
X170430200Y-128651333D02*
X170070200Y-128651333D01*
X170070200Y-128651333D02*
X170070200Y-131790000D01*
X173430000Y-142498578D02*
X173430000Y-141981422D01*
X172010000Y-142498578D02*
X172010000Y-141981422D01*
X175335000Y-142498578D02*
X175335000Y-141981422D01*
X173915000Y-142498578D02*
X173915000Y-141981422D01*
X150420000Y-120606078D02*
X150420000Y-120088922D01*
X151840000Y-120606078D02*
X151840000Y-120088922D01*
X130561822Y-123750000D02*
X131078978Y-123750000D01*
X130561822Y-125170000D02*
X131078978Y-125170000D01*
X131078978Y-123239600D02*
X130561822Y-123239600D01*
X131078978Y-121819600D02*
X130561822Y-121819600D01*
X130561822Y-125680400D02*
X131078978Y-125680400D01*
X130561822Y-127100400D02*
X131078978Y-127100400D01*
X131078978Y-121309200D02*
X130561822Y-121309200D01*
X131078978Y-119889200D02*
X130561822Y-119889200D01*
X137536422Y-137235000D02*
X138053578Y-137235000D01*
X137536422Y-135815000D02*
X138053578Y-135815000D01*
X99318578Y-138355000D02*
X98801422Y-138355000D01*
X99318578Y-139775000D02*
X98801422Y-139775000D01*
X103580000Y-136265378D02*
X103580000Y-135748222D01*
X102160000Y-136265378D02*
X102160000Y-135748222D01*
D12*
X96950000Y-137506800D02*
X95650000Y-137506800D01*
X95300000Y-134546800D02*
X95300000Y-137466800D01*
X95200000Y-134546800D02*
X95300000Y-134546800D01*
X95200000Y-137466800D02*
X95200000Y-134546800D01*
X95300000Y-137466800D02*
X95200000Y-137466800D01*
X101030000Y-137506800D02*
X99730000Y-137506800D01*
X99380000Y-134546800D02*
X99380000Y-137466800D01*
X99280000Y-134546800D02*
X99380000Y-134546800D01*
X99280000Y-137466800D02*
X99280000Y-134546800D01*
X99380000Y-137466800D02*
X99280000Y-137466800D01*
X129020000Y-144145000D02*
G75*
G03X129020000Y-144145000I-100000J0D01*
G01*
D13*
X128270000Y-149987000D02*
X102870000Y-149987000D01*
X128270000Y-140843000D02*
X102870000Y-140843000D01*
X128270000Y-140843000D02*
X128270000Y-149987000D01*
X102870000Y-149987000D02*
X102870000Y-140843000D01*
D14*
X168866078Y-147245000D02*
X168348922Y-147245000D01*
X168866078Y-148665000D02*
X168348922Y-148665000D01*
X170740000Y-147061422D02*
X170740000Y-147578578D01*
X172160000Y-147061422D02*
X172160000Y-147578578D01*
X134361422Y-118185000D02*
X134878578Y-118185000D01*
X134361422Y-116765000D02*
X134878578Y-116765000D01*
X134878578Y-114860000D02*
X134361422Y-114860000D01*
X134878578Y-116280000D02*
X134361422Y-116280000D01*
X142165000Y-140711422D02*
X142165000Y-141228578D01*
X143585000Y-140711422D02*
X143585000Y-141228578D01*
X137720000Y-128528578D02*
X137720000Y-128011422D01*
X139140000Y-128528578D02*
X139140000Y-128011422D01*
X139140000Y-120391422D02*
X139140000Y-120908578D01*
X137720000Y-120391422D02*
X137720000Y-120908578D01*
X145340000Y-128528578D02*
X145340000Y-128011422D01*
X146760000Y-128528578D02*
X146760000Y-128011422D01*
X146308578Y-121360000D02*
X145791422Y-121360000D01*
X146308578Y-119940000D02*
X145791422Y-119940000D01*
X144197000Y-124718578D02*
X144197000Y-124201422D01*
X145617000Y-124718578D02*
X145617000Y-124201422D01*
X141981422Y-126925000D02*
X142498578Y-126925000D01*
X141981422Y-128345000D02*
X142498578Y-128345000D01*
X138863000Y-124718578D02*
X138863000Y-124201422D01*
X140283000Y-124718578D02*
X140283000Y-124201422D01*
X141680000Y-120391422D02*
X141680000Y-120908578D01*
X140260000Y-120391422D02*
X140260000Y-120908578D01*
D12*
X169803000Y-146594000D02*
G75*
G03X169803000Y-146594000I-17000J0D01*
G01*
X166475000Y-143230000D02*
X170075000Y-143230000D01*
X166475000Y-146330000D02*
X166475000Y-143230000D01*
X170075000Y-146330000D02*
X166475000Y-146330000D01*
X170075000Y-143230000D02*
X170075000Y-146330000D01*
D15*
X135466666Y-141484047D02*
X135648095Y-141544523D01*
X135950476Y-141544523D01*
X136071428Y-141484047D01*
X136131904Y-141423571D01*
X136192380Y-141302619D01*
X136192380Y-141181666D01*
X136131904Y-141060714D01*
X136071428Y-141000238D01*
X135950476Y-140939761D01*
X135708571Y-140879285D01*
X135587619Y-140818809D01*
X135527142Y-140758333D01*
X135466666Y-140637380D01*
X135466666Y-140516428D01*
X135527142Y-140395476D01*
X135587619Y-140335000D01*
X135708571Y-140274523D01*
X136010952Y-140274523D01*
X136192380Y-140335000D01*
X136615714Y-140274523D02*
X136918095Y-141544523D01*
X137160000Y-140637380D01*
X137401904Y-141544523D01*
X137704285Y-140274523D01*
X138853333Y-141544523D02*
X138127619Y-141544523D01*
X138490476Y-141544523D02*
X138490476Y-140274523D01*
X138369523Y-140455952D01*
X138248571Y-140576904D01*
X138127619Y-140637380D01*
D16*
X98794380Y-108465333D02*
X99508666Y-108465333D01*
X99651523Y-108512952D01*
X99746761Y-108608190D01*
X99794380Y-108751047D01*
X99794380Y-108846285D01*
X98794380Y-107560571D02*
X98794380Y-107751047D01*
X98842000Y-107846285D01*
X98889619Y-107893904D01*
X99032476Y-107989142D01*
X99222952Y-108036761D01*
X99603904Y-108036761D01*
X99699142Y-107989142D01*
X99746761Y-107941523D01*
X99794380Y-107846285D01*
X99794380Y-107655809D01*
X99746761Y-107560571D01*
X99699142Y-107512952D01*
X99603904Y-107465333D01*
X99365809Y-107465333D01*
X99270571Y-107512952D01*
X99222952Y-107560571D01*
X99175333Y-107655809D01*
X99175333Y-107846285D01*
X99222952Y-107941523D01*
X99270571Y-107989142D01*
X99365809Y-108036761D01*
D15*
X182910238Y-104714523D02*
X182910238Y-103444523D01*
X184240714Y-104593571D02*
X184180238Y-104654047D01*
X183998809Y-104714523D01*
X183877857Y-104714523D01*
X183696428Y-104654047D01*
X183575476Y-104533095D01*
X183515000Y-104412142D01*
X183454523Y-104170238D01*
X183454523Y-103988809D01*
X183515000Y-103746904D01*
X183575476Y-103625952D01*
X183696428Y-103505000D01*
X183877857Y-103444523D01*
X183998809Y-103444523D01*
X184180238Y-103505000D01*
X184240714Y-103565476D01*
X184724523Y-103565476D02*
X184785000Y-103505000D01*
X184905952Y-103444523D01*
X185208333Y-103444523D01*
X185329285Y-103505000D01*
X185389761Y-103565476D01*
X185450238Y-103686428D01*
X185450238Y-103807380D01*
X185389761Y-103988809D01*
X184664047Y-104714523D01*
X185450238Y-104714523D01*
X97515438Y-129022323D02*
X97515438Y-127752323D01*
X98845914Y-128901371D02*
X98785438Y-128961847D01*
X98604009Y-129022323D01*
X98483057Y-129022323D01*
X98301628Y-128961847D01*
X98180676Y-128840895D01*
X98120200Y-128719942D01*
X98059723Y-128478038D01*
X98059723Y-128296609D01*
X98120200Y-128054704D01*
X98180676Y-127933752D01*
X98301628Y-127812800D01*
X98483057Y-127752323D01*
X98604009Y-127752323D01*
X98785438Y-127812800D01*
X98845914Y-127873276D01*
X100055438Y-129022323D02*
X99329723Y-129022323D01*
X99692580Y-129022323D02*
X99692580Y-127752323D01*
X99571628Y-127933752D01*
X99450676Y-128054704D01*
X99329723Y-128115180D01*
D17*
X185586904Y-90799380D02*
X186158333Y-90799380D01*
X185872619Y-91799380D02*
X185872619Y-90799380D01*
X186491666Y-91799380D02*
X186491666Y-90799380D01*
X186872619Y-90799380D01*
X186967857Y-90847000D01*
X187015476Y-90894619D01*
X187063095Y-90989857D01*
X187063095Y-91132714D01*
X187015476Y-91227952D01*
X186967857Y-91275571D01*
X186872619Y-91323190D01*
X186491666Y-91323190D01*
X187444047Y-90894619D02*
X187491666Y-90847000D01*
X187586904Y-90799380D01*
X187825000Y-90799380D01*
X187920238Y-90847000D01*
X187967857Y-90894619D01*
X188015476Y-90989857D01*
X188015476Y-91085095D01*
X187967857Y-91227952D01*
X187396428Y-91799380D01*
X188015476Y-91799380D01*
X188872619Y-90799380D02*
X188682142Y-90799380D01*
X188586904Y-90847000D01*
X188539285Y-90894619D01*
X188444047Y-91037476D01*
X188396428Y-91227952D01*
X188396428Y-91608904D01*
X188444047Y-91704142D01*
X188491666Y-91751761D01*
X188586904Y-91799380D01*
X188777380Y-91799380D01*
X188872619Y-91751761D01*
X188920238Y-91704142D01*
X188967857Y-91608904D01*
X188967857Y-91370809D01*
X188920238Y-91275571D01*
X188872619Y-91227952D01*
X188777380Y-91180333D01*
X188586904Y-91180333D01*
X188491666Y-91227952D01*
X188444047Y-91275571D01*
X188396428Y-91370809D01*
X133358095Y-109849380D02*
X133929523Y-109849380D01*
X133643809Y-110849380D02*
X133643809Y-109849380D01*
X134262857Y-110849380D02*
X134262857Y-109849380D01*
X134643809Y-109849380D01*
X134739047Y-109897000D01*
X134786666Y-109944619D01*
X134834285Y-110039857D01*
X134834285Y-110182714D01*
X134786666Y-110277952D01*
X134739047Y-110325571D01*
X134643809Y-110373190D01*
X134262857Y-110373190D01*
X135786666Y-110849380D02*
X135215238Y-110849380D01*
X135500952Y-110849380D02*
X135500952Y-109849380D01*
X135405714Y-109992238D01*
X135310476Y-110087476D01*
X135215238Y-110135095D01*
X155640304Y-52064380D02*
X156211733Y-52064380D01*
X155926019Y-53064380D02*
X155926019Y-52064380D01*
X156545066Y-53064380D02*
X156545066Y-52064380D01*
X156926019Y-52064380D01*
X157021257Y-52112000D01*
X157068876Y-52159619D01*
X157116495Y-52254857D01*
X157116495Y-52397714D01*
X157068876Y-52492952D01*
X157021257Y-52540571D01*
X156926019Y-52588190D01*
X156545066Y-52588190D01*
X157497447Y-52159619D02*
X157545066Y-52112000D01*
X157640304Y-52064380D01*
X157878400Y-52064380D01*
X157973638Y-52112000D01*
X158021257Y-52159619D01*
X158068876Y-52254857D01*
X158068876Y-52350095D01*
X158021257Y-52492952D01*
X157449828Y-53064380D01*
X158068876Y-53064380D01*
X158973638Y-52064380D02*
X158497447Y-52064380D01*
X158449828Y-52540571D01*
X158497447Y-52492952D01*
X158592685Y-52445333D01*
X158830780Y-52445333D01*
X158926019Y-52492952D01*
X158973638Y-52540571D01*
X159021257Y-52635809D01*
X159021257Y-52873904D01*
X158973638Y-52969142D01*
X158926019Y-53016761D01*
X158830780Y-53064380D01*
X158592685Y-53064380D01*
X158497447Y-53016761D01*
X158449828Y-52969142D01*
X161063204Y-52064380D02*
X161634633Y-52064380D01*
X161348919Y-53064380D02*
X161348919Y-52064380D01*
X161967966Y-53064380D02*
X161967966Y-52064380D01*
X162348919Y-52064380D01*
X162444157Y-52112000D01*
X162491776Y-52159619D01*
X162539395Y-52254857D01*
X162539395Y-52397714D01*
X162491776Y-52492952D01*
X162444157Y-52540571D01*
X162348919Y-52588190D01*
X161967966Y-52588190D01*
X162920347Y-52159619D02*
X162967966Y-52112000D01*
X163063204Y-52064380D01*
X163301300Y-52064380D01*
X163396538Y-52112000D01*
X163444157Y-52159619D01*
X163491776Y-52254857D01*
X163491776Y-52350095D01*
X163444157Y-52492952D01*
X162872728Y-53064380D01*
X163491776Y-53064380D01*
X164348919Y-52397714D02*
X164348919Y-53064380D01*
X164110823Y-52016761D02*
X163872728Y-52731047D01*
X164491776Y-52731047D01*
X166486104Y-52064380D02*
X167057533Y-52064380D01*
X166771819Y-53064380D02*
X166771819Y-52064380D01*
X167390866Y-53064380D02*
X167390866Y-52064380D01*
X167771819Y-52064380D01*
X167867057Y-52112000D01*
X167914676Y-52159619D01*
X167962295Y-52254857D01*
X167962295Y-52397714D01*
X167914676Y-52492952D01*
X167867057Y-52540571D01*
X167771819Y-52588190D01*
X167390866Y-52588190D01*
X168343247Y-52159619D02*
X168390866Y-52112000D01*
X168486104Y-52064380D01*
X168724200Y-52064380D01*
X168819438Y-52112000D01*
X168867057Y-52159619D01*
X168914676Y-52254857D01*
X168914676Y-52350095D01*
X168867057Y-52492952D01*
X168295628Y-53064380D01*
X168914676Y-53064380D01*
X169295628Y-52159619D02*
X169343247Y-52112000D01*
X169438485Y-52064380D01*
X169676580Y-52064380D01*
X169771819Y-52112000D01*
X169819438Y-52159619D01*
X169867057Y-52254857D01*
X169867057Y-52350095D01*
X169819438Y-52492952D01*
X169248009Y-53064380D01*
X169867057Y-53064380D01*
X171909004Y-52064380D02*
X172480433Y-52064380D01*
X172194719Y-53064380D02*
X172194719Y-52064380D01*
X172813766Y-53064380D02*
X172813766Y-52064380D01*
X173194719Y-52064380D01*
X173289957Y-52112000D01*
X173337576Y-52159619D01*
X173385195Y-52254857D01*
X173385195Y-52397714D01*
X173337576Y-52492952D01*
X173289957Y-52540571D01*
X173194719Y-52588190D01*
X172813766Y-52588190D01*
X173766147Y-52159619D02*
X173813766Y-52112000D01*
X173909004Y-52064380D01*
X174147100Y-52064380D01*
X174242338Y-52112000D01*
X174289957Y-52159619D01*
X174337576Y-52254857D01*
X174337576Y-52350095D01*
X174289957Y-52492952D01*
X173718528Y-53064380D01*
X174337576Y-53064380D01*
X174956623Y-52064380D02*
X175051861Y-52064380D01*
X175147100Y-52112000D01*
X175194719Y-52159619D01*
X175242338Y-52254857D01*
X175289957Y-52445333D01*
X175289957Y-52683428D01*
X175242338Y-52873904D01*
X175194719Y-52969142D01*
X175147100Y-53016761D01*
X175051861Y-53064380D01*
X174956623Y-53064380D01*
X174861385Y-53016761D01*
X174813766Y-52969142D01*
X174766147Y-52873904D01*
X174718528Y-52683428D01*
X174718528Y-52445333D01*
X174766147Y-52254857D01*
X174813766Y-52159619D01*
X174861385Y-52112000D01*
X174956623Y-52064380D01*
X177331904Y-52064380D02*
X177903333Y-52064380D01*
X177617619Y-53064380D02*
X177617619Y-52064380D01*
X178236666Y-53064380D02*
X178236666Y-52064380D01*
X178617619Y-52064380D01*
X178712857Y-52112000D01*
X178760476Y-52159619D01*
X178808095Y-52254857D01*
X178808095Y-52397714D01*
X178760476Y-52492952D01*
X178712857Y-52540571D01*
X178617619Y-52588190D01*
X178236666Y-52588190D01*
X179760476Y-53064380D02*
X179189047Y-53064380D01*
X179474761Y-53064380D02*
X179474761Y-52064380D01*
X179379523Y-52207238D01*
X179284285Y-52302476D01*
X179189047Y-52350095D01*
X180331904Y-52492952D02*
X180236666Y-52445333D01*
X180189047Y-52397714D01*
X180141428Y-52302476D01*
X180141428Y-52254857D01*
X180189047Y-52159619D01*
X180236666Y-52112000D01*
X180331904Y-52064380D01*
X180522380Y-52064380D01*
X180617619Y-52112000D01*
X180665238Y-52159619D01*
X180712857Y-52254857D01*
X180712857Y-52302476D01*
X180665238Y-52397714D01*
X180617619Y-52445333D01*
X180522380Y-52492952D01*
X180331904Y-52492952D01*
X180236666Y-52540571D01*
X180189047Y-52588190D01*
X180141428Y-52683428D01*
X180141428Y-52873904D01*
X180189047Y-52969142D01*
X180236666Y-53016761D01*
X180331904Y-53064380D01*
X180522380Y-53064380D01*
X180617619Y-53016761D01*
X180665238Y-52969142D01*
X180712857Y-52873904D01*
X180712857Y-52683428D01*
X180665238Y-52588190D01*
X180617619Y-52540571D01*
X180522380Y-52492952D01*
X128525804Y-52064380D02*
X129097233Y-52064380D01*
X128811519Y-53064380D02*
X128811519Y-52064380D01*
X129430566Y-53064380D02*
X129430566Y-52064380D01*
X129811519Y-52064380D01*
X129906757Y-52112000D01*
X129954376Y-52159619D01*
X130001995Y-52254857D01*
X130001995Y-52397714D01*
X129954376Y-52492952D01*
X129906757Y-52540571D01*
X129811519Y-52588190D01*
X129430566Y-52588190D01*
X130954376Y-53064380D02*
X130382947Y-53064380D01*
X130668661Y-53064380D02*
X130668661Y-52064380D01*
X130573423Y-52207238D01*
X130478185Y-52302476D01*
X130382947Y-52350095D01*
X131287709Y-52064380D02*
X131954376Y-52064380D01*
X131525804Y-53064380D01*
X133948704Y-52064380D02*
X134520133Y-52064380D01*
X134234419Y-53064380D02*
X134234419Y-52064380D01*
X134853466Y-53064380D02*
X134853466Y-52064380D01*
X135234419Y-52064380D01*
X135329657Y-52112000D01*
X135377276Y-52159619D01*
X135424895Y-52254857D01*
X135424895Y-52397714D01*
X135377276Y-52492952D01*
X135329657Y-52540571D01*
X135234419Y-52588190D01*
X134853466Y-52588190D01*
X136377276Y-53064380D02*
X135805847Y-53064380D01*
X136091561Y-53064380D02*
X136091561Y-52064380D01*
X135996323Y-52207238D01*
X135901085Y-52302476D01*
X135805847Y-52350095D01*
X137234419Y-52064380D02*
X137043942Y-52064380D01*
X136948704Y-52112000D01*
X136901085Y-52159619D01*
X136805847Y-52302476D01*
X136758228Y-52492952D01*
X136758228Y-52873904D01*
X136805847Y-52969142D01*
X136853466Y-53016761D01*
X136948704Y-53064380D01*
X137139180Y-53064380D01*
X137234419Y-53016761D01*
X137282038Y-52969142D01*
X137329657Y-52873904D01*
X137329657Y-52635809D01*
X137282038Y-52540571D01*
X137234419Y-52492952D01*
X137139180Y-52445333D01*
X136948704Y-52445333D01*
X136853466Y-52492952D01*
X136805847Y-52540571D01*
X136758228Y-52635809D01*
X139371604Y-52064380D02*
X139943033Y-52064380D01*
X139657319Y-53064380D02*
X139657319Y-52064380D01*
X140276366Y-53064380D02*
X140276366Y-52064380D01*
X140657319Y-52064380D01*
X140752557Y-52112000D01*
X140800176Y-52159619D01*
X140847795Y-52254857D01*
X140847795Y-52397714D01*
X140800176Y-52492952D01*
X140752557Y-52540571D01*
X140657319Y-52588190D01*
X140276366Y-52588190D01*
X141800176Y-53064380D02*
X141228747Y-53064380D01*
X141514461Y-53064380D02*
X141514461Y-52064380D01*
X141419223Y-52207238D01*
X141323985Y-52302476D01*
X141228747Y-52350095D01*
X142657319Y-52397714D02*
X142657319Y-53064380D01*
X142419223Y-52016761D02*
X142181128Y-52731047D01*
X142800176Y-52731047D01*
X144794504Y-52064380D02*
X145365933Y-52064380D01*
X145080219Y-53064380D02*
X145080219Y-52064380D01*
X145699266Y-53064380D02*
X145699266Y-52064380D01*
X146080219Y-52064380D01*
X146175457Y-52112000D01*
X146223076Y-52159619D01*
X146270695Y-52254857D01*
X146270695Y-52397714D01*
X146223076Y-52492952D01*
X146175457Y-52540571D01*
X146080219Y-52588190D01*
X145699266Y-52588190D01*
X147223076Y-53064380D02*
X146651647Y-53064380D01*
X146937361Y-53064380D02*
X146937361Y-52064380D01*
X146842123Y-52207238D01*
X146746885Y-52302476D01*
X146651647Y-52350095D01*
X147604028Y-52159619D02*
X147651647Y-52112000D01*
X147746885Y-52064380D01*
X147984980Y-52064380D01*
X148080219Y-52112000D01*
X148127838Y-52159619D01*
X148175457Y-52254857D01*
X148175457Y-52350095D01*
X148127838Y-52492952D01*
X147556409Y-53064380D01*
X148175457Y-53064380D01*
X150217404Y-52064380D02*
X150788833Y-52064380D01*
X150503119Y-53064380D02*
X150503119Y-52064380D01*
X151122166Y-53064380D02*
X151122166Y-52064380D01*
X151503119Y-52064380D01*
X151598357Y-52112000D01*
X151645976Y-52159619D01*
X151693595Y-52254857D01*
X151693595Y-52397714D01*
X151645976Y-52492952D01*
X151598357Y-52540571D01*
X151503119Y-52588190D01*
X151122166Y-52588190D01*
X152645976Y-53064380D02*
X152074547Y-53064380D01*
X152360261Y-53064380D02*
X152360261Y-52064380D01*
X152265023Y-52207238D01*
X152169785Y-52302476D01*
X152074547Y-52350095D01*
X153265023Y-52064380D02*
X153360261Y-52064380D01*
X153455500Y-52112000D01*
X153503119Y-52159619D01*
X153550738Y-52254857D01*
X153598357Y-52445333D01*
X153598357Y-52683428D01*
X153550738Y-52873904D01*
X153503119Y-52969142D01*
X153455500Y-53016761D01*
X153360261Y-53064380D01*
X153265023Y-53064380D01*
X153169785Y-53016761D01*
X153122166Y-52969142D01*
X153074547Y-52873904D01*
X153026928Y-52683428D01*
X153026928Y-52445333D01*
X153074547Y-52254857D01*
X153122166Y-52159619D01*
X153169785Y-52112000D01*
X153265023Y-52064380D01*
X101887495Y-52064380D02*
X102458923Y-52064380D01*
X102173209Y-53064380D02*
X102173209Y-52064380D01*
X102792257Y-53064380D02*
X102792257Y-52064380D01*
X103173209Y-52064380D01*
X103268447Y-52112000D01*
X103316066Y-52159619D01*
X103363685Y-52254857D01*
X103363685Y-52397714D01*
X103316066Y-52492952D01*
X103268447Y-52540571D01*
X103173209Y-52588190D01*
X102792257Y-52588190D01*
X103839876Y-53064380D02*
X104030352Y-53064380D01*
X104125590Y-53016761D01*
X104173209Y-52969142D01*
X104268447Y-52826285D01*
X104316066Y-52635809D01*
X104316066Y-52254857D01*
X104268447Y-52159619D01*
X104220828Y-52112000D01*
X104125590Y-52064380D01*
X103935114Y-52064380D01*
X103839876Y-52112000D01*
X103792257Y-52159619D01*
X103744638Y-52254857D01*
X103744638Y-52492952D01*
X103792257Y-52588190D01*
X103839876Y-52635809D01*
X103935114Y-52683428D01*
X104125590Y-52683428D01*
X104220828Y-52635809D01*
X104268447Y-52588190D01*
X104316066Y-52492952D01*
X107310395Y-52064380D02*
X107881823Y-52064380D01*
X107596109Y-53064380D02*
X107596109Y-52064380D01*
X108215157Y-53064380D02*
X108215157Y-52064380D01*
X108596109Y-52064380D01*
X108691347Y-52112000D01*
X108738966Y-52159619D01*
X108786585Y-52254857D01*
X108786585Y-52397714D01*
X108738966Y-52492952D01*
X108691347Y-52540571D01*
X108596109Y-52588190D01*
X108215157Y-52588190D01*
X109358014Y-52492952D02*
X109262776Y-52445333D01*
X109215157Y-52397714D01*
X109167538Y-52302476D01*
X109167538Y-52254857D01*
X109215157Y-52159619D01*
X109262776Y-52112000D01*
X109358014Y-52064380D01*
X109548490Y-52064380D01*
X109643728Y-52112000D01*
X109691347Y-52159619D01*
X109738966Y-52254857D01*
X109738966Y-52302476D01*
X109691347Y-52397714D01*
X109643728Y-52445333D01*
X109548490Y-52492952D01*
X109358014Y-52492952D01*
X109262776Y-52540571D01*
X109215157Y-52588190D01*
X109167538Y-52683428D01*
X109167538Y-52873904D01*
X109215157Y-52969142D01*
X109262776Y-53016761D01*
X109358014Y-53064380D01*
X109548490Y-53064380D01*
X109643728Y-53016761D01*
X109691347Y-52969142D01*
X109738966Y-52873904D01*
X109738966Y-52683428D01*
X109691347Y-52588190D01*
X109643728Y-52540571D01*
X109548490Y-52492952D01*
X112733295Y-52064380D02*
X113304723Y-52064380D01*
X113019009Y-53064380D02*
X113019009Y-52064380D01*
X113638057Y-53064380D02*
X113638057Y-52064380D01*
X114019009Y-52064380D01*
X114114247Y-52112000D01*
X114161866Y-52159619D01*
X114209485Y-52254857D01*
X114209485Y-52397714D01*
X114161866Y-52492952D01*
X114114247Y-52540571D01*
X114019009Y-52588190D01*
X113638057Y-52588190D01*
X115066628Y-52064380D02*
X114876152Y-52064380D01*
X114780914Y-52112000D01*
X114733295Y-52159619D01*
X114638057Y-52302476D01*
X114590438Y-52492952D01*
X114590438Y-52873904D01*
X114638057Y-52969142D01*
X114685676Y-53016761D01*
X114780914Y-53064380D01*
X114971390Y-53064380D01*
X115066628Y-53016761D01*
X115114247Y-52969142D01*
X115161866Y-52873904D01*
X115161866Y-52635809D01*
X115114247Y-52540571D01*
X115066628Y-52492952D01*
X114971390Y-52445333D01*
X114780914Y-52445333D01*
X114685676Y-52492952D01*
X114638057Y-52540571D01*
X114590438Y-52635809D01*
X118156195Y-52064380D02*
X118727623Y-52064380D01*
X118441909Y-53064380D02*
X118441909Y-52064380D01*
X119060957Y-53064380D02*
X119060957Y-52064380D01*
X119441909Y-52064380D01*
X119537147Y-52112000D01*
X119584766Y-52159619D01*
X119632385Y-52254857D01*
X119632385Y-52397714D01*
X119584766Y-52492952D01*
X119537147Y-52540571D01*
X119441909Y-52588190D01*
X119060957Y-52588190D01*
X120489528Y-52397714D02*
X120489528Y-53064380D01*
X120251433Y-52016761D02*
X120013338Y-52731047D01*
X120632385Y-52731047D01*
X123579095Y-52064380D02*
X124150523Y-52064380D01*
X123864809Y-53064380D02*
X123864809Y-52064380D01*
X124483857Y-53064380D02*
X124483857Y-52064380D01*
X124864809Y-52064380D01*
X124960047Y-52112000D01*
X125007666Y-52159619D01*
X125055285Y-52254857D01*
X125055285Y-52397714D01*
X125007666Y-52492952D01*
X124960047Y-52540571D01*
X124864809Y-52588190D01*
X124483857Y-52588190D01*
X125436238Y-52159619D02*
X125483857Y-52112000D01*
X125579095Y-52064380D01*
X125817190Y-52064380D01*
X125912428Y-52112000D01*
X125960047Y-52159619D01*
X126007666Y-52254857D01*
X126007666Y-52350095D01*
X125960047Y-52492952D01*
X125388619Y-53064380D01*
X126007666Y-53064380D01*
X181864095Y-121297380D02*
X181864095Y-122106904D01*
X181911714Y-122202142D01*
X181959333Y-122249761D01*
X182054571Y-122297380D01*
X182245047Y-122297380D01*
X182340285Y-122249761D01*
X182387904Y-122202142D01*
X182435523Y-122106904D01*
X182435523Y-121297380D01*
X182816476Y-121297380D02*
X183435523Y-121297380D01*
X183102190Y-121678333D01*
X183245047Y-121678333D01*
X183340285Y-121725952D01*
X183387904Y-121773571D01*
X183435523Y-121868809D01*
X183435523Y-122106904D01*
X183387904Y-122202142D01*
X183340285Y-122249761D01*
X183245047Y-122297380D01*
X182959333Y-122297380D01*
X182864095Y-122249761D01*
X182816476Y-122202142D01*
X172593095Y-121372380D02*
X172593095Y-122181904D01*
X172640714Y-122277142D01*
X172688333Y-122324761D01*
X172783571Y-122372380D01*
X172974047Y-122372380D01*
X173069285Y-122324761D01*
X173116904Y-122277142D01*
X173164523Y-122181904D01*
X173164523Y-121372380D01*
X173593095Y-121467619D02*
X173640714Y-121420000D01*
X173735952Y-121372380D01*
X173974047Y-121372380D01*
X174069285Y-121420000D01*
X174116904Y-121467619D01*
X174164523Y-121562857D01*
X174164523Y-121658095D01*
X174116904Y-121800952D01*
X173545476Y-122372380D01*
X174164523Y-122372380D01*
X171522380Y-142882857D02*
X171046190Y-143216190D01*
X171522380Y-143454285D02*
X170522380Y-143454285D01*
X170522380Y-143073333D01*
X170570000Y-142978095D01*
X170617619Y-142930476D01*
X170712857Y-142882857D01*
X170855714Y-142882857D01*
X170950952Y-142930476D01*
X170998571Y-142978095D01*
X171046190Y-143073333D01*
X171046190Y-143454285D01*
X170617619Y-142501904D02*
X170570000Y-142454285D01*
X170522380Y-142359047D01*
X170522380Y-142120952D01*
X170570000Y-142025714D01*
X170617619Y-141978095D01*
X170712857Y-141930476D01*
X170808095Y-141930476D01*
X170950952Y-141978095D01*
X171522380Y-142549523D01*
X171522380Y-141930476D01*
X170950952Y-141359047D02*
X170903333Y-141454285D01*
X170855714Y-141501904D01*
X170760476Y-141549523D01*
X170712857Y-141549523D01*
X170617619Y-141501904D01*
X170570000Y-141454285D01*
X170522380Y-141359047D01*
X170522380Y-141168571D01*
X170570000Y-141073333D01*
X170617619Y-141025714D01*
X170712857Y-140978095D01*
X170760476Y-140978095D01*
X170855714Y-141025714D01*
X170903333Y-141073333D01*
X170950952Y-141168571D01*
X170950952Y-141359047D01*
X170998571Y-141454285D01*
X171046190Y-141501904D01*
X171141428Y-141549523D01*
X171331904Y-141549523D01*
X171427142Y-141501904D01*
X171474761Y-141454285D01*
X171522380Y-141359047D01*
X171522380Y-141168571D01*
X171474761Y-141073333D01*
X171427142Y-141025714D01*
X171331904Y-140978095D01*
X171141428Y-140978095D01*
X171046190Y-141025714D01*
X170998571Y-141073333D01*
X170950952Y-141168571D01*
X176982380Y-142882857D02*
X176506190Y-143216190D01*
X176982380Y-143454285D02*
X175982380Y-143454285D01*
X175982380Y-143073333D01*
X176030000Y-142978095D01*
X176077619Y-142930476D01*
X176172857Y-142882857D01*
X176315714Y-142882857D01*
X176410952Y-142930476D01*
X176458571Y-142978095D01*
X176506190Y-143073333D01*
X176506190Y-143454285D01*
X176077619Y-142501904D02*
X176030000Y-142454285D01*
X175982380Y-142359047D01*
X175982380Y-142120952D01*
X176030000Y-142025714D01*
X176077619Y-141978095D01*
X176172857Y-141930476D01*
X176268095Y-141930476D01*
X176410952Y-141978095D01*
X176982380Y-142549523D01*
X176982380Y-141930476D01*
X175982380Y-141597142D02*
X175982380Y-140930476D01*
X176982380Y-141359047D01*
X149932380Y-120990357D02*
X149456190Y-121323690D01*
X149932380Y-121561785D02*
X148932380Y-121561785D01*
X148932380Y-121180833D01*
X148980000Y-121085595D01*
X149027619Y-121037976D01*
X149122857Y-120990357D01*
X149265714Y-120990357D01*
X149360952Y-121037976D01*
X149408571Y-121085595D01*
X149456190Y-121180833D01*
X149456190Y-121561785D01*
X149027619Y-120609404D02*
X148980000Y-120561785D01*
X148932380Y-120466547D01*
X148932380Y-120228452D01*
X148980000Y-120133214D01*
X149027619Y-120085595D01*
X149122857Y-120037976D01*
X149218095Y-120037976D01*
X149360952Y-120085595D01*
X149932380Y-120657023D01*
X149932380Y-120037976D01*
X148932380Y-119180833D02*
X148932380Y-119371309D01*
X148980000Y-119466547D01*
X149027619Y-119514166D01*
X149170476Y-119609404D01*
X149360952Y-119657023D01*
X149741904Y-119657023D01*
X149837142Y-119609404D01*
X149884761Y-119561785D01*
X149932380Y-119466547D01*
X149932380Y-119276071D01*
X149884761Y-119180833D01*
X149837142Y-119133214D01*
X149741904Y-119085595D01*
X149503809Y-119085595D01*
X149408571Y-119133214D01*
X149360952Y-119180833D01*
X149313333Y-119276071D01*
X149313333Y-119466547D01*
X149360952Y-119561785D01*
X149408571Y-119609404D01*
X149503809Y-119657023D01*
X126992142Y-124912380D02*
X126658809Y-124436190D01*
X126420714Y-124912380D02*
X126420714Y-123912380D01*
X126801666Y-123912380D01*
X126896904Y-123960000D01*
X126944523Y-124007619D01*
X126992142Y-124102857D01*
X126992142Y-124245714D01*
X126944523Y-124340952D01*
X126896904Y-124388571D01*
X126801666Y-124436190D01*
X126420714Y-124436190D01*
X127373095Y-124007619D02*
X127420714Y-123960000D01*
X127515952Y-123912380D01*
X127754047Y-123912380D01*
X127849285Y-123960000D01*
X127896904Y-124007619D01*
X127944523Y-124102857D01*
X127944523Y-124198095D01*
X127896904Y-124340952D01*
X127325476Y-124912380D01*
X127944523Y-124912380D01*
X128277857Y-123912380D02*
X128896904Y-123912380D01*
X128563571Y-124293333D01*
X128706428Y-124293333D01*
X128801666Y-124340952D01*
X128849285Y-124388571D01*
X128896904Y-124483809D01*
X128896904Y-124721904D01*
X128849285Y-124817142D01*
X128801666Y-124864761D01*
X128706428Y-124912380D01*
X128420714Y-124912380D01*
X128325476Y-124864761D01*
X128277857Y-124817142D01*
X126992142Y-123007380D02*
X126658809Y-122531190D01*
X126420714Y-123007380D02*
X126420714Y-122007380D01*
X126801666Y-122007380D01*
X126896904Y-122055000D01*
X126944523Y-122102619D01*
X126992142Y-122197857D01*
X126992142Y-122340714D01*
X126944523Y-122435952D01*
X126896904Y-122483571D01*
X126801666Y-122531190D01*
X126420714Y-122531190D01*
X127373095Y-122102619D02*
X127420714Y-122055000D01*
X127515952Y-122007380D01*
X127754047Y-122007380D01*
X127849285Y-122055000D01*
X127896904Y-122102619D01*
X127944523Y-122197857D01*
X127944523Y-122293095D01*
X127896904Y-122435952D01*
X127325476Y-123007380D01*
X127944523Y-123007380D01*
X128325476Y-122102619D02*
X128373095Y-122055000D01*
X128468333Y-122007380D01*
X128706428Y-122007380D01*
X128801666Y-122055000D01*
X128849285Y-122102619D01*
X128896904Y-122197857D01*
X128896904Y-122293095D01*
X128849285Y-122435952D01*
X128277857Y-123007380D01*
X128896904Y-123007380D01*
X126992142Y-126817380D02*
X126658809Y-126341190D01*
X126420714Y-126817380D02*
X126420714Y-125817380D01*
X126801666Y-125817380D01*
X126896904Y-125865000D01*
X126944523Y-125912619D01*
X126992142Y-126007857D01*
X126992142Y-126150714D01*
X126944523Y-126245952D01*
X126896904Y-126293571D01*
X126801666Y-126341190D01*
X126420714Y-126341190D01*
X127373095Y-125912619D02*
X127420714Y-125865000D01*
X127515952Y-125817380D01*
X127754047Y-125817380D01*
X127849285Y-125865000D01*
X127896904Y-125912619D01*
X127944523Y-126007857D01*
X127944523Y-126103095D01*
X127896904Y-126245952D01*
X127325476Y-126817380D01*
X127944523Y-126817380D01*
X128896904Y-126817380D02*
X128325476Y-126817380D01*
X128611190Y-126817380D02*
X128611190Y-125817380D01*
X128515952Y-125960238D01*
X128420714Y-126055476D01*
X128325476Y-126103095D01*
X126992142Y-121102380D02*
X126658809Y-120626190D01*
X126420714Y-121102380D02*
X126420714Y-120102380D01*
X126801666Y-120102380D01*
X126896904Y-120150000D01*
X126944523Y-120197619D01*
X126992142Y-120292857D01*
X126992142Y-120435714D01*
X126944523Y-120530952D01*
X126896904Y-120578571D01*
X126801666Y-120626190D01*
X126420714Y-120626190D01*
X127373095Y-120197619D02*
X127420714Y-120150000D01*
X127515952Y-120102380D01*
X127754047Y-120102380D01*
X127849285Y-120150000D01*
X127896904Y-120197619D01*
X127944523Y-120292857D01*
X127944523Y-120388095D01*
X127896904Y-120530952D01*
X127325476Y-121102380D01*
X127944523Y-121102380D01*
X128563571Y-120102380D02*
X128658809Y-120102380D01*
X128754047Y-120150000D01*
X128801666Y-120197619D01*
X128849285Y-120292857D01*
X128896904Y-120483333D01*
X128896904Y-120721428D01*
X128849285Y-120911904D01*
X128801666Y-121007142D01*
X128754047Y-121054761D01*
X128658809Y-121102380D01*
X128563571Y-121102380D01*
X128468333Y-121054761D01*
X128420714Y-121007142D01*
X128373095Y-120911904D01*
X128325476Y-120721428D01*
X128325476Y-120483333D01*
X128373095Y-120292857D01*
X128420714Y-120197619D01*
X128468333Y-120150000D01*
X128563571Y-120102380D01*
X137152142Y-135327380D02*
X136818809Y-134851190D01*
X136580714Y-135327380D02*
X136580714Y-134327380D01*
X136961666Y-134327380D01*
X137056904Y-134375000D01*
X137104523Y-134422619D01*
X137152142Y-134517857D01*
X137152142Y-134660714D01*
X137104523Y-134755952D01*
X137056904Y-134803571D01*
X136961666Y-134851190D01*
X136580714Y-134851190D01*
X138104523Y-135327380D02*
X137533095Y-135327380D01*
X137818809Y-135327380D02*
X137818809Y-134327380D01*
X137723571Y-134470238D01*
X137628333Y-134565476D01*
X137533095Y-134613095D01*
X138580714Y-135327380D02*
X138771190Y-135327380D01*
X138866428Y-135279761D01*
X138914047Y-135232142D01*
X139009285Y-135089285D01*
X139056904Y-134898809D01*
X139056904Y-134517857D01*
X139009285Y-134422619D01*
X138961666Y-134375000D01*
X138866428Y-134327380D01*
X138675952Y-134327380D01*
X138580714Y-134375000D01*
X138533095Y-134422619D01*
X138485476Y-134517857D01*
X138485476Y-134755952D01*
X138533095Y-134851190D01*
X138580714Y-134898809D01*
X138675952Y-134946428D01*
X138866428Y-134946428D01*
X138961666Y-134898809D01*
X139009285Y-134851190D01*
X139056904Y-134755952D01*
X98417142Y-141167380D02*
X98083809Y-140691190D01*
X97845714Y-141167380D02*
X97845714Y-140167380D01*
X98226666Y-140167380D01*
X98321904Y-140215000D01*
X98369523Y-140262619D01*
X98417142Y-140357857D01*
X98417142Y-140500714D01*
X98369523Y-140595952D01*
X98321904Y-140643571D01*
X98226666Y-140691190D01*
X97845714Y-140691190D01*
X99369523Y-141167380D02*
X98798095Y-141167380D01*
X99083809Y-141167380D02*
X99083809Y-140167380D01*
X98988571Y-140310238D01*
X98893333Y-140405476D01*
X98798095Y-140453095D01*
X100321904Y-141167380D02*
X99750476Y-141167380D01*
X100036190Y-141167380D02*
X100036190Y-140167380D01*
X99940952Y-140310238D01*
X99845714Y-140405476D01*
X99750476Y-140453095D01*
X105227380Y-136649657D02*
X104751190Y-136982990D01*
X105227380Y-137221085D02*
X104227380Y-137221085D01*
X104227380Y-136840133D01*
X104275000Y-136744895D01*
X104322619Y-136697276D01*
X104417857Y-136649657D01*
X104560714Y-136649657D01*
X104655952Y-136697276D01*
X104703571Y-136744895D01*
X104751190Y-136840133D01*
X104751190Y-137221085D01*
X105227380Y-135697276D02*
X105227380Y-136268704D01*
X105227380Y-135982990D02*
X104227380Y-135982990D01*
X104370238Y-136078228D01*
X104465476Y-136173466D01*
X104513095Y-136268704D01*
X104227380Y-135078228D02*
X104227380Y-134982990D01*
X104275000Y-134887752D01*
X104322619Y-134840133D01*
X104417857Y-134792514D01*
X104608333Y-134744895D01*
X104846428Y-134744895D01*
X105036904Y-134792514D01*
X105132142Y-134840133D01*
X105179761Y-134887752D01*
X105227380Y-134982990D01*
X105227380Y-135078228D01*
X105179761Y-135173466D01*
X105132142Y-135221085D01*
X105036904Y-135268704D01*
X104846428Y-135316323D01*
X104608333Y-135316323D01*
X104417857Y-135268704D01*
X104322619Y-135221085D01*
X104275000Y-135173466D01*
X104227380Y-135078228D01*
D15*
X93859047Y-138490476D02*
X93738095Y-138430000D01*
X93617142Y-138309047D01*
X93435714Y-138127619D01*
X93314761Y-138067142D01*
X93193809Y-138067142D01*
X93254285Y-138369523D02*
X93133333Y-138309047D01*
X93012380Y-138188095D01*
X92951904Y-137946190D01*
X92951904Y-137522857D01*
X93012380Y-137280952D01*
X93133333Y-137160000D01*
X93254285Y-137099523D01*
X93496190Y-137099523D01*
X93617142Y-137160000D01*
X93738095Y-137280952D01*
X93798571Y-137522857D01*
X93798571Y-137946190D01*
X93738095Y-138188095D01*
X93617142Y-138309047D01*
X93496190Y-138369523D01*
X93254285Y-138369523D01*
X94524285Y-137643809D02*
X94403333Y-137583333D01*
X94342857Y-137522857D01*
X94282380Y-137401904D01*
X94282380Y-137341428D01*
X94342857Y-137220476D01*
X94403333Y-137160000D01*
X94524285Y-137099523D01*
X94766190Y-137099523D01*
X94887142Y-137160000D01*
X94947619Y-137220476D01*
X95008095Y-137341428D01*
X95008095Y-137401904D01*
X94947619Y-137522857D01*
X94887142Y-137583333D01*
X94766190Y-137643809D01*
X94524285Y-137643809D01*
X94403333Y-137704285D01*
X94342857Y-137764761D01*
X94282380Y-137885714D01*
X94282380Y-138127619D01*
X94342857Y-138248571D01*
X94403333Y-138309047D01*
X94524285Y-138369523D01*
X94766190Y-138369523D01*
X94887142Y-138309047D01*
X94947619Y-138248571D01*
X95008095Y-138127619D01*
X95008095Y-137885714D01*
X94947619Y-137764761D01*
X94887142Y-137704285D01*
X94766190Y-137643809D01*
X101479047Y-134680476D02*
X101358095Y-134620000D01*
X101237142Y-134499047D01*
X101055714Y-134317619D01*
X100934761Y-134257142D01*
X100813809Y-134257142D01*
X100874285Y-134559523D02*
X100753333Y-134499047D01*
X100632380Y-134378095D01*
X100571904Y-134136190D01*
X100571904Y-133712857D01*
X100632380Y-133470952D01*
X100753333Y-133350000D01*
X100874285Y-133289523D01*
X101116190Y-133289523D01*
X101237142Y-133350000D01*
X101358095Y-133470952D01*
X101418571Y-133712857D01*
X101418571Y-134136190D01*
X101358095Y-134378095D01*
X101237142Y-134499047D01*
X101116190Y-134559523D01*
X100874285Y-134559523D01*
X101841904Y-133289523D02*
X102688571Y-133289523D01*
X102144285Y-134559523D01*
D16*
X104711666Y-138410380D02*
X104711666Y-139124666D01*
X104664047Y-139267523D01*
X104568809Y-139362761D01*
X104425952Y-139410380D01*
X104330714Y-139410380D01*
X105664047Y-138410380D02*
X105187857Y-138410380D01*
X105140238Y-138886571D01*
X105187857Y-138838952D01*
X105283095Y-138791333D01*
X105521190Y-138791333D01*
X105616428Y-138838952D01*
X105664047Y-138886571D01*
X105711666Y-138981809D01*
X105711666Y-139219904D01*
X105664047Y-139315142D01*
X105616428Y-139362761D01*
X105521190Y-139410380D01*
X105283095Y-139410380D01*
X105187857Y-139362761D01*
X105140238Y-139315142D01*
D17*
X167964642Y-149962142D02*
X167917023Y-150009761D01*
X167774166Y-150057380D01*
X167678928Y-150057380D01*
X167536071Y-150009761D01*
X167440833Y-149914523D01*
X167393214Y-149819285D01*
X167345595Y-149628809D01*
X167345595Y-149485952D01*
X167393214Y-149295476D01*
X167440833Y-149200238D01*
X167536071Y-149105000D01*
X167678928Y-149057380D01*
X167774166Y-149057380D01*
X167917023Y-149105000D01*
X167964642Y-149152619D01*
X168345595Y-149152619D02*
X168393214Y-149105000D01*
X168488452Y-149057380D01*
X168726547Y-149057380D01*
X168821785Y-149105000D01*
X168869404Y-149152619D01*
X168917023Y-149247857D01*
X168917023Y-149343095D01*
X168869404Y-149485952D01*
X168297976Y-150057380D01*
X168917023Y-150057380D01*
X169774166Y-149057380D02*
X169583690Y-149057380D01*
X169488452Y-149105000D01*
X169440833Y-149152619D01*
X169345595Y-149295476D01*
X169297976Y-149485952D01*
X169297976Y-149866904D01*
X169345595Y-149962142D01*
X169393214Y-150009761D01*
X169488452Y-150057380D01*
X169678928Y-150057380D01*
X169774166Y-150009761D01*
X169821785Y-149962142D01*
X169869404Y-149866904D01*
X169869404Y-149628809D01*
X169821785Y-149533571D01*
X169774166Y-149485952D01*
X169678928Y-149438333D01*
X169488452Y-149438333D01*
X169393214Y-149485952D01*
X169345595Y-149533571D01*
X169297976Y-149628809D01*
X173457142Y-147962857D02*
X173504761Y-148010476D01*
X173552380Y-148153333D01*
X173552380Y-148248571D01*
X173504761Y-148391428D01*
X173409523Y-148486666D01*
X173314285Y-148534285D01*
X173123809Y-148581904D01*
X172980952Y-148581904D01*
X172790476Y-148534285D01*
X172695238Y-148486666D01*
X172600000Y-148391428D01*
X172552380Y-148248571D01*
X172552380Y-148153333D01*
X172600000Y-148010476D01*
X172647619Y-147962857D01*
X172647619Y-147581904D02*
X172600000Y-147534285D01*
X172552380Y-147439047D01*
X172552380Y-147200952D01*
X172600000Y-147105714D01*
X172647619Y-147058095D01*
X172742857Y-147010476D01*
X172838095Y-147010476D01*
X172980952Y-147058095D01*
X173552380Y-147629523D01*
X173552380Y-147010476D01*
X172552380Y-146105714D02*
X172552380Y-146581904D01*
X173028571Y-146629523D01*
X172980952Y-146581904D01*
X172933333Y-146486666D01*
X172933333Y-146248571D01*
X172980952Y-146153333D01*
X173028571Y-146105714D01*
X173123809Y-146058095D01*
X173361904Y-146058095D01*
X173457142Y-146105714D01*
X173504761Y-146153333D01*
X173552380Y-146248571D01*
X173552380Y-146486666D01*
X173504761Y-146581904D01*
X173457142Y-146629523D01*
X130802142Y-116182142D02*
X130754523Y-116229761D01*
X130611666Y-116277380D01*
X130516428Y-116277380D01*
X130373571Y-116229761D01*
X130278333Y-116134523D01*
X130230714Y-116039285D01*
X130183095Y-115848809D01*
X130183095Y-115705952D01*
X130230714Y-115515476D01*
X130278333Y-115420238D01*
X130373571Y-115325000D01*
X130516428Y-115277380D01*
X130611666Y-115277380D01*
X130754523Y-115325000D01*
X130802142Y-115372619D01*
X131183095Y-115372619D02*
X131230714Y-115325000D01*
X131325952Y-115277380D01*
X131564047Y-115277380D01*
X131659285Y-115325000D01*
X131706904Y-115372619D01*
X131754523Y-115467857D01*
X131754523Y-115563095D01*
X131706904Y-115705952D01*
X131135476Y-116277380D01*
X131754523Y-116277380D01*
X132611666Y-115610714D02*
X132611666Y-116277380D01*
X132373571Y-115229761D02*
X132135476Y-115944047D01*
X132754523Y-115944047D01*
X130802142Y-117832142D02*
X130754523Y-117879761D01*
X130611666Y-117927380D01*
X130516428Y-117927380D01*
X130373571Y-117879761D01*
X130278333Y-117784523D01*
X130230714Y-117689285D01*
X130183095Y-117498809D01*
X130183095Y-117355952D01*
X130230714Y-117165476D01*
X130278333Y-117070238D01*
X130373571Y-116975000D01*
X130516428Y-116927380D01*
X130611666Y-116927380D01*
X130754523Y-116975000D01*
X130802142Y-117022619D01*
X131183095Y-117022619D02*
X131230714Y-116975000D01*
X131325952Y-116927380D01*
X131564047Y-116927380D01*
X131659285Y-116975000D01*
X131706904Y-117022619D01*
X131754523Y-117117857D01*
X131754523Y-117213095D01*
X131706904Y-117355952D01*
X131135476Y-117927380D01*
X131754523Y-117927380D01*
X132087857Y-116927380D02*
X132706904Y-116927380D01*
X132373571Y-117308333D01*
X132516428Y-117308333D01*
X132611666Y-117355952D01*
X132659285Y-117403571D01*
X132706904Y-117498809D01*
X132706904Y-117736904D01*
X132659285Y-117832142D01*
X132611666Y-117879761D01*
X132516428Y-117927380D01*
X132230714Y-117927380D01*
X132135476Y-117879761D01*
X132087857Y-117832142D01*
X144882142Y-141612857D02*
X144929761Y-141660476D01*
X144977380Y-141803333D01*
X144977380Y-141898571D01*
X144929761Y-142041428D01*
X144834523Y-142136666D01*
X144739285Y-142184285D01*
X144548809Y-142231904D01*
X144405952Y-142231904D01*
X144215476Y-142184285D01*
X144120238Y-142136666D01*
X144025000Y-142041428D01*
X143977380Y-141898571D01*
X143977380Y-141803333D01*
X144025000Y-141660476D01*
X144072619Y-141612857D01*
X144072619Y-141231904D02*
X144025000Y-141184285D01*
X143977380Y-141089047D01*
X143977380Y-140850952D01*
X144025000Y-140755714D01*
X144072619Y-140708095D01*
X144167857Y-140660476D01*
X144263095Y-140660476D01*
X144405952Y-140708095D01*
X144977380Y-141279523D01*
X144977380Y-140660476D01*
X144072619Y-140279523D02*
X144025000Y-140231904D01*
X143977380Y-140136666D01*
X143977380Y-139898571D01*
X144025000Y-139803333D01*
X144072619Y-139755714D01*
X144167857Y-139708095D01*
X144263095Y-139708095D01*
X144405952Y-139755714D01*
X144977380Y-140327142D01*
X144977380Y-139708095D01*
X137137142Y-128912857D02*
X137184761Y-128960476D01*
X137232380Y-129103333D01*
X137232380Y-129198571D01*
X137184761Y-129341428D01*
X137089523Y-129436666D01*
X136994285Y-129484285D01*
X136803809Y-129531904D01*
X136660952Y-129531904D01*
X136470476Y-129484285D01*
X136375238Y-129436666D01*
X136280000Y-129341428D01*
X136232380Y-129198571D01*
X136232380Y-129103333D01*
X136280000Y-128960476D01*
X136327619Y-128912857D01*
X137232380Y-127960476D02*
X137232380Y-128531904D01*
X137232380Y-128246190D02*
X136232380Y-128246190D01*
X136375238Y-128341428D01*
X136470476Y-128436666D01*
X136518095Y-128531904D01*
X136232380Y-127055714D02*
X136232380Y-127531904D01*
X136708571Y-127579523D01*
X136660952Y-127531904D01*
X136613333Y-127436666D01*
X136613333Y-127198571D01*
X136660952Y-127103333D01*
X136708571Y-127055714D01*
X136803809Y-127008095D01*
X137041904Y-127008095D01*
X137137142Y-127055714D01*
X137184761Y-127103333D01*
X137232380Y-127198571D01*
X137232380Y-127436666D01*
X137184761Y-127531904D01*
X137137142Y-127579523D01*
X138787142Y-118117857D02*
X138834761Y-118165476D01*
X138882380Y-118308333D01*
X138882380Y-118403571D01*
X138834761Y-118546428D01*
X138739523Y-118641666D01*
X138644285Y-118689285D01*
X138453809Y-118736904D01*
X138310952Y-118736904D01*
X138120476Y-118689285D01*
X138025238Y-118641666D01*
X137930000Y-118546428D01*
X137882380Y-118403571D01*
X137882380Y-118308333D01*
X137930000Y-118165476D01*
X137977619Y-118117857D01*
X138882380Y-117165476D02*
X138882380Y-117736904D01*
X138882380Y-117451190D02*
X137882380Y-117451190D01*
X138025238Y-117546428D01*
X138120476Y-117641666D01*
X138168095Y-117736904D01*
X138215714Y-116308333D02*
X138882380Y-116308333D01*
X137834761Y-116546428D02*
X138549047Y-116784523D01*
X138549047Y-116165476D01*
X144757142Y-128912857D02*
X144804761Y-128960476D01*
X144852380Y-129103333D01*
X144852380Y-129198571D01*
X144804761Y-129341428D01*
X144709523Y-129436666D01*
X144614285Y-129484285D01*
X144423809Y-129531904D01*
X144280952Y-129531904D01*
X144090476Y-129484285D01*
X143995238Y-129436666D01*
X143900000Y-129341428D01*
X143852380Y-129198571D01*
X143852380Y-129103333D01*
X143900000Y-128960476D01*
X143947619Y-128912857D01*
X144852380Y-127960476D02*
X144852380Y-128531904D01*
X144852380Y-128246190D02*
X143852380Y-128246190D01*
X143995238Y-128341428D01*
X144090476Y-128436666D01*
X144138095Y-128531904D01*
X143852380Y-127627142D02*
X143852380Y-127008095D01*
X144233333Y-127341428D01*
X144233333Y-127198571D01*
X144280952Y-127103333D01*
X144328571Y-127055714D01*
X144423809Y-127008095D01*
X144661904Y-127008095D01*
X144757142Y-127055714D01*
X144804761Y-127103333D01*
X144852380Y-127198571D01*
X144852380Y-127484285D01*
X144804761Y-127579523D01*
X144757142Y-127627142D01*
X145407142Y-119102142D02*
X145359523Y-119149761D01*
X145216666Y-119197380D01*
X145121428Y-119197380D01*
X144978571Y-119149761D01*
X144883333Y-119054523D01*
X144835714Y-118959285D01*
X144788095Y-118768809D01*
X144788095Y-118625952D01*
X144835714Y-118435476D01*
X144883333Y-118340238D01*
X144978571Y-118245000D01*
X145121428Y-118197380D01*
X145216666Y-118197380D01*
X145359523Y-118245000D01*
X145407142Y-118292619D01*
X146359523Y-119197380D02*
X145788095Y-119197380D01*
X146073809Y-119197380D02*
X146073809Y-118197380D01*
X145978571Y-118340238D01*
X145883333Y-118435476D01*
X145788095Y-118483095D01*
X146740476Y-118292619D02*
X146788095Y-118245000D01*
X146883333Y-118197380D01*
X147121428Y-118197380D01*
X147216666Y-118245000D01*
X147264285Y-118292619D01*
X147311904Y-118387857D01*
X147311904Y-118483095D01*
X147264285Y-118625952D01*
X146692857Y-119197380D01*
X147311904Y-119197380D01*
X143614142Y-125102857D02*
X143661761Y-125150476D01*
X143709380Y-125293333D01*
X143709380Y-125388571D01*
X143661761Y-125531428D01*
X143566523Y-125626666D01*
X143471285Y-125674285D01*
X143280809Y-125721904D01*
X143137952Y-125721904D01*
X142947476Y-125674285D01*
X142852238Y-125626666D01*
X142757000Y-125531428D01*
X142709380Y-125388571D01*
X142709380Y-125293333D01*
X142757000Y-125150476D01*
X142804619Y-125102857D01*
X143709380Y-124150476D02*
X143709380Y-124721904D01*
X143709380Y-124436190D02*
X142709380Y-124436190D01*
X142852238Y-124531428D01*
X142947476Y-124626666D01*
X142995095Y-124721904D01*
X143709380Y-123198095D02*
X143709380Y-123769523D01*
X143709380Y-123483809D02*
X142709380Y-123483809D01*
X142852238Y-123579047D01*
X142947476Y-123674285D01*
X142995095Y-123769523D01*
X140962142Y-129897142D02*
X140914523Y-129944761D01*
X140771666Y-129992380D01*
X140676428Y-129992380D01*
X140533571Y-129944761D01*
X140438333Y-129849523D01*
X140390714Y-129754285D01*
X140343095Y-129563809D01*
X140343095Y-129420952D01*
X140390714Y-129230476D01*
X140438333Y-129135238D01*
X140533571Y-129040000D01*
X140676428Y-128992380D01*
X140771666Y-128992380D01*
X140914523Y-129040000D01*
X140962142Y-129087619D01*
X141914523Y-129992380D02*
X141343095Y-129992380D01*
X141628809Y-129992380D02*
X141628809Y-128992380D01*
X141533571Y-129135238D01*
X141438333Y-129230476D01*
X141343095Y-129278095D01*
X142533571Y-128992380D02*
X142628809Y-128992380D01*
X142724047Y-129040000D01*
X142771666Y-129087619D01*
X142819285Y-129182857D01*
X142866904Y-129373333D01*
X142866904Y-129611428D01*
X142819285Y-129801904D01*
X142771666Y-129897142D01*
X142724047Y-129944761D01*
X142628809Y-129992380D01*
X142533571Y-129992380D01*
X142438333Y-129944761D01*
X142390714Y-129897142D01*
X142343095Y-129801904D01*
X142295476Y-129611428D01*
X142295476Y-129373333D01*
X142343095Y-129182857D01*
X142390714Y-129087619D01*
X142438333Y-129040000D01*
X142533571Y-128992380D01*
X138280142Y-124626666D02*
X138327761Y-124674285D01*
X138375380Y-124817142D01*
X138375380Y-124912380D01*
X138327761Y-125055238D01*
X138232523Y-125150476D01*
X138137285Y-125198095D01*
X137946809Y-125245714D01*
X137803952Y-125245714D01*
X137613476Y-125198095D01*
X137518238Y-125150476D01*
X137423000Y-125055238D01*
X137375380Y-124912380D01*
X137375380Y-124817142D01*
X137423000Y-124674285D01*
X137470619Y-124626666D01*
X138375380Y-124150476D02*
X138375380Y-123960000D01*
X138327761Y-123864761D01*
X138280142Y-123817142D01*
X138137285Y-123721904D01*
X137946809Y-123674285D01*
X137565857Y-123674285D01*
X137470619Y-123721904D01*
X137423000Y-123769523D01*
X137375380Y-123864761D01*
X137375380Y-124055238D01*
X137423000Y-124150476D01*
X137470619Y-124198095D01*
X137565857Y-124245714D01*
X137803952Y-124245714D01*
X137899190Y-124198095D01*
X137946809Y-124150476D01*
X137994428Y-124055238D01*
X137994428Y-123864761D01*
X137946809Y-123769523D01*
X137899190Y-123721904D01*
X137803952Y-123674285D01*
X142977142Y-120816666D02*
X143024761Y-120864285D01*
X143072380Y-121007142D01*
X143072380Y-121102380D01*
X143024761Y-121245238D01*
X142929523Y-121340476D01*
X142834285Y-121388095D01*
X142643809Y-121435714D01*
X142500952Y-121435714D01*
X142310476Y-121388095D01*
X142215238Y-121340476D01*
X142120000Y-121245238D01*
X142072380Y-121102380D01*
X142072380Y-121007142D01*
X142120000Y-120864285D01*
X142167619Y-120816666D01*
X142500952Y-120245238D02*
X142453333Y-120340476D01*
X142405714Y-120388095D01*
X142310476Y-120435714D01*
X142262857Y-120435714D01*
X142167619Y-120388095D01*
X142120000Y-120340476D01*
X142072380Y-120245238D01*
X142072380Y-120054761D01*
X142120000Y-119959523D01*
X142167619Y-119911904D01*
X142262857Y-119864285D01*
X142310476Y-119864285D01*
X142405714Y-119911904D01*
X142453333Y-119959523D01*
X142500952Y-120054761D01*
X142500952Y-120245238D01*
X142548571Y-120340476D01*
X142596190Y-120388095D01*
X142691428Y-120435714D01*
X142881904Y-120435714D01*
X142977142Y-120388095D01*
X143024761Y-120340476D01*
X143072380Y-120245238D01*
X143072380Y-120054761D01*
X143024761Y-119959523D01*
X142977142Y-119911904D01*
X142881904Y-119864285D01*
X142691428Y-119864285D01*
X142596190Y-119911904D01*
X142548571Y-119959523D01*
X142500952Y-120054761D01*
D15*
X167035857Y-141816666D02*
X167640619Y-141816666D01*
X166914904Y-142179523D02*
X167338238Y-140909523D01*
X167761571Y-142179523D01*
X168910619Y-142058571D02*
X168850142Y-142119047D01*
X168668714Y-142179523D01*
X168547761Y-142179523D01*
X168366333Y-142119047D01*
X168245380Y-141998095D01*
X168184904Y-141877142D01*
X168124428Y-141635238D01*
X168124428Y-141453809D01*
X168184904Y-141211904D01*
X168245380Y-141090952D01*
X168366333Y-140970000D01*
X168547761Y-140909523D01*
X168668714Y-140909523D01*
X168850142Y-140970000D01*
X168910619Y-141030476D01*
X170120142Y-142179523D02*
X169394428Y-142179523D01*
X169757285Y-142179523D02*
X169757285Y-140909523D01*
X169636333Y-141090952D01*
X169515380Y-141211904D01*
X169394428Y-141272380D01*
M02*
