G04 #@! TF.GenerationSoftware,KiCad,Pcbnew,5.1.5+dfsg1-2build2*
G04 #@! TF.CreationDate,2020-05-18T23:31:36+02:00*
G04 #@! TF.ProjectId,proto2,70726f74-6f32-42e6-9b69-6361645f7063,rev?*
G04 #@! TF.SameCoordinates,Original*
G04 #@! TF.FileFunction,Paste,Bot*
G04 #@! TF.FilePolarity,Positive*
%FSLAX46Y46*%
G04 Gerber Fmt 4.6, Leading zero omitted, Abs format (unit mm)*
G04 Created by KiCad (PCBNEW 5.1.5+dfsg1-2build2) date 2020-05-18 23:31:36*
%MOMM*%
%LPD*%
G04 APERTURE LIST*
%ADD10C,0.010000*%
%ADD11R,1.475000X0.300000*%
%ADD12R,0.300000X1.475000*%
%ADD13R,1.050000X0.350000*%
%ADD14R,0.350000X1.050000*%
%ADD15R,0.508000X1.219200*%
%ADD16C,0.100000*%
%ADD17R,1.000000X3.000000*%
%ADD18R,0.600000X1.300000*%
%ADD19R,1.300000X0.600000*%
%ADD20R,0.730000X1.210000*%
G04 APERTURE END LIST*
D10*
G36*
X114685000Y-108700799D02*
G01*
X114685000Y-107310000D01*
X113294201Y-107310000D01*
X113294201Y-108700799D01*
X114685000Y-108700799D01*
G37*
X114685000Y-108700799D02*
X114685000Y-107310000D01*
X113294201Y-107310000D01*
X113294201Y-108700799D01*
X114685000Y-108700799D01*
G36*
X156925000Y-83625000D02*
G01*
X156925000Y-82365000D01*
X155405000Y-82365000D01*
X155405000Y-83625000D01*
X156925000Y-83625000D01*
G37*
X156925000Y-83625000D02*
X156925000Y-82365000D01*
X155405000Y-82365000D01*
X155405000Y-83625000D01*
X156925000Y-83625000D01*
G36*
X156925000Y-85445000D02*
G01*
X156925000Y-84185000D01*
X155405000Y-84185000D01*
X155405000Y-85445000D01*
X156925000Y-85445000D01*
G37*
X156925000Y-85445000D02*
X156925000Y-84185000D01*
X155405000Y-84185000D01*
X155405000Y-85445000D01*
X156925000Y-85445000D01*
G36*
X156925000Y-87265000D02*
G01*
X156925000Y-86005000D01*
X155405000Y-86005000D01*
X155405000Y-87265000D01*
X156925000Y-87265000D01*
G37*
X156925000Y-87265000D02*
X156925000Y-86005000D01*
X155405000Y-86005000D01*
X155405000Y-87265000D01*
X156925000Y-87265000D01*
G36*
X156925000Y-89085000D02*
G01*
X156925000Y-87825000D01*
X155405000Y-87825000D01*
X155405000Y-89085000D01*
X156925000Y-89085000D01*
G37*
X156925000Y-89085000D02*
X156925000Y-87825000D01*
X155405000Y-87825000D01*
X155405000Y-89085000D01*
X156925000Y-89085000D01*
G36*
X159555000Y-89085000D02*
G01*
X159555000Y-87825000D01*
X158035000Y-87825000D01*
X158035000Y-89085000D01*
X159555000Y-89085000D01*
G37*
X159555000Y-89085000D02*
X159555000Y-87825000D01*
X158035000Y-87825000D01*
X158035000Y-89085000D01*
X159555000Y-89085000D01*
G36*
X159555000Y-83625000D02*
G01*
X159555000Y-82365000D01*
X158035000Y-82365000D01*
X158035000Y-83625000D01*
X159555000Y-83625000D01*
G37*
X159555000Y-83625000D02*
X159555000Y-82365000D01*
X158035000Y-82365000D01*
X158035000Y-83625000D01*
X159555000Y-83625000D01*
G36*
X159555000Y-85445000D02*
G01*
X159555000Y-84185000D01*
X158035000Y-84185000D01*
X158035000Y-85445000D01*
X159555000Y-85445000D01*
G37*
X159555000Y-85445000D02*
X159555000Y-84185000D01*
X158035000Y-84185000D01*
X158035000Y-85445000D01*
X159555000Y-85445000D01*
G36*
X159555000Y-87265000D02*
G01*
X159555000Y-86005000D01*
X158035000Y-86005000D01*
X158035000Y-87265000D01*
X159555000Y-87265000D01*
G37*
X159555000Y-87265000D02*
X159555000Y-86005000D01*
X158035000Y-86005000D01*
X158035000Y-87265000D01*
X159555000Y-87265000D01*
D11*
X135502000Y-119710000D03*
X135502000Y-120210000D03*
X135502000Y-120710000D03*
X135502000Y-121210000D03*
X135502000Y-121710000D03*
X135502000Y-122210000D03*
X135502000Y-122710000D03*
X135502000Y-123210000D03*
X135502000Y-123710000D03*
X135502000Y-124210000D03*
X135502000Y-124710000D03*
X135502000Y-125210000D03*
X135502000Y-125710000D03*
X135502000Y-126210000D03*
X135502000Y-126710000D03*
X135502000Y-127210000D03*
X135502000Y-127710000D03*
X135502000Y-128210000D03*
X135502000Y-128710000D03*
X135502000Y-129210000D03*
D12*
X137490000Y-131198000D03*
X137990000Y-131198000D03*
X138490000Y-131198000D03*
X138990000Y-131198000D03*
X139490000Y-131198000D03*
X139990000Y-131198000D03*
X140490000Y-131198000D03*
X140990000Y-131198000D03*
X141490000Y-131198000D03*
X141990000Y-131198000D03*
X142490000Y-131198000D03*
X142990000Y-131198000D03*
X143490000Y-131198000D03*
X143990000Y-131198000D03*
X144490000Y-131198000D03*
X144990000Y-131198000D03*
X145490000Y-131198000D03*
X145990000Y-131198000D03*
X146490000Y-131198000D03*
X146990000Y-131198000D03*
D11*
X148978000Y-129210000D03*
X148978000Y-128710000D03*
X148978000Y-128210000D03*
X148978000Y-127710000D03*
X148978000Y-127210000D03*
X148978000Y-126710000D03*
X148978000Y-126210000D03*
X148978000Y-125710000D03*
X148978000Y-125210000D03*
X148978000Y-124710000D03*
X148978000Y-124210000D03*
X148978000Y-123710000D03*
X148978000Y-123210000D03*
X148978000Y-122710000D03*
X148978000Y-122210000D03*
X148978000Y-121710000D03*
X148978000Y-121210000D03*
X148978000Y-120710000D03*
X148978000Y-120210000D03*
X148978000Y-119710000D03*
D12*
X146990000Y-117722000D03*
X146490000Y-117722000D03*
X145990000Y-117722000D03*
X145490000Y-117722000D03*
X144990000Y-117722000D03*
X144490000Y-117722000D03*
X143990000Y-117722000D03*
X143490000Y-117722000D03*
X142990000Y-117722000D03*
X142490000Y-117722000D03*
X141990000Y-117722000D03*
X141490000Y-117722000D03*
X140990000Y-117722000D03*
X140490000Y-117722000D03*
X139990000Y-117722000D03*
X139490000Y-117722000D03*
X138990000Y-117722000D03*
X138490000Y-117722000D03*
X137990000Y-117722000D03*
X137490000Y-117722000D03*
D13*
X115840000Y-108980000D03*
X115840000Y-108330000D03*
X115840000Y-107680000D03*
X115840000Y-107030000D03*
D14*
X114965000Y-106155000D03*
X114315000Y-106155000D03*
X113665000Y-106155000D03*
X113015000Y-106155000D03*
D13*
X112140000Y-107030000D03*
X112140000Y-107680000D03*
X112140000Y-108330000D03*
X112140000Y-108980000D03*
D14*
X113015000Y-109855000D03*
X113665000Y-109855000D03*
X114315000Y-109855000D03*
X114965000Y-109855000D03*
D15*
X140346500Y-109316599D03*
X141286300Y-109316599D03*
X142226100Y-109316599D03*
X142226100Y-107030599D03*
X141286300Y-107030599D03*
X140346500Y-107030599D03*
D16*
G36*
X100773142Y-81470174D02*
G01*
X100796803Y-81473684D01*
X100820007Y-81479496D01*
X100842529Y-81487554D01*
X100864153Y-81497782D01*
X100884670Y-81510079D01*
X100903883Y-81524329D01*
X100921607Y-81540393D01*
X100937671Y-81558117D01*
X100951921Y-81577330D01*
X100964218Y-81597847D01*
X100974446Y-81619471D01*
X100982504Y-81641993D01*
X100988316Y-81665197D01*
X100991826Y-81688858D01*
X100993000Y-81712750D01*
X100993000Y-82625250D01*
X100991826Y-82649142D01*
X100988316Y-82672803D01*
X100982504Y-82696007D01*
X100974446Y-82718529D01*
X100964218Y-82740153D01*
X100951921Y-82760670D01*
X100937671Y-82779883D01*
X100921607Y-82797607D01*
X100903883Y-82813671D01*
X100884670Y-82827921D01*
X100864153Y-82840218D01*
X100842529Y-82850446D01*
X100820007Y-82858504D01*
X100796803Y-82864316D01*
X100773142Y-82867826D01*
X100749250Y-82869000D01*
X100261750Y-82869000D01*
X100237858Y-82867826D01*
X100214197Y-82864316D01*
X100190993Y-82858504D01*
X100168471Y-82850446D01*
X100146847Y-82840218D01*
X100126330Y-82827921D01*
X100107117Y-82813671D01*
X100089393Y-82797607D01*
X100073329Y-82779883D01*
X100059079Y-82760670D01*
X100046782Y-82740153D01*
X100036554Y-82718529D01*
X100028496Y-82696007D01*
X100022684Y-82672803D01*
X100019174Y-82649142D01*
X100018000Y-82625250D01*
X100018000Y-81712750D01*
X100019174Y-81688858D01*
X100022684Y-81665197D01*
X100028496Y-81641993D01*
X100036554Y-81619471D01*
X100046782Y-81597847D01*
X100059079Y-81577330D01*
X100073329Y-81558117D01*
X100089393Y-81540393D01*
X100107117Y-81524329D01*
X100126330Y-81510079D01*
X100146847Y-81497782D01*
X100168471Y-81487554D01*
X100190993Y-81479496D01*
X100214197Y-81473684D01*
X100237858Y-81470174D01*
X100261750Y-81469000D01*
X100749250Y-81469000D01*
X100773142Y-81470174D01*
G37*
G36*
X98898142Y-81470174D02*
G01*
X98921803Y-81473684D01*
X98945007Y-81479496D01*
X98967529Y-81487554D01*
X98989153Y-81497782D01*
X99009670Y-81510079D01*
X99028883Y-81524329D01*
X99046607Y-81540393D01*
X99062671Y-81558117D01*
X99076921Y-81577330D01*
X99089218Y-81597847D01*
X99099446Y-81619471D01*
X99107504Y-81641993D01*
X99113316Y-81665197D01*
X99116826Y-81688858D01*
X99118000Y-81712750D01*
X99118000Y-82625250D01*
X99116826Y-82649142D01*
X99113316Y-82672803D01*
X99107504Y-82696007D01*
X99099446Y-82718529D01*
X99089218Y-82740153D01*
X99076921Y-82760670D01*
X99062671Y-82779883D01*
X99046607Y-82797607D01*
X99028883Y-82813671D01*
X99009670Y-82827921D01*
X98989153Y-82840218D01*
X98967529Y-82850446D01*
X98945007Y-82858504D01*
X98921803Y-82864316D01*
X98898142Y-82867826D01*
X98874250Y-82869000D01*
X98386750Y-82869000D01*
X98362858Y-82867826D01*
X98339197Y-82864316D01*
X98315993Y-82858504D01*
X98293471Y-82850446D01*
X98271847Y-82840218D01*
X98251330Y-82827921D01*
X98232117Y-82813671D01*
X98214393Y-82797607D01*
X98198329Y-82779883D01*
X98184079Y-82760670D01*
X98171782Y-82740153D01*
X98161554Y-82718529D01*
X98153496Y-82696007D01*
X98147684Y-82672803D01*
X98144174Y-82649142D01*
X98143000Y-82625250D01*
X98143000Y-81712750D01*
X98144174Y-81688858D01*
X98147684Y-81665197D01*
X98153496Y-81641993D01*
X98161554Y-81619471D01*
X98171782Y-81597847D01*
X98184079Y-81577330D01*
X98198329Y-81558117D01*
X98214393Y-81540393D01*
X98232117Y-81524329D01*
X98251330Y-81510079D01*
X98271847Y-81497782D01*
X98293471Y-81487554D01*
X98315993Y-81479496D01*
X98339197Y-81473684D01*
X98362858Y-81470174D01*
X98386750Y-81469000D01*
X98874250Y-81469000D01*
X98898142Y-81470174D01*
G37*
G36*
X107123142Y-100520174D02*
G01*
X107146803Y-100523684D01*
X107170007Y-100529496D01*
X107192529Y-100537554D01*
X107214153Y-100547782D01*
X107234670Y-100560079D01*
X107253883Y-100574329D01*
X107271607Y-100590393D01*
X107287671Y-100608117D01*
X107301921Y-100627330D01*
X107314218Y-100647847D01*
X107324446Y-100669471D01*
X107332504Y-100691993D01*
X107338316Y-100715197D01*
X107341826Y-100738858D01*
X107343000Y-100762750D01*
X107343000Y-101675250D01*
X107341826Y-101699142D01*
X107338316Y-101722803D01*
X107332504Y-101746007D01*
X107324446Y-101768529D01*
X107314218Y-101790153D01*
X107301921Y-101810670D01*
X107287671Y-101829883D01*
X107271607Y-101847607D01*
X107253883Y-101863671D01*
X107234670Y-101877921D01*
X107214153Y-101890218D01*
X107192529Y-101900446D01*
X107170007Y-101908504D01*
X107146803Y-101914316D01*
X107123142Y-101917826D01*
X107099250Y-101919000D01*
X106611750Y-101919000D01*
X106587858Y-101917826D01*
X106564197Y-101914316D01*
X106540993Y-101908504D01*
X106518471Y-101900446D01*
X106496847Y-101890218D01*
X106476330Y-101877921D01*
X106457117Y-101863671D01*
X106439393Y-101847607D01*
X106423329Y-101829883D01*
X106409079Y-101810670D01*
X106396782Y-101790153D01*
X106386554Y-101768529D01*
X106378496Y-101746007D01*
X106372684Y-101722803D01*
X106369174Y-101699142D01*
X106368000Y-101675250D01*
X106368000Y-100762750D01*
X106369174Y-100738858D01*
X106372684Y-100715197D01*
X106378496Y-100691993D01*
X106386554Y-100669471D01*
X106396782Y-100647847D01*
X106409079Y-100627330D01*
X106423329Y-100608117D01*
X106439393Y-100590393D01*
X106457117Y-100574329D01*
X106476330Y-100560079D01*
X106496847Y-100547782D01*
X106518471Y-100537554D01*
X106540993Y-100529496D01*
X106564197Y-100523684D01*
X106587858Y-100520174D01*
X106611750Y-100519000D01*
X107099250Y-100519000D01*
X107123142Y-100520174D01*
G37*
G36*
X105248142Y-100520174D02*
G01*
X105271803Y-100523684D01*
X105295007Y-100529496D01*
X105317529Y-100537554D01*
X105339153Y-100547782D01*
X105359670Y-100560079D01*
X105378883Y-100574329D01*
X105396607Y-100590393D01*
X105412671Y-100608117D01*
X105426921Y-100627330D01*
X105439218Y-100647847D01*
X105449446Y-100669471D01*
X105457504Y-100691993D01*
X105463316Y-100715197D01*
X105466826Y-100738858D01*
X105468000Y-100762750D01*
X105468000Y-101675250D01*
X105466826Y-101699142D01*
X105463316Y-101722803D01*
X105457504Y-101746007D01*
X105449446Y-101768529D01*
X105439218Y-101790153D01*
X105426921Y-101810670D01*
X105412671Y-101829883D01*
X105396607Y-101847607D01*
X105378883Y-101863671D01*
X105359670Y-101877921D01*
X105339153Y-101890218D01*
X105317529Y-101900446D01*
X105295007Y-101908504D01*
X105271803Y-101914316D01*
X105248142Y-101917826D01*
X105224250Y-101919000D01*
X104736750Y-101919000D01*
X104712858Y-101917826D01*
X104689197Y-101914316D01*
X104665993Y-101908504D01*
X104643471Y-101900446D01*
X104621847Y-101890218D01*
X104601330Y-101877921D01*
X104582117Y-101863671D01*
X104564393Y-101847607D01*
X104548329Y-101829883D01*
X104534079Y-101810670D01*
X104521782Y-101790153D01*
X104511554Y-101768529D01*
X104503496Y-101746007D01*
X104497684Y-101722803D01*
X104494174Y-101699142D01*
X104493000Y-101675250D01*
X104493000Y-100762750D01*
X104494174Y-100738858D01*
X104497684Y-100715197D01*
X104503496Y-100691993D01*
X104511554Y-100669471D01*
X104521782Y-100647847D01*
X104534079Y-100627330D01*
X104548329Y-100608117D01*
X104564393Y-100590393D01*
X104582117Y-100574329D01*
X104601330Y-100560079D01*
X104621847Y-100547782D01*
X104643471Y-100537554D01*
X104665993Y-100529496D01*
X104689197Y-100523684D01*
X104712858Y-100520174D01*
X104736750Y-100519000D01*
X105224250Y-100519000D01*
X105248142Y-100520174D01*
G37*
D17*
X154076000Y-96015000D03*
X155778000Y-96015000D03*
X157480000Y-96015000D03*
X159182000Y-96015000D03*
X160884000Y-96015000D03*
D16*
G36*
X107123142Y-102425174D02*
G01*
X107146803Y-102428684D01*
X107170007Y-102434496D01*
X107192529Y-102442554D01*
X107214153Y-102452782D01*
X107234670Y-102465079D01*
X107253883Y-102479329D01*
X107271607Y-102495393D01*
X107287671Y-102513117D01*
X107301921Y-102532330D01*
X107314218Y-102552847D01*
X107324446Y-102574471D01*
X107332504Y-102596993D01*
X107338316Y-102620197D01*
X107341826Y-102643858D01*
X107343000Y-102667750D01*
X107343000Y-103580250D01*
X107341826Y-103604142D01*
X107338316Y-103627803D01*
X107332504Y-103651007D01*
X107324446Y-103673529D01*
X107314218Y-103695153D01*
X107301921Y-103715670D01*
X107287671Y-103734883D01*
X107271607Y-103752607D01*
X107253883Y-103768671D01*
X107234670Y-103782921D01*
X107214153Y-103795218D01*
X107192529Y-103805446D01*
X107170007Y-103813504D01*
X107146803Y-103819316D01*
X107123142Y-103822826D01*
X107099250Y-103824000D01*
X106611750Y-103824000D01*
X106587858Y-103822826D01*
X106564197Y-103819316D01*
X106540993Y-103813504D01*
X106518471Y-103805446D01*
X106496847Y-103795218D01*
X106476330Y-103782921D01*
X106457117Y-103768671D01*
X106439393Y-103752607D01*
X106423329Y-103734883D01*
X106409079Y-103715670D01*
X106396782Y-103695153D01*
X106386554Y-103673529D01*
X106378496Y-103651007D01*
X106372684Y-103627803D01*
X106369174Y-103604142D01*
X106368000Y-103580250D01*
X106368000Y-102667750D01*
X106369174Y-102643858D01*
X106372684Y-102620197D01*
X106378496Y-102596993D01*
X106386554Y-102574471D01*
X106396782Y-102552847D01*
X106409079Y-102532330D01*
X106423329Y-102513117D01*
X106439393Y-102495393D01*
X106457117Y-102479329D01*
X106476330Y-102465079D01*
X106496847Y-102452782D01*
X106518471Y-102442554D01*
X106540993Y-102434496D01*
X106564197Y-102428684D01*
X106587858Y-102425174D01*
X106611750Y-102424000D01*
X107099250Y-102424000D01*
X107123142Y-102425174D01*
G37*
G36*
X105248142Y-102425174D02*
G01*
X105271803Y-102428684D01*
X105295007Y-102434496D01*
X105317529Y-102442554D01*
X105339153Y-102452782D01*
X105359670Y-102465079D01*
X105378883Y-102479329D01*
X105396607Y-102495393D01*
X105412671Y-102513117D01*
X105426921Y-102532330D01*
X105439218Y-102552847D01*
X105449446Y-102574471D01*
X105457504Y-102596993D01*
X105463316Y-102620197D01*
X105466826Y-102643858D01*
X105468000Y-102667750D01*
X105468000Y-103580250D01*
X105466826Y-103604142D01*
X105463316Y-103627803D01*
X105457504Y-103651007D01*
X105449446Y-103673529D01*
X105439218Y-103695153D01*
X105426921Y-103715670D01*
X105412671Y-103734883D01*
X105396607Y-103752607D01*
X105378883Y-103768671D01*
X105359670Y-103782921D01*
X105339153Y-103795218D01*
X105317529Y-103805446D01*
X105295007Y-103813504D01*
X105271803Y-103819316D01*
X105248142Y-103822826D01*
X105224250Y-103824000D01*
X104736750Y-103824000D01*
X104712858Y-103822826D01*
X104689197Y-103819316D01*
X104665993Y-103813504D01*
X104643471Y-103805446D01*
X104621847Y-103795218D01*
X104601330Y-103782921D01*
X104582117Y-103768671D01*
X104564393Y-103752607D01*
X104548329Y-103734883D01*
X104534079Y-103715670D01*
X104521782Y-103695153D01*
X104511554Y-103673529D01*
X104503496Y-103651007D01*
X104497684Y-103627803D01*
X104494174Y-103604142D01*
X104493000Y-103580250D01*
X104493000Y-102667750D01*
X104494174Y-102643858D01*
X104497684Y-102620197D01*
X104503496Y-102596993D01*
X104511554Y-102574471D01*
X104521782Y-102552847D01*
X104534079Y-102532330D01*
X104548329Y-102513117D01*
X104564393Y-102495393D01*
X104582117Y-102479329D01*
X104601330Y-102465079D01*
X104621847Y-102452782D01*
X104643471Y-102442554D01*
X104665993Y-102434496D01*
X104689197Y-102428684D01*
X104712858Y-102425174D01*
X104736750Y-102424000D01*
X105224250Y-102424000D01*
X105248142Y-102425174D01*
G37*
G36*
X107123142Y-104330174D02*
G01*
X107146803Y-104333684D01*
X107170007Y-104339496D01*
X107192529Y-104347554D01*
X107214153Y-104357782D01*
X107234670Y-104370079D01*
X107253883Y-104384329D01*
X107271607Y-104400393D01*
X107287671Y-104418117D01*
X107301921Y-104437330D01*
X107314218Y-104457847D01*
X107324446Y-104479471D01*
X107332504Y-104501993D01*
X107338316Y-104525197D01*
X107341826Y-104548858D01*
X107343000Y-104572750D01*
X107343000Y-105485250D01*
X107341826Y-105509142D01*
X107338316Y-105532803D01*
X107332504Y-105556007D01*
X107324446Y-105578529D01*
X107314218Y-105600153D01*
X107301921Y-105620670D01*
X107287671Y-105639883D01*
X107271607Y-105657607D01*
X107253883Y-105673671D01*
X107234670Y-105687921D01*
X107214153Y-105700218D01*
X107192529Y-105710446D01*
X107170007Y-105718504D01*
X107146803Y-105724316D01*
X107123142Y-105727826D01*
X107099250Y-105729000D01*
X106611750Y-105729000D01*
X106587858Y-105727826D01*
X106564197Y-105724316D01*
X106540993Y-105718504D01*
X106518471Y-105710446D01*
X106496847Y-105700218D01*
X106476330Y-105687921D01*
X106457117Y-105673671D01*
X106439393Y-105657607D01*
X106423329Y-105639883D01*
X106409079Y-105620670D01*
X106396782Y-105600153D01*
X106386554Y-105578529D01*
X106378496Y-105556007D01*
X106372684Y-105532803D01*
X106369174Y-105509142D01*
X106368000Y-105485250D01*
X106368000Y-104572750D01*
X106369174Y-104548858D01*
X106372684Y-104525197D01*
X106378496Y-104501993D01*
X106386554Y-104479471D01*
X106396782Y-104457847D01*
X106409079Y-104437330D01*
X106423329Y-104418117D01*
X106439393Y-104400393D01*
X106457117Y-104384329D01*
X106476330Y-104370079D01*
X106496847Y-104357782D01*
X106518471Y-104347554D01*
X106540993Y-104339496D01*
X106564197Y-104333684D01*
X106587858Y-104330174D01*
X106611750Y-104329000D01*
X107099250Y-104329000D01*
X107123142Y-104330174D01*
G37*
G36*
X105248142Y-104330174D02*
G01*
X105271803Y-104333684D01*
X105295007Y-104339496D01*
X105317529Y-104347554D01*
X105339153Y-104357782D01*
X105359670Y-104370079D01*
X105378883Y-104384329D01*
X105396607Y-104400393D01*
X105412671Y-104418117D01*
X105426921Y-104437330D01*
X105439218Y-104457847D01*
X105449446Y-104479471D01*
X105457504Y-104501993D01*
X105463316Y-104525197D01*
X105466826Y-104548858D01*
X105468000Y-104572750D01*
X105468000Y-105485250D01*
X105466826Y-105509142D01*
X105463316Y-105532803D01*
X105457504Y-105556007D01*
X105449446Y-105578529D01*
X105439218Y-105600153D01*
X105426921Y-105620670D01*
X105412671Y-105639883D01*
X105396607Y-105657607D01*
X105378883Y-105673671D01*
X105359670Y-105687921D01*
X105339153Y-105700218D01*
X105317529Y-105710446D01*
X105295007Y-105718504D01*
X105271803Y-105724316D01*
X105248142Y-105727826D01*
X105224250Y-105729000D01*
X104736750Y-105729000D01*
X104712858Y-105727826D01*
X104689197Y-105724316D01*
X104665993Y-105718504D01*
X104643471Y-105710446D01*
X104621847Y-105700218D01*
X104601330Y-105687921D01*
X104582117Y-105673671D01*
X104564393Y-105657607D01*
X104548329Y-105639883D01*
X104534079Y-105620670D01*
X104521782Y-105600153D01*
X104511554Y-105578529D01*
X104503496Y-105556007D01*
X104497684Y-105532803D01*
X104494174Y-105509142D01*
X104493000Y-105485250D01*
X104493000Y-104572750D01*
X104494174Y-104548858D01*
X104497684Y-104525197D01*
X104503496Y-104501993D01*
X104511554Y-104479471D01*
X104521782Y-104457847D01*
X104534079Y-104437330D01*
X104548329Y-104418117D01*
X104564393Y-104400393D01*
X104582117Y-104384329D01*
X104601330Y-104370079D01*
X104621847Y-104357782D01*
X104643471Y-104347554D01*
X104665993Y-104339496D01*
X104689197Y-104333684D01*
X104712858Y-104330174D01*
X104736750Y-104329000D01*
X105224250Y-104329000D01*
X105248142Y-104330174D01*
G37*
G36*
X107123142Y-106235174D02*
G01*
X107146803Y-106238684D01*
X107170007Y-106244496D01*
X107192529Y-106252554D01*
X107214153Y-106262782D01*
X107234670Y-106275079D01*
X107253883Y-106289329D01*
X107271607Y-106305393D01*
X107287671Y-106323117D01*
X107301921Y-106342330D01*
X107314218Y-106362847D01*
X107324446Y-106384471D01*
X107332504Y-106406993D01*
X107338316Y-106430197D01*
X107341826Y-106453858D01*
X107343000Y-106477750D01*
X107343000Y-107390250D01*
X107341826Y-107414142D01*
X107338316Y-107437803D01*
X107332504Y-107461007D01*
X107324446Y-107483529D01*
X107314218Y-107505153D01*
X107301921Y-107525670D01*
X107287671Y-107544883D01*
X107271607Y-107562607D01*
X107253883Y-107578671D01*
X107234670Y-107592921D01*
X107214153Y-107605218D01*
X107192529Y-107615446D01*
X107170007Y-107623504D01*
X107146803Y-107629316D01*
X107123142Y-107632826D01*
X107099250Y-107634000D01*
X106611750Y-107634000D01*
X106587858Y-107632826D01*
X106564197Y-107629316D01*
X106540993Y-107623504D01*
X106518471Y-107615446D01*
X106496847Y-107605218D01*
X106476330Y-107592921D01*
X106457117Y-107578671D01*
X106439393Y-107562607D01*
X106423329Y-107544883D01*
X106409079Y-107525670D01*
X106396782Y-107505153D01*
X106386554Y-107483529D01*
X106378496Y-107461007D01*
X106372684Y-107437803D01*
X106369174Y-107414142D01*
X106368000Y-107390250D01*
X106368000Y-106477750D01*
X106369174Y-106453858D01*
X106372684Y-106430197D01*
X106378496Y-106406993D01*
X106386554Y-106384471D01*
X106396782Y-106362847D01*
X106409079Y-106342330D01*
X106423329Y-106323117D01*
X106439393Y-106305393D01*
X106457117Y-106289329D01*
X106476330Y-106275079D01*
X106496847Y-106262782D01*
X106518471Y-106252554D01*
X106540993Y-106244496D01*
X106564197Y-106238684D01*
X106587858Y-106235174D01*
X106611750Y-106234000D01*
X107099250Y-106234000D01*
X107123142Y-106235174D01*
G37*
G36*
X105248142Y-106235174D02*
G01*
X105271803Y-106238684D01*
X105295007Y-106244496D01*
X105317529Y-106252554D01*
X105339153Y-106262782D01*
X105359670Y-106275079D01*
X105378883Y-106289329D01*
X105396607Y-106305393D01*
X105412671Y-106323117D01*
X105426921Y-106342330D01*
X105439218Y-106362847D01*
X105449446Y-106384471D01*
X105457504Y-106406993D01*
X105463316Y-106430197D01*
X105466826Y-106453858D01*
X105468000Y-106477750D01*
X105468000Y-107390250D01*
X105466826Y-107414142D01*
X105463316Y-107437803D01*
X105457504Y-107461007D01*
X105449446Y-107483529D01*
X105439218Y-107505153D01*
X105426921Y-107525670D01*
X105412671Y-107544883D01*
X105396607Y-107562607D01*
X105378883Y-107578671D01*
X105359670Y-107592921D01*
X105339153Y-107605218D01*
X105317529Y-107615446D01*
X105295007Y-107623504D01*
X105271803Y-107629316D01*
X105248142Y-107632826D01*
X105224250Y-107634000D01*
X104736750Y-107634000D01*
X104712858Y-107632826D01*
X104689197Y-107629316D01*
X104665993Y-107623504D01*
X104643471Y-107615446D01*
X104621847Y-107605218D01*
X104601330Y-107592921D01*
X104582117Y-107578671D01*
X104564393Y-107562607D01*
X104548329Y-107544883D01*
X104534079Y-107525670D01*
X104521782Y-107505153D01*
X104511554Y-107483529D01*
X104503496Y-107461007D01*
X104497684Y-107437803D01*
X104494174Y-107414142D01*
X104493000Y-107390250D01*
X104493000Y-106477750D01*
X104494174Y-106453858D01*
X104497684Y-106430197D01*
X104503496Y-106406993D01*
X104511554Y-106384471D01*
X104521782Y-106362847D01*
X104534079Y-106342330D01*
X104548329Y-106323117D01*
X104564393Y-106305393D01*
X104582117Y-106289329D01*
X104601330Y-106275079D01*
X104621847Y-106262782D01*
X104643471Y-106252554D01*
X104665993Y-106244496D01*
X104689197Y-106238684D01*
X104712858Y-106235174D01*
X104736750Y-106234000D01*
X105224250Y-106234000D01*
X105248142Y-106235174D01*
G37*
G36*
X105248142Y-108140174D02*
G01*
X105271803Y-108143684D01*
X105295007Y-108149496D01*
X105317529Y-108157554D01*
X105339153Y-108167782D01*
X105359670Y-108180079D01*
X105378883Y-108194329D01*
X105396607Y-108210393D01*
X105412671Y-108228117D01*
X105426921Y-108247330D01*
X105439218Y-108267847D01*
X105449446Y-108289471D01*
X105457504Y-108311993D01*
X105463316Y-108335197D01*
X105466826Y-108358858D01*
X105468000Y-108382750D01*
X105468000Y-109295250D01*
X105466826Y-109319142D01*
X105463316Y-109342803D01*
X105457504Y-109366007D01*
X105449446Y-109388529D01*
X105439218Y-109410153D01*
X105426921Y-109430670D01*
X105412671Y-109449883D01*
X105396607Y-109467607D01*
X105378883Y-109483671D01*
X105359670Y-109497921D01*
X105339153Y-109510218D01*
X105317529Y-109520446D01*
X105295007Y-109528504D01*
X105271803Y-109534316D01*
X105248142Y-109537826D01*
X105224250Y-109539000D01*
X104736750Y-109539000D01*
X104712858Y-109537826D01*
X104689197Y-109534316D01*
X104665993Y-109528504D01*
X104643471Y-109520446D01*
X104621847Y-109510218D01*
X104601330Y-109497921D01*
X104582117Y-109483671D01*
X104564393Y-109467607D01*
X104548329Y-109449883D01*
X104534079Y-109430670D01*
X104521782Y-109410153D01*
X104511554Y-109388529D01*
X104503496Y-109366007D01*
X104497684Y-109342803D01*
X104494174Y-109319142D01*
X104493000Y-109295250D01*
X104493000Y-108382750D01*
X104494174Y-108358858D01*
X104497684Y-108335197D01*
X104503496Y-108311993D01*
X104511554Y-108289471D01*
X104521782Y-108267847D01*
X104534079Y-108247330D01*
X104548329Y-108228117D01*
X104564393Y-108210393D01*
X104582117Y-108194329D01*
X104601330Y-108180079D01*
X104621847Y-108167782D01*
X104643471Y-108157554D01*
X104665993Y-108149496D01*
X104689197Y-108143684D01*
X104712858Y-108140174D01*
X104736750Y-108139000D01*
X105224250Y-108139000D01*
X105248142Y-108140174D01*
G37*
G36*
X107123142Y-108140174D02*
G01*
X107146803Y-108143684D01*
X107170007Y-108149496D01*
X107192529Y-108157554D01*
X107214153Y-108167782D01*
X107234670Y-108180079D01*
X107253883Y-108194329D01*
X107271607Y-108210393D01*
X107287671Y-108228117D01*
X107301921Y-108247330D01*
X107314218Y-108267847D01*
X107324446Y-108289471D01*
X107332504Y-108311993D01*
X107338316Y-108335197D01*
X107341826Y-108358858D01*
X107343000Y-108382750D01*
X107343000Y-109295250D01*
X107341826Y-109319142D01*
X107338316Y-109342803D01*
X107332504Y-109366007D01*
X107324446Y-109388529D01*
X107314218Y-109410153D01*
X107301921Y-109430670D01*
X107287671Y-109449883D01*
X107271607Y-109467607D01*
X107253883Y-109483671D01*
X107234670Y-109497921D01*
X107214153Y-109510218D01*
X107192529Y-109520446D01*
X107170007Y-109528504D01*
X107146803Y-109534316D01*
X107123142Y-109537826D01*
X107099250Y-109539000D01*
X106611750Y-109539000D01*
X106587858Y-109537826D01*
X106564197Y-109534316D01*
X106540993Y-109528504D01*
X106518471Y-109520446D01*
X106496847Y-109510218D01*
X106476330Y-109497921D01*
X106457117Y-109483671D01*
X106439393Y-109467607D01*
X106423329Y-109449883D01*
X106409079Y-109430670D01*
X106396782Y-109410153D01*
X106386554Y-109388529D01*
X106378496Y-109366007D01*
X106372684Y-109342803D01*
X106369174Y-109319142D01*
X106368000Y-109295250D01*
X106368000Y-108382750D01*
X106369174Y-108358858D01*
X106372684Y-108335197D01*
X106378496Y-108311993D01*
X106386554Y-108289471D01*
X106396782Y-108267847D01*
X106409079Y-108247330D01*
X106423329Y-108228117D01*
X106439393Y-108210393D01*
X106457117Y-108194329D01*
X106476330Y-108180079D01*
X106496847Y-108167782D01*
X106518471Y-108157554D01*
X106540993Y-108149496D01*
X106564197Y-108143684D01*
X106587858Y-108140174D01*
X106611750Y-108139000D01*
X107099250Y-108139000D01*
X107123142Y-108140174D01*
G37*
G36*
X105248142Y-110045174D02*
G01*
X105271803Y-110048684D01*
X105295007Y-110054496D01*
X105317529Y-110062554D01*
X105339153Y-110072782D01*
X105359670Y-110085079D01*
X105378883Y-110099329D01*
X105396607Y-110115393D01*
X105412671Y-110133117D01*
X105426921Y-110152330D01*
X105439218Y-110172847D01*
X105449446Y-110194471D01*
X105457504Y-110216993D01*
X105463316Y-110240197D01*
X105466826Y-110263858D01*
X105468000Y-110287750D01*
X105468000Y-111200250D01*
X105466826Y-111224142D01*
X105463316Y-111247803D01*
X105457504Y-111271007D01*
X105449446Y-111293529D01*
X105439218Y-111315153D01*
X105426921Y-111335670D01*
X105412671Y-111354883D01*
X105396607Y-111372607D01*
X105378883Y-111388671D01*
X105359670Y-111402921D01*
X105339153Y-111415218D01*
X105317529Y-111425446D01*
X105295007Y-111433504D01*
X105271803Y-111439316D01*
X105248142Y-111442826D01*
X105224250Y-111444000D01*
X104736750Y-111444000D01*
X104712858Y-111442826D01*
X104689197Y-111439316D01*
X104665993Y-111433504D01*
X104643471Y-111425446D01*
X104621847Y-111415218D01*
X104601330Y-111402921D01*
X104582117Y-111388671D01*
X104564393Y-111372607D01*
X104548329Y-111354883D01*
X104534079Y-111335670D01*
X104521782Y-111315153D01*
X104511554Y-111293529D01*
X104503496Y-111271007D01*
X104497684Y-111247803D01*
X104494174Y-111224142D01*
X104493000Y-111200250D01*
X104493000Y-110287750D01*
X104494174Y-110263858D01*
X104497684Y-110240197D01*
X104503496Y-110216993D01*
X104511554Y-110194471D01*
X104521782Y-110172847D01*
X104534079Y-110152330D01*
X104548329Y-110133117D01*
X104564393Y-110115393D01*
X104582117Y-110099329D01*
X104601330Y-110085079D01*
X104621847Y-110072782D01*
X104643471Y-110062554D01*
X104665993Y-110054496D01*
X104689197Y-110048684D01*
X104712858Y-110045174D01*
X104736750Y-110044000D01*
X105224250Y-110044000D01*
X105248142Y-110045174D01*
G37*
G36*
X107123142Y-110045174D02*
G01*
X107146803Y-110048684D01*
X107170007Y-110054496D01*
X107192529Y-110062554D01*
X107214153Y-110072782D01*
X107234670Y-110085079D01*
X107253883Y-110099329D01*
X107271607Y-110115393D01*
X107287671Y-110133117D01*
X107301921Y-110152330D01*
X107314218Y-110172847D01*
X107324446Y-110194471D01*
X107332504Y-110216993D01*
X107338316Y-110240197D01*
X107341826Y-110263858D01*
X107343000Y-110287750D01*
X107343000Y-111200250D01*
X107341826Y-111224142D01*
X107338316Y-111247803D01*
X107332504Y-111271007D01*
X107324446Y-111293529D01*
X107314218Y-111315153D01*
X107301921Y-111335670D01*
X107287671Y-111354883D01*
X107271607Y-111372607D01*
X107253883Y-111388671D01*
X107234670Y-111402921D01*
X107214153Y-111415218D01*
X107192529Y-111425446D01*
X107170007Y-111433504D01*
X107146803Y-111439316D01*
X107123142Y-111442826D01*
X107099250Y-111444000D01*
X106611750Y-111444000D01*
X106587858Y-111442826D01*
X106564197Y-111439316D01*
X106540993Y-111433504D01*
X106518471Y-111425446D01*
X106496847Y-111415218D01*
X106476330Y-111402921D01*
X106457117Y-111388671D01*
X106439393Y-111372607D01*
X106423329Y-111354883D01*
X106409079Y-111335670D01*
X106396782Y-111315153D01*
X106386554Y-111293529D01*
X106378496Y-111271007D01*
X106372684Y-111247803D01*
X106369174Y-111224142D01*
X106368000Y-111200250D01*
X106368000Y-110287750D01*
X106369174Y-110263858D01*
X106372684Y-110240197D01*
X106378496Y-110216993D01*
X106386554Y-110194471D01*
X106396782Y-110172847D01*
X106409079Y-110152330D01*
X106423329Y-110133117D01*
X106439393Y-110115393D01*
X106457117Y-110099329D01*
X106476330Y-110085079D01*
X106496847Y-110072782D01*
X106518471Y-110062554D01*
X106540993Y-110054496D01*
X106564197Y-110048684D01*
X106587858Y-110045174D01*
X106611750Y-110044000D01*
X107099250Y-110044000D01*
X107123142Y-110045174D01*
G37*
G36*
X150975142Y-87476174D02*
G01*
X150998803Y-87479684D01*
X151022007Y-87485496D01*
X151044529Y-87493554D01*
X151066153Y-87503782D01*
X151086670Y-87516079D01*
X151105883Y-87530329D01*
X151123607Y-87546393D01*
X151139671Y-87564117D01*
X151153921Y-87583330D01*
X151166218Y-87603847D01*
X151176446Y-87625471D01*
X151184504Y-87647993D01*
X151190316Y-87671197D01*
X151193826Y-87694858D01*
X151195000Y-87718750D01*
X151195000Y-88206250D01*
X151193826Y-88230142D01*
X151190316Y-88253803D01*
X151184504Y-88277007D01*
X151176446Y-88299529D01*
X151166218Y-88321153D01*
X151153921Y-88341670D01*
X151139671Y-88360883D01*
X151123607Y-88378607D01*
X151105883Y-88394671D01*
X151086670Y-88408921D01*
X151066153Y-88421218D01*
X151044529Y-88431446D01*
X151022007Y-88439504D01*
X150998803Y-88445316D01*
X150975142Y-88448826D01*
X150951250Y-88450000D01*
X150038750Y-88450000D01*
X150014858Y-88448826D01*
X149991197Y-88445316D01*
X149967993Y-88439504D01*
X149945471Y-88431446D01*
X149923847Y-88421218D01*
X149903330Y-88408921D01*
X149884117Y-88394671D01*
X149866393Y-88378607D01*
X149850329Y-88360883D01*
X149836079Y-88341670D01*
X149823782Y-88321153D01*
X149813554Y-88299529D01*
X149805496Y-88277007D01*
X149799684Y-88253803D01*
X149796174Y-88230142D01*
X149795000Y-88206250D01*
X149795000Y-87718750D01*
X149796174Y-87694858D01*
X149799684Y-87671197D01*
X149805496Y-87647993D01*
X149813554Y-87625471D01*
X149823782Y-87603847D01*
X149836079Y-87583330D01*
X149850329Y-87564117D01*
X149866393Y-87546393D01*
X149884117Y-87530329D01*
X149903330Y-87516079D01*
X149923847Y-87503782D01*
X149945471Y-87493554D01*
X149967993Y-87485496D01*
X149991197Y-87479684D01*
X150014858Y-87476174D01*
X150038750Y-87475000D01*
X150951250Y-87475000D01*
X150975142Y-87476174D01*
G37*
G36*
X150975142Y-89351174D02*
G01*
X150998803Y-89354684D01*
X151022007Y-89360496D01*
X151044529Y-89368554D01*
X151066153Y-89378782D01*
X151086670Y-89391079D01*
X151105883Y-89405329D01*
X151123607Y-89421393D01*
X151139671Y-89439117D01*
X151153921Y-89458330D01*
X151166218Y-89478847D01*
X151176446Y-89500471D01*
X151184504Y-89522993D01*
X151190316Y-89546197D01*
X151193826Y-89569858D01*
X151195000Y-89593750D01*
X151195000Y-90081250D01*
X151193826Y-90105142D01*
X151190316Y-90128803D01*
X151184504Y-90152007D01*
X151176446Y-90174529D01*
X151166218Y-90196153D01*
X151153921Y-90216670D01*
X151139671Y-90235883D01*
X151123607Y-90253607D01*
X151105883Y-90269671D01*
X151086670Y-90283921D01*
X151066153Y-90296218D01*
X151044529Y-90306446D01*
X151022007Y-90314504D01*
X150998803Y-90320316D01*
X150975142Y-90323826D01*
X150951250Y-90325000D01*
X150038750Y-90325000D01*
X150014858Y-90323826D01*
X149991197Y-90320316D01*
X149967993Y-90314504D01*
X149945471Y-90306446D01*
X149923847Y-90296218D01*
X149903330Y-90283921D01*
X149884117Y-90269671D01*
X149866393Y-90253607D01*
X149850329Y-90235883D01*
X149836079Y-90216670D01*
X149823782Y-90196153D01*
X149813554Y-90174529D01*
X149805496Y-90152007D01*
X149799684Y-90128803D01*
X149796174Y-90105142D01*
X149795000Y-90081250D01*
X149795000Y-89593750D01*
X149796174Y-89569858D01*
X149799684Y-89546197D01*
X149805496Y-89522993D01*
X149813554Y-89500471D01*
X149823782Y-89478847D01*
X149836079Y-89458330D01*
X149850329Y-89439117D01*
X149866393Y-89421393D01*
X149884117Y-89405329D01*
X149903330Y-89391079D01*
X149923847Y-89378782D01*
X149945471Y-89368554D01*
X149967993Y-89360496D01*
X149991197Y-89354684D01*
X150014858Y-89351174D01*
X150038750Y-89350000D01*
X150951250Y-89350000D01*
X150975142Y-89351174D01*
G37*
G36*
X150975142Y-93161174D02*
G01*
X150998803Y-93164684D01*
X151022007Y-93170496D01*
X151044529Y-93178554D01*
X151066153Y-93188782D01*
X151086670Y-93201079D01*
X151105883Y-93215329D01*
X151123607Y-93231393D01*
X151139671Y-93249117D01*
X151153921Y-93268330D01*
X151166218Y-93288847D01*
X151176446Y-93310471D01*
X151184504Y-93332993D01*
X151190316Y-93356197D01*
X151193826Y-93379858D01*
X151195000Y-93403750D01*
X151195000Y-93891250D01*
X151193826Y-93915142D01*
X151190316Y-93938803D01*
X151184504Y-93962007D01*
X151176446Y-93984529D01*
X151166218Y-94006153D01*
X151153921Y-94026670D01*
X151139671Y-94045883D01*
X151123607Y-94063607D01*
X151105883Y-94079671D01*
X151086670Y-94093921D01*
X151066153Y-94106218D01*
X151044529Y-94116446D01*
X151022007Y-94124504D01*
X150998803Y-94130316D01*
X150975142Y-94133826D01*
X150951250Y-94135000D01*
X150038750Y-94135000D01*
X150014858Y-94133826D01*
X149991197Y-94130316D01*
X149967993Y-94124504D01*
X149945471Y-94116446D01*
X149923847Y-94106218D01*
X149903330Y-94093921D01*
X149884117Y-94079671D01*
X149866393Y-94063607D01*
X149850329Y-94045883D01*
X149836079Y-94026670D01*
X149823782Y-94006153D01*
X149813554Y-93984529D01*
X149805496Y-93962007D01*
X149799684Y-93938803D01*
X149796174Y-93915142D01*
X149795000Y-93891250D01*
X149795000Y-93403750D01*
X149796174Y-93379858D01*
X149799684Y-93356197D01*
X149805496Y-93332993D01*
X149813554Y-93310471D01*
X149823782Y-93288847D01*
X149836079Y-93268330D01*
X149850329Y-93249117D01*
X149866393Y-93231393D01*
X149884117Y-93215329D01*
X149903330Y-93201079D01*
X149923847Y-93188782D01*
X149945471Y-93178554D01*
X149967993Y-93170496D01*
X149991197Y-93164684D01*
X150014858Y-93161174D01*
X150038750Y-93160000D01*
X150951250Y-93160000D01*
X150975142Y-93161174D01*
G37*
G36*
X150975142Y-91286174D02*
G01*
X150998803Y-91289684D01*
X151022007Y-91295496D01*
X151044529Y-91303554D01*
X151066153Y-91313782D01*
X151086670Y-91326079D01*
X151105883Y-91340329D01*
X151123607Y-91356393D01*
X151139671Y-91374117D01*
X151153921Y-91393330D01*
X151166218Y-91413847D01*
X151176446Y-91435471D01*
X151184504Y-91457993D01*
X151190316Y-91481197D01*
X151193826Y-91504858D01*
X151195000Y-91528750D01*
X151195000Y-92016250D01*
X151193826Y-92040142D01*
X151190316Y-92063803D01*
X151184504Y-92087007D01*
X151176446Y-92109529D01*
X151166218Y-92131153D01*
X151153921Y-92151670D01*
X151139671Y-92170883D01*
X151123607Y-92188607D01*
X151105883Y-92204671D01*
X151086670Y-92218921D01*
X151066153Y-92231218D01*
X151044529Y-92241446D01*
X151022007Y-92249504D01*
X150998803Y-92255316D01*
X150975142Y-92258826D01*
X150951250Y-92260000D01*
X150038750Y-92260000D01*
X150014858Y-92258826D01*
X149991197Y-92255316D01*
X149967993Y-92249504D01*
X149945471Y-92241446D01*
X149923847Y-92231218D01*
X149903330Y-92218921D01*
X149884117Y-92204671D01*
X149866393Y-92188607D01*
X149850329Y-92170883D01*
X149836079Y-92151670D01*
X149823782Y-92131153D01*
X149813554Y-92109529D01*
X149805496Y-92087007D01*
X149799684Y-92063803D01*
X149796174Y-92040142D01*
X149795000Y-92016250D01*
X149795000Y-91528750D01*
X149796174Y-91504858D01*
X149799684Y-91481197D01*
X149805496Y-91457993D01*
X149813554Y-91435471D01*
X149823782Y-91413847D01*
X149836079Y-91393330D01*
X149850329Y-91374117D01*
X149866393Y-91356393D01*
X149884117Y-91340329D01*
X149903330Y-91326079D01*
X149923847Y-91313782D01*
X149945471Y-91303554D01*
X149967993Y-91295496D01*
X149991197Y-91289684D01*
X150014858Y-91286174D01*
X150038750Y-91285000D01*
X150951250Y-91285000D01*
X150975142Y-91286174D01*
G37*
G36*
X184630142Y-132833674D02*
G01*
X184653803Y-132837184D01*
X184677007Y-132842996D01*
X184699529Y-132851054D01*
X184721153Y-132861282D01*
X184741670Y-132873579D01*
X184760883Y-132887829D01*
X184778607Y-132903893D01*
X184794671Y-132921617D01*
X184808921Y-132940830D01*
X184821218Y-132961347D01*
X184831446Y-132982971D01*
X184839504Y-133005493D01*
X184845316Y-133028697D01*
X184848826Y-133052358D01*
X184850000Y-133076250D01*
X184850000Y-133563750D01*
X184848826Y-133587642D01*
X184845316Y-133611303D01*
X184839504Y-133634507D01*
X184831446Y-133657029D01*
X184821218Y-133678653D01*
X184808921Y-133699170D01*
X184794671Y-133718383D01*
X184778607Y-133736107D01*
X184760883Y-133752171D01*
X184741670Y-133766421D01*
X184721153Y-133778718D01*
X184699529Y-133788946D01*
X184677007Y-133797004D01*
X184653803Y-133802816D01*
X184630142Y-133806326D01*
X184606250Y-133807500D01*
X183693750Y-133807500D01*
X183669858Y-133806326D01*
X183646197Y-133802816D01*
X183622993Y-133797004D01*
X183600471Y-133788946D01*
X183578847Y-133778718D01*
X183558330Y-133766421D01*
X183539117Y-133752171D01*
X183521393Y-133736107D01*
X183505329Y-133718383D01*
X183491079Y-133699170D01*
X183478782Y-133678653D01*
X183468554Y-133657029D01*
X183460496Y-133634507D01*
X183454684Y-133611303D01*
X183451174Y-133587642D01*
X183450000Y-133563750D01*
X183450000Y-133076250D01*
X183451174Y-133052358D01*
X183454684Y-133028697D01*
X183460496Y-133005493D01*
X183468554Y-132982971D01*
X183478782Y-132961347D01*
X183491079Y-132940830D01*
X183505329Y-132921617D01*
X183521393Y-132903893D01*
X183539117Y-132887829D01*
X183558330Y-132873579D01*
X183578847Y-132861282D01*
X183600471Y-132851054D01*
X183622993Y-132842996D01*
X183646197Y-132837184D01*
X183669858Y-132833674D01*
X183693750Y-132832500D01*
X184606250Y-132832500D01*
X184630142Y-132833674D01*
G37*
G36*
X184630142Y-130958674D02*
G01*
X184653803Y-130962184D01*
X184677007Y-130967996D01*
X184699529Y-130976054D01*
X184721153Y-130986282D01*
X184741670Y-130998579D01*
X184760883Y-131012829D01*
X184778607Y-131028893D01*
X184794671Y-131046617D01*
X184808921Y-131065830D01*
X184821218Y-131086347D01*
X184831446Y-131107971D01*
X184839504Y-131130493D01*
X184845316Y-131153697D01*
X184848826Y-131177358D01*
X184850000Y-131201250D01*
X184850000Y-131688750D01*
X184848826Y-131712642D01*
X184845316Y-131736303D01*
X184839504Y-131759507D01*
X184831446Y-131782029D01*
X184821218Y-131803653D01*
X184808921Y-131824170D01*
X184794671Y-131843383D01*
X184778607Y-131861107D01*
X184760883Y-131877171D01*
X184741670Y-131891421D01*
X184721153Y-131903718D01*
X184699529Y-131913946D01*
X184677007Y-131922004D01*
X184653803Y-131927816D01*
X184630142Y-131931326D01*
X184606250Y-131932500D01*
X183693750Y-131932500D01*
X183669858Y-131931326D01*
X183646197Y-131927816D01*
X183622993Y-131922004D01*
X183600471Y-131913946D01*
X183578847Y-131903718D01*
X183558330Y-131891421D01*
X183539117Y-131877171D01*
X183521393Y-131861107D01*
X183505329Y-131843383D01*
X183491079Y-131824170D01*
X183478782Y-131803653D01*
X183468554Y-131782029D01*
X183460496Y-131759507D01*
X183454684Y-131736303D01*
X183451174Y-131712642D01*
X183450000Y-131688750D01*
X183450000Y-131201250D01*
X183451174Y-131177358D01*
X183454684Y-131153697D01*
X183460496Y-131130493D01*
X183468554Y-131107971D01*
X183478782Y-131086347D01*
X183491079Y-131065830D01*
X183505329Y-131046617D01*
X183521393Y-131028893D01*
X183539117Y-131012829D01*
X183558330Y-130998579D01*
X183578847Y-130986282D01*
X183600471Y-130976054D01*
X183622993Y-130967996D01*
X183646197Y-130962184D01*
X183669858Y-130958674D01*
X183693750Y-130957500D01*
X184606250Y-130957500D01*
X184630142Y-130958674D01*
G37*
G36*
X181455142Y-132833674D02*
G01*
X181478803Y-132837184D01*
X181502007Y-132842996D01*
X181524529Y-132851054D01*
X181546153Y-132861282D01*
X181566670Y-132873579D01*
X181585883Y-132887829D01*
X181603607Y-132903893D01*
X181619671Y-132921617D01*
X181633921Y-132940830D01*
X181646218Y-132961347D01*
X181656446Y-132982971D01*
X181664504Y-133005493D01*
X181670316Y-133028697D01*
X181673826Y-133052358D01*
X181675000Y-133076250D01*
X181675000Y-133563750D01*
X181673826Y-133587642D01*
X181670316Y-133611303D01*
X181664504Y-133634507D01*
X181656446Y-133657029D01*
X181646218Y-133678653D01*
X181633921Y-133699170D01*
X181619671Y-133718383D01*
X181603607Y-133736107D01*
X181585883Y-133752171D01*
X181566670Y-133766421D01*
X181546153Y-133778718D01*
X181524529Y-133788946D01*
X181502007Y-133797004D01*
X181478803Y-133802816D01*
X181455142Y-133806326D01*
X181431250Y-133807500D01*
X180518750Y-133807500D01*
X180494858Y-133806326D01*
X180471197Y-133802816D01*
X180447993Y-133797004D01*
X180425471Y-133788946D01*
X180403847Y-133778718D01*
X180383330Y-133766421D01*
X180364117Y-133752171D01*
X180346393Y-133736107D01*
X180330329Y-133718383D01*
X180316079Y-133699170D01*
X180303782Y-133678653D01*
X180293554Y-133657029D01*
X180285496Y-133634507D01*
X180279684Y-133611303D01*
X180276174Y-133587642D01*
X180275000Y-133563750D01*
X180275000Y-133076250D01*
X180276174Y-133052358D01*
X180279684Y-133028697D01*
X180285496Y-133005493D01*
X180293554Y-132982971D01*
X180303782Y-132961347D01*
X180316079Y-132940830D01*
X180330329Y-132921617D01*
X180346393Y-132903893D01*
X180364117Y-132887829D01*
X180383330Y-132873579D01*
X180403847Y-132861282D01*
X180425471Y-132851054D01*
X180447993Y-132842996D01*
X180471197Y-132837184D01*
X180494858Y-132833674D01*
X180518750Y-132832500D01*
X181431250Y-132832500D01*
X181455142Y-132833674D01*
G37*
G36*
X181455142Y-130958674D02*
G01*
X181478803Y-130962184D01*
X181502007Y-130967996D01*
X181524529Y-130976054D01*
X181546153Y-130986282D01*
X181566670Y-130998579D01*
X181585883Y-131012829D01*
X181603607Y-131028893D01*
X181619671Y-131046617D01*
X181633921Y-131065830D01*
X181646218Y-131086347D01*
X181656446Y-131107971D01*
X181664504Y-131130493D01*
X181670316Y-131153697D01*
X181673826Y-131177358D01*
X181675000Y-131201250D01*
X181675000Y-131688750D01*
X181673826Y-131712642D01*
X181670316Y-131736303D01*
X181664504Y-131759507D01*
X181656446Y-131782029D01*
X181646218Y-131803653D01*
X181633921Y-131824170D01*
X181619671Y-131843383D01*
X181603607Y-131861107D01*
X181585883Y-131877171D01*
X181566670Y-131891421D01*
X181546153Y-131903718D01*
X181524529Y-131913946D01*
X181502007Y-131922004D01*
X181478803Y-131927816D01*
X181455142Y-131931326D01*
X181431250Y-131932500D01*
X180518750Y-131932500D01*
X180494858Y-131931326D01*
X180471197Y-131927816D01*
X180447993Y-131922004D01*
X180425471Y-131913946D01*
X180403847Y-131903718D01*
X180383330Y-131891421D01*
X180364117Y-131877171D01*
X180346393Y-131861107D01*
X180330329Y-131843383D01*
X180316079Y-131824170D01*
X180303782Y-131803653D01*
X180293554Y-131782029D01*
X180285496Y-131759507D01*
X180279684Y-131736303D01*
X180276174Y-131712642D01*
X180275000Y-131688750D01*
X180275000Y-131201250D01*
X180276174Y-131177358D01*
X180279684Y-131153697D01*
X180285496Y-131130493D01*
X180293554Y-131107971D01*
X180303782Y-131086347D01*
X180316079Y-131065830D01*
X180330329Y-131046617D01*
X180346393Y-131028893D01*
X180364117Y-131012829D01*
X180383330Y-130998579D01*
X180403847Y-130986282D01*
X180425471Y-130976054D01*
X180447993Y-130967996D01*
X180471197Y-130962184D01*
X180494858Y-130958674D01*
X180518750Y-130957500D01*
X181431250Y-130957500D01*
X181455142Y-130958674D01*
G37*
G36*
X177010142Y-134103674D02*
G01*
X177033803Y-134107184D01*
X177057007Y-134112996D01*
X177079529Y-134121054D01*
X177101153Y-134131282D01*
X177121670Y-134143579D01*
X177140883Y-134157829D01*
X177158607Y-134173893D01*
X177174671Y-134191617D01*
X177188921Y-134210830D01*
X177201218Y-134231347D01*
X177211446Y-134252971D01*
X177219504Y-134275493D01*
X177225316Y-134298697D01*
X177228826Y-134322358D01*
X177230000Y-134346250D01*
X177230000Y-134833750D01*
X177228826Y-134857642D01*
X177225316Y-134881303D01*
X177219504Y-134904507D01*
X177211446Y-134927029D01*
X177201218Y-134948653D01*
X177188921Y-134969170D01*
X177174671Y-134988383D01*
X177158607Y-135006107D01*
X177140883Y-135022171D01*
X177121670Y-135036421D01*
X177101153Y-135048718D01*
X177079529Y-135058946D01*
X177057007Y-135067004D01*
X177033803Y-135072816D01*
X177010142Y-135076326D01*
X176986250Y-135077500D01*
X176073750Y-135077500D01*
X176049858Y-135076326D01*
X176026197Y-135072816D01*
X176002993Y-135067004D01*
X175980471Y-135058946D01*
X175958847Y-135048718D01*
X175938330Y-135036421D01*
X175919117Y-135022171D01*
X175901393Y-135006107D01*
X175885329Y-134988383D01*
X175871079Y-134969170D01*
X175858782Y-134948653D01*
X175848554Y-134927029D01*
X175840496Y-134904507D01*
X175834684Y-134881303D01*
X175831174Y-134857642D01*
X175830000Y-134833750D01*
X175830000Y-134346250D01*
X175831174Y-134322358D01*
X175834684Y-134298697D01*
X175840496Y-134275493D01*
X175848554Y-134252971D01*
X175858782Y-134231347D01*
X175871079Y-134210830D01*
X175885329Y-134191617D01*
X175901393Y-134173893D01*
X175919117Y-134157829D01*
X175938330Y-134143579D01*
X175958847Y-134131282D01*
X175980471Y-134121054D01*
X176002993Y-134112996D01*
X176026197Y-134107184D01*
X176049858Y-134103674D01*
X176073750Y-134102500D01*
X176986250Y-134102500D01*
X177010142Y-134103674D01*
G37*
G36*
X177010142Y-132228674D02*
G01*
X177033803Y-132232184D01*
X177057007Y-132237996D01*
X177079529Y-132246054D01*
X177101153Y-132256282D01*
X177121670Y-132268579D01*
X177140883Y-132282829D01*
X177158607Y-132298893D01*
X177174671Y-132316617D01*
X177188921Y-132335830D01*
X177201218Y-132356347D01*
X177211446Y-132377971D01*
X177219504Y-132400493D01*
X177225316Y-132423697D01*
X177228826Y-132447358D01*
X177230000Y-132471250D01*
X177230000Y-132958750D01*
X177228826Y-132982642D01*
X177225316Y-133006303D01*
X177219504Y-133029507D01*
X177211446Y-133052029D01*
X177201218Y-133073653D01*
X177188921Y-133094170D01*
X177174671Y-133113383D01*
X177158607Y-133131107D01*
X177140883Y-133147171D01*
X177121670Y-133161421D01*
X177101153Y-133173718D01*
X177079529Y-133183946D01*
X177057007Y-133192004D01*
X177033803Y-133197816D01*
X177010142Y-133201326D01*
X176986250Y-133202500D01*
X176073750Y-133202500D01*
X176049858Y-133201326D01*
X176026197Y-133197816D01*
X176002993Y-133192004D01*
X175980471Y-133183946D01*
X175958847Y-133173718D01*
X175938330Y-133161421D01*
X175919117Y-133147171D01*
X175901393Y-133131107D01*
X175885329Y-133113383D01*
X175871079Y-133094170D01*
X175858782Y-133073653D01*
X175848554Y-133052029D01*
X175840496Y-133029507D01*
X175834684Y-133006303D01*
X175831174Y-132982642D01*
X175830000Y-132958750D01*
X175830000Y-132471250D01*
X175831174Y-132447358D01*
X175834684Y-132423697D01*
X175840496Y-132400493D01*
X175848554Y-132377971D01*
X175858782Y-132356347D01*
X175871079Y-132335830D01*
X175885329Y-132316617D01*
X175901393Y-132298893D01*
X175919117Y-132282829D01*
X175938330Y-132268579D01*
X175958847Y-132256282D01*
X175980471Y-132246054D01*
X176002993Y-132237996D01*
X176026197Y-132232184D01*
X176049858Y-132228674D01*
X176073750Y-132227500D01*
X176986250Y-132227500D01*
X177010142Y-132228674D01*
G37*
G36*
X172565142Y-134103674D02*
G01*
X172588803Y-134107184D01*
X172612007Y-134112996D01*
X172634529Y-134121054D01*
X172656153Y-134131282D01*
X172676670Y-134143579D01*
X172695883Y-134157829D01*
X172713607Y-134173893D01*
X172729671Y-134191617D01*
X172743921Y-134210830D01*
X172756218Y-134231347D01*
X172766446Y-134252971D01*
X172774504Y-134275493D01*
X172780316Y-134298697D01*
X172783826Y-134322358D01*
X172785000Y-134346250D01*
X172785000Y-134833750D01*
X172783826Y-134857642D01*
X172780316Y-134881303D01*
X172774504Y-134904507D01*
X172766446Y-134927029D01*
X172756218Y-134948653D01*
X172743921Y-134969170D01*
X172729671Y-134988383D01*
X172713607Y-135006107D01*
X172695883Y-135022171D01*
X172676670Y-135036421D01*
X172656153Y-135048718D01*
X172634529Y-135058946D01*
X172612007Y-135067004D01*
X172588803Y-135072816D01*
X172565142Y-135076326D01*
X172541250Y-135077500D01*
X171628750Y-135077500D01*
X171604858Y-135076326D01*
X171581197Y-135072816D01*
X171557993Y-135067004D01*
X171535471Y-135058946D01*
X171513847Y-135048718D01*
X171493330Y-135036421D01*
X171474117Y-135022171D01*
X171456393Y-135006107D01*
X171440329Y-134988383D01*
X171426079Y-134969170D01*
X171413782Y-134948653D01*
X171403554Y-134927029D01*
X171395496Y-134904507D01*
X171389684Y-134881303D01*
X171386174Y-134857642D01*
X171385000Y-134833750D01*
X171385000Y-134346250D01*
X171386174Y-134322358D01*
X171389684Y-134298697D01*
X171395496Y-134275493D01*
X171403554Y-134252971D01*
X171413782Y-134231347D01*
X171426079Y-134210830D01*
X171440329Y-134191617D01*
X171456393Y-134173893D01*
X171474117Y-134157829D01*
X171493330Y-134143579D01*
X171513847Y-134131282D01*
X171535471Y-134121054D01*
X171557993Y-134112996D01*
X171581197Y-134107184D01*
X171604858Y-134103674D01*
X171628750Y-134102500D01*
X172541250Y-134102500D01*
X172565142Y-134103674D01*
G37*
G36*
X172565142Y-132228674D02*
G01*
X172588803Y-132232184D01*
X172612007Y-132237996D01*
X172634529Y-132246054D01*
X172656153Y-132256282D01*
X172676670Y-132268579D01*
X172695883Y-132282829D01*
X172713607Y-132298893D01*
X172729671Y-132316617D01*
X172743921Y-132335830D01*
X172756218Y-132356347D01*
X172766446Y-132377971D01*
X172774504Y-132400493D01*
X172780316Y-132423697D01*
X172783826Y-132447358D01*
X172785000Y-132471250D01*
X172785000Y-132958750D01*
X172783826Y-132982642D01*
X172780316Y-133006303D01*
X172774504Y-133029507D01*
X172766446Y-133052029D01*
X172756218Y-133073653D01*
X172743921Y-133094170D01*
X172729671Y-133113383D01*
X172713607Y-133131107D01*
X172695883Y-133147171D01*
X172676670Y-133161421D01*
X172656153Y-133173718D01*
X172634529Y-133183946D01*
X172612007Y-133192004D01*
X172588803Y-133197816D01*
X172565142Y-133201326D01*
X172541250Y-133202500D01*
X171628750Y-133202500D01*
X171604858Y-133201326D01*
X171581197Y-133197816D01*
X171557993Y-133192004D01*
X171535471Y-133183946D01*
X171513847Y-133173718D01*
X171493330Y-133161421D01*
X171474117Y-133147171D01*
X171456393Y-133131107D01*
X171440329Y-133113383D01*
X171426079Y-133094170D01*
X171413782Y-133073653D01*
X171403554Y-133052029D01*
X171395496Y-133029507D01*
X171389684Y-133006303D01*
X171386174Y-132982642D01*
X171385000Y-132958750D01*
X171385000Y-132471250D01*
X171386174Y-132447358D01*
X171389684Y-132423697D01*
X171395496Y-132400493D01*
X171403554Y-132377971D01*
X171413782Y-132356347D01*
X171426079Y-132335830D01*
X171440329Y-132316617D01*
X171456393Y-132298893D01*
X171474117Y-132282829D01*
X171493330Y-132268579D01*
X171513847Y-132256282D01*
X171535471Y-132246054D01*
X171557993Y-132237996D01*
X171581197Y-132232184D01*
X171604858Y-132228674D01*
X171628750Y-132227500D01*
X172541250Y-132227500D01*
X172565142Y-132228674D01*
G37*
G36*
X165834142Y-127753674D02*
G01*
X165857803Y-127757184D01*
X165881007Y-127762996D01*
X165903529Y-127771054D01*
X165925153Y-127781282D01*
X165945670Y-127793579D01*
X165964883Y-127807829D01*
X165982607Y-127823893D01*
X165998671Y-127841617D01*
X166012921Y-127860830D01*
X166025218Y-127881347D01*
X166035446Y-127902971D01*
X166043504Y-127925493D01*
X166049316Y-127948697D01*
X166052826Y-127972358D01*
X166054000Y-127996250D01*
X166054000Y-128483750D01*
X166052826Y-128507642D01*
X166049316Y-128531303D01*
X166043504Y-128554507D01*
X166035446Y-128577029D01*
X166025218Y-128598653D01*
X166012921Y-128619170D01*
X165998671Y-128638383D01*
X165982607Y-128656107D01*
X165964883Y-128672171D01*
X165945670Y-128686421D01*
X165925153Y-128698718D01*
X165903529Y-128708946D01*
X165881007Y-128717004D01*
X165857803Y-128722816D01*
X165834142Y-128726326D01*
X165810250Y-128727500D01*
X164897750Y-128727500D01*
X164873858Y-128726326D01*
X164850197Y-128722816D01*
X164826993Y-128717004D01*
X164804471Y-128708946D01*
X164782847Y-128698718D01*
X164762330Y-128686421D01*
X164743117Y-128672171D01*
X164725393Y-128656107D01*
X164709329Y-128638383D01*
X164695079Y-128619170D01*
X164682782Y-128598653D01*
X164672554Y-128577029D01*
X164664496Y-128554507D01*
X164658684Y-128531303D01*
X164655174Y-128507642D01*
X164654000Y-128483750D01*
X164654000Y-127996250D01*
X164655174Y-127972358D01*
X164658684Y-127948697D01*
X164664496Y-127925493D01*
X164672554Y-127902971D01*
X164682782Y-127881347D01*
X164695079Y-127860830D01*
X164709329Y-127841617D01*
X164725393Y-127823893D01*
X164743117Y-127807829D01*
X164762330Y-127793579D01*
X164782847Y-127781282D01*
X164804471Y-127771054D01*
X164826993Y-127762996D01*
X164850197Y-127757184D01*
X164873858Y-127753674D01*
X164897750Y-127752500D01*
X165810250Y-127752500D01*
X165834142Y-127753674D01*
G37*
G36*
X165834142Y-125878674D02*
G01*
X165857803Y-125882184D01*
X165881007Y-125887996D01*
X165903529Y-125896054D01*
X165925153Y-125906282D01*
X165945670Y-125918579D01*
X165964883Y-125932829D01*
X165982607Y-125948893D01*
X165998671Y-125966617D01*
X166012921Y-125985830D01*
X166025218Y-126006347D01*
X166035446Y-126027971D01*
X166043504Y-126050493D01*
X166049316Y-126073697D01*
X166052826Y-126097358D01*
X166054000Y-126121250D01*
X166054000Y-126608750D01*
X166052826Y-126632642D01*
X166049316Y-126656303D01*
X166043504Y-126679507D01*
X166035446Y-126702029D01*
X166025218Y-126723653D01*
X166012921Y-126744170D01*
X165998671Y-126763383D01*
X165982607Y-126781107D01*
X165964883Y-126797171D01*
X165945670Y-126811421D01*
X165925153Y-126823718D01*
X165903529Y-126833946D01*
X165881007Y-126842004D01*
X165857803Y-126847816D01*
X165834142Y-126851326D01*
X165810250Y-126852500D01*
X164897750Y-126852500D01*
X164873858Y-126851326D01*
X164850197Y-126847816D01*
X164826993Y-126842004D01*
X164804471Y-126833946D01*
X164782847Y-126823718D01*
X164762330Y-126811421D01*
X164743117Y-126797171D01*
X164725393Y-126781107D01*
X164709329Y-126763383D01*
X164695079Y-126744170D01*
X164682782Y-126723653D01*
X164672554Y-126702029D01*
X164664496Y-126679507D01*
X164658684Y-126656303D01*
X164655174Y-126632642D01*
X164654000Y-126608750D01*
X164654000Y-126121250D01*
X164655174Y-126097358D01*
X164658684Y-126073697D01*
X164664496Y-126050493D01*
X164672554Y-126027971D01*
X164682782Y-126006347D01*
X164695079Y-125985830D01*
X164709329Y-125966617D01*
X164725393Y-125948893D01*
X164743117Y-125932829D01*
X164762330Y-125918579D01*
X164782847Y-125906282D01*
X164804471Y-125896054D01*
X164826993Y-125887996D01*
X164850197Y-125882184D01*
X164873858Y-125878674D01*
X164897750Y-125877500D01*
X165810250Y-125877500D01*
X165834142Y-125878674D01*
G37*
G36*
X169480142Y-123126174D02*
G01*
X169503803Y-123129684D01*
X169527007Y-123135496D01*
X169549529Y-123143554D01*
X169571153Y-123153782D01*
X169591670Y-123166079D01*
X169610883Y-123180329D01*
X169628607Y-123196393D01*
X169644671Y-123214117D01*
X169658921Y-123233330D01*
X169671218Y-123253847D01*
X169681446Y-123275471D01*
X169689504Y-123297993D01*
X169695316Y-123321197D01*
X169698826Y-123344858D01*
X169700000Y-123368750D01*
X169700000Y-124281250D01*
X169698826Y-124305142D01*
X169695316Y-124328803D01*
X169689504Y-124352007D01*
X169681446Y-124374529D01*
X169671218Y-124396153D01*
X169658921Y-124416670D01*
X169644671Y-124435883D01*
X169628607Y-124453607D01*
X169610883Y-124469671D01*
X169591670Y-124483921D01*
X169571153Y-124496218D01*
X169549529Y-124506446D01*
X169527007Y-124514504D01*
X169503803Y-124520316D01*
X169480142Y-124523826D01*
X169456250Y-124525000D01*
X168968750Y-124525000D01*
X168944858Y-124523826D01*
X168921197Y-124520316D01*
X168897993Y-124514504D01*
X168875471Y-124506446D01*
X168853847Y-124496218D01*
X168833330Y-124483921D01*
X168814117Y-124469671D01*
X168796393Y-124453607D01*
X168780329Y-124435883D01*
X168766079Y-124416670D01*
X168753782Y-124396153D01*
X168743554Y-124374529D01*
X168735496Y-124352007D01*
X168729684Y-124328803D01*
X168726174Y-124305142D01*
X168725000Y-124281250D01*
X168725000Y-123368750D01*
X168726174Y-123344858D01*
X168729684Y-123321197D01*
X168735496Y-123297993D01*
X168743554Y-123275471D01*
X168753782Y-123253847D01*
X168766079Y-123233330D01*
X168780329Y-123214117D01*
X168796393Y-123196393D01*
X168814117Y-123180329D01*
X168833330Y-123166079D01*
X168853847Y-123153782D01*
X168875471Y-123143554D01*
X168897993Y-123135496D01*
X168921197Y-123129684D01*
X168944858Y-123126174D01*
X168968750Y-123125000D01*
X169456250Y-123125000D01*
X169480142Y-123126174D01*
G37*
G36*
X167605142Y-123126174D02*
G01*
X167628803Y-123129684D01*
X167652007Y-123135496D01*
X167674529Y-123143554D01*
X167696153Y-123153782D01*
X167716670Y-123166079D01*
X167735883Y-123180329D01*
X167753607Y-123196393D01*
X167769671Y-123214117D01*
X167783921Y-123233330D01*
X167796218Y-123253847D01*
X167806446Y-123275471D01*
X167814504Y-123297993D01*
X167820316Y-123321197D01*
X167823826Y-123344858D01*
X167825000Y-123368750D01*
X167825000Y-124281250D01*
X167823826Y-124305142D01*
X167820316Y-124328803D01*
X167814504Y-124352007D01*
X167806446Y-124374529D01*
X167796218Y-124396153D01*
X167783921Y-124416670D01*
X167769671Y-124435883D01*
X167753607Y-124453607D01*
X167735883Y-124469671D01*
X167716670Y-124483921D01*
X167696153Y-124496218D01*
X167674529Y-124506446D01*
X167652007Y-124514504D01*
X167628803Y-124520316D01*
X167605142Y-124523826D01*
X167581250Y-124525000D01*
X167093750Y-124525000D01*
X167069858Y-124523826D01*
X167046197Y-124520316D01*
X167022993Y-124514504D01*
X167000471Y-124506446D01*
X166978847Y-124496218D01*
X166958330Y-124483921D01*
X166939117Y-124469671D01*
X166921393Y-124453607D01*
X166905329Y-124435883D01*
X166891079Y-124416670D01*
X166878782Y-124396153D01*
X166868554Y-124374529D01*
X166860496Y-124352007D01*
X166854684Y-124328803D01*
X166851174Y-124305142D01*
X166850000Y-124281250D01*
X166850000Y-123368750D01*
X166851174Y-123344858D01*
X166854684Y-123321197D01*
X166860496Y-123297993D01*
X166868554Y-123275471D01*
X166878782Y-123253847D01*
X166891079Y-123233330D01*
X166905329Y-123214117D01*
X166921393Y-123196393D01*
X166939117Y-123180329D01*
X166958330Y-123166079D01*
X166978847Y-123153782D01*
X167000471Y-123143554D01*
X167022993Y-123135496D01*
X167046197Y-123129684D01*
X167069858Y-123126174D01*
X167093750Y-123125000D01*
X167581250Y-123125000D01*
X167605142Y-123126174D01*
G37*
G36*
X160995142Y-149161174D02*
G01*
X161018803Y-149164684D01*
X161042007Y-149170496D01*
X161064529Y-149178554D01*
X161086153Y-149188782D01*
X161106670Y-149201079D01*
X161125883Y-149215329D01*
X161143607Y-149231393D01*
X161159671Y-149249117D01*
X161173921Y-149268330D01*
X161186218Y-149288847D01*
X161196446Y-149310471D01*
X161204504Y-149332993D01*
X161210316Y-149356197D01*
X161213826Y-149379858D01*
X161215000Y-149403750D01*
X161215000Y-150316250D01*
X161213826Y-150340142D01*
X161210316Y-150363803D01*
X161204504Y-150387007D01*
X161196446Y-150409529D01*
X161186218Y-150431153D01*
X161173921Y-150451670D01*
X161159671Y-150470883D01*
X161143607Y-150488607D01*
X161125883Y-150504671D01*
X161106670Y-150518921D01*
X161086153Y-150531218D01*
X161064529Y-150541446D01*
X161042007Y-150549504D01*
X161018803Y-150555316D01*
X160995142Y-150558826D01*
X160971250Y-150560000D01*
X160483750Y-150560000D01*
X160459858Y-150558826D01*
X160436197Y-150555316D01*
X160412993Y-150549504D01*
X160390471Y-150541446D01*
X160368847Y-150531218D01*
X160348330Y-150518921D01*
X160329117Y-150504671D01*
X160311393Y-150488607D01*
X160295329Y-150470883D01*
X160281079Y-150451670D01*
X160268782Y-150431153D01*
X160258554Y-150409529D01*
X160250496Y-150387007D01*
X160244684Y-150363803D01*
X160241174Y-150340142D01*
X160240000Y-150316250D01*
X160240000Y-149403750D01*
X160241174Y-149379858D01*
X160244684Y-149356197D01*
X160250496Y-149332993D01*
X160258554Y-149310471D01*
X160268782Y-149288847D01*
X160281079Y-149268330D01*
X160295329Y-149249117D01*
X160311393Y-149231393D01*
X160329117Y-149215329D01*
X160348330Y-149201079D01*
X160368847Y-149188782D01*
X160390471Y-149178554D01*
X160412993Y-149170496D01*
X160436197Y-149164684D01*
X160459858Y-149161174D01*
X160483750Y-149160000D01*
X160971250Y-149160000D01*
X160995142Y-149161174D01*
G37*
G36*
X159120142Y-149161174D02*
G01*
X159143803Y-149164684D01*
X159167007Y-149170496D01*
X159189529Y-149178554D01*
X159211153Y-149188782D01*
X159231670Y-149201079D01*
X159250883Y-149215329D01*
X159268607Y-149231393D01*
X159284671Y-149249117D01*
X159298921Y-149268330D01*
X159311218Y-149288847D01*
X159321446Y-149310471D01*
X159329504Y-149332993D01*
X159335316Y-149356197D01*
X159338826Y-149379858D01*
X159340000Y-149403750D01*
X159340000Y-150316250D01*
X159338826Y-150340142D01*
X159335316Y-150363803D01*
X159329504Y-150387007D01*
X159321446Y-150409529D01*
X159311218Y-150431153D01*
X159298921Y-150451670D01*
X159284671Y-150470883D01*
X159268607Y-150488607D01*
X159250883Y-150504671D01*
X159231670Y-150518921D01*
X159211153Y-150531218D01*
X159189529Y-150541446D01*
X159167007Y-150549504D01*
X159143803Y-150555316D01*
X159120142Y-150558826D01*
X159096250Y-150560000D01*
X158608750Y-150560000D01*
X158584858Y-150558826D01*
X158561197Y-150555316D01*
X158537993Y-150549504D01*
X158515471Y-150541446D01*
X158493847Y-150531218D01*
X158473330Y-150518921D01*
X158454117Y-150504671D01*
X158436393Y-150488607D01*
X158420329Y-150470883D01*
X158406079Y-150451670D01*
X158393782Y-150431153D01*
X158383554Y-150409529D01*
X158375496Y-150387007D01*
X158369684Y-150363803D01*
X158366174Y-150340142D01*
X158365000Y-150316250D01*
X158365000Y-149403750D01*
X158366174Y-149379858D01*
X158369684Y-149356197D01*
X158375496Y-149332993D01*
X158383554Y-149310471D01*
X158393782Y-149288847D01*
X158406079Y-149268330D01*
X158420329Y-149249117D01*
X158436393Y-149231393D01*
X158454117Y-149215329D01*
X158473330Y-149201079D01*
X158493847Y-149188782D01*
X158515471Y-149178554D01*
X158537993Y-149170496D01*
X158561197Y-149164684D01*
X158584858Y-149161174D01*
X158608750Y-149160000D01*
X159096250Y-149160000D01*
X159120142Y-149161174D01*
G37*
G36*
X156690142Y-145261174D02*
G01*
X156713803Y-145264684D01*
X156737007Y-145270496D01*
X156759529Y-145278554D01*
X156781153Y-145288782D01*
X156801670Y-145301079D01*
X156820883Y-145315329D01*
X156838607Y-145331393D01*
X156854671Y-145349117D01*
X156868921Y-145368330D01*
X156881218Y-145388847D01*
X156891446Y-145410471D01*
X156899504Y-145432993D01*
X156905316Y-145456197D01*
X156908826Y-145479858D01*
X156910000Y-145503750D01*
X156910000Y-145991250D01*
X156908826Y-146015142D01*
X156905316Y-146038803D01*
X156899504Y-146062007D01*
X156891446Y-146084529D01*
X156881218Y-146106153D01*
X156868921Y-146126670D01*
X156854671Y-146145883D01*
X156838607Y-146163607D01*
X156820883Y-146179671D01*
X156801670Y-146193921D01*
X156781153Y-146206218D01*
X156759529Y-146216446D01*
X156737007Y-146224504D01*
X156713803Y-146230316D01*
X156690142Y-146233826D01*
X156666250Y-146235000D01*
X155753750Y-146235000D01*
X155729858Y-146233826D01*
X155706197Y-146230316D01*
X155682993Y-146224504D01*
X155660471Y-146216446D01*
X155638847Y-146206218D01*
X155618330Y-146193921D01*
X155599117Y-146179671D01*
X155581393Y-146163607D01*
X155565329Y-146145883D01*
X155551079Y-146126670D01*
X155538782Y-146106153D01*
X155528554Y-146084529D01*
X155520496Y-146062007D01*
X155514684Y-146038803D01*
X155511174Y-146015142D01*
X155510000Y-145991250D01*
X155510000Y-145503750D01*
X155511174Y-145479858D01*
X155514684Y-145456197D01*
X155520496Y-145432993D01*
X155528554Y-145410471D01*
X155538782Y-145388847D01*
X155551079Y-145368330D01*
X155565329Y-145349117D01*
X155581393Y-145331393D01*
X155599117Y-145315329D01*
X155618330Y-145301079D01*
X155638847Y-145288782D01*
X155660471Y-145278554D01*
X155682993Y-145270496D01*
X155706197Y-145264684D01*
X155729858Y-145261174D01*
X155753750Y-145260000D01*
X156666250Y-145260000D01*
X156690142Y-145261174D01*
G37*
G36*
X156690142Y-147136174D02*
G01*
X156713803Y-147139684D01*
X156737007Y-147145496D01*
X156759529Y-147153554D01*
X156781153Y-147163782D01*
X156801670Y-147176079D01*
X156820883Y-147190329D01*
X156838607Y-147206393D01*
X156854671Y-147224117D01*
X156868921Y-147243330D01*
X156881218Y-147263847D01*
X156891446Y-147285471D01*
X156899504Y-147307993D01*
X156905316Y-147331197D01*
X156908826Y-147354858D01*
X156910000Y-147378750D01*
X156910000Y-147866250D01*
X156908826Y-147890142D01*
X156905316Y-147913803D01*
X156899504Y-147937007D01*
X156891446Y-147959529D01*
X156881218Y-147981153D01*
X156868921Y-148001670D01*
X156854671Y-148020883D01*
X156838607Y-148038607D01*
X156820883Y-148054671D01*
X156801670Y-148068921D01*
X156781153Y-148081218D01*
X156759529Y-148091446D01*
X156737007Y-148099504D01*
X156713803Y-148105316D01*
X156690142Y-148108826D01*
X156666250Y-148110000D01*
X155753750Y-148110000D01*
X155729858Y-148108826D01*
X155706197Y-148105316D01*
X155682993Y-148099504D01*
X155660471Y-148091446D01*
X155638847Y-148081218D01*
X155618330Y-148068921D01*
X155599117Y-148054671D01*
X155581393Y-148038607D01*
X155565329Y-148020883D01*
X155551079Y-148001670D01*
X155538782Y-147981153D01*
X155528554Y-147959529D01*
X155520496Y-147937007D01*
X155514684Y-147913803D01*
X155511174Y-147890142D01*
X155510000Y-147866250D01*
X155510000Y-147378750D01*
X155511174Y-147354858D01*
X155514684Y-147331197D01*
X155520496Y-147307993D01*
X155528554Y-147285471D01*
X155538782Y-147263847D01*
X155551079Y-147243330D01*
X155565329Y-147224117D01*
X155581393Y-147206393D01*
X155599117Y-147190329D01*
X155618330Y-147176079D01*
X155638847Y-147163782D01*
X155660471Y-147153554D01*
X155682993Y-147145496D01*
X155706197Y-147139684D01*
X155729858Y-147136174D01*
X155753750Y-147135000D01*
X156666250Y-147135000D01*
X156690142Y-147136174D01*
G37*
G36*
X145260142Y-112876174D02*
G01*
X145283803Y-112879684D01*
X145307007Y-112885496D01*
X145329529Y-112893554D01*
X145351153Y-112903782D01*
X145371670Y-112916079D01*
X145390883Y-112930329D01*
X145408607Y-112946393D01*
X145424671Y-112964117D01*
X145438921Y-112983330D01*
X145451218Y-113003847D01*
X145461446Y-113025471D01*
X145469504Y-113047993D01*
X145475316Y-113071197D01*
X145478826Y-113094858D01*
X145480000Y-113118750D01*
X145480000Y-113606250D01*
X145478826Y-113630142D01*
X145475316Y-113653803D01*
X145469504Y-113677007D01*
X145461446Y-113699529D01*
X145451218Y-113721153D01*
X145438921Y-113741670D01*
X145424671Y-113760883D01*
X145408607Y-113778607D01*
X145390883Y-113794671D01*
X145371670Y-113808921D01*
X145351153Y-113821218D01*
X145329529Y-113831446D01*
X145307007Y-113839504D01*
X145283803Y-113845316D01*
X145260142Y-113848826D01*
X145236250Y-113850000D01*
X144323750Y-113850000D01*
X144299858Y-113848826D01*
X144276197Y-113845316D01*
X144252993Y-113839504D01*
X144230471Y-113831446D01*
X144208847Y-113821218D01*
X144188330Y-113808921D01*
X144169117Y-113794671D01*
X144151393Y-113778607D01*
X144135329Y-113760883D01*
X144121079Y-113741670D01*
X144108782Y-113721153D01*
X144098554Y-113699529D01*
X144090496Y-113677007D01*
X144084684Y-113653803D01*
X144081174Y-113630142D01*
X144080000Y-113606250D01*
X144080000Y-113118750D01*
X144081174Y-113094858D01*
X144084684Y-113071197D01*
X144090496Y-113047993D01*
X144098554Y-113025471D01*
X144108782Y-113003847D01*
X144121079Y-112983330D01*
X144135329Y-112964117D01*
X144151393Y-112946393D01*
X144169117Y-112930329D01*
X144188330Y-112916079D01*
X144208847Y-112903782D01*
X144230471Y-112893554D01*
X144252993Y-112885496D01*
X144276197Y-112879684D01*
X144299858Y-112876174D01*
X144323750Y-112875000D01*
X145236250Y-112875000D01*
X145260142Y-112876174D01*
G37*
G36*
X145260142Y-114751174D02*
G01*
X145283803Y-114754684D01*
X145307007Y-114760496D01*
X145329529Y-114768554D01*
X145351153Y-114778782D01*
X145371670Y-114791079D01*
X145390883Y-114805329D01*
X145408607Y-114821393D01*
X145424671Y-114839117D01*
X145438921Y-114858330D01*
X145451218Y-114878847D01*
X145461446Y-114900471D01*
X145469504Y-114922993D01*
X145475316Y-114946197D01*
X145478826Y-114969858D01*
X145480000Y-114993750D01*
X145480000Y-115481250D01*
X145478826Y-115505142D01*
X145475316Y-115528803D01*
X145469504Y-115552007D01*
X145461446Y-115574529D01*
X145451218Y-115596153D01*
X145438921Y-115616670D01*
X145424671Y-115635883D01*
X145408607Y-115653607D01*
X145390883Y-115669671D01*
X145371670Y-115683921D01*
X145351153Y-115696218D01*
X145329529Y-115706446D01*
X145307007Y-115714504D01*
X145283803Y-115720316D01*
X145260142Y-115723826D01*
X145236250Y-115725000D01*
X144323750Y-115725000D01*
X144299858Y-115723826D01*
X144276197Y-115720316D01*
X144252993Y-115714504D01*
X144230471Y-115706446D01*
X144208847Y-115696218D01*
X144188330Y-115683921D01*
X144169117Y-115669671D01*
X144151393Y-115653607D01*
X144135329Y-115635883D01*
X144121079Y-115616670D01*
X144108782Y-115596153D01*
X144098554Y-115574529D01*
X144090496Y-115552007D01*
X144084684Y-115528803D01*
X144081174Y-115505142D01*
X144080000Y-115481250D01*
X144080000Y-114993750D01*
X144081174Y-114969858D01*
X144084684Y-114946197D01*
X144090496Y-114922993D01*
X144098554Y-114900471D01*
X144108782Y-114878847D01*
X144121079Y-114858330D01*
X144135329Y-114839117D01*
X144151393Y-114821393D01*
X144169117Y-114805329D01*
X144188330Y-114791079D01*
X144208847Y-114778782D01*
X144230471Y-114768554D01*
X144252993Y-114760496D01*
X144276197Y-114754684D01*
X144299858Y-114751174D01*
X144323750Y-114750000D01*
X145236250Y-114750000D01*
X145260142Y-114751174D01*
G37*
G36*
X143355142Y-114751174D02*
G01*
X143378803Y-114754684D01*
X143402007Y-114760496D01*
X143424529Y-114768554D01*
X143446153Y-114778782D01*
X143466670Y-114791079D01*
X143485883Y-114805329D01*
X143503607Y-114821393D01*
X143519671Y-114839117D01*
X143533921Y-114858330D01*
X143546218Y-114878847D01*
X143556446Y-114900471D01*
X143564504Y-114922993D01*
X143570316Y-114946197D01*
X143573826Y-114969858D01*
X143575000Y-114993750D01*
X143575000Y-115481250D01*
X143573826Y-115505142D01*
X143570316Y-115528803D01*
X143564504Y-115552007D01*
X143556446Y-115574529D01*
X143546218Y-115596153D01*
X143533921Y-115616670D01*
X143519671Y-115635883D01*
X143503607Y-115653607D01*
X143485883Y-115669671D01*
X143466670Y-115683921D01*
X143446153Y-115696218D01*
X143424529Y-115706446D01*
X143402007Y-115714504D01*
X143378803Y-115720316D01*
X143355142Y-115723826D01*
X143331250Y-115725000D01*
X142418750Y-115725000D01*
X142394858Y-115723826D01*
X142371197Y-115720316D01*
X142347993Y-115714504D01*
X142325471Y-115706446D01*
X142303847Y-115696218D01*
X142283330Y-115683921D01*
X142264117Y-115669671D01*
X142246393Y-115653607D01*
X142230329Y-115635883D01*
X142216079Y-115616670D01*
X142203782Y-115596153D01*
X142193554Y-115574529D01*
X142185496Y-115552007D01*
X142179684Y-115528803D01*
X142176174Y-115505142D01*
X142175000Y-115481250D01*
X142175000Y-114993750D01*
X142176174Y-114969858D01*
X142179684Y-114946197D01*
X142185496Y-114922993D01*
X142193554Y-114900471D01*
X142203782Y-114878847D01*
X142216079Y-114858330D01*
X142230329Y-114839117D01*
X142246393Y-114821393D01*
X142264117Y-114805329D01*
X142283330Y-114791079D01*
X142303847Y-114778782D01*
X142325471Y-114768554D01*
X142347993Y-114760496D01*
X142371197Y-114754684D01*
X142394858Y-114751174D01*
X142418750Y-114750000D01*
X143331250Y-114750000D01*
X143355142Y-114751174D01*
G37*
G36*
X143355142Y-112876174D02*
G01*
X143378803Y-112879684D01*
X143402007Y-112885496D01*
X143424529Y-112893554D01*
X143446153Y-112903782D01*
X143466670Y-112916079D01*
X143485883Y-112930329D01*
X143503607Y-112946393D01*
X143519671Y-112964117D01*
X143533921Y-112983330D01*
X143546218Y-113003847D01*
X143556446Y-113025471D01*
X143564504Y-113047993D01*
X143570316Y-113071197D01*
X143573826Y-113094858D01*
X143575000Y-113118750D01*
X143575000Y-113606250D01*
X143573826Y-113630142D01*
X143570316Y-113653803D01*
X143564504Y-113677007D01*
X143556446Y-113699529D01*
X143546218Y-113721153D01*
X143533921Y-113741670D01*
X143519671Y-113760883D01*
X143503607Y-113778607D01*
X143485883Y-113794671D01*
X143466670Y-113808921D01*
X143446153Y-113821218D01*
X143424529Y-113831446D01*
X143402007Y-113839504D01*
X143378803Y-113845316D01*
X143355142Y-113848826D01*
X143331250Y-113850000D01*
X142418750Y-113850000D01*
X142394858Y-113848826D01*
X142371197Y-113845316D01*
X142347993Y-113839504D01*
X142325471Y-113831446D01*
X142303847Y-113821218D01*
X142283330Y-113808921D01*
X142264117Y-113794671D01*
X142246393Y-113778607D01*
X142230329Y-113760883D01*
X142216079Y-113741670D01*
X142203782Y-113721153D01*
X142193554Y-113699529D01*
X142185496Y-113677007D01*
X142179684Y-113653803D01*
X142176174Y-113630142D01*
X142175000Y-113606250D01*
X142175000Y-113118750D01*
X142176174Y-113094858D01*
X142179684Y-113071197D01*
X142185496Y-113047993D01*
X142193554Y-113025471D01*
X142203782Y-113003847D01*
X142216079Y-112983330D01*
X142230329Y-112964117D01*
X142246393Y-112946393D01*
X142264117Y-112930329D01*
X142283330Y-112916079D01*
X142303847Y-112903782D01*
X142325471Y-112893554D01*
X142347993Y-112885496D01*
X142371197Y-112879684D01*
X142394858Y-112876174D01*
X142418750Y-112875000D01*
X143331250Y-112875000D01*
X143355142Y-112876174D01*
G37*
G36*
X177432642Y-107886174D02*
G01*
X177456303Y-107889684D01*
X177479507Y-107895496D01*
X177502029Y-107903554D01*
X177523653Y-107913782D01*
X177544170Y-107926079D01*
X177563383Y-107940329D01*
X177581107Y-107956393D01*
X177597171Y-107974117D01*
X177611421Y-107993330D01*
X177623718Y-108013847D01*
X177633946Y-108035471D01*
X177642004Y-108057993D01*
X177647816Y-108081197D01*
X177651326Y-108104858D01*
X177652500Y-108128750D01*
X177652500Y-109041250D01*
X177651326Y-109065142D01*
X177647816Y-109088803D01*
X177642004Y-109112007D01*
X177633946Y-109134529D01*
X177623718Y-109156153D01*
X177611421Y-109176670D01*
X177597171Y-109195883D01*
X177581107Y-109213607D01*
X177563383Y-109229671D01*
X177544170Y-109243921D01*
X177523653Y-109256218D01*
X177502029Y-109266446D01*
X177479507Y-109274504D01*
X177456303Y-109280316D01*
X177432642Y-109283826D01*
X177408750Y-109285000D01*
X176921250Y-109285000D01*
X176897358Y-109283826D01*
X176873697Y-109280316D01*
X176850493Y-109274504D01*
X176827971Y-109266446D01*
X176806347Y-109256218D01*
X176785830Y-109243921D01*
X176766617Y-109229671D01*
X176748893Y-109213607D01*
X176732829Y-109195883D01*
X176718579Y-109176670D01*
X176706282Y-109156153D01*
X176696054Y-109134529D01*
X176687996Y-109112007D01*
X176682184Y-109088803D01*
X176678674Y-109065142D01*
X176677500Y-109041250D01*
X176677500Y-108128750D01*
X176678674Y-108104858D01*
X176682184Y-108081197D01*
X176687996Y-108057993D01*
X176696054Y-108035471D01*
X176706282Y-108013847D01*
X176718579Y-107993330D01*
X176732829Y-107974117D01*
X176748893Y-107956393D01*
X176766617Y-107940329D01*
X176785830Y-107926079D01*
X176806347Y-107913782D01*
X176827971Y-107903554D01*
X176850493Y-107895496D01*
X176873697Y-107889684D01*
X176897358Y-107886174D01*
X176921250Y-107885000D01*
X177408750Y-107885000D01*
X177432642Y-107886174D01*
G37*
G36*
X179307642Y-107886174D02*
G01*
X179331303Y-107889684D01*
X179354507Y-107895496D01*
X179377029Y-107903554D01*
X179398653Y-107913782D01*
X179419170Y-107926079D01*
X179438383Y-107940329D01*
X179456107Y-107956393D01*
X179472171Y-107974117D01*
X179486421Y-107993330D01*
X179498718Y-108013847D01*
X179508946Y-108035471D01*
X179517004Y-108057993D01*
X179522816Y-108081197D01*
X179526326Y-108104858D01*
X179527500Y-108128750D01*
X179527500Y-109041250D01*
X179526326Y-109065142D01*
X179522816Y-109088803D01*
X179517004Y-109112007D01*
X179508946Y-109134529D01*
X179498718Y-109156153D01*
X179486421Y-109176670D01*
X179472171Y-109195883D01*
X179456107Y-109213607D01*
X179438383Y-109229671D01*
X179419170Y-109243921D01*
X179398653Y-109256218D01*
X179377029Y-109266446D01*
X179354507Y-109274504D01*
X179331303Y-109280316D01*
X179307642Y-109283826D01*
X179283750Y-109285000D01*
X178796250Y-109285000D01*
X178772358Y-109283826D01*
X178748697Y-109280316D01*
X178725493Y-109274504D01*
X178702971Y-109266446D01*
X178681347Y-109256218D01*
X178660830Y-109243921D01*
X178641617Y-109229671D01*
X178623893Y-109213607D01*
X178607829Y-109195883D01*
X178593579Y-109176670D01*
X178581282Y-109156153D01*
X178571054Y-109134529D01*
X178562996Y-109112007D01*
X178557184Y-109088803D01*
X178553674Y-109065142D01*
X178552500Y-109041250D01*
X178552500Y-108128750D01*
X178553674Y-108104858D01*
X178557184Y-108081197D01*
X178562996Y-108057993D01*
X178571054Y-108035471D01*
X178581282Y-108013847D01*
X178593579Y-107993330D01*
X178607829Y-107974117D01*
X178623893Y-107956393D01*
X178641617Y-107940329D01*
X178660830Y-107926079D01*
X178681347Y-107913782D01*
X178702971Y-107903554D01*
X178725493Y-107895496D01*
X178748697Y-107889684D01*
X178772358Y-107886174D01*
X178796250Y-107885000D01*
X179283750Y-107885000D01*
X179307642Y-107886174D01*
G37*
G36*
X177432642Y-105981174D02*
G01*
X177456303Y-105984684D01*
X177479507Y-105990496D01*
X177502029Y-105998554D01*
X177523653Y-106008782D01*
X177544170Y-106021079D01*
X177563383Y-106035329D01*
X177581107Y-106051393D01*
X177597171Y-106069117D01*
X177611421Y-106088330D01*
X177623718Y-106108847D01*
X177633946Y-106130471D01*
X177642004Y-106152993D01*
X177647816Y-106176197D01*
X177651326Y-106199858D01*
X177652500Y-106223750D01*
X177652500Y-107136250D01*
X177651326Y-107160142D01*
X177647816Y-107183803D01*
X177642004Y-107207007D01*
X177633946Y-107229529D01*
X177623718Y-107251153D01*
X177611421Y-107271670D01*
X177597171Y-107290883D01*
X177581107Y-107308607D01*
X177563383Y-107324671D01*
X177544170Y-107338921D01*
X177523653Y-107351218D01*
X177502029Y-107361446D01*
X177479507Y-107369504D01*
X177456303Y-107375316D01*
X177432642Y-107378826D01*
X177408750Y-107380000D01*
X176921250Y-107380000D01*
X176897358Y-107378826D01*
X176873697Y-107375316D01*
X176850493Y-107369504D01*
X176827971Y-107361446D01*
X176806347Y-107351218D01*
X176785830Y-107338921D01*
X176766617Y-107324671D01*
X176748893Y-107308607D01*
X176732829Y-107290883D01*
X176718579Y-107271670D01*
X176706282Y-107251153D01*
X176696054Y-107229529D01*
X176687996Y-107207007D01*
X176682184Y-107183803D01*
X176678674Y-107160142D01*
X176677500Y-107136250D01*
X176677500Y-106223750D01*
X176678674Y-106199858D01*
X176682184Y-106176197D01*
X176687996Y-106152993D01*
X176696054Y-106130471D01*
X176706282Y-106108847D01*
X176718579Y-106088330D01*
X176732829Y-106069117D01*
X176748893Y-106051393D01*
X176766617Y-106035329D01*
X176785830Y-106021079D01*
X176806347Y-106008782D01*
X176827971Y-105998554D01*
X176850493Y-105990496D01*
X176873697Y-105984684D01*
X176897358Y-105981174D01*
X176921250Y-105980000D01*
X177408750Y-105980000D01*
X177432642Y-105981174D01*
G37*
G36*
X179307642Y-105981174D02*
G01*
X179331303Y-105984684D01*
X179354507Y-105990496D01*
X179377029Y-105998554D01*
X179398653Y-106008782D01*
X179419170Y-106021079D01*
X179438383Y-106035329D01*
X179456107Y-106051393D01*
X179472171Y-106069117D01*
X179486421Y-106088330D01*
X179498718Y-106108847D01*
X179508946Y-106130471D01*
X179517004Y-106152993D01*
X179522816Y-106176197D01*
X179526326Y-106199858D01*
X179527500Y-106223750D01*
X179527500Y-107136250D01*
X179526326Y-107160142D01*
X179522816Y-107183803D01*
X179517004Y-107207007D01*
X179508946Y-107229529D01*
X179498718Y-107251153D01*
X179486421Y-107271670D01*
X179472171Y-107290883D01*
X179456107Y-107308607D01*
X179438383Y-107324671D01*
X179419170Y-107338921D01*
X179398653Y-107351218D01*
X179377029Y-107361446D01*
X179354507Y-107369504D01*
X179331303Y-107375316D01*
X179307642Y-107378826D01*
X179283750Y-107380000D01*
X178796250Y-107380000D01*
X178772358Y-107378826D01*
X178748697Y-107375316D01*
X178725493Y-107369504D01*
X178702971Y-107361446D01*
X178681347Y-107351218D01*
X178660830Y-107338921D01*
X178641617Y-107324671D01*
X178623893Y-107308607D01*
X178607829Y-107290883D01*
X178593579Y-107271670D01*
X178581282Y-107251153D01*
X178571054Y-107229529D01*
X178562996Y-107207007D01*
X178557184Y-107183803D01*
X178553674Y-107160142D01*
X178552500Y-107136250D01*
X178552500Y-106223750D01*
X178553674Y-106199858D01*
X178557184Y-106176197D01*
X178562996Y-106152993D01*
X178571054Y-106130471D01*
X178581282Y-106108847D01*
X178593579Y-106088330D01*
X178607829Y-106069117D01*
X178623893Y-106051393D01*
X178641617Y-106035329D01*
X178660830Y-106021079D01*
X178681347Y-106008782D01*
X178702971Y-105998554D01*
X178725493Y-105990496D01*
X178748697Y-105984684D01*
X178772358Y-105981174D01*
X178796250Y-105980000D01*
X179283750Y-105980000D01*
X179307642Y-105981174D01*
G37*
G36*
X177432642Y-104076174D02*
G01*
X177456303Y-104079684D01*
X177479507Y-104085496D01*
X177502029Y-104093554D01*
X177523653Y-104103782D01*
X177544170Y-104116079D01*
X177563383Y-104130329D01*
X177581107Y-104146393D01*
X177597171Y-104164117D01*
X177611421Y-104183330D01*
X177623718Y-104203847D01*
X177633946Y-104225471D01*
X177642004Y-104247993D01*
X177647816Y-104271197D01*
X177651326Y-104294858D01*
X177652500Y-104318750D01*
X177652500Y-105231250D01*
X177651326Y-105255142D01*
X177647816Y-105278803D01*
X177642004Y-105302007D01*
X177633946Y-105324529D01*
X177623718Y-105346153D01*
X177611421Y-105366670D01*
X177597171Y-105385883D01*
X177581107Y-105403607D01*
X177563383Y-105419671D01*
X177544170Y-105433921D01*
X177523653Y-105446218D01*
X177502029Y-105456446D01*
X177479507Y-105464504D01*
X177456303Y-105470316D01*
X177432642Y-105473826D01*
X177408750Y-105475000D01*
X176921250Y-105475000D01*
X176897358Y-105473826D01*
X176873697Y-105470316D01*
X176850493Y-105464504D01*
X176827971Y-105456446D01*
X176806347Y-105446218D01*
X176785830Y-105433921D01*
X176766617Y-105419671D01*
X176748893Y-105403607D01*
X176732829Y-105385883D01*
X176718579Y-105366670D01*
X176706282Y-105346153D01*
X176696054Y-105324529D01*
X176687996Y-105302007D01*
X176682184Y-105278803D01*
X176678674Y-105255142D01*
X176677500Y-105231250D01*
X176677500Y-104318750D01*
X176678674Y-104294858D01*
X176682184Y-104271197D01*
X176687996Y-104247993D01*
X176696054Y-104225471D01*
X176706282Y-104203847D01*
X176718579Y-104183330D01*
X176732829Y-104164117D01*
X176748893Y-104146393D01*
X176766617Y-104130329D01*
X176785830Y-104116079D01*
X176806347Y-104103782D01*
X176827971Y-104093554D01*
X176850493Y-104085496D01*
X176873697Y-104079684D01*
X176897358Y-104076174D01*
X176921250Y-104075000D01*
X177408750Y-104075000D01*
X177432642Y-104076174D01*
G37*
G36*
X179307642Y-104076174D02*
G01*
X179331303Y-104079684D01*
X179354507Y-104085496D01*
X179377029Y-104093554D01*
X179398653Y-104103782D01*
X179419170Y-104116079D01*
X179438383Y-104130329D01*
X179456107Y-104146393D01*
X179472171Y-104164117D01*
X179486421Y-104183330D01*
X179498718Y-104203847D01*
X179508946Y-104225471D01*
X179517004Y-104247993D01*
X179522816Y-104271197D01*
X179526326Y-104294858D01*
X179527500Y-104318750D01*
X179527500Y-105231250D01*
X179526326Y-105255142D01*
X179522816Y-105278803D01*
X179517004Y-105302007D01*
X179508946Y-105324529D01*
X179498718Y-105346153D01*
X179486421Y-105366670D01*
X179472171Y-105385883D01*
X179456107Y-105403607D01*
X179438383Y-105419671D01*
X179419170Y-105433921D01*
X179398653Y-105446218D01*
X179377029Y-105456446D01*
X179354507Y-105464504D01*
X179331303Y-105470316D01*
X179307642Y-105473826D01*
X179283750Y-105475000D01*
X178796250Y-105475000D01*
X178772358Y-105473826D01*
X178748697Y-105470316D01*
X178725493Y-105464504D01*
X178702971Y-105456446D01*
X178681347Y-105446218D01*
X178660830Y-105433921D01*
X178641617Y-105419671D01*
X178623893Y-105403607D01*
X178607829Y-105385883D01*
X178593579Y-105366670D01*
X178581282Y-105346153D01*
X178571054Y-105324529D01*
X178562996Y-105302007D01*
X178557184Y-105278803D01*
X178553674Y-105255142D01*
X178552500Y-105231250D01*
X178552500Y-104318750D01*
X178553674Y-104294858D01*
X178557184Y-104271197D01*
X178562996Y-104247993D01*
X178571054Y-104225471D01*
X178581282Y-104203847D01*
X178593579Y-104183330D01*
X178607829Y-104164117D01*
X178623893Y-104146393D01*
X178641617Y-104130329D01*
X178660830Y-104116079D01*
X178681347Y-104103782D01*
X178702971Y-104093554D01*
X178725493Y-104085496D01*
X178748697Y-104079684D01*
X178772358Y-104076174D01*
X178796250Y-104075000D01*
X179283750Y-104075000D01*
X179307642Y-104076174D01*
G37*
G36*
X189710142Y-109701174D02*
G01*
X189733803Y-109704684D01*
X189757007Y-109710496D01*
X189779529Y-109718554D01*
X189801153Y-109728782D01*
X189821670Y-109741079D01*
X189840883Y-109755329D01*
X189858607Y-109771393D01*
X189874671Y-109789117D01*
X189888921Y-109808330D01*
X189901218Y-109828847D01*
X189911446Y-109850471D01*
X189919504Y-109872993D01*
X189925316Y-109896197D01*
X189928826Y-109919858D01*
X189930000Y-109943750D01*
X189930000Y-110431250D01*
X189928826Y-110455142D01*
X189925316Y-110478803D01*
X189919504Y-110502007D01*
X189911446Y-110524529D01*
X189901218Y-110546153D01*
X189888921Y-110566670D01*
X189874671Y-110585883D01*
X189858607Y-110603607D01*
X189840883Y-110619671D01*
X189821670Y-110633921D01*
X189801153Y-110646218D01*
X189779529Y-110656446D01*
X189757007Y-110664504D01*
X189733803Y-110670316D01*
X189710142Y-110673826D01*
X189686250Y-110675000D01*
X188773750Y-110675000D01*
X188749858Y-110673826D01*
X188726197Y-110670316D01*
X188702993Y-110664504D01*
X188680471Y-110656446D01*
X188658847Y-110646218D01*
X188638330Y-110633921D01*
X188619117Y-110619671D01*
X188601393Y-110603607D01*
X188585329Y-110585883D01*
X188571079Y-110566670D01*
X188558782Y-110546153D01*
X188548554Y-110524529D01*
X188540496Y-110502007D01*
X188534684Y-110478803D01*
X188531174Y-110455142D01*
X188530000Y-110431250D01*
X188530000Y-109943750D01*
X188531174Y-109919858D01*
X188534684Y-109896197D01*
X188540496Y-109872993D01*
X188548554Y-109850471D01*
X188558782Y-109828847D01*
X188571079Y-109808330D01*
X188585329Y-109789117D01*
X188601393Y-109771393D01*
X188619117Y-109755329D01*
X188638330Y-109741079D01*
X188658847Y-109728782D01*
X188680471Y-109718554D01*
X188702993Y-109710496D01*
X188726197Y-109704684D01*
X188749858Y-109701174D01*
X188773750Y-109700000D01*
X189686250Y-109700000D01*
X189710142Y-109701174D01*
G37*
G36*
X189710142Y-111576174D02*
G01*
X189733803Y-111579684D01*
X189757007Y-111585496D01*
X189779529Y-111593554D01*
X189801153Y-111603782D01*
X189821670Y-111616079D01*
X189840883Y-111630329D01*
X189858607Y-111646393D01*
X189874671Y-111664117D01*
X189888921Y-111683330D01*
X189901218Y-111703847D01*
X189911446Y-111725471D01*
X189919504Y-111747993D01*
X189925316Y-111771197D01*
X189928826Y-111794858D01*
X189930000Y-111818750D01*
X189930000Y-112306250D01*
X189928826Y-112330142D01*
X189925316Y-112353803D01*
X189919504Y-112377007D01*
X189911446Y-112399529D01*
X189901218Y-112421153D01*
X189888921Y-112441670D01*
X189874671Y-112460883D01*
X189858607Y-112478607D01*
X189840883Y-112494671D01*
X189821670Y-112508921D01*
X189801153Y-112521218D01*
X189779529Y-112531446D01*
X189757007Y-112539504D01*
X189733803Y-112545316D01*
X189710142Y-112548826D01*
X189686250Y-112550000D01*
X188773750Y-112550000D01*
X188749858Y-112548826D01*
X188726197Y-112545316D01*
X188702993Y-112539504D01*
X188680471Y-112531446D01*
X188658847Y-112521218D01*
X188638330Y-112508921D01*
X188619117Y-112494671D01*
X188601393Y-112478607D01*
X188585329Y-112460883D01*
X188571079Y-112441670D01*
X188558782Y-112421153D01*
X188548554Y-112399529D01*
X188540496Y-112377007D01*
X188534684Y-112353803D01*
X188531174Y-112330142D01*
X188530000Y-112306250D01*
X188530000Y-111818750D01*
X188531174Y-111794858D01*
X188534684Y-111771197D01*
X188540496Y-111747993D01*
X188548554Y-111725471D01*
X188558782Y-111703847D01*
X188571079Y-111683330D01*
X188585329Y-111664117D01*
X188601393Y-111646393D01*
X188619117Y-111630329D01*
X188638330Y-111616079D01*
X188658847Y-111603782D01*
X188680471Y-111593554D01*
X188702993Y-111585496D01*
X188726197Y-111579684D01*
X188749858Y-111576174D01*
X188773750Y-111575000D01*
X189686250Y-111575000D01*
X189710142Y-111576174D01*
G37*
G36*
X185082642Y-114236174D02*
G01*
X185106303Y-114239684D01*
X185129507Y-114245496D01*
X185152029Y-114253554D01*
X185173653Y-114263782D01*
X185194170Y-114276079D01*
X185213383Y-114290329D01*
X185231107Y-114306393D01*
X185247171Y-114324117D01*
X185261421Y-114343330D01*
X185273718Y-114363847D01*
X185283946Y-114385471D01*
X185292004Y-114407993D01*
X185297816Y-114431197D01*
X185301326Y-114454858D01*
X185302500Y-114478750D01*
X185302500Y-115391250D01*
X185301326Y-115415142D01*
X185297816Y-115438803D01*
X185292004Y-115462007D01*
X185283946Y-115484529D01*
X185273718Y-115506153D01*
X185261421Y-115526670D01*
X185247171Y-115545883D01*
X185231107Y-115563607D01*
X185213383Y-115579671D01*
X185194170Y-115593921D01*
X185173653Y-115606218D01*
X185152029Y-115616446D01*
X185129507Y-115624504D01*
X185106303Y-115630316D01*
X185082642Y-115633826D01*
X185058750Y-115635000D01*
X184571250Y-115635000D01*
X184547358Y-115633826D01*
X184523697Y-115630316D01*
X184500493Y-115624504D01*
X184477971Y-115616446D01*
X184456347Y-115606218D01*
X184435830Y-115593921D01*
X184416617Y-115579671D01*
X184398893Y-115563607D01*
X184382829Y-115545883D01*
X184368579Y-115526670D01*
X184356282Y-115506153D01*
X184346054Y-115484529D01*
X184337996Y-115462007D01*
X184332184Y-115438803D01*
X184328674Y-115415142D01*
X184327500Y-115391250D01*
X184327500Y-114478750D01*
X184328674Y-114454858D01*
X184332184Y-114431197D01*
X184337996Y-114407993D01*
X184346054Y-114385471D01*
X184356282Y-114363847D01*
X184368579Y-114343330D01*
X184382829Y-114324117D01*
X184398893Y-114306393D01*
X184416617Y-114290329D01*
X184435830Y-114276079D01*
X184456347Y-114263782D01*
X184477971Y-114253554D01*
X184500493Y-114245496D01*
X184523697Y-114239684D01*
X184547358Y-114236174D01*
X184571250Y-114235000D01*
X185058750Y-114235000D01*
X185082642Y-114236174D01*
G37*
G36*
X186957642Y-114236174D02*
G01*
X186981303Y-114239684D01*
X187004507Y-114245496D01*
X187027029Y-114253554D01*
X187048653Y-114263782D01*
X187069170Y-114276079D01*
X187088383Y-114290329D01*
X187106107Y-114306393D01*
X187122171Y-114324117D01*
X187136421Y-114343330D01*
X187148718Y-114363847D01*
X187158946Y-114385471D01*
X187167004Y-114407993D01*
X187172816Y-114431197D01*
X187176326Y-114454858D01*
X187177500Y-114478750D01*
X187177500Y-115391250D01*
X187176326Y-115415142D01*
X187172816Y-115438803D01*
X187167004Y-115462007D01*
X187158946Y-115484529D01*
X187148718Y-115506153D01*
X187136421Y-115526670D01*
X187122171Y-115545883D01*
X187106107Y-115563607D01*
X187088383Y-115579671D01*
X187069170Y-115593921D01*
X187048653Y-115606218D01*
X187027029Y-115616446D01*
X187004507Y-115624504D01*
X186981303Y-115630316D01*
X186957642Y-115633826D01*
X186933750Y-115635000D01*
X186446250Y-115635000D01*
X186422358Y-115633826D01*
X186398697Y-115630316D01*
X186375493Y-115624504D01*
X186352971Y-115616446D01*
X186331347Y-115606218D01*
X186310830Y-115593921D01*
X186291617Y-115579671D01*
X186273893Y-115563607D01*
X186257829Y-115545883D01*
X186243579Y-115526670D01*
X186231282Y-115506153D01*
X186221054Y-115484529D01*
X186212996Y-115462007D01*
X186207184Y-115438803D01*
X186203674Y-115415142D01*
X186202500Y-115391250D01*
X186202500Y-114478750D01*
X186203674Y-114454858D01*
X186207184Y-114431197D01*
X186212996Y-114407993D01*
X186221054Y-114385471D01*
X186231282Y-114363847D01*
X186243579Y-114343330D01*
X186257829Y-114324117D01*
X186273893Y-114306393D01*
X186291617Y-114290329D01*
X186310830Y-114276079D01*
X186331347Y-114263782D01*
X186352971Y-114253554D01*
X186375493Y-114245496D01*
X186398697Y-114239684D01*
X186422358Y-114236174D01*
X186446250Y-114235000D01*
X186933750Y-114235000D01*
X186957642Y-114236174D01*
G37*
G36*
X103975842Y-127012374D02*
G01*
X103999503Y-127015884D01*
X104022707Y-127021696D01*
X104045229Y-127029754D01*
X104066853Y-127039982D01*
X104087370Y-127052279D01*
X104106583Y-127066529D01*
X104124307Y-127082593D01*
X104140371Y-127100317D01*
X104154621Y-127119530D01*
X104166918Y-127140047D01*
X104177146Y-127161671D01*
X104185204Y-127184193D01*
X104191016Y-127207397D01*
X104194526Y-127231058D01*
X104195700Y-127254950D01*
X104195700Y-128167450D01*
X104194526Y-128191342D01*
X104191016Y-128215003D01*
X104185204Y-128238207D01*
X104177146Y-128260729D01*
X104166918Y-128282353D01*
X104154621Y-128302870D01*
X104140371Y-128322083D01*
X104124307Y-128339807D01*
X104106583Y-128355871D01*
X104087370Y-128370121D01*
X104066853Y-128382418D01*
X104045229Y-128392646D01*
X104022707Y-128400704D01*
X103999503Y-128406516D01*
X103975842Y-128410026D01*
X103951950Y-128411200D01*
X103464450Y-128411200D01*
X103440558Y-128410026D01*
X103416897Y-128406516D01*
X103393693Y-128400704D01*
X103371171Y-128392646D01*
X103349547Y-128382418D01*
X103329030Y-128370121D01*
X103309817Y-128355871D01*
X103292093Y-128339807D01*
X103276029Y-128322083D01*
X103261779Y-128302870D01*
X103249482Y-128282353D01*
X103239254Y-128260729D01*
X103231196Y-128238207D01*
X103225384Y-128215003D01*
X103221874Y-128191342D01*
X103220700Y-128167450D01*
X103220700Y-127254950D01*
X103221874Y-127231058D01*
X103225384Y-127207397D01*
X103231196Y-127184193D01*
X103239254Y-127161671D01*
X103249482Y-127140047D01*
X103261779Y-127119530D01*
X103276029Y-127100317D01*
X103292093Y-127082593D01*
X103309817Y-127066529D01*
X103329030Y-127052279D01*
X103349547Y-127039982D01*
X103371171Y-127029754D01*
X103393693Y-127021696D01*
X103416897Y-127015884D01*
X103440558Y-127012374D01*
X103464450Y-127011200D01*
X103951950Y-127011200D01*
X103975842Y-127012374D01*
G37*
G36*
X105850842Y-127012374D02*
G01*
X105874503Y-127015884D01*
X105897707Y-127021696D01*
X105920229Y-127029754D01*
X105941853Y-127039982D01*
X105962370Y-127052279D01*
X105981583Y-127066529D01*
X105999307Y-127082593D01*
X106015371Y-127100317D01*
X106029621Y-127119530D01*
X106041918Y-127140047D01*
X106052146Y-127161671D01*
X106060204Y-127184193D01*
X106066016Y-127207397D01*
X106069526Y-127231058D01*
X106070700Y-127254950D01*
X106070700Y-128167450D01*
X106069526Y-128191342D01*
X106066016Y-128215003D01*
X106060204Y-128238207D01*
X106052146Y-128260729D01*
X106041918Y-128282353D01*
X106029621Y-128302870D01*
X106015371Y-128322083D01*
X105999307Y-128339807D01*
X105981583Y-128355871D01*
X105962370Y-128370121D01*
X105941853Y-128382418D01*
X105920229Y-128392646D01*
X105897707Y-128400704D01*
X105874503Y-128406516D01*
X105850842Y-128410026D01*
X105826950Y-128411200D01*
X105339450Y-128411200D01*
X105315558Y-128410026D01*
X105291897Y-128406516D01*
X105268693Y-128400704D01*
X105246171Y-128392646D01*
X105224547Y-128382418D01*
X105204030Y-128370121D01*
X105184817Y-128355871D01*
X105167093Y-128339807D01*
X105151029Y-128322083D01*
X105136779Y-128302870D01*
X105124482Y-128282353D01*
X105114254Y-128260729D01*
X105106196Y-128238207D01*
X105100384Y-128215003D01*
X105096874Y-128191342D01*
X105095700Y-128167450D01*
X105095700Y-127254950D01*
X105096874Y-127231058D01*
X105100384Y-127207397D01*
X105106196Y-127184193D01*
X105114254Y-127161671D01*
X105124482Y-127140047D01*
X105136779Y-127119530D01*
X105151029Y-127100317D01*
X105167093Y-127082593D01*
X105184817Y-127066529D01*
X105204030Y-127052279D01*
X105224547Y-127039982D01*
X105246171Y-127029754D01*
X105268693Y-127021696D01*
X105291897Y-127015884D01*
X105315558Y-127012374D01*
X105339450Y-127011200D01*
X105826950Y-127011200D01*
X105850842Y-127012374D01*
G37*
G36*
X103975842Y-125107374D02*
G01*
X103999503Y-125110884D01*
X104022707Y-125116696D01*
X104045229Y-125124754D01*
X104066853Y-125134982D01*
X104087370Y-125147279D01*
X104106583Y-125161529D01*
X104124307Y-125177593D01*
X104140371Y-125195317D01*
X104154621Y-125214530D01*
X104166918Y-125235047D01*
X104177146Y-125256671D01*
X104185204Y-125279193D01*
X104191016Y-125302397D01*
X104194526Y-125326058D01*
X104195700Y-125349950D01*
X104195700Y-126262450D01*
X104194526Y-126286342D01*
X104191016Y-126310003D01*
X104185204Y-126333207D01*
X104177146Y-126355729D01*
X104166918Y-126377353D01*
X104154621Y-126397870D01*
X104140371Y-126417083D01*
X104124307Y-126434807D01*
X104106583Y-126450871D01*
X104087370Y-126465121D01*
X104066853Y-126477418D01*
X104045229Y-126487646D01*
X104022707Y-126495704D01*
X103999503Y-126501516D01*
X103975842Y-126505026D01*
X103951950Y-126506200D01*
X103464450Y-126506200D01*
X103440558Y-126505026D01*
X103416897Y-126501516D01*
X103393693Y-126495704D01*
X103371171Y-126487646D01*
X103349547Y-126477418D01*
X103329030Y-126465121D01*
X103309817Y-126450871D01*
X103292093Y-126434807D01*
X103276029Y-126417083D01*
X103261779Y-126397870D01*
X103249482Y-126377353D01*
X103239254Y-126355729D01*
X103231196Y-126333207D01*
X103225384Y-126310003D01*
X103221874Y-126286342D01*
X103220700Y-126262450D01*
X103220700Y-125349950D01*
X103221874Y-125326058D01*
X103225384Y-125302397D01*
X103231196Y-125279193D01*
X103239254Y-125256671D01*
X103249482Y-125235047D01*
X103261779Y-125214530D01*
X103276029Y-125195317D01*
X103292093Y-125177593D01*
X103309817Y-125161529D01*
X103329030Y-125147279D01*
X103349547Y-125134982D01*
X103371171Y-125124754D01*
X103393693Y-125116696D01*
X103416897Y-125110884D01*
X103440558Y-125107374D01*
X103464450Y-125106200D01*
X103951950Y-125106200D01*
X103975842Y-125107374D01*
G37*
G36*
X105850842Y-125107374D02*
G01*
X105874503Y-125110884D01*
X105897707Y-125116696D01*
X105920229Y-125124754D01*
X105941853Y-125134982D01*
X105962370Y-125147279D01*
X105981583Y-125161529D01*
X105999307Y-125177593D01*
X106015371Y-125195317D01*
X106029621Y-125214530D01*
X106041918Y-125235047D01*
X106052146Y-125256671D01*
X106060204Y-125279193D01*
X106066016Y-125302397D01*
X106069526Y-125326058D01*
X106070700Y-125349950D01*
X106070700Y-126262450D01*
X106069526Y-126286342D01*
X106066016Y-126310003D01*
X106060204Y-126333207D01*
X106052146Y-126355729D01*
X106041918Y-126377353D01*
X106029621Y-126397870D01*
X106015371Y-126417083D01*
X105999307Y-126434807D01*
X105981583Y-126450871D01*
X105962370Y-126465121D01*
X105941853Y-126477418D01*
X105920229Y-126487646D01*
X105897707Y-126495704D01*
X105874503Y-126501516D01*
X105850842Y-126505026D01*
X105826950Y-126506200D01*
X105339450Y-126506200D01*
X105315558Y-126505026D01*
X105291897Y-126501516D01*
X105268693Y-126495704D01*
X105246171Y-126487646D01*
X105224547Y-126477418D01*
X105204030Y-126465121D01*
X105184817Y-126450871D01*
X105167093Y-126434807D01*
X105151029Y-126417083D01*
X105136779Y-126397870D01*
X105124482Y-126377353D01*
X105114254Y-126355729D01*
X105106196Y-126333207D01*
X105100384Y-126310003D01*
X105096874Y-126286342D01*
X105095700Y-126262450D01*
X105095700Y-125349950D01*
X105096874Y-125326058D01*
X105100384Y-125302397D01*
X105106196Y-125279193D01*
X105114254Y-125256671D01*
X105124482Y-125235047D01*
X105136779Y-125214530D01*
X105151029Y-125195317D01*
X105167093Y-125177593D01*
X105184817Y-125161529D01*
X105204030Y-125147279D01*
X105224547Y-125134982D01*
X105246171Y-125124754D01*
X105268693Y-125116696D01*
X105291897Y-125110884D01*
X105315558Y-125107374D01*
X105339450Y-125106200D01*
X105826950Y-125106200D01*
X105850842Y-125107374D01*
G37*
G36*
X136624142Y-97890174D02*
G01*
X136647803Y-97893684D01*
X136671007Y-97899496D01*
X136693529Y-97907554D01*
X136715153Y-97917782D01*
X136735670Y-97930079D01*
X136754883Y-97944329D01*
X136772607Y-97960393D01*
X136788671Y-97978117D01*
X136802921Y-97997330D01*
X136815218Y-98017847D01*
X136825446Y-98039471D01*
X136833504Y-98061993D01*
X136839316Y-98085197D01*
X136842826Y-98108858D01*
X136844000Y-98132750D01*
X136844000Y-98620250D01*
X136842826Y-98644142D01*
X136839316Y-98667803D01*
X136833504Y-98691007D01*
X136825446Y-98713529D01*
X136815218Y-98735153D01*
X136802921Y-98755670D01*
X136788671Y-98774883D01*
X136772607Y-98792607D01*
X136754883Y-98808671D01*
X136735670Y-98822921D01*
X136715153Y-98835218D01*
X136693529Y-98845446D01*
X136671007Y-98853504D01*
X136647803Y-98859316D01*
X136624142Y-98862826D01*
X136600250Y-98864000D01*
X135687750Y-98864000D01*
X135663858Y-98862826D01*
X135640197Y-98859316D01*
X135616993Y-98853504D01*
X135594471Y-98845446D01*
X135572847Y-98835218D01*
X135552330Y-98822921D01*
X135533117Y-98808671D01*
X135515393Y-98792607D01*
X135499329Y-98774883D01*
X135485079Y-98755670D01*
X135472782Y-98735153D01*
X135462554Y-98713529D01*
X135454496Y-98691007D01*
X135448684Y-98667803D01*
X135445174Y-98644142D01*
X135444000Y-98620250D01*
X135444000Y-98132750D01*
X135445174Y-98108858D01*
X135448684Y-98085197D01*
X135454496Y-98061993D01*
X135462554Y-98039471D01*
X135472782Y-98017847D01*
X135485079Y-97997330D01*
X135499329Y-97978117D01*
X135515393Y-97960393D01*
X135533117Y-97944329D01*
X135552330Y-97930079D01*
X135572847Y-97917782D01*
X135594471Y-97907554D01*
X135616993Y-97899496D01*
X135640197Y-97893684D01*
X135663858Y-97890174D01*
X135687750Y-97889000D01*
X136600250Y-97889000D01*
X136624142Y-97890174D01*
G37*
G36*
X136624142Y-99765174D02*
G01*
X136647803Y-99768684D01*
X136671007Y-99774496D01*
X136693529Y-99782554D01*
X136715153Y-99792782D01*
X136735670Y-99805079D01*
X136754883Y-99819329D01*
X136772607Y-99835393D01*
X136788671Y-99853117D01*
X136802921Y-99872330D01*
X136815218Y-99892847D01*
X136825446Y-99914471D01*
X136833504Y-99936993D01*
X136839316Y-99960197D01*
X136842826Y-99983858D01*
X136844000Y-100007750D01*
X136844000Y-100495250D01*
X136842826Y-100519142D01*
X136839316Y-100542803D01*
X136833504Y-100566007D01*
X136825446Y-100588529D01*
X136815218Y-100610153D01*
X136802921Y-100630670D01*
X136788671Y-100649883D01*
X136772607Y-100667607D01*
X136754883Y-100683671D01*
X136735670Y-100697921D01*
X136715153Y-100710218D01*
X136693529Y-100720446D01*
X136671007Y-100728504D01*
X136647803Y-100734316D01*
X136624142Y-100737826D01*
X136600250Y-100739000D01*
X135687750Y-100739000D01*
X135663858Y-100737826D01*
X135640197Y-100734316D01*
X135616993Y-100728504D01*
X135594471Y-100720446D01*
X135572847Y-100710218D01*
X135552330Y-100697921D01*
X135533117Y-100683671D01*
X135515393Y-100667607D01*
X135499329Y-100649883D01*
X135485079Y-100630670D01*
X135472782Y-100610153D01*
X135462554Y-100588529D01*
X135454496Y-100566007D01*
X135448684Y-100542803D01*
X135445174Y-100519142D01*
X135444000Y-100495250D01*
X135444000Y-100007750D01*
X135445174Y-99983858D01*
X135448684Y-99960197D01*
X135454496Y-99936993D01*
X135462554Y-99914471D01*
X135472782Y-99892847D01*
X135485079Y-99872330D01*
X135499329Y-99853117D01*
X135515393Y-99835393D01*
X135533117Y-99819329D01*
X135552330Y-99805079D01*
X135572847Y-99792782D01*
X135594471Y-99782554D01*
X135616993Y-99774496D01*
X135640197Y-99768684D01*
X135663858Y-99765174D01*
X135687750Y-99764000D01*
X136600250Y-99764000D01*
X136624142Y-99765174D01*
G37*
G36*
X100646142Y-93154174D02*
G01*
X100669803Y-93157684D01*
X100693007Y-93163496D01*
X100715529Y-93171554D01*
X100737153Y-93181782D01*
X100757670Y-93194079D01*
X100776883Y-93208329D01*
X100794607Y-93224393D01*
X100810671Y-93242117D01*
X100824921Y-93261330D01*
X100837218Y-93281847D01*
X100847446Y-93303471D01*
X100855504Y-93325993D01*
X100861316Y-93349197D01*
X100864826Y-93372858D01*
X100866000Y-93396750D01*
X100866000Y-94309250D01*
X100864826Y-94333142D01*
X100861316Y-94356803D01*
X100855504Y-94380007D01*
X100847446Y-94402529D01*
X100837218Y-94424153D01*
X100824921Y-94444670D01*
X100810671Y-94463883D01*
X100794607Y-94481607D01*
X100776883Y-94497671D01*
X100757670Y-94511921D01*
X100737153Y-94524218D01*
X100715529Y-94534446D01*
X100693007Y-94542504D01*
X100669803Y-94548316D01*
X100646142Y-94551826D01*
X100622250Y-94553000D01*
X100134750Y-94553000D01*
X100110858Y-94551826D01*
X100087197Y-94548316D01*
X100063993Y-94542504D01*
X100041471Y-94534446D01*
X100019847Y-94524218D01*
X99999330Y-94511921D01*
X99980117Y-94497671D01*
X99962393Y-94481607D01*
X99946329Y-94463883D01*
X99932079Y-94444670D01*
X99919782Y-94424153D01*
X99909554Y-94402529D01*
X99901496Y-94380007D01*
X99895684Y-94356803D01*
X99892174Y-94333142D01*
X99891000Y-94309250D01*
X99891000Y-93396750D01*
X99892174Y-93372858D01*
X99895684Y-93349197D01*
X99901496Y-93325993D01*
X99909554Y-93303471D01*
X99919782Y-93281847D01*
X99932079Y-93261330D01*
X99946329Y-93242117D01*
X99962393Y-93224393D01*
X99980117Y-93208329D01*
X99999330Y-93194079D01*
X100019847Y-93181782D01*
X100041471Y-93171554D01*
X100063993Y-93163496D01*
X100087197Y-93157684D01*
X100110858Y-93154174D01*
X100134750Y-93153000D01*
X100622250Y-93153000D01*
X100646142Y-93154174D01*
G37*
G36*
X98771142Y-93154174D02*
G01*
X98794803Y-93157684D01*
X98818007Y-93163496D01*
X98840529Y-93171554D01*
X98862153Y-93181782D01*
X98882670Y-93194079D01*
X98901883Y-93208329D01*
X98919607Y-93224393D01*
X98935671Y-93242117D01*
X98949921Y-93261330D01*
X98962218Y-93281847D01*
X98972446Y-93303471D01*
X98980504Y-93325993D01*
X98986316Y-93349197D01*
X98989826Y-93372858D01*
X98991000Y-93396750D01*
X98991000Y-94309250D01*
X98989826Y-94333142D01*
X98986316Y-94356803D01*
X98980504Y-94380007D01*
X98972446Y-94402529D01*
X98962218Y-94424153D01*
X98949921Y-94444670D01*
X98935671Y-94463883D01*
X98919607Y-94481607D01*
X98901883Y-94497671D01*
X98882670Y-94511921D01*
X98862153Y-94524218D01*
X98840529Y-94534446D01*
X98818007Y-94542504D01*
X98794803Y-94548316D01*
X98771142Y-94551826D01*
X98747250Y-94553000D01*
X98259750Y-94553000D01*
X98235858Y-94551826D01*
X98212197Y-94548316D01*
X98188993Y-94542504D01*
X98166471Y-94534446D01*
X98144847Y-94524218D01*
X98124330Y-94511921D01*
X98105117Y-94497671D01*
X98087393Y-94481607D01*
X98071329Y-94463883D01*
X98057079Y-94444670D01*
X98044782Y-94424153D01*
X98034554Y-94402529D01*
X98026496Y-94380007D01*
X98020684Y-94356803D01*
X98017174Y-94333142D01*
X98016000Y-94309250D01*
X98016000Y-93396750D01*
X98017174Y-93372858D01*
X98020684Y-93349197D01*
X98026496Y-93325993D01*
X98034554Y-93303471D01*
X98044782Y-93281847D01*
X98057079Y-93261330D01*
X98071329Y-93242117D01*
X98087393Y-93224393D01*
X98105117Y-93208329D01*
X98124330Y-93194079D01*
X98144847Y-93181782D01*
X98166471Y-93171554D01*
X98188993Y-93163496D01*
X98212197Y-93157684D01*
X98235858Y-93154174D01*
X98259750Y-93153000D01*
X98747250Y-93153000D01*
X98771142Y-93154174D01*
G37*
G36*
X96365142Y-89508174D02*
G01*
X96388803Y-89511684D01*
X96412007Y-89517496D01*
X96434529Y-89525554D01*
X96456153Y-89535782D01*
X96476670Y-89548079D01*
X96495883Y-89562329D01*
X96513607Y-89578393D01*
X96529671Y-89596117D01*
X96543921Y-89615330D01*
X96556218Y-89635847D01*
X96566446Y-89657471D01*
X96574504Y-89679993D01*
X96580316Y-89703197D01*
X96583826Y-89726858D01*
X96585000Y-89750750D01*
X96585000Y-90238250D01*
X96583826Y-90262142D01*
X96580316Y-90285803D01*
X96574504Y-90309007D01*
X96566446Y-90331529D01*
X96556218Y-90353153D01*
X96543921Y-90373670D01*
X96529671Y-90392883D01*
X96513607Y-90410607D01*
X96495883Y-90426671D01*
X96476670Y-90440921D01*
X96456153Y-90453218D01*
X96434529Y-90463446D01*
X96412007Y-90471504D01*
X96388803Y-90477316D01*
X96365142Y-90480826D01*
X96341250Y-90482000D01*
X95428750Y-90482000D01*
X95404858Y-90480826D01*
X95381197Y-90477316D01*
X95357993Y-90471504D01*
X95335471Y-90463446D01*
X95313847Y-90453218D01*
X95293330Y-90440921D01*
X95274117Y-90426671D01*
X95256393Y-90410607D01*
X95240329Y-90392883D01*
X95226079Y-90373670D01*
X95213782Y-90353153D01*
X95203554Y-90331529D01*
X95195496Y-90309007D01*
X95189684Y-90285803D01*
X95186174Y-90262142D01*
X95185000Y-90238250D01*
X95185000Y-89750750D01*
X95186174Y-89726858D01*
X95189684Y-89703197D01*
X95195496Y-89679993D01*
X95203554Y-89657471D01*
X95213782Y-89635847D01*
X95226079Y-89615330D01*
X95240329Y-89596117D01*
X95256393Y-89578393D01*
X95274117Y-89562329D01*
X95293330Y-89548079D01*
X95313847Y-89535782D01*
X95335471Y-89525554D01*
X95357993Y-89517496D01*
X95381197Y-89511684D01*
X95404858Y-89508174D01*
X95428750Y-89507000D01*
X96341250Y-89507000D01*
X96365142Y-89508174D01*
G37*
G36*
X96365142Y-91383174D02*
G01*
X96388803Y-91386684D01*
X96412007Y-91392496D01*
X96434529Y-91400554D01*
X96456153Y-91410782D01*
X96476670Y-91423079D01*
X96495883Y-91437329D01*
X96513607Y-91453393D01*
X96529671Y-91471117D01*
X96543921Y-91490330D01*
X96556218Y-91510847D01*
X96566446Y-91532471D01*
X96574504Y-91554993D01*
X96580316Y-91578197D01*
X96583826Y-91601858D01*
X96585000Y-91625750D01*
X96585000Y-92113250D01*
X96583826Y-92137142D01*
X96580316Y-92160803D01*
X96574504Y-92184007D01*
X96566446Y-92206529D01*
X96556218Y-92228153D01*
X96543921Y-92248670D01*
X96529671Y-92267883D01*
X96513607Y-92285607D01*
X96495883Y-92301671D01*
X96476670Y-92315921D01*
X96456153Y-92328218D01*
X96434529Y-92338446D01*
X96412007Y-92346504D01*
X96388803Y-92352316D01*
X96365142Y-92355826D01*
X96341250Y-92357000D01*
X95428750Y-92357000D01*
X95404858Y-92355826D01*
X95381197Y-92352316D01*
X95357993Y-92346504D01*
X95335471Y-92338446D01*
X95313847Y-92328218D01*
X95293330Y-92315921D01*
X95274117Y-92301671D01*
X95256393Y-92285607D01*
X95240329Y-92267883D01*
X95226079Y-92248670D01*
X95213782Y-92228153D01*
X95203554Y-92206529D01*
X95195496Y-92184007D01*
X95189684Y-92160803D01*
X95186174Y-92137142D01*
X95185000Y-92113250D01*
X95185000Y-91625750D01*
X95186174Y-91601858D01*
X95189684Y-91578197D01*
X95195496Y-91554993D01*
X95203554Y-91532471D01*
X95213782Y-91510847D01*
X95226079Y-91490330D01*
X95240329Y-91471117D01*
X95256393Y-91453393D01*
X95274117Y-91437329D01*
X95293330Y-91423079D01*
X95313847Y-91410782D01*
X95335471Y-91400554D01*
X95357993Y-91392496D01*
X95381197Y-91386684D01*
X95404858Y-91383174D01*
X95428750Y-91382000D01*
X96341250Y-91382000D01*
X96365142Y-91383174D01*
G37*
G36*
X133782517Y-97890174D02*
G01*
X133806178Y-97893684D01*
X133829382Y-97899496D01*
X133851904Y-97907554D01*
X133873528Y-97917782D01*
X133894045Y-97930079D01*
X133913258Y-97944329D01*
X133930982Y-97960393D01*
X133947046Y-97978117D01*
X133961296Y-97997330D01*
X133973593Y-98017847D01*
X133983821Y-98039471D01*
X133991879Y-98061993D01*
X133997691Y-98085197D01*
X134001201Y-98108858D01*
X134002375Y-98132750D01*
X134002375Y-98620250D01*
X134001201Y-98644142D01*
X133997691Y-98667803D01*
X133991879Y-98691007D01*
X133983821Y-98713529D01*
X133973593Y-98735153D01*
X133961296Y-98755670D01*
X133947046Y-98774883D01*
X133930982Y-98792607D01*
X133913258Y-98808671D01*
X133894045Y-98822921D01*
X133873528Y-98835218D01*
X133851904Y-98845446D01*
X133829382Y-98853504D01*
X133806178Y-98859316D01*
X133782517Y-98862826D01*
X133758625Y-98864000D01*
X132846125Y-98864000D01*
X132822233Y-98862826D01*
X132798572Y-98859316D01*
X132775368Y-98853504D01*
X132752846Y-98845446D01*
X132731222Y-98835218D01*
X132710705Y-98822921D01*
X132691492Y-98808671D01*
X132673768Y-98792607D01*
X132657704Y-98774883D01*
X132643454Y-98755670D01*
X132631157Y-98735153D01*
X132620929Y-98713529D01*
X132612871Y-98691007D01*
X132607059Y-98667803D01*
X132603549Y-98644142D01*
X132602375Y-98620250D01*
X132602375Y-98132750D01*
X132603549Y-98108858D01*
X132607059Y-98085197D01*
X132612871Y-98061993D01*
X132620929Y-98039471D01*
X132631157Y-98017847D01*
X132643454Y-97997330D01*
X132657704Y-97978117D01*
X132673768Y-97960393D01*
X132691492Y-97944329D01*
X132710705Y-97930079D01*
X132731222Y-97917782D01*
X132752846Y-97907554D01*
X132775368Y-97899496D01*
X132798572Y-97893684D01*
X132822233Y-97890174D01*
X132846125Y-97889000D01*
X133758625Y-97889000D01*
X133782517Y-97890174D01*
G37*
G36*
X133782517Y-99765174D02*
G01*
X133806178Y-99768684D01*
X133829382Y-99774496D01*
X133851904Y-99782554D01*
X133873528Y-99792782D01*
X133894045Y-99805079D01*
X133913258Y-99819329D01*
X133930982Y-99835393D01*
X133947046Y-99853117D01*
X133961296Y-99872330D01*
X133973593Y-99892847D01*
X133983821Y-99914471D01*
X133991879Y-99936993D01*
X133997691Y-99960197D01*
X134001201Y-99983858D01*
X134002375Y-100007750D01*
X134002375Y-100495250D01*
X134001201Y-100519142D01*
X133997691Y-100542803D01*
X133991879Y-100566007D01*
X133983821Y-100588529D01*
X133973593Y-100610153D01*
X133961296Y-100630670D01*
X133947046Y-100649883D01*
X133930982Y-100667607D01*
X133913258Y-100683671D01*
X133894045Y-100697921D01*
X133873528Y-100710218D01*
X133851904Y-100720446D01*
X133829382Y-100728504D01*
X133806178Y-100734316D01*
X133782517Y-100737826D01*
X133758625Y-100739000D01*
X132846125Y-100739000D01*
X132822233Y-100737826D01*
X132798572Y-100734316D01*
X132775368Y-100728504D01*
X132752846Y-100720446D01*
X132731222Y-100710218D01*
X132710705Y-100697921D01*
X132691492Y-100683671D01*
X132673768Y-100667607D01*
X132657704Y-100649883D01*
X132643454Y-100630670D01*
X132631157Y-100610153D01*
X132620929Y-100588529D01*
X132612871Y-100566007D01*
X132607059Y-100542803D01*
X132603549Y-100519142D01*
X132602375Y-100495250D01*
X132602375Y-100007750D01*
X132603549Y-99983858D01*
X132607059Y-99960197D01*
X132612871Y-99936993D01*
X132620929Y-99914471D01*
X132631157Y-99892847D01*
X132643454Y-99872330D01*
X132657704Y-99853117D01*
X132673768Y-99835393D01*
X132691492Y-99819329D01*
X132710705Y-99805079D01*
X132731222Y-99792782D01*
X132752846Y-99782554D01*
X132775368Y-99774496D01*
X132798572Y-99768684D01*
X132822233Y-99765174D01*
X132846125Y-99764000D01*
X133758625Y-99764000D01*
X133782517Y-99765174D01*
G37*
G36*
X100694642Y-87312174D02*
G01*
X100718303Y-87315684D01*
X100741507Y-87321496D01*
X100764029Y-87329554D01*
X100785653Y-87339782D01*
X100806170Y-87352079D01*
X100825383Y-87366329D01*
X100843107Y-87382393D01*
X100859171Y-87400117D01*
X100873421Y-87419330D01*
X100885718Y-87439847D01*
X100895946Y-87461471D01*
X100904004Y-87483993D01*
X100909816Y-87507197D01*
X100913326Y-87530858D01*
X100914500Y-87554750D01*
X100914500Y-88467250D01*
X100913326Y-88491142D01*
X100909816Y-88514803D01*
X100904004Y-88538007D01*
X100895946Y-88560529D01*
X100885718Y-88582153D01*
X100873421Y-88602670D01*
X100859171Y-88621883D01*
X100843107Y-88639607D01*
X100825383Y-88655671D01*
X100806170Y-88669921D01*
X100785653Y-88682218D01*
X100764029Y-88692446D01*
X100741507Y-88700504D01*
X100718303Y-88706316D01*
X100694642Y-88709826D01*
X100670750Y-88711000D01*
X100183250Y-88711000D01*
X100159358Y-88709826D01*
X100135697Y-88706316D01*
X100112493Y-88700504D01*
X100089971Y-88692446D01*
X100068347Y-88682218D01*
X100047830Y-88669921D01*
X100028617Y-88655671D01*
X100010893Y-88639607D01*
X99994829Y-88621883D01*
X99980579Y-88602670D01*
X99968282Y-88582153D01*
X99958054Y-88560529D01*
X99949996Y-88538007D01*
X99944184Y-88514803D01*
X99940674Y-88491142D01*
X99939500Y-88467250D01*
X99939500Y-87554750D01*
X99940674Y-87530858D01*
X99944184Y-87507197D01*
X99949996Y-87483993D01*
X99958054Y-87461471D01*
X99968282Y-87439847D01*
X99980579Y-87419330D01*
X99994829Y-87400117D01*
X100010893Y-87382393D01*
X100028617Y-87366329D01*
X100047830Y-87352079D01*
X100068347Y-87339782D01*
X100089971Y-87329554D01*
X100112493Y-87321496D01*
X100135697Y-87315684D01*
X100159358Y-87312174D01*
X100183250Y-87311000D01*
X100670750Y-87311000D01*
X100694642Y-87312174D01*
G37*
G36*
X98819642Y-87312174D02*
G01*
X98843303Y-87315684D01*
X98866507Y-87321496D01*
X98889029Y-87329554D01*
X98910653Y-87339782D01*
X98931170Y-87352079D01*
X98950383Y-87366329D01*
X98968107Y-87382393D01*
X98984171Y-87400117D01*
X98998421Y-87419330D01*
X99010718Y-87439847D01*
X99020946Y-87461471D01*
X99029004Y-87483993D01*
X99034816Y-87507197D01*
X99038326Y-87530858D01*
X99039500Y-87554750D01*
X99039500Y-88467250D01*
X99038326Y-88491142D01*
X99034816Y-88514803D01*
X99029004Y-88538007D01*
X99020946Y-88560529D01*
X99010718Y-88582153D01*
X98998421Y-88602670D01*
X98984171Y-88621883D01*
X98968107Y-88639607D01*
X98950383Y-88655671D01*
X98931170Y-88669921D01*
X98910653Y-88682218D01*
X98889029Y-88692446D01*
X98866507Y-88700504D01*
X98843303Y-88706316D01*
X98819642Y-88709826D01*
X98795750Y-88711000D01*
X98308250Y-88711000D01*
X98284358Y-88709826D01*
X98260697Y-88706316D01*
X98237493Y-88700504D01*
X98214971Y-88692446D01*
X98193347Y-88682218D01*
X98172830Y-88669921D01*
X98153617Y-88655671D01*
X98135893Y-88639607D01*
X98119829Y-88621883D01*
X98105579Y-88602670D01*
X98093282Y-88582153D01*
X98083054Y-88560529D01*
X98074996Y-88538007D01*
X98069184Y-88514803D01*
X98065674Y-88491142D01*
X98064500Y-88467250D01*
X98064500Y-87554750D01*
X98065674Y-87530858D01*
X98069184Y-87507197D01*
X98074996Y-87483993D01*
X98083054Y-87461471D01*
X98093282Y-87439847D01*
X98105579Y-87419330D01*
X98119829Y-87400117D01*
X98135893Y-87382393D01*
X98153617Y-87366329D01*
X98172830Y-87352079D01*
X98193347Y-87339782D01*
X98214971Y-87329554D01*
X98237493Y-87321496D01*
X98260697Y-87315684D01*
X98284358Y-87312174D01*
X98308250Y-87311000D01*
X98795750Y-87311000D01*
X98819642Y-87312174D01*
G37*
G36*
X96365142Y-83793174D02*
G01*
X96388803Y-83796684D01*
X96412007Y-83802496D01*
X96434529Y-83810554D01*
X96456153Y-83820782D01*
X96476670Y-83833079D01*
X96495883Y-83847329D01*
X96513607Y-83863393D01*
X96529671Y-83881117D01*
X96543921Y-83900330D01*
X96556218Y-83920847D01*
X96566446Y-83942471D01*
X96574504Y-83964993D01*
X96580316Y-83988197D01*
X96583826Y-84011858D01*
X96585000Y-84035750D01*
X96585000Y-84523250D01*
X96583826Y-84547142D01*
X96580316Y-84570803D01*
X96574504Y-84594007D01*
X96566446Y-84616529D01*
X96556218Y-84638153D01*
X96543921Y-84658670D01*
X96529671Y-84677883D01*
X96513607Y-84695607D01*
X96495883Y-84711671D01*
X96476670Y-84725921D01*
X96456153Y-84738218D01*
X96434529Y-84748446D01*
X96412007Y-84756504D01*
X96388803Y-84762316D01*
X96365142Y-84765826D01*
X96341250Y-84767000D01*
X95428750Y-84767000D01*
X95404858Y-84765826D01*
X95381197Y-84762316D01*
X95357993Y-84756504D01*
X95335471Y-84748446D01*
X95313847Y-84738218D01*
X95293330Y-84725921D01*
X95274117Y-84711671D01*
X95256393Y-84695607D01*
X95240329Y-84677883D01*
X95226079Y-84658670D01*
X95213782Y-84638153D01*
X95203554Y-84616529D01*
X95195496Y-84594007D01*
X95189684Y-84570803D01*
X95186174Y-84547142D01*
X95185000Y-84523250D01*
X95185000Y-84035750D01*
X95186174Y-84011858D01*
X95189684Y-83988197D01*
X95195496Y-83964993D01*
X95203554Y-83942471D01*
X95213782Y-83920847D01*
X95226079Y-83900330D01*
X95240329Y-83881117D01*
X95256393Y-83863393D01*
X95274117Y-83847329D01*
X95293330Y-83833079D01*
X95313847Y-83820782D01*
X95335471Y-83810554D01*
X95357993Y-83802496D01*
X95381197Y-83796684D01*
X95404858Y-83793174D01*
X95428750Y-83792000D01*
X96341250Y-83792000D01*
X96365142Y-83793174D01*
G37*
G36*
X96365142Y-85668174D02*
G01*
X96388803Y-85671684D01*
X96412007Y-85677496D01*
X96434529Y-85685554D01*
X96456153Y-85695782D01*
X96476670Y-85708079D01*
X96495883Y-85722329D01*
X96513607Y-85738393D01*
X96529671Y-85756117D01*
X96543921Y-85775330D01*
X96556218Y-85795847D01*
X96566446Y-85817471D01*
X96574504Y-85839993D01*
X96580316Y-85863197D01*
X96583826Y-85886858D01*
X96585000Y-85910750D01*
X96585000Y-86398250D01*
X96583826Y-86422142D01*
X96580316Y-86445803D01*
X96574504Y-86469007D01*
X96566446Y-86491529D01*
X96556218Y-86513153D01*
X96543921Y-86533670D01*
X96529671Y-86552883D01*
X96513607Y-86570607D01*
X96495883Y-86586671D01*
X96476670Y-86600921D01*
X96456153Y-86613218D01*
X96434529Y-86623446D01*
X96412007Y-86631504D01*
X96388803Y-86637316D01*
X96365142Y-86640826D01*
X96341250Y-86642000D01*
X95428750Y-86642000D01*
X95404858Y-86640826D01*
X95381197Y-86637316D01*
X95357993Y-86631504D01*
X95335471Y-86623446D01*
X95313847Y-86613218D01*
X95293330Y-86600921D01*
X95274117Y-86586671D01*
X95256393Y-86570607D01*
X95240329Y-86552883D01*
X95226079Y-86533670D01*
X95213782Y-86513153D01*
X95203554Y-86491529D01*
X95195496Y-86469007D01*
X95189684Y-86445803D01*
X95186174Y-86422142D01*
X95185000Y-86398250D01*
X95185000Y-85910750D01*
X95186174Y-85886858D01*
X95189684Y-85863197D01*
X95195496Y-85839993D01*
X95203554Y-85817471D01*
X95213782Y-85795847D01*
X95226079Y-85775330D01*
X95240329Y-85756117D01*
X95256393Y-85738393D01*
X95274117Y-85722329D01*
X95293330Y-85708079D01*
X95313847Y-85695782D01*
X95335471Y-85685554D01*
X95357993Y-85677496D01*
X95381197Y-85671684D01*
X95404858Y-85668174D01*
X95428750Y-85667000D01*
X96341250Y-85667000D01*
X96365142Y-85668174D01*
G37*
G36*
X130940892Y-97890174D02*
G01*
X130964553Y-97893684D01*
X130987757Y-97899496D01*
X131010279Y-97907554D01*
X131031903Y-97917782D01*
X131052420Y-97930079D01*
X131071633Y-97944329D01*
X131089357Y-97960393D01*
X131105421Y-97978117D01*
X131119671Y-97997330D01*
X131131968Y-98017847D01*
X131142196Y-98039471D01*
X131150254Y-98061993D01*
X131156066Y-98085197D01*
X131159576Y-98108858D01*
X131160750Y-98132750D01*
X131160750Y-98620250D01*
X131159576Y-98644142D01*
X131156066Y-98667803D01*
X131150254Y-98691007D01*
X131142196Y-98713529D01*
X131131968Y-98735153D01*
X131119671Y-98755670D01*
X131105421Y-98774883D01*
X131089357Y-98792607D01*
X131071633Y-98808671D01*
X131052420Y-98822921D01*
X131031903Y-98835218D01*
X131010279Y-98845446D01*
X130987757Y-98853504D01*
X130964553Y-98859316D01*
X130940892Y-98862826D01*
X130917000Y-98864000D01*
X130004500Y-98864000D01*
X129980608Y-98862826D01*
X129956947Y-98859316D01*
X129933743Y-98853504D01*
X129911221Y-98845446D01*
X129889597Y-98835218D01*
X129869080Y-98822921D01*
X129849867Y-98808671D01*
X129832143Y-98792607D01*
X129816079Y-98774883D01*
X129801829Y-98755670D01*
X129789532Y-98735153D01*
X129779304Y-98713529D01*
X129771246Y-98691007D01*
X129765434Y-98667803D01*
X129761924Y-98644142D01*
X129760750Y-98620250D01*
X129760750Y-98132750D01*
X129761924Y-98108858D01*
X129765434Y-98085197D01*
X129771246Y-98061993D01*
X129779304Y-98039471D01*
X129789532Y-98017847D01*
X129801829Y-97997330D01*
X129816079Y-97978117D01*
X129832143Y-97960393D01*
X129849867Y-97944329D01*
X129869080Y-97930079D01*
X129889597Y-97917782D01*
X129911221Y-97907554D01*
X129933743Y-97899496D01*
X129956947Y-97893684D01*
X129980608Y-97890174D01*
X130004500Y-97889000D01*
X130917000Y-97889000D01*
X130940892Y-97890174D01*
G37*
G36*
X130940892Y-99765174D02*
G01*
X130964553Y-99768684D01*
X130987757Y-99774496D01*
X131010279Y-99782554D01*
X131031903Y-99792782D01*
X131052420Y-99805079D01*
X131071633Y-99819329D01*
X131089357Y-99835393D01*
X131105421Y-99853117D01*
X131119671Y-99872330D01*
X131131968Y-99892847D01*
X131142196Y-99914471D01*
X131150254Y-99936993D01*
X131156066Y-99960197D01*
X131159576Y-99983858D01*
X131160750Y-100007750D01*
X131160750Y-100495250D01*
X131159576Y-100519142D01*
X131156066Y-100542803D01*
X131150254Y-100566007D01*
X131142196Y-100588529D01*
X131131968Y-100610153D01*
X131119671Y-100630670D01*
X131105421Y-100649883D01*
X131089357Y-100667607D01*
X131071633Y-100683671D01*
X131052420Y-100697921D01*
X131031903Y-100710218D01*
X131010279Y-100720446D01*
X130987757Y-100728504D01*
X130964553Y-100734316D01*
X130940892Y-100737826D01*
X130917000Y-100739000D01*
X130004500Y-100739000D01*
X129980608Y-100737826D01*
X129956947Y-100734316D01*
X129933743Y-100728504D01*
X129911221Y-100720446D01*
X129889597Y-100710218D01*
X129869080Y-100697921D01*
X129849867Y-100683671D01*
X129832143Y-100667607D01*
X129816079Y-100649883D01*
X129801829Y-100630670D01*
X129789532Y-100610153D01*
X129779304Y-100588529D01*
X129771246Y-100566007D01*
X129765434Y-100542803D01*
X129761924Y-100519142D01*
X129760750Y-100495250D01*
X129760750Y-100007750D01*
X129761924Y-99983858D01*
X129765434Y-99960197D01*
X129771246Y-99936993D01*
X129779304Y-99914471D01*
X129789532Y-99892847D01*
X129801829Y-99872330D01*
X129816079Y-99853117D01*
X129832143Y-99835393D01*
X129849867Y-99819329D01*
X129869080Y-99805079D01*
X129889597Y-99792782D01*
X129911221Y-99782554D01*
X129933743Y-99774496D01*
X129956947Y-99768684D01*
X129980608Y-99765174D01*
X130004500Y-99764000D01*
X130917000Y-99764000D01*
X130940892Y-99765174D01*
G37*
G36*
X96365142Y-77824174D02*
G01*
X96388803Y-77827684D01*
X96412007Y-77833496D01*
X96434529Y-77841554D01*
X96456153Y-77851782D01*
X96476670Y-77864079D01*
X96495883Y-77878329D01*
X96513607Y-77894393D01*
X96529671Y-77912117D01*
X96543921Y-77931330D01*
X96556218Y-77951847D01*
X96566446Y-77973471D01*
X96574504Y-77995993D01*
X96580316Y-78019197D01*
X96583826Y-78042858D01*
X96585000Y-78066750D01*
X96585000Y-78554250D01*
X96583826Y-78578142D01*
X96580316Y-78601803D01*
X96574504Y-78625007D01*
X96566446Y-78647529D01*
X96556218Y-78669153D01*
X96543921Y-78689670D01*
X96529671Y-78708883D01*
X96513607Y-78726607D01*
X96495883Y-78742671D01*
X96476670Y-78756921D01*
X96456153Y-78769218D01*
X96434529Y-78779446D01*
X96412007Y-78787504D01*
X96388803Y-78793316D01*
X96365142Y-78796826D01*
X96341250Y-78798000D01*
X95428750Y-78798000D01*
X95404858Y-78796826D01*
X95381197Y-78793316D01*
X95357993Y-78787504D01*
X95335471Y-78779446D01*
X95313847Y-78769218D01*
X95293330Y-78756921D01*
X95274117Y-78742671D01*
X95256393Y-78726607D01*
X95240329Y-78708883D01*
X95226079Y-78689670D01*
X95213782Y-78669153D01*
X95203554Y-78647529D01*
X95195496Y-78625007D01*
X95189684Y-78601803D01*
X95186174Y-78578142D01*
X95185000Y-78554250D01*
X95185000Y-78066750D01*
X95186174Y-78042858D01*
X95189684Y-78019197D01*
X95195496Y-77995993D01*
X95203554Y-77973471D01*
X95213782Y-77951847D01*
X95226079Y-77931330D01*
X95240329Y-77912117D01*
X95256393Y-77894393D01*
X95274117Y-77878329D01*
X95293330Y-77864079D01*
X95313847Y-77851782D01*
X95335471Y-77841554D01*
X95357993Y-77833496D01*
X95381197Y-77827684D01*
X95404858Y-77824174D01*
X95428750Y-77823000D01*
X96341250Y-77823000D01*
X96365142Y-77824174D01*
G37*
G36*
X96365142Y-79699174D02*
G01*
X96388803Y-79702684D01*
X96412007Y-79708496D01*
X96434529Y-79716554D01*
X96456153Y-79726782D01*
X96476670Y-79739079D01*
X96495883Y-79753329D01*
X96513607Y-79769393D01*
X96529671Y-79787117D01*
X96543921Y-79806330D01*
X96556218Y-79826847D01*
X96566446Y-79848471D01*
X96574504Y-79870993D01*
X96580316Y-79894197D01*
X96583826Y-79917858D01*
X96585000Y-79941750D01*
X96585000Y-80429250D01*
X96583826Y-80453142D01*
X96580316Y-80476803D01*
X96574504Y-80500007D01*
X96566446Y-80522529D01*
X96556218Y-80544153D01*
X96543921Y-80564670D01*
X96529671Y-80583883D01*
X96513607Y-80601607D01*
X96495883Y-80617671D01*
X96476670Y-80631921D01*
X96456153Y-80644218D01*
X96434529Y-80654446D01*
X96412007Y-80662504D01*
X96388803Y-80668316D01*
X96365142Y-80671826D01*
X96341250Y-80673000D01*
X95428750Y-80673000D01*
X95404858Y-80671826D01*
X95381197Y-80668316D01*
X95357993Y-80662504D01*
X95335471Y-80654446D01*
X95313847Y-80644218D01*
X95293330Y-80631921D01*
X95274117Y-80617671D01*
X95256393Y-80601607D01*
X95240329Y-80583883D01*
X95226079Y-80564670D01*
X95213782Y-80544153D01*
X95203554Y-80522529D01*
X95195496Y-80500007D01*
X95189684Y-80476803D01*
X95186174Y-80453142D01*
X95185000Y-80429250D01*
X95185000Y-79941750D01*
X95186174Y-79917858D01*
X95189684Y-79894197D01*
X95195496Y-79870993D01*
X95203554Y-79848471D01*
X95213782Y-79826847D01*
X95226079Y-79806330D01*
X95240329Y-79787117D01*
X95256393Y-79769393D01*
X95274117Y-79753329D01*
X95293330Y-79739079D01*
X95313847Y-79726782D01*
X95335471Y-79716554D01*
X95357993Y-79708496D01*
X95381197Y-79702684D01*
X95404858Y-79699174D01*
X95428750Y-79698000D01*
X96341250Y-79698000D01*
X96365142Y-79699174D01*
G37*
D18*
X168275000Y-132495000D03*
X169225000Y-130395000D03*
X167325000Y-130395000D03*
X168275000Y-128050000D03*
X169225000Y-125950000D03*
X167325000Y-125950000D03*
D19*
X164880000Y-146685000D03*
X162780000Y-145735000D03*
X162780000Y-147635000D03*
X160570000Y-146685000D03*
X158470000Y-145735000D03*
X158470000Y-147635000D03*
D18*
X181864000Y-110075000D03*
X180914000Y-112175000D03*
X182814000Y-112175000D03*
X185766500Y-110119000D03*
X184816500Y-112219000D03*
X186716500Y-112219000D03*
D19*
X104501000Y-90929500D03*
X102401000Y-89979500D03*
X102401000Y-91879500D03*
X100237000Y-90932000D03*
X98137000Y-89982000D03*
X98137000Y-91882000D03*
X104555000Y-85215750D03*
X102455000Y-84265750D03*
X102455000Y-86165750D03*
X100237000Y-85217000D03*
X98137000Y-84267000D03*
X98137000Y-86167000D03*
X104555000Y-79248000D03*
X102455000Y-78298000D03*
X102455000Y-80198000D03*
X100330000Y-79248000D03*
X98230000Y-78298000D03*
X98230000Y-80198000D03*
D20*
X136144000Y-92490500D03*
X136144000Y-95850500D03*
X133302375Y-92490500D03*
X133302375Y-95850500D03*
X130460750Y-92490500D03*
X130460750Y-95850500D03*
D16*
G36*
X113932642Y-111696174D02*
G01*
X113956303Y-111699684D01*
X113979507Y-111705496D01*
X114002029Y-111713554D01*
X114023653Y-111723782D01*
X114044170Y-111736079D01*
X114063383Y-111750329D01*
X114081107Y-111766393D01*
X114097171Y-111784117D01*
X114111421Y-111803330D01*
X114123718Y-111823847D01*
X114133946Y-111845471D01*
X114142004Y-111867993D01*
X114147816Y-111891197D01*
X114151326Y-111914858D01*
X114152500Y-111938750D01*
X114152500Y-112851250D01*
X114151326Y-112875142D01*
X114147816Y-112898803D01*
X114142004Y-112922007D01*
X114133946Y-112944529D01*
X114123718Y-112966153D01*
X114111421Y-112986670D01*
X114097171Y-113005883D01*
X114081107Y-113023607D01*
X114063383Y-113039671D01*
X114044170Y-113053921D01*
X114023653Y-113066218D01*
X114002029Y-113076446D01*
X113979507Y-113084504D01*
X113956303Y-113090316D01*
X113932642Y-113093826D01*
X113908750Y-113095000D01*
X113421250Y-113095000D01*
X113397358Y-113093826D01*
X113373697Y-113090316D01*
X113350493Y-113084504D01*
X113327971Y-113076446D01*
X113306347Y-113066218D01*
X113285830Y-113053921D01*
X113266617Y-113039671D01*
X113248893Y-113023607D01*
X113232829Y-113005883D01*
X113218579Y-112986670D01*
X113206282Y-112966153D01*
X113196054Y-112944529D01*
X113187996Y-112922007D01*
X113182184Y-112898803D01*
X113178674Y-112875142D01*
X113177500Y-112851250D01*
X113177500Y-111938750D01*
X113178674Y-111914858D01*
X113182184Y-111891197D01*
X113187996Y-111867993D01*
X113196054Y-111845471D01*
X113206282Y-111823847D01*
X113218579Y-111803330D01*
X113232829Y-111784117D01*
X113248893Y-111766393D01*
X113266617Y-111750329D01*
X113285830Y-111736079D01*
X113306347Y-111723782D01*
X113327971Y-111713554D01*
X113350493Y-111705496D01*
X113373697Y-111699684D01*
X113397358Y-111696174D01*
X113421250Y-111695000D01*
X113908750Y-111695000D01*
X113932642Y-111696174D01*
G37*
G36*
X112057642Y-111696174D02*
G01*
X112081303Y-111699684D01*
X112104507Y-111705496D01*
X112127029Y-111713554D01*
X112148653Y-111723782D01*
X112169170Y-111736079D01*
X112188383Y-111750329D01*
X112206107Y-111766393D01*
X112222171Y-111784117D01*
X112236421Y-111803330D01*
X112248718Y-111823847D01*
X112258946Y-111845471D01*
X112267004Y-111867993D01*
X112272816Y-111891197D01*
X112276326Y-111914858D01*
X112277500Y-111938750D01*
X112277500Y-112851250D01*
X112276326Y-112875142D01*
X112272816Y-112898803D01*
X112267004Y-112922007D01*
X112258946Y-112944529D01*
X112248718Y-112966153D01*
X112236421Y-112986670D01*
X112222171Y-113005883D01*
X112206107Y-113023607D01*
X112188383Y-113039671D01*
X112169170Y-113053921D01*
X112148653Y-113066218D01*
X112127029Y-113076446D01*
X112104507Y-113084504D01*
X112081303Y-113090316D01*
X112057642Y-113093826D01*
X112033750Y-113095000D01*
X111546250Y-113095000D01*
X111522358Y-113093826D01*
X111498697Y-113090316D01*
X111475493Y-113084504D01*
X111452971Y-113076446D01*
X111431347Y-113066218D01*
X111410830Y-113053921D01*
X111391617Y-113039671D01*
X111373893Y-113023607D01*
X111357829Y-113005883D01*
X111343579Y-112986670D01*
X111331282Y-112966153D01*
X111321054Y-112944529D01*
X111312996Y-112922007D01*
X111307184Y-112898803D01*
X111303674Y-112875142D01*
X111302500Y-112851250D01*
X111302500Y-111938750D01*
X111303674Y-111914858D01*
X111307184Y-111891197D01*
X111312996Y-111867993D01*
X111321054Y-111845471D01*
X111331282Y-111823847D01*
X111343579Y-111803330D01*
X111357829Y-111784117D01*
X111373893Y-111766393D01*
X111391617Y-111750329D01*
X111410830Y-111736079D01*
X111431347Y-111723782D01*
X111452971Y-111713554D01*
X111475493Y-111705496D01*
X111498697Y-111699684D01*
X111522358Y-111696174D01*
X111546250Y-111695000D01*
X112033750Y-111695000D01*
X112057642Y-111696174D01*
G37*
G36*
X157717642Y-98996174D02*
G01*
X157741303Y-98999684D01*
X157764507Y-99005496D01*
X157787029Y-99013554D01*
X157808653Y-99023782D01*
X157829170Y-99036079D01*
X157848383Y-99050329D01*
X157866107Y-99066393D01*
X157882171Y-99084117D01*
X157896421Y-99103330D01*
X157908718Y-99123847D01*
X157918946Y-99145471D01*
X157927004Y-99167993D01*
X157932816Y-99191197D01*
X157936326Y-99214858D01*
X157937500Y-99238750D01*
X157937500Y-100151250D01*
X157936326Y-100175142D01*
X157932816Y-100198803D01*
X157927004Y-100222007D01*
X157918946Y-100244529D01*
X157908718Y-100266153D01*
X157896421Y-100286670D01*
X157882171Y-100305883D01*
X157866107Y-100323607D01*
X157848383Y-100339671D01*
X157829170Y-100353921D01*
X157808653Y-100366218D01*
X157787029Y-100376446D01*
X157764507Y-100384504D01*
X157741303Y-100390316D01*
X157717642Y-100393826D01*
X157693750Y-100395000D01*
X157206250Y-100395000D01*
X157182358Y-100393826D01*
X157158697Y-100390316D01*
X157135493Y-100384504D01*
X157112971Y-100376446D01*
X157091347Y-100366218D01*
X157070830Y-100353921D01*
X157051617Y-100339671D01*
X157033893Y-100323607D01*
X157017829Y-100305883D01*
X157003579Y-100286670D01*
X156991282Y-100266153D01*
X156981054Y-100244529D01*
X156972996Y-100222007D01*
X156967184Y-100198803D01*
X156963674Y-100175142D01*
X156962500Y-100151250D01*
X156962500Y-99238750D01*
X156963674Y-99214858D01*
X156967184Y-99191197D01*
X156972996Y-99167993D01*
X156981054Y-99145471D01*
X156991282Y-99123847D01*
X157003579Y-99103330D01*
X157017829Y-99084117D01*
X157033893Y-99066393D01*
X157051617Y-99050329D01*
X157070830Y-99036079D01*
X157091347Y-99023782D01*
X157112971Y-99013554D01*
X157135493Y-99005496D01*
X157158697Y-98999684D01*
X157182358Y-98996174D01*
X157206250Y-98995000D01*
X157693750Y-98995000D01*
X157717642Y-98996174D01*
G37*
G36*
X155842642Y-98996174D02*
G01*
X155866303Y-98999684D01*
X155889507Y-99005496D01*
X155912029Y-99013554D01*
X155933653Y-99023782D01*
X155954170Y-99036079D01*
X155973383Y-99050329D01*
X155991107Y-99066393D01*
X156007171Y-99084117D01*
X156021421Y-99103330D01*
X156033718Y-99123847D01*
X156043946Y-99145471D01*
X156052004Y-99167993D01*
X156057816Y-99191197D01*
X156061326Y-99214858D01*
X156062500Y-99238750D01*
X156062500Y-100151250D01*
X156061326Y-100175142D01*
X156057816Y-100198803D01*
X156052004Y-100222007D01*
X156043946Y-100244529D01*
X156033718Y-100266153D01*
X156021421Y-100286670D01*
X156007171Y-100305883D01*
X155991107Y-100323607D01*
X155973383Y-100339671D01*
X155954170Y-100353921D01*
X155933653Y-100366218D01*
X155912029Y-100376446D01*
X155889507Y-100384504D01*
X155866303Y-100390316D01*
X155842642Y-100393826D01*
X155818750Y-100395000D01*
X155331250Y-100395000D01*
X155307358Y-100393826D01*
X155283697Y-100390316D01*
X155260493Y-100384504D01*
X155237971Y-100376446D01*
X155216347Y-100366218D01*
X155195830Y-100353921D01*
X155176617Y-100339671D01*
X155158893Y-100323607D01*
X155142829Y-100305883D01*
X155128579Y-100286670D01*
X155116282Y-100266153D01*
X155106054Y-100244529D01*
X155097996Y-100222007D01*
X155092184Y-100198803D01*
X155088674Y-100175142D01*
X155087500Y-100151250D01*
X155087500Y-99238750D01*
X155088674Y-99214858D01*
X155092184Y-99191197D01*
X155097996Y-99167993D01*
X155106054Y-99145471D01*
X155116282Y-99123847D01*
X155128579Y-99103330D01*
X155142829Y-99084117D01*
X155158893Y-99066393D01*
X155176617Y-99050329D01*
X155195830Y-99036079D01*
X155216347Y-99023782D01*
X155237971Y-99013554D01*
X155260493Y-99005496D01*
X155283697Y-98999684D01*
X155307358Y-98996174D01*
X155331250Y-98995000D01*
X155818750Y-98995000D01*
X155842642Y-98996174D01*
G37*
G36*
X167485142Y-91286174D02*
G01*
X167508803Y-91289684D01*
X167532007Y-91295496D01*
X167554529Y-91303554D01*
X167576153Y-91313782D01*
X167596670Y-91326079D01*
X167615883Y-91340329D01*
X167633607Y-91356393D01*
X167649671Y-91374117D01*
X167663921Y-91393330D01*
X167676218Y-91413847D01*
X167686446Y-91435471D01*
X167694504Y-91457993D01*
X167700316Y-91481197D01*
X167703826Y-91504858D01*
X167705000Y-91528750D01*
X167705000Y-92016250D01*
X167703826Y-92040142D01*
X167700316Y-92063803D01*
X167694504Y-92087007D01*
X167686446Y-92109529D01*
X167676218Y-92131153D01*
X167663921Y-92151670D01*
X167649671Y-92170883D01*
X167633607Y-92188607D01*
X167615883Y-92204671D01*
X167596670Y-92218921D01*
X167576153Y-92231218D01*
X167554529Y-92241446D01*
X167532007Y-92249504D01*
X167508803Y-92255316D01*
X167485142Y-92258826D01*
X167461250Y-92260000D01*
X166548750Y-92260000D01*
X166524858Y-92258826D01*
X166501197Y-92255316D01*
X166477993Y-92249504D01*
X166455471Y-92241446D01*
X166433847Y-92231218D01*
X166413330Y-92218921D01*
X166394117Y-92204671D01*
X166376393Y-92188607D01*
X166360329Y-92170883D01*
X166346079Y-92151670D01*
X166333782Y-92131153D01*
X166323554Y-92109529D01*
X166315496Y-92087007D01*
X166309684Y-92063803D01*
X166306174Y-92040142D01*
X166305000Y-92016250D01*
X166305000Y-91528750D01*
X166306174Y-91504858D01*
X166309684Y-91481197D01*
X166315496Y-91457993D01*
X166323554Y-91435471D01*
X166333782Y-91413847D01*
X166346079Y-91393330D01*
X166360329Y-91374117D01*
X166376393Y-91356393D01*
X166394117Y-91340329D01*
X166413330Y-91326079D01*
X166433847Y-91313782D01*
X166455471Y-91303554D01*
X166477993Y-91295496D01*
X166501197Y-91289684D01*
X166524858Y-91286174D01*
X166548750Y-91285000D01*
X167461250Y-91285000D01*
X167485142Y-91286174D01*
G37*
G36*
X167485142Y-93161174D02*
G01*
X167508803Y-93164684D01*
X167532007Y-93170496D01*
X167554529Y-93178554D01*
X167576153Y-93188782D01*
X167596670Y-93201079D01*
X167615883Y-93215329D01*
X167633607Y-93231393D01*
X167649671Y-93249117D01*
X167663921Y-93268330D01*
X167676218Y-93288847D01*
X167686446Y-93310471D01*
X167694504Y-93332993D01*
X167700316Y-93356197D01*
X167703826Y-93379858D01*
X167705000Y-93403750D01*
X167705000Y-93891250D01*
X167703826Y-93915142D01*
X167700316Y-93938803D01*
X167694504Y-93962007D01*
X167686446Y-93984529D01*
X167676218Y-94006153D01*
X167663921Y-94026670D01*
X167649671Y-94045883D01*
X167633607Y-94063607D01*
X167615883Y-94079671D01*
X167596670Y-94093921D01*
X167576153Y-94106218D01*
X167554529Y-94116446D01*
X167532007Y-94124504D01*
X167508803Y-94130316D01*
X167485142Y-94133826D01*
X167461250Y-94135000D01*
X166548750Y-94135000D01*
X166524858Y-94133826D01*
X166501197Y-94130316D01*
X166477993Y-94124504D01*
X166455471Y-94116446D01*
X166433847Y-94106218D01*
X166413330Y-94093921D01*
X166394117Y-94079671D01*
X166376393Y-94063607D01*
X166360329Y-94045883D01*
X166346079Y-94026670D01*
X166333782Y-94006153D01*
X166323554Y-93984529D01*
X166315496Y-93962007D01*
X166309684Y-93938803D01*
X166306174Y-93915142D01*
X166305000Y-93891250D01*
X166305000Y-93403750D01*
X166306174Y-93379858D01*
X166309684Y-93356197D01*
X166315496Y-93332993D01*
X166323554Y-93310471D01*
X166333782Y-93288847D01*
X166346079Y-93268330D01*
X166360329Y-93249117D01*
X166376393Y-93231393D01*
X166394117Y-93215329D01*
X166413330Y-93201079D01*
X166433847Y-93188782D01*
X166455471Y-93178554D01*
X166477993Y-93170496D01*
X166501197Y-93164684D01*
X166524858Y-93161174D01*
X166548750Y-93160000D01*
X167461250Y-93160000D01*
X167485142Y-93161174D01*
G37*
G36*
X164945142Y-91286174D02*
G01*
X164968803Y-91289684D01*
X164992007Y-91295496D01*
X165014529Y-91303554D01*
X165036153Y-91313782D01*
X165056670Y-91326079D01*
X165075883Y-91340329D01*
X165093607Y-91356393D01*
X165109671Y-91374117D01*
X165123921Y-91393330D01*
X165136218Y-91413847D01*
X165146446Y-91435471D01*
X165154504Y-91457993D01*
X165160316Y-91481197D01*
X165163826Y-91504858D01*
X165165000Y-91528750D01*
X165165000Y-92016250D01*
X165163826Y-92040142D01*
X165160316Y-92063803D01*
X165154504Y-92087007D01*
X165146446Y-92109529D01*
X165136218Y-92131153D01*
X165123921Y-92151670D01*
X165109671Y-92170883D01*
X165093607Y-92188607D01*
X165075883Y-92204671D01*
X165056670Y-92218921D01*
X165036153Y-92231218D01*
X165014529Y-92241446D01*
X164992007Y-92249504D01*
X164968803Y-92255316D01*
X164945142Y-92258826D01*
X164921250Y-92260000D01*
X164008750Y-92260000D01*
X163984858Y-92258826D01*
X163961197Y-92255316D01*
X163937993Y-92249504D01*
X163915471Y-92241446D01*
X163893847Y-92231218D01*
X163873330Y-92218921D01*
X163854117Y-92204671D01*
X163836393Y-92188607D01*
X163820329Y-92170883D01*
X163806079Y-92151670D01*
X163793782Y-92131153D01*
X163783554Y-92109529D01*
X163775496Y-92087007D01*
X163769684Y-92063803D01*
X163766174Y-92040142D01*
X163765000Y-92016250D01*
X163765000Y-91528750D01*
X163766174Y-91504858D01*
X163769684Y-91481197D01*
X163775496Y-91457993D01*
X163783554Y-91435471D01*
X163793782Y-91413847D01*
X163806079Y-91393330D01*
X163820329Y-91374117D01*
X163836393Y-91356393D01*
X163854117Y-91340329D01*
X163873330Y-91326079D01*
X163893847Y-91313782D01*
X163915471Y-91303554D01*
X163937993Y-91295496D01*
X163961197Y-91289684D01*
X163984858Y-91286174D01*
X164008750Y-91285000D01*
X164921250Y-91285000D01*
X164945142Y-91286174D01*
G37*
G36*
X164945142Y-93161174D02*
G01*
X164968803Y-93164684D01*
X164992007Y-93170496D01*
X165014529Y-93178554D01*
X165036153Y-93188782D01*
X165056670Y-93201079D01*
X165075883Y-93215329D01*
X165093607Y-93231393D01*
X165109671Y-93249117D01*
X165123921Y-93268330D01*
X165136218Y-93288847D01*
X165146446Y-93310471D01*
X165154504Y-93332993D01*
X165160316Y-93356197D01*
X165163826Y-93379858D01*
X165165000Y-93403750D01*
X165165000Y-93891250D01*
X165163826Y-93915142D01*
X165160316Y-93938803D01*
X165154504Y-93962007D01*
X165146446Y-93984529D01*
X165136218Y-94006153D01*
X165123921Y-94026670D01*
X165109671Y-94045883D01*
X165093607Y-94063607D01*
X165075883Y-94079671D01*
X165056670Y-94093921D01*
X165036153Y-94106218D01*
X165014529Y-94116446D01*
X164992007Y-94124504D01*
X164968803Y-94130316D01*
X164945142Y-94133826D01*
X164921250Y-94135000D01*
X164008750Y-94135000D01*
X163984858Y-94133826D01*
X163961197Y-94130316D01*
X163937993Y-94124504D01*
X163915471Y-94116446D01*
X163893847Y-94106218D01*
X163873330Y-94093921D01*
X163854117Y-94079671D01*
X163836393Y-94063607D01*
X163820329Y-94045883D01*
X163806079Y-94026670D01*
X163793782Y-94006153D01*
X163783554Y-93984529D01*
X163775496Y-93962007D01*
X163769684Y-93938803D01*
X163766174Y-93915142D01*
X163765000Y-93891250D01*
X163765000Y-93403750D01*
X163766174Y-93379858D01*
X163769684Y-93356197D01*
X163775496Y-93332993D01*
X163783554Y-93310471D01*
X163793782Y-93288847D01*
X163806079Y-93268330D01*
X163820329Y-93249117D01*
X163836393Y-93231393D01*
X163854117Y-93215329D01*
X163873330Y-93201079D01*
X163893847Y-93188782D01*
X163915471Y-93178554D01*
X163937993Y-93170496D01*
X163961197Y-93164684D01*
X163984858Y-93161174D01*
X164008750Y-93160000D01*
X164921250Y-93160000D01*
X164945142Y-93161174D01*
G37*
G36*
X174560142Y-120586174D02*
G01*
X174583803Y-120589684D01*
X174607007Y-120595496D01*
X174629529Y-120603554D01*
X174651153Y-120613782D01*
X174671670Y-120626079D01*
X174690883Y-120640329D01*
X174708607Y-120656393D01*
X174724671Y-120674117D01*
X174738921Y-120693330D01*
X174751218Y-120713847D01*
X174761446Y-120735471D01*
X174769504Y-120757993D01*
X174775316Y-120781197D01*
X174778826Y-120804858D01*
X174780000Y-120828750D01*
X174780000Y-121741250D01*
X174778826Y-121765142D01*
X174775316Y-121788803D01*
X174769504Y-121812007D01*
X174761446Y-121834529D01*
X174751218Y-121856153D01*
X174738921Y-121876670D01*
X174724671Y-121895883D01*
X174708607Y-121913607D01*
X174690883Y-121929671D01*
X174671670Y-121943921D01*
X174651153Y-121956218D01*
X174629529Y-121966446D01*
X174607007Y-121974504D01*
X174583803Y-121980316D01*
X174560142Y-121983826D01*
X174536250Y-121985000D01*
X174048750Y-121985000D01*
X174024858Y-121983826D01*
X174001197Y-121980316D01*
X173977993Y-121974504D01*
X173955471Y-121966446D01*
X173933847Y-121956218D01*
X173913330Y-121943921D01*
X173894117Y-121929671D01*
X173876393Y-121913607D01*
X173860329Y-121895883D01*
X173846079Y-121876670D01*
X173833782Y-121856153D01*
X173823554Y-121834529D01*
X173815496Y-121812007D01*
X173809684Y-121788803D01*
X173806174Y-121765142D01*
X173805000Y-121741250D01*
X173805000Y-120828750D01*
X173806174Y-120804858D01*
X173809684Y-120781197D01*
X173815496Y-120757993D01*
X173823554Y-120735471D01*
X173833782Y-120713847D01*
X173846079Y-120693330D01*
X173860329Y-120674117D01*
X173876393Y-120656393D01*
X173894117Y-120640329D01*
X173913330Y-120626079D01*
X173933847Y-120613782D01*
X173955471Y-120603554D01*
X173977993Y-120595496D01*
X174001197Y-120589684D01*
X174024858Y-120586174D01*
X174048750Y-120585000D01*
X174536250Y-120585000D01*
X174560142Y-120586174D01*
G37*
G36*
X172685142Y-120586174D02*
G01*
X172708803Y-120589684D01*
X172732007Y-120595496D01*
X172754529Y-120603554D01*
X172776153Y-120613782D01*
X172796670Y-120626079D01*
X172815883Y-120640329D01*
X172833607Y-120656393D01*
X172849671Y-120674117D01*
X172863921Y-120693330D01*
X172876218Y-120713847D01*
X172886446Y-120735471D01*
X172894504Y-120757993D01*
X172900316Y-120781197D01*
X172903826Y-120804858D01*
X172905000Y-120828750D01*
X172905000Y-121741250D01*
X172903826Y-121765142D01*
X172900316Y-121788803D01*
X172894504Y-121812007D01*
X172886446Y-121834529D01*
X172876218Y-121856153D01*
X172863921Y-121876670D01*
X172849671Y-121895883D01*
X172833607Y-121913607D01*
X172815883Y-121929671D01*
X172796670Y-121943921D01*
X172776153Y-121956218D01*
X172754529Y-121966446D01*
X172732007Y-121974504D01*
X172708803Y-121980316D01*
X172685142Y-121983826D01*
X172661250Y-121985000D01*
X172173750Y-121985000D01*
X172149858Y-121983826D01*
X172126197Y-121980316D01*
X172102993Y-121974504D01*
X172080471Y-121966446D01*
X172058847Y-121956218D01*
X172038330Y-121943921D01*
X172019117Y-121929671D01*
X172001393Y-121913607D01*
X171985329Y-121895883D01*
X171971079Y-121876670D01*
X171958782Y-121856153D01*
X171948554Y-121834529D01*
X171940496Y-121812007D01*
X171934684Y-121788803D01*
X171931174Y-121765142D01*
X171930000Y-121741250D01*
X171930000Y-120828750D01*
X171931174Y-120804858D01*
X171934684Y-120781197D01*
X171940496Y-120757993D01*
X171948554Y-120735471D01*
X171958782Y-120713847D01*
X171971079Y-120693330D01*
X171985329Y-120674117D01*
X172001393Y-120656393D01*
X172019117Y-120640329D01*
X172038330Y-120626079D01*
X172058847Y-120613782D01*
X172080471Y-120603554D01*
X172102993Y-120595496D01*
X172126197Y-120589684D01*
X172149858Y-120586174D01*
X172173750Y-120585000D01*
X172661250Y-120585000D01*
X172685142Y-120586174D01*
G37*
G36*
X189075142Y-126816174D02*
G01*
X189098803Y-126819684D01*
X189122007Y-126825496D01*
X189144529Y-126833554D01*
X189166153Y-126843782D01*
X189186670Y-126856079D01*
X189205883Y-126870329D01*
X189223607Y-126886393D01*
X189239671Y-126904117D01*
X189253921Y-126923330D01*
X189266218Y-126943847D01*
X189276446Y-126965471D01*
X189284504Y-126987993D01*
X189290316Y-127011197D01*
X189293826Y-127034858D01*
X189295000Y-127058750D01*
X189295000Y-127546250D01*
X189293826Y-127570142D01*
X189290316Y-127593803D01*
X189284504Y-127617007D01*
X189276446Y-127639529D01*
X189266218Y-127661153D01*
X189253921Y-127681670D01*
X189239671Y-127700883D01*
X189223607Y-127718607D01*
X189205883Y-127734671D01*
X189186670Y-127748921D01*
X189166153Y-127761218D01*
X189144529Y-127771446D01*
X189122007Y-127779504D01*
X189098803Y-127785316D01*
X189075142Y-127788826D01*
X189051250Y-127790000D01*
X188138750Y-127790000D01*
X188114858Y-127788826D01*
X188091197Y-127785316D01*
X188067993Y-127779504D01*
X188045471Y-127771446D01*
X188023847Y-127761218D01*
X188003330Y-127748921D01*
X187984117Y-127734671D01*
X187966393Y-127718607D01*
X187950329Y-127700883D01*
X187936079Y-127681670D01*
X187923782Y-127661153D01*
X187913554Y-127639529D01*
X187905496Y-127617007D01*
X187899684Y-127593803D01*
X187896174Y-127570142D01*
X187895000Y-127546250D01*
X187895000Y-127058750D01*
X187896174Y-127034858D01*
X187899684Y-127011197D01*
X187905496Y-126987993D01*
X187913554Y-126965471D01*
X187923782Y-126943847D01*
X187936079Y-126923330D01*
X187950329Y-126904117D01*
X187966393Y-126886393D01*
X187984117Y-126870329D01*
X188003330Y-126856079D01*
X188023847Y-126843782D01*
X188045471Y-126833554D01*
X188067993Y-126825496D01*
X188091197Y-126819684D01*
X188114858Y-126816174D01*
X188138750Y-126815000D01*
X189051250Y-126815000D01*
X189075142Y-126816174D01*
G37*
G36*
X189075142Y-124941174D02*
G01*
X189098803Y-124944684D01*
X189122007Y-124950496D01*
X189144529Y-124958554D01*
X189166153Y-124968782D01*
X189186670Y-124981079D01*
X189205883Y-124995329D01*
X189223607Y-125011393D01*
X189239671Y-125029117D01*
X189253921Y-125048330D01*
X189266218Y-125068847D01*
X189276446Y-125090471D01*
X189284504Y-125112993D01*
X189290316Y-125136197D01*
X189293826Y-125159858D01*
X189295000Y-125183750D01*
X189295000Y-125671250D01*
X189293826Y-125695142D01*
X189290316Y-125718803D01*
X189284504Y-125742007D01*
X189276446Y-125764529D01*
X189266218Y-125786153D01*
X189253921Y-125806670D01*
X189239671Y-125825883D01*
X189223607Y-125843607D01*
X189205883Y-125859671D01*
X189186670Y-125873921D01*
X189166153Y-125886218D01*
X189144529Y-125896446D01*
X189122007Y-125904504D01*
X189098803Y-125910316D01*
X189075142Y-125913826D01*
X189051250Y-125915000D01*
X188138750Y-125915000D01*
X188114858Y-125913826D01*
X188091197Y-125910316D01*
X188067993Y-125904504D01*
X188045471Y-125896446D01*
X188023847Y-125886218D01*
X188003330Y-125873921D01*
X187984117Y-125859671D01*
X187966393Y-125843607D01*
X187950329Y-125825883D01*
X187936079Y-125806670D01*
X187923782Y-125786153D01*
X187913554Y-125764529D01*
X187905496Y-125742007D01*
X187899684Y-125718803D01*
X187896174Y-125695142D01*
X187895000Y-125671250D01*
X187895000Y-125183750D01*
X187896174Y-125159858D01*
X187899684Y-125136197D01*
X187905496Y-125112993D01*
X187913554Y-125090471D01*
X187923782Y-125068847D01*
X187936079Y-125048330D01*
X187950329Y-125029117D01*
X187966393Y-125011393D01*
X187984117Y-124995329D01*
X188003330Y-124981079D01*
X188023847Y-124968782D01*
X188045471Y-124958554D01*
X188067993Y-124950496D01*
X188091197Y-124944684D01*
X188114858Y-124941174D01*
X188138750Y-124940000D01*
X189051250Y-124940000D01*
X189075142Y-124941174D01*
G37*
G36*
X181545142Y-120586174D02*
G01*
X181568803Y-120589684D01*
X181592007Y-120595496D01*
X181614529Y-120603554D01*
X181636153Y-120613782D01*
X181656670Y-120626079D01*
X181675883Y-120640329D01*
X181693607Y-120656393D01*
X181709671Y-120674117D01*
X181723921Y-120693330D01*
X181736218Y-120713847D01*
X181746446Y-120735471D01*
X181754504Y-120757993D01*
X181760316Y-120781197D01*
X181763826Y-120804858D01*
X181765000Y-120828750D01*
X181765000Y-121741250D01*
X181763826Y-121765142D01*
X181760316Y-121788803D01*
X181754504Y-121812007D01*
X181746446Y-121834529D01*
X181736218Y-121856153D01*
X181723921Y-121876670D01*
X181709671Y-121895883D01*
X181693607Y-121913607D01*
X181675883Y-121929671D01*
X181656670Y-121943921D01*
X181636153Y-121956218D01*
X181614529Y-121966446D01*
X181592007Y-121974504D01*
X181568803Y-121980316D01*
X181545142Y-121983826D01*
X181521250Y-121985000D01*
X181033750Y-121985000D01*
X181009858Y-121983826D01*
X180986197Y-121980316D01*
X180962993Y-121974504D01*
X180940471Y-121966446D01*
X180918847Y-121956218D01*
X180898330Y-121943921D01*
X180879117Y-121929671D01*
X180861393Y-121913607D01*
X180845329Y-121895883D01*
X180831079Y-121876670D01*
X180818782Y-121856153D01*
X180808554Y-121834529D01*
X180800496Y-121812007D01*
X180794684Y-121788803D01*
X180791174Y-121765142D01*
X180790000Y-121741250D01*
X180790000Y-120828750D01*
X180791174Y-120804858D01*
X180794684Y-120781197D01*
X180800496Y-120757993D01*
X180808554Y-120735471D01*
X180818782Y-120713847D01*
X180831079Y-120693330D01*
X180845329Y-120674117D01*
X180861393Y-120656393D01*
X180879117Y-120640329D01*
X180898330Y-120626079D01*
X180918847Y-120613782D01*
X180940471Y-120603554D01*
X180962993Y-120595496D01*
X180986197Y-120589684D01*
X181009858Y-120586174D01*
X181033750Y-120585000D01*
X181521250Y-120585000D01*
X181545142Y-120586174D01*
G37*
G36*
X179670142Y-120586174D02*
G01*
X179693803Y-120589684D01*
X179717007Y-120595496D01*
X179739529Y-120603554D01*
X179761153Y-120613782D01*
X179781670Y-120626079D01*
X179800883Y-120640329D01*
X179818607Y-120656393D01*
X179834671Y-120674117D01*
X179848921Y-120693330D01*
X179861218Y-120713847D01*
X179871446Y-120735471D01*
X179879504Y-120757993D01*
X179885316Y-120781197D01*
X179888826Y-120804858D01*
X179890000Y-120828750D01*
X179890000Y-121741250D01*
X179888826Y-121765142D01*
X179885316Y-121788803D01*
X179879504Y-121812007D01*
X179871446Y-121834529D01*
X179861218Y-121856153D01*
X179848921Y-121876670D01*
X179834671Y-121895883D01*
X179818607Y-121913607D01*
X179800883Y-121929671D01*
X179781670Y-121943921D01*
X179761153Y-121956218D01*
X179739529Y-121966446D01*
X179717007Y-121974504D01*
X179693803Y-121980316D01*
X179670142Y-121983826D01*
X179646250Y-121985000D01*
X179158750Y-121985000D01*
X179134858Y-121983826D01*
X179111197Y-121980316D01*
X179087993Y-121974504D01*
X179065471Y-121966446D01*
X179043847Y-121956218D01*
X179023330Y-121943921D01*
X179004117Y-121929671D01*
X178986393Y-121913607D01*
X178970329Y-121895883D01*
X178956079Y-121876670D01*
X178943782Y-121856153D01*
X178933554Y-121834529D01*
X178925496Y-121812007D01*
X178919684Y-121788803D01*
X178916174Y-121765142D01*
X178915000Y-121741250D01*
X178915000Y-120828750D01*
X178916174Y-120804858D01*
X178919684Y-120781197D01*
X178925496Y-120757993D01*
X178933554Y-120735471D01*
X178943782Y-120713847D01*
X178956079Y-120693330D01*
X178970329Y-120674117D01*
X178986393Y-120656393D01*
X179004117Y-120640329D01*
X179023330Y-120626079D01*
X179043847Y-120613782D01*
X179065471Y-120603554D01*
X179087993Y-120595496D01*
X179111197Y-120589684D01*
X179134858Y-120586174D01*
X179158750Y-120585000D01*
X179646250Y-120585000D01*
X179670142Y-120586174D01*
G37*
G36*
X174787642Y-134103674D02*
G01*
X174811303Y-134107184D01*
X174834507Y-134112996D01*
X174857029Y-134121054D01*
X174878653Y-134131282D01*
X174899170Y-134143579D01*
X174918383Y-134157829D01*
X174936107Y-134173893D01*
X174952171Y-134191617D01*
X174966421Y-134210830D01*
X174978718Y-134231347D01*
X174988946Y-134252971D01*
X174997004Y-134275493D01*
X175002816Y-134298697D01*
X175006326Y-134322358D01*
X175007500Y-134346250D01*
X175007500Y-134833750D01*
X175006326Y-134857642D01*
X175002816Y-134881303D01*
X174997004Y-134904507D01*
X174988946Y-134927029D01*
X174978718Y-134948653D01*
X174966421Y-134969170D01*
X174952171Y-134988383D01*
X174936107Y-135006107D01*
X174918383Y-135022171D01*
X174899170Y-135036421D01*
X174878653Y-135048718D01*
X174857029Y-135058946D01*
X174834507Y-135067004D01*
X174811303Y-135072816D01*
X174787642Y-135076326D01*
X174763750Y-135077500D01*
X173851250Y-135077500D01*
X173827358Y-135076326D01*
X173803697Y-135072816D01*
X173780493Y-135067004D01*
X173757971Y-135058946D01*
X173736347Y-135048718D01*
X173715830Y-135036421D01*
X173696617Y-135022171D01*
X173678893Y-135006107D01*
X173662829Y-134988383D01*
X173648579Y-134969170D01*
X173636282Y-134948653D01*
X173626054Y-134927029D01*
X173617996Y-134904507D01*
X173612184Y-134881303D01*
X173608674Y-134857642D01*
X173607500Y-134833750D01*
X173607500Y-134346250D01*
X173608674Y-134322358D01*
X173612184Y-134298697D01*
X173617996Y-134275493D01*
X173626054Y-134252971D01*
X173636282Y-134231347D01*
X173648579Y-134210830D01*
X173662829Y-134191617D01*
X173678893Y-134173893D01*
X173696617Y-134157829D01*
X173715830Y-134143579D01*
X173736347Y-134131282D01*
X173757971Y-134121054D01*
X173780493Y-134112996D01*
X173803697Y-134107184D01*
X173827358Y-134103674D01*
X173851250Y-134102500D01*
X174763750Y-134102500D01*
X174787642Y-134103674D01*
G37*
G36*
X174787642Y-132228674D02*
G01*
X174811303Y-132232184D01*
X174834507Y-132237996D01*
X174857029Y-132246054D01*
X174878653Y-132256282D01*
X174899170Y-132268579D01*
X174918383Y-132282829D01*
X174936107Y-132298893D01*
X174952171Y-132316617D01*
X174966421Y-132335830D01*
X174978718Y-132356347D01*
X174988946Y-132377971D01*
X174997004Y-132400493D01*
X175002816Y-132423697D01*
X175006326Y-132447358D01*
X175007500Y-132471250D01*
X175007500Y-132958750D01*
X175006326Y-132982642D01*
X175002816Y-133006303D01*
X174997004Y-133029507D01*
X174988946Y-133052029D01*
X174978718Y-133073653D01*
X174966421Y-133094170D01*
X174952171Y-133113383D01*
X174936107Y-133131107D01*
X174918383Y-133147171D01*
X174899170Y-133161421D01*
X174878653Y-133173718D01*
X174857029Y-133183946D01*
X174834507Y-133192004D01*
X174811303Y-133197816D01*
X174787642Y-133201326D01*
X174763750Y-133202500D01*
X173851250Y-133202500D01*
X173827358Y-133201326D01*
X173803697Y-133197816D01*
X173780493Y-133192004D01*
X173757971Y-133183946D01*
X173736347Y-133173718D01*
X173715830Y-133161421D01*
X173696617Y-133147171D01*
X173678893Y-133131107D01*
X173662829Y-133113383D01*
X173648579Y-133094170D01*
X173636282Y-133073653D01*
X173626054Y-133052029D01*
X173617996Y-133029507D01*
X173612184Y-133006303D01*
X173608674Y-132982642D01*
X173607500Y-132958750D01*
X173607500Y-132471250D01*
X173608674Y-132447358D01*
X173612184Y-132423697D01*
X173617996Y-132400493D01*
X173626054Y-132377971D01*
X173636282Y-132356347D01*
X173648579Y-132335830D01*
X173662829Y-132316617D01*
X173678893Y-132298893D01*
X173696617Y-132282829D01*
X173715830Y-132268579D01*
X173736347Y-132256282D01*
X173757971Y-132246054D01*
X173780493Y-132237996D01*
X173803697Y-132232184D01*
X173827358Y-132228674D01*
X173851250Y-132227500D01*
X174763750Y-132227500D01*
X174787642Y-132228674D01*
G37*
G36*
X171930142Y-147677174D02*
G01*
X171953803Y-147680684D01*
X171977007Y-147686496D01*
X171999529Y-147694554D01*
X172021153Y-147704782D01*
X172041670Y-147717079D01*
X172060883Y-147731329D01*
X172078607Y-147747393D01*
X172094671Y-147765117D01*
X172108921Y-147784330D01*
X172121218Y-147804847D01*
X172131446Y-147826471D01*
X172139504Y-147848993D01*
X172145316Y-147872197D01*
X172148826Y-147895858D01*
X172150000Y-147919750D01*
X172150000Y-148407250D01*
X172148826Y-148431142D01*
X172145316Y-148454803D01*
X172139504Y-148478007D01*
X172131446Y-148500529D01*
X172121218Y-148522153D01*
X172108921Y-148542670D01*
X172094671Y-148561883D01*
X172078607Y-148579607D01*
X172060883Y-148595671D01*
X172041670Y-148609921D01*
X172021153Y-148622218D01*
X171999529Y-148632446D01*
X171977007Y-148640504D01*
X171953803Y-148646316D01*
X171930142Y-148649826D01*
X171906250Y-148651000D01*
X170993750Y-148651000D01*
X170969858Y-148649826D01*
X170946197Y-148646316D01*
X170922993Y-148640504D01*
X170900471Y-148632446D01*
X170878847Y-148622218D01*
X170858330Y-148609921D01*
X170839117Y-148595671D01*
X170821393Y-148579607D01*
X170805329Y-148561883D01*
X170791079Y-148542670D01*
X170778782Y-148522153D01*
X170768554Y-148500529D01*
X170760496Y-148478007D01*
X170754684Y-148454803D01*
X170751174Y-148431142D01*
X170750000Y-148407250D01*
X170750000Y-147919750D01*
X170751174Y-147895858D01*
X170754684Y-147872197D01*
X170760496Y-147848993D01*
X170768554Y-147826471D01*
X170778782Y-147804847D01*
X170791079Y-147784330D01*
X170805329Y-147765117D01*
X170821393Y-147747393D01*
X170839117Y-147731329D01*
X170858330Y-147717079D01*
X170878847Y-147704782D01*
X170900471Y-147694554D01*
X170922993Y-147686496D01*
X170946197Y-147680684D01*
X170969858Y-147677174D01*
X170993750Y-147676000D01*
X171906250Y-147676000D01*
X171930142Y-147677174D01*
G37*
G36*
X171930142Y-145802174D02*
G01*
X171953803Y-145805684D01*
X171977007Y-145811496D01*
X171999529Y-145819554D01*
X172021153Y-145829782D01*
X172041670Y-145842079D01*
X172060883Y-145856329D01*
X172078607Y-145872393D01*
X172094671Y-145890117D01*
X172108921Y-145909330D01*
X172121218Y-145929847D01*
X172131446Y-145951471D01*
X172139504Y-145973993D01*
X172145316Y-145997197D01*
X172148826Y-146020858D01*
X172150000Y-146044750D01*
X172150000Y-146532250D01*
X172148826Y-146556142D01*
X172145316Y-146579803D01*
X172139504Y-146603007D01*
X172131446Y-146625529D01*
X172121218Y-146647153D01*
X172108921Y-146667670D01*
X172094671Y-146686883D01*
X172078607Y-146704607D01*
X172060883Y-146720671D01*
X172041670Y-146734921D01*
X172021153Y-146747218D01*
X171999529Y-146757446D01*
X171977007Y-146765504D01*
X171953803Y-146771316D01*
X171930142Y-146774826D01*
X171906250Y-146776000D01*
X170993750Y-146776000D01*
X170969858Y-146774826D01*
X170946197Y-146771316D01*
X170922993Y-146765504D01*
X170900471Y-146757446D01*
X170878847Y-146747218D01*
X170858330Y-146734921D01*
X170839117Y-146720671D01*
X170821393Y-146704607D01*
X170805329Y-146686883D01*
X170791079Y-146667670D01*
X170778782Y-146647153D01*
X170768554Y-146625529D01*
X170760496Y-146603007D01*
X170754684Y-146579803D01*
X170751174Y-146556142D01*
X170750000Y-146532250D01*
X170750000Y-146044750D01*
X170751174Y-146020858D01*
X170754684Y-145997197D01*
X170760496Y-145973993D01*
X170768554Y-145951471D01*
X170778782Y-145929847D01*
X170791079Y-145909330D01*
X170805329Y-145890117D01*
X170821393Y-145872393D01*
X170839117Y-145856329D01*
X170858330Y-145842079D01*
X170878847Y-145829782D01*
X170900471Y-145819554D01*
X170922993Y-145811496D01*
X170946197Y-145805684D01*
X170969858Y-145802174D01*
X170993750Y-145801000D01*
X171906250Y-145801000D01*
X171930142Y-145802174D01*
G37*
G36*
X173835142Y-147677174D02*
G01*
X173858803Y-147680684D01*
X173882007Y-147686496D01*
X173904529Y-147694554D01*
X173926153Y-147704782D01*
X173946670Y-147717079D01*
X173965883Y-147731329D01*
X173983607Y-147747393D01*
X173999671Y-147765117D01*
X174013921Y-147784330D01*
X174026218Y-147804847D01*
X174036446Y-147826471D01*
X174044504Y-147848993D01*
X174050316Y-147872197D01*
X174053826Y-147895858D01*
X174055000Y-147919750D01*
X174055000Y-148407250D01*
X174053826Y-148431142D01*
X174050316Y-148454803D01*
X174044504Y-148478007D01*
X174036446Y-148500529D01*
X174026218Y-148522153D01*
X174013921Y-148542670D01*
X173999671Y-148561883D01*
X173983607Y-148579607D01*
X173965883Y-148595671D01*
X173946670Y-148609921D01*
X173926153Y-148622218D01*
X173904529Y-148632446D01*
X173882007Y-148640504D01*
X173858803Y-148646316D01*
X173835142Y-148649826D01*
X173811250Y-148651000D01*
X172898750Y-148651000D01*
X172874858Y-148649826D01*
X172851197Y-148646316D01*
X172827993Y-148640504D01*
X172805471Y-148632446D01*
X172783847Y-148622218D01*
X172763330Y-148609921D01*
X172744117Y-148595671D01*
X172726393Y-148579607D01*
X172710329Y-148561883D01*
X172696079Y-148542670D01*
X172683782Y-148522153D01*
X172673554Y-148500529D01*
X172665496Y-148478007D01*
X172659684Y-148454803D01*
X172656174Y-148431142D01*
X172655000Y-148407250D01*
X172655000Y-147919750D01*
X172656174Y-147895858D01*
X172659684Y-147872197D01*
X172665496Y-147848993D01*
X172673554Y-147826471D01*
X172683782Y-147804847D01*
X172696079Y-147784330D01*
X172710329Y-147765117D01*
X172726393Y-147747393D01*
X172744117Y-147731329D01*
X172763330Y-147717079D01*
X172783847Y-147704782D01*
X172805471Y-147694554D01*
X172827993Y-147686496D01*
X172851197Y-147680684D01*
X172874858Y-147677174D01*
X172898750Y-147676000D01*
X173811250Y-147676000D01*
X173835142Y-147677174D01*
G37*
G36*
X173835142Y-145802174D02*
G01*
X173858803Y-145805684D01*
X173882007Y-145811496D01*
X173904529Y-145819554D01*
X173926153Y-145829782D01*
X173946670Y-145842079D01*
X173965883Y-145856329D01*
X173983607Y-145872393D01*
X173999671Y-145890117D01*
X174013921Y-145909330D01*
X174026218Y-145929847D01*
X174036446Y-145951471D01*
X174044504Y-145973993D01*
X174050316Y-145997197D01*
X174053826Y-146020858D01*
X174055000Y-146044750D01*
X174055000Y-146532250D01*
X174053826Y-146556142D01*
X174050316Y-146579803D01*
X174044504Y-146603007D01*
X174036446Y-146625529D01*
X174026218Y-146647153D01*
X174013921Y-146667670D01*
X173999671Y-146686883D01*
X173983607Y-146704607D01*
X173965883Y-146720671D01*
X173946670Y-146734921D01*
X173926153Y-146747218D01*
X173904529Y-146757446D01*
X173882007Y-146765504D01*
X173858803Y-146771316D01*
X173835142Y-146774826D01*
X173811250Y-146776000D01*
X172898750Y-146776000D01*
X172874858Y-146774826D01*
X172851197Y-146771316D01*
X172827993Y-146765504D01*
X172805471Y-146757446D01*
X172783847Y-146747218D01*
X172763330Y-146734921D01*
X172744117Y-146720671D01*
X172726393Y-146704607D01*
X172710329Y-146686883D01*
X172696079Y-146667670D01*
X172683782Y-146647153D01*
X172673554Y-146625529D01*
X172665496Y-146603007D01*
X172659684Y-146579803D01*
X172656174Y-146556142D01*
X172655000Y-146532250D01*
X172655000Y-146044750D01*
X172656174Y-146020858D01*
X172659684Y-145997197D01*
X172665496Y-145973993D01*
X172673554Y-145951471D01*
X172683782Y-145929847D01*
X172696079Y-145909330D01*
X172710329Y-145890117D01*
X172726393Y-145872393D01*
X172744117Y-145856329D01*
X172763330Y-145842079D01*
X172783847Y-145829782D01*
X172805471Y-145819554D01*
X172827993Y-145811496D01*
X172851197Y-145805684D01*
X172874858Y-145802174D01*
X172898750Y-145801000D01*
X173811250Y-145801000D01*
X173835142Y-145802174D01*
G37*
G36*
X167907642Y-147256174D02*
G01*
X167931303Y-147259684D01*
X167954507Y-147265496D01*
X167977029Y-147273554D01*
X167998653Y-147283782D01*
X168019170Y-147296079D01*
X168038383Y-147310329D01*
X168056107Y-147326393D01*
X168072171Y-147344117D01*
X168086421Y-147363330D01*
X168098718Y-147383847D01*
X168108946Y-147405471D01*
X168117004Y-147427993D01*
X168122816Y-147451197D01*
X168126326Y-147474858D01*
X168127500Y-147498750D01*
X168127500Y-148411250D01*
X168126326Y-148435142D01*
X168122816Y-148458803D01*
X168117004Y-148482007D01*
X168108946Y-148504529D01*
X168098718Y-148526153D01*
X168086421Y-148546670D01*
X168072171Y-148565883D01*
X168056107Y-148583607D01*
X168038383Y-148599671D01*
X168019170Y-148613921D01*
X167998653Y-148626218D01*
X167977029Y-148636446D01*
X167954507Y-148644504D01*
X167931303Y-148650316D01*
X167907642Y-148653826D01*
X167883750Y-148655000D01*
X167396250Y-148655000D01*
X167372358Y-148653826D01*
X167348697Y-148650316D01*
X167325493Y-148644504D01*
X167302971Y-148636446D01*
X167281347Y-148626218D01*
X167260830Y-148613921D01*
X167241617Y-148599671D01*
X167223893Y-148583607D01*
X167207829Y-148565883D01*
X167193579Y-148546670D01*
X167181282Y-148526153D01*
X167171054Y-148504529D01*
X167162996Y-148482007D01*
X167157184Y-148458803D01*
X167153674Y-148435142D01*
X167152500Y-148411250D01*
X167152500Y-147498750D01*
X167153674Y-147474858D01*
X167157184Y-147451197D01*
X167162996Y-147427993D01*
X167171054Y-147405471D01*
X167181282Y-147383847D01*
X167193579Y-147363330D01*
X167207829Y-147344117D01*
X167223893Y-147326393D01*
X167241617Y-147310329D01*
X167260830Y-147296079D01*
X167281347Y-147283782D01*
X167302971Y-147273554D01*
X167325493Y-147265496D01*
X167348697Y-147259684D01*
X167372358Y-147256174D01*
X167396250Y-147255000D01*
X167883750Y-147255000D01*
X167907642Y-147256174D01*
G37*
G36*
X169782642Y-147256174D02*
G01*
X169806303Y-147259684D01*
X169829507Y-147265496D01*
X169852029Y-147273554D01*
X169873653Y-147283782D01*
X169894170Y-147296079D01*
X169913383Y-147310329D01*
X169931107Y-147326393D01*
X169947171Y-147344117D01*
X169961421Y-147363330D01*
X169973718Y-147383847D01*
X169983946Y-147405471D01*
X169992004Y-147427993D01*
X169997816Y-147451197D01*
X170001326Y-147474858D01*
X170002500Y-147498750D01*
X170002500Y-148411250D01*
X170001326Y-148435142D01*
X169997816Y-148458803D01*
X169992004Y-148482007D01*
X169983946Y-148504529D01*
X169973718Y-148526153D01*
X169961421Y-148546670D01*
X169947171Y-148565883D01*
X169931107Y-148583607D01*
X169913383Y-148599671D01*
X169894170Y-148613921D01*
X169873653Y-148626218D01*
X169852029Y-148636446D01*
X169829507Y-148644504D01*
X169806303Y-148650316D01*
X169782642Y-148653826D01*
X169758750Y-148655000D01*
X169271250Y-148655000D01*
X169247358Y-148653826D01*
X169223697Y-148650316D01*
X169200493Y-148644504D01*
X169177971Y-148636446D01*
X169156347Y-148626218D01*
X169135830Y-148613921D01*
X169116617Y-148599671D01*
X169098893Y-148583607D01*
X169082829Y-148565883D01*
X169068579Y-148546670D01*
X169056282Y-148526153D01*
X169046054Y-148504529D01*
X169037996Y-148482007D01*
X169032184Y-148458803D01*
X169028674Y-148435142D01*
X169027500Y-148411250D01*
X169027500Y-147498750D01*
X169028674Y-147474858D01*
X169032184Y-147451197D01*
X169037996Y-147427993D01*
X169046054Y-147405471D01*
X169056282Y-147383847D01*
X169068579Y-147363330D01*
X169082829Y-147344117D01*
X169098893Y-147326393D01*
X169116617Y-147310329D01*
X169135830Y-147296079D01*
X169156347Y-147283782D01*
X169177971Y-147273554D01*
X169200493Y-147265496D01*
X169223697Y-147259684D01*
X169247358Y-147256174D01*
X169271250Y-147255000D01*
X169758750Y-147255000D01*
X169782642Y-147256174D01*
G37*
G36*
X183480142Y-102806174D02*
G01*
X183503803Y-102809684D01*
X183527007Y-102815496D01*
X183549529Y-102823554D01*
X183571153Y-102833782D01*
X183591670Y-102846079D01*
X183610883Y-102860329D01*
X183628607Y-102876393D01*
X183644671Y-102894117D01*
X183658921Y-102913330D01*
X183671218Y-102933847D01*
X183681446Y-102955471D01*
X183689504Y-102977993D01*
X183695316Y-103001197D01*
X183698826Y-103024858D01*
X183700000Y-103048750D01*
X183700000Y-103961250D01*
X183698826Y-103985142D01*
X183695316Y-104008803D01*
X183689504Y-104032007D01*
X183681446Y-104054529D01*
X183671218Y-104076153D01*
X183658921Y-104096670D01*
X183644671Y-104115883D01*
X183628607Y-104133607D01*
X183610883Y-104149671D01*
X183591670Y-104163921D01*
X183571153Y-104176218D01*
X183549529Y-104186446D01*
X183527007Y-104194504D01*
X183503803Y-104200316D01*
X183480142Y-104203826D01*
X183456250Y-104205000D01*
X182968750Y-104205000D01*
X182944858Y-104203826D01*
X182921197Y-104200316D01*
X182897993Y-104194504D01*
X182875471Y-104186446D01*
X182853847Y-104176218D01*
X182833330Y-104163921D01*
X182814117Y-104149671D01*
X182796393Y-104133607D01*
X182780329Y-104115883D01*
X182766079Y-104096670D01*
X182753782Y-104076153D01*
X182743554Y-104054529D01*
X182735496Y-104032007D01*
X182729684Y-104008803D01*
X182726174Y-103985142D01*
X182725000Y-103961250D01*
X182725000Y-103048750D01*
X182726174Y-103024858D01*
X182729684Y-103001197D01*
X182735496Y-102977993D01*
X182743554Y-102955471D01*
X182753782Y-102933847D01*
X182766079Y-102913330D01*
X182780329Y-102894117D01*
X182796393Y-102876393D01*
X182814117Y-102860329D01*
X182833330Y-102846079D01*
X182853847Y-102833782D01*
X182875471Y-102823554D01*
X182897993Y-102815496D01*
X182921197Y-102809684D01*
X182944858Y-102806174D01*
X182968750Y-102805000D01*
X183456250Y-102805000D01*
X183480142Y-102806174D01*
G37*
G36*
X185355142Y-102806174D02*
G01*
X185378803Y-102809684D01*
X185402007Y-102815496D01*
X185424529Y-102823554D01*
X185446153Y-102833782D01*
X185466670Y-102846079D01*
X185485883Y-102860329D01*
X185503607Y-102876393D01*
X185519671Y-102894117D01*
X185533921Y-102913330D01*
X185546218Y-102933847D01*
X185556446Y-102955471D01*
X185564504Y-102977993D01*
X185570316Y-103001197D01*
X185573826Y-103024858D01*
X185575000Y-103048750D01*
X185575000Y-103961250D01*
X185573826Y-103985142D01*
X185570316Y-104008803D01*
X185564504Y-104032007D01*
X185556446Y-104054529D01*
X185546218Y-104076153D01*
X185533921Y-104096670D01*
X185519671Y-104115883D01*
X185503607Y-104133607D01*
X185485883Y-104149671D01*
X185466670Y-104163921D01*
X185446153Y-104176218D01*
X185424529Y-104186446D01*
X185402007Y-104194504D01*
X185378803Y-104200316D01*
X185355142Y-104203826D01*
X185331250Y-104205000D01*
X184843750Y-104205000D01*
X184819858Y-104203826D01*
X184796197Y-104200316D01*
X184772993Y-104194504D01*
X184750471Y-104186446D01*
X184728847Y-104176218D01*
X184708330Y-104163921D01*
X184689117Y-104149671D01*
X184671393Y-104133607D01*
X184655329Y-104115883D01*
X184641079Y-104096670D01*
X184628782Y-104076153D01*
X184618554Y-104054529D01*
X184610496Y-104032007D01*
X184604684Y-104008803D01*
X184601174Y-103985142D01*
X184600000Y-103961250D01*
X184600000Y-103048750D01*
X184601174Y-103024858D01*
X184604684Y-103001197D01*
X184610496Y-102977993D01*
X184618554Y-102955471D01*
X184628782Y-102933847D01*
X184641079Y-102913330D01*
X184655329Y-102894117D01*
X184671393Y-102876393D01*
X184689117Y-102860329D01*
X184708330Y-102846079D01*
X184728847Y-102833782D01*
X184750471Y-102823554D01*
X184772993Y-102815496D01*
X184796197Y-102809684D01*
X184819858Y-102806174D01*
X184843750Y-102805000D01*
X185331250Y-102805000D01*
X185355142Y-102806174D01*
G37*
G36*
X94574442Y-123112374D02*
G01*
X94598103Y-123115884D01*
X94621307Y-123121696D01*
X94643829Y-123129754D01*
X94665453Y-123139982D01*
X94685970Y-123152279D01*
X94705183Y-123166529D01*
X94722907Y-123182593D01*
X94738971Y-123200317D01*
X94753221Y-123219530D01*
X94765518Y-123240047D01*
X94775746Y-123261671D01*
X94783804Y-123284193D01*
X94789616Y-123307397D01*
X94793126Y-123331058D01*
X94794300Y-123354950D01*
X94794300Y-123842450D01*
X94793126Y-123866342D01*
X94789616Y-123890003D01*
X94783804Y-123913207D01*
X94775746Y-123935729D01*
X94765518Y-123957353D01*
X94753221Y-123977870D01*
X94738971Y-123997083D01*
X94722907Y-124014807D01*
X94705183Y-124030871D01*
X94685970Y-124045121D01*
X94665453Y-124057418D01*
X94643829Y-124067646D01*
X94621307Y-124075704D01*
X94598103Y-124081516D01*
X94574442Y-124085026D01*
X94550550Y-124086200D01*
X93638050Y-124086200D01*
X93614158Y-124085026D01*
X93590497Y-124081516D01*
X93567293Y-124075704D01*
X93544771Y-124067646D01*
X93523147Y-124057418D01*
X93502630Y-124045121D01*
X93483417Y-124030871D01*
X93465693Y-124014807D01*
X93449629Y-123997083D01*
X93435379Y-123977870D01*
X93423082Y-123957353D01*
X93412854Y-123935729D01*
X93404796Y-123913207D01*
X93398984Y-123890003D01*
X93395474Y-123866342D01*
X93394300Y-123842450D01*
X93394300Y-123354950D01*
X93395474Y-123331058D01*
X93398984Y-123307397D01*
X93404796Y-123284193D01*
X93412854Y-123261671D01*
X93423082Y-123240047D01*
X93435379Y-123219530D01*
X93449629Y-123200317D01*
X93465693Y-123182593D01*
X93483417Y-123166529D01*
X93502630Y-123152279D01*
X93523147Y-123139982D01*
X93544771Y-123129754D01*
X93567293Y-123121696D01*
X93590497Y-123115884D01*
X93614158Y-123112374D01*
X93638050Y-123111200D01*
X94550550Y-123111200D01*
X94574442Y-123112374D01*
G37*
G36*
X94574442Y-124987374D02*
G01*
X94598103Y-124990884D01*
X94621307Y-124996696D01*
X94643829Y-125004754D01*
X94665453Y-125014982D01*
X94685970Y-125027279D01*
X94705183Y-125041529D01*
X94722907Y-125057593D01*
X94738971Y-125075317D01*
X94753221Y-125094530D01*
X94765518Y-125115047D01*
X94775746Y-125136671D01*
X94783804Y-125159193D01*
X94789616Y-125182397D01*
X94793126Y-125206058D01*
X94794300Y-125229950D01*
X94794300Y-125717450D01*
X94793126Y-125741342D01*
X94789616Y-125765003D01*
X94783804Y-125788207D01*
X94775746Y-125810729D01*
X94765518Y-125832353D01*
X94753221Y-125852870D01*
X94738971Y-125872083D01*
X94722907Y-125889807D01*
X94705183Y-125905871D01*
X94685970Y-125920121D01*
X94665453Y-125932418D01*
X94643829Y-125942646D01*
X94621307Y-125950704D01*
X94598103Y-125956516D01*
X94574442Y-125960026D01*
X94550550Y-125961200D01*
X93638050Y-125961200D01*
X93614158Y-125960026D01*
X93590497Y-125956516D01*
X93567293Y-125950704D01*
X93544771Y-125942646D01*
X93523147Y-125932418D01*
X93502630Y-125920121D01*
X93483417Y-125905871D01*
X93465693Y-125889807D01*
X93449629Y-125872083D01*
X93435379Y-125852870D01*
X93423082Y-125832353D01*
X93412854Y-125810729D01*
X93404796Y-125788207D01*
X93398984Y-125765003D01*
X93395474Y-125741342D01*
X93394300Y-125717450D01*
X93394300Y-125229950D01*
X93395474Y-125206058D01*
X93398984Y-125182397D01*
X93404796Y-125159193D01*
X93412854Y-125136671D01*
X93423082Y-125115047D01*
X93435379Y-125094530D01*
X93449629Y-125075317D01*
X93465693Y-125057593D01*
X93483417Y-125041529D01*
X93502630Y-125027279D01*
X93523147Y-125014982D01*
X93544771Y-125004754D01*
X93567293Y-124996696D01*
X93590497Y-124990884D01*
X93614158Y-124987374D01*
X93638050Y-124986200D01*
X94550550Y-124986200D01*
X94574442Y-124987374D01*
G37*
G36*
X96796942Y-123112374D02*
G01*
X96820603Y-123115884D01*
X96843807Y-123121696D01*
X96866329Y-123129754D01*
X96887953Y-123139982D01*
X96908470Y-123152279D01*
X96927683Y-123166529D01*
X96945407Y-123182593D01*
X96961471Y-123200317D01*
X96975721Y-123219530D01*
X96988018Y-123240047D01*
X96998246Y-123261671D01*
X97006304Y-123284193D01*
X97012116Y-123307397D01*
X97015626Y-123331058D01*
X97016800Y-123354950D01*
X97016800Y-123842450D01*
X97015626Y-123866342D01*
X97012116Y-123890003D01*
X97006304Y-123913207D01*
X96998246Y-123935729D01*
X96988018Y-123957353D01*
X96975721Y-123977870D01*
X96961471Y-123997083D01*
X96945407Y-124014807D01*
X96927683Y-124030871D01*
X96908470Y-124045121D01*
X96887953Y-124057418D01*
X96866329Y-124067646D01*
X96843807Y-124075704D01*
X96820603Y-124081516D01*
X96796942Y-124085026D01*
X96773050Y-124086200D01*
X95860550Y-124086200D01*
X95836658Y-124085026D01*
X95812997Y-124081516D01*
X95789793Y-124075704D01*
X95767271Y-124067646D01*
X95745647Y-124057418D01*
X95725130Y-124045121D01*
X95705917Y-124030871D01*
X95688193Y-124014807D01*
X95672129Y-123997083D01*
X95657879Y-123977870D01*
X95645582Y-123957353D01*
X95635354Y-123935729D01*
X95627296Y-123913207D01*
X95621484Y-123890003D01*
X95617974Y-123866342D01*
X95616800Y-123842450D01*
X95616800Y-123354950D01*
X95617974Y-123331058D01*
X95621484Y-123307397D01*
X95627296Y-123284193D01*
X95635354Y-123261671D01*
X95645582Y-123240047D01*
X95657879Y-123219530D01*
X95672129Y-123200317D01*
X95688193Y-123182593D01*
X95705917Y-123166529D01*
X95725130Y-123152279D01*
X95745647Y-123139982D01*
X95767271Y-123129754D01*
X95789793Y-123121696D01*
X95812997Y-123115884D01*
X95836658Y-123112374D01*
X95860550Y-123111200D01*
X96773050Y-123111200D01*
X96796942Y-123112374D01*
G37*
G36*
X96796942Y-124987374D02*
G01*
X96820603Y-124990884D01*
X96843807Y-124996696D01*
X96866329Y-125004754D01*
X96887953Y-125014982D01*
X96908470Y-125027279D01*
X96927683Y-125041529D01*
X96945407Y-125057593D01*
X96961471Y-125075317D01*
X96975721Y-125094530D01*
X96988018Y-125115047D01*
X96998246Y-125136671D01*
X97006304Y-125159193D01*
X97012116Y-125182397D01*
X97015626Y-125206058D01*
X97016800Y-125229950D01*
X97016800Y-125717450D01*
X97015626Y-125741342D01*
X97012116Y-125765003D01*
X97006304Y-125788207D01*
X96998246Y-125810729D01*
X96988018Y-125832353D01*
X96975721Y-125852870D01*
X96961471Y-125872083D01*
X96945407Y-125889807D01*
X96927683Y-125905871D01*
X96908470Y-125920121D01*
X96887953Y-125932418D01*
X96866329Y-125942646D01*
X96843807Y-125950704D01*
X96820603Y-125956516D01*
X96796942Y-125960026D01*
X96773050Y-125961200D01*
X95860550Y-125961200D01*
X95836658Y-125960026D01*
X95812997Y-125956516D01*
X95789793Y-125950704D01*
X95767271Y-125942646D01*
X95745647Y-125932418D01*
X95725130Y-125920121D01*
X95705917Y-125905871D01*
X95688193Y-125889807D01*
X95672129Y-125872083D01*
X95657879Y-125852870D01*
X95645582Y-125832353D01*
X95635354Y-125810729D01*
X95627296Y-125788207D01*
X95621484Y-125765003D01*
X95617974Y-125741342D01*
X95616800Y-125717450D01*
X95616800Y-125229950D01*
X95617974Y-125206058D01*
X95621484Y-125182397D01*
X95627296Y-125159193D01*
X95635354Y-125136671D01*
X95645582Y-125115047D01*
X95657879Y-125094530D01*
X95672129Y-125075317D01*
X95688193Y-125057593D01*
X95705917Y-125041529D01*
X95725130Y-125027279D01*
X95745647Y-125014982D01*
X95767271Y-125004754D01*
X95789793Y-124996696D01*
X95812997Y-124990884D01*
X95836658Y-124987374D01*
X95860550Y-124986200D01*
X96773050Y-124986200D01*
X96796942Y-124987374D01*
G37*
G36*
X138910142Y-107161174D02*
G01*
X138933803Y-107164684D01*
X138957007Y-107170496D01*
X138979529Y-107178554D01*
X139001153Y-107188782D01*
X139021670Y-107201079D01*
X139040883Y-107215329D01*
X139058607Y-107231393D01*
X139074671Y-107249117D01*
X139088921Y-107268330D01*
X139101218Y-107288847D01*
X139111446Y-107310471D01*
X139119504Y-107332993D01*
X139125316Y-107356197D01*
X139128826Y-107379858D01*
X139130000Y-107403750D01*
X139130000Y-107891250D01*
X139128826Y-107915142D01*
X139125316Y-107938803D01*
X139119504Y-107962007D01*
X139111446Y-107984529D01*
X139101218Y-108006153D01*
X139088921Y-108026670D01*
X139074671Y-108045883D01*
X139058607Y-108063607D01*
X139040883Y-108079671D01*
X139021670Y-108093921D01*
X139001153Y-108106218D01*
X138979529Y-108116446D01*
X138957007Y-108124504D01*
X138933803Y-108130316D01*
X138910142Y-108133826D01*
X138886250Y-108135000D01*
X137973750Y-108135000D01*
X137949858Y-108133826D01*
X137926197Y-108130316D01*
X137902993Y-108124504D01*
X137880471Y-108116446D01*
X137858847Y-108106218D01*
X137838330Y-108093921D01*
X137819117Y-108079671D01*
X137801393Y-108063607D01*
X137785329Y-108045883D01*
X137771079Y-108026670D01*
X137758782Y-108006153D01*
X137748554Y-107984529D01*
X137740496Y-107962007D01*
X137734684Y-107938803D01*
X137731174Y-107915142D01*
X137730000Y-107891250D01*
X137730000Y-107403750D01*
X137731174Y-107379858D01*
X137734684Y-107356197D01*
X137740496Y-107332993D01*
X137748554Y-107310471D01*
X137758782Y-107288847D01*
X137771079Y-107268330D01*
X137785329Y-107249117D01*
X137801393Y-107231393D01*
X137819117Y-107215329D01*
X137838330Y-107201079D01*
X137858847Y-107188782D01*
X137880471Y-107178554D01*
X137902993Y-107170496D01*
X137926197Y-107164684D01*
X137949858Y-107161174D01*
X137973750Y-107160000D01*
X138886250Y-107160000D01*
X138910142Y-107161174D01*
G37*
G36*
X138910142Y-109036174D02*
G01*
X138933803Y-109039684D01*
X138957007Y-109045496D01*
X138979529Y-109053554D01*
X139001153Y-109063782D01*
X139021670Y-109076079D01*
X139040883Y-109090329D01*
X139058607Y-109106393D01*
X139074671Y-109124117D01*
X139088921Y-109143330D01*
X139101218Y-109163847D01*
X139111446Y-109185471D01*
X139119504Y-109207993D01*
X139125316Y-109231197D01*
X139128826Y-109254858D01*
X139130000Y-109278750D01*
X139130000Y-109766250D01*
X139128826Y-109790142D01*
X139125316Y-109813803D01*
X139119504Y-109837007D01*
X139111446Y-109859529D01*
X139101218Y-109881153D01*
X139088921Y-109901670D01*
X139074671Y-109920883D01*
X139058607Y-109938607D01*
X139040883Y-109954671D01*
X139021670Y-109968921D01*
X139001153Y-109981218D01*
X138979529Y-109991446D01*
X138957007Y-109999504D01*
X138933803Y-110005316D01*
X138910142Y-110008826D01*
X138886250Y-110010000D01*
X137973750Y-110010000D01*
X137949858Y-110008826D01*
X137926197Y-110005316D01*
X137902993Y-109999504D01*
X137880471Y-109991446D01*
X137858847Y-109981218D01*
X137838330Y-109968921D01*
X137819117Y-109954671D01*
X137801393Y-109938607D01*
X137785329Y-109920883D01*
X137771079Y-109901670D01*
X137758782Y-109881153D01*
X137748554Y-109859529D01*
X137740496Y-109837007D01*
X137734684Y-109813803D01*
X137731174Y-109790142D01*
X137730000Y-109766250D01*
X137730000Y-109278750D01*
X137731174Y-109254858D01*
X137734684Y-109231197D01*
X137740496Y-109207993D01*
X137748554Y-109185471D01*
X137758782Y-109163847D01*
X137771079Y-109143330D01*
X137785329Y-109124117D01*
X137801393Y-109106393D01*
X137819117Y-109090329D01*
X137838330Y-109076079D01*
X137858847Y-109063782D01*
X137880471Y-109053554D01*
X137902993Y-109045496D01*
X137926197Y-109039684D01*
X137949858Y-109036174D01*
X137973750Y-109035000D01*
X138886250Y-109035000D01*
X138910142Y-109036174D01*
G37*
G36*
X146530142Y-107161174D02*
G01*
X146553803Y-107164684D01*
X146577007Y-107170496D01*
X146599529Y-107178554D01*
X146621153Y-107188782D01*
X146641670Y-107201079D01*
X146660883Y-107215329D01*
X146678607Y-107231393D01*
X146694671Y-107249117D01*
X146708921Y-107268330D01*
X146721218Y-107288847D01*
X146731446Y-107310471D01*
X146739504Y-107332993D01*
X146745316Y-107356197D01*
X146748826Y-107379858D01*
X146750000Y-107403750D01*
X146750000Y-107891250D01*
X146748826Y-107915142D01*
X146745316Y-107938803D01*
X146739504Y-107962007D01*
X146731446Y-107984529D01*
X146721218Y-108006153D01*
X146708921Y-108026670D01*
X146694671Y-108045883D01*
X146678607Y-108063607D01*
X146660883Y-108079671D01*
X146641670Y-108093921D01*
X146621153Y-108106218D01*
X146599529Y-108116446D01*
X146577007Y-108124504D01*
X146553803Y-108130316D01*
X146530142Y-108133826D01*
X146506250Y-108135000D01*
X145593750Y-108135000D01*
X145569858Y-108133826D01*
X145546197Y-108130316D01*
X145522993Y-108124504D01*
X145500471Y-108116446D01*
X145478847Y-108106218D01*
X145458330Y-108093921D01*
X145439117Y-108079671D01*
X145421393Y-108063607D01*
X145405329Y-108045883D01*
X145391079Y-108026670D01*
X145378782Y-108006153D01*
X145368554Y-107984529D01*
X145360496Y-107962007D01*
X145354684Y-107938803D01*
X145351174Y-107915142D01*
X145350000Y-107891250D01*
X145350000Y-107403750D01*
X145351174Y-107379858D01*
X145354684Y-107356197D01*
X145360496Y-107332993D01*
X145368554Y-107310471D01*
X145378782Y-107288847D01*
X145391079Y-107268330D01*
X145405329Y-107249117D01*
X145421393Y-107231393D01*
X145439117Y-107215329D01*
X145458330Y-107201079D01*
X145478847Y-107188782D01*
X145500471Y-107178554D01*
X145522993Y-107170496D01*
X145546197Y-107164684D01*
X145569858Y-107161174D01*
X145593750Y-107160000D01*
X146506250Y-107160000D01*
X146530142Y-107161174D01*
G37*
G36*
X146530142Y-109036174D02*
G01*
X146553803Y-109039684D01*
X146577007Y-109045496D01*
X146599529Y-109053554D01*
X146621153Y-109063782D01*
X146641670Y-109076079D01*
X146660883Y-109090329D01*
X146678607Y-109106393D01*
X146694671Y-109124117D01*
X146708921Y-109143330D01*
X146721218Y-109163847D01*
X146731446Y-109185471D01*
X146739504Y-109207993D01*
X146745316Y-109231197D01*
X146748826Y-109254858D01*
X146750000Y-109278750D01*
X146750000Y-109766250D01*
X146748826Y-109790142D01*
X146745316Y-109813803D01*
X146739504Y-109837007D01*
X146731446Y-109859529D01*
X146721218Y-109881153D01*
X146708921Y-109901670D01*
X146694671Y-109920883D01*
X146678607Y-109938607D01*
X146660883Y-109954671D01*
X146641670Y-109968921D01*
X146621153Y-109981218D01*
X146599529Y-109991446D01*
X146577007Y-109999504D01*
X146553803Y-110005316D01*
X146530142Y-110008826D01*
X146506250Y-110010000D01*
X145593750Y-110010000D01*
X145569858Y-110008826D01*
X145546197Y-110005316D01*
X145522993Y-109999504D01*
X145500471Y-109991446D01*
X145478847Y-109981218D01*
X145458330Y-109968921D01*
X145439117Y-109954671D01*
X145421393Y-109938607D01*
X145405329Y-109920883D01*
X145391079Y-109901670D01*
X145378782Y-109881153D01*
X145368554Y-109859529D01*
X145360496Y-109837007D01*
X145354684Y-109813803D01*
X145351174Y-109790142D01*
X145350000Y-109766250D01*
X145350000Y-109278750D01*
X145351174Y-109254858D01*
X145354684Y-109231197D01*
X145360496Y-109207993D01*
X145368554Y-109185471D01*
X145378782Y-109163847D01*
X145391079Y-109143330D01*
X145405329Y-109124117D01*
X145421393Y-109106393D01*
X145439117Y-109090329D01*
X145458330Y-109076079D01*
X145478847Y-109063782D01*
X145500471Y-109053554D01*
X145522993Y-109045496D01*
X145546197Y-109039684D01*
X145569858Y-109036174D01*
X145593750Y-109035000D01*
X146506250Y-109035000D01*
X146530142Y-109036174D01*
G37*
G36*
X144625142Y-107161174D02*
G01*
X144648803Y-107164684D01*
X144672007Y-107170496D01*
X144694529Y-107178554D01*
X144716153Y-107188782D01*
X144736670Y-107201079D01*
X144755883Y-107215329D01*
X144773607Y-107231393D01*
X144789671Y-107249117D01*
X144803921Y-107268330D01*
X144816218Y-107288847D01*
X144826446Y-107310471D01*
X144834504Y-107332993D01*
X144840316Y-107356197D01*
X144843826Y-107379858D01*
X144845000Y-107403750D01*
X144845000Y-107891250D01*
X144843826Y-107915142D01*
X144840316Y-107938803D01*
X144834504Y-107962007D01*
X144826446Y-107984529D01*
X144816218Y-108006153D01*
X144803921Y-108026670D01*
X144789671Y-108045883D01*
X144773607Y-108063607D01*
X144755883Y-108079671D01*
X144736670Y-108093921D01*
X144716153Y-108106218D01*
X144694529Y-108116446D01*
X144672007Y-108124504D01*
X144648803Y-108130316D01*
X144625142Y-108133826D01*
X144601250Y-108135000D01*
X143688750Y-108135000D01*
X143664858Y-108133826D01*
X143641197Y-108130316D01*
X143617993Y-108124504D01*
X143595471Y-108116446D01*
X143573847Y-108106218D01*
X143553330Y-108093921D01*
X143534117Y-108079671D01*
X143516393Y-108063607D01*
X143500329Y-108045883D01*
X143486079Y-108026670D01*
X143473782Y-108006153D01*
X143463554Y-107984529D01*
X143455496Y-107962007D01*
X143449684Y-107938803D01*
X143446174Y-107915142D01*
X143445000Y-107891250D01*
X143445000Y-107403750D01*
X143446174Y-107379858D01*
X143449684Y-107356197D01*
X143455496Y-107332993D01*
X143463554Y-107310471D01*
X143473782Y-107288847D01*
X143486079Y-107268330D01*
X143500329Y-107249117D01*
X143516393Y-107231393D01*
X143534117Y-107215329D01*
X143553330Y-107201079D01*
X143573847Y-107188782D01*
X143595471Y-107178554D01*
X143617993Y-107170496D01*
X143641197Y-107164684D01*
X143664858Y-107161174D01*
X143688750Y-107160000D01*
X144601250Y-107160000D01*
X144625142Y-107161174D01*
G37*
G36*
X144625142Y-109036174D02*
G01*
X144648803Y-109039684D01*
X144672007Y-109045496D01*
X144694529Y-109053554D01*
X144716153Y-109063782D01*
X144736670Y-109076079D01*
X144755883Y-109090329D01*
X144773607Y-109106393D01*
X144789671Y-109124117D01*
X144803921Y-109143330D01*
X144816218Y-109163847D01*
X144826446Y-109185471D01*
X144834504Y-109207993D01*
X144840316Y-109231197D01*
X144843826Y-109254858D01*
X144845000Y-109278750D01*
X144845000Y-109766250D01*
X144843826Y-109790142D01*
X144840316Y-109813803D01*
X144834504Y-109837007D01*
X144826446Y-109859529D01*
X144816218Y-109881153D01*
X144803921Y-109901670D01*
X144789671Y-109920883D01*
X144773607Y-109938607D01*
X144755883Y-109954671D01*
X144736670Y-109968921D01*
X144716153Y-109981218D01*
X144694529Y-109991446D01*
X144672007Y-109999504D01*
X144648803Y-110005316D01*
X144625142Y-110008826D01*
X144601250Y-110010000D01*
X143688750Y-110010000D01*
X143664858Y-110008826D01*
X143641197Y-110005316D01*
X143617993Y-109999504D01*
X143595471Y-109991446D01*
X143573847Y-109981218D01*
X143553330Y-109968921D01*
X143534117Y-109954671D01*
X143516393Y-109938607D01*
X143500329Y-109920883D01*
X143486079Y-109901670D01*
X143473782Y-109881153D01*
X143463554Y-109859529D01*
X143455496Y-109837007D01*
X143449684Y-109813803D01*
X143446174Y-109790142D01*
X143445000Y-109766250D01*
X143445000Y-109278750D01*
X143446174Y-109254858D01*
X143449684Y-109231197D01*
X143455496Y-109207993D01*
X143463554Y-109185471D01*
X143473782Y-109163847D01*
X143486079Y-109143330D01*
X143500329Y-109124117D01*
X143516393Y-109106393D01*
X143534117Y-109090329D01*
X143553330Y-109076079D01*
X143573847Y-109063782D01*
X143595471Y-109053554D01*
X143617993Y-109045496D01*
X143641197Y-109039684D01*
X143664858Y-109036174D01*
X143688750Y-109035000D01*
X144601250Y-109035000D01*
X144625142Y-109036174D01*
G37*
M02*
