%FSLAX45Y45*%
G04 Gerber Fmt 4.5, Leading zero omitted, Abs format (unit mm)*
G04 Created by KiCad (PCBNEW 5.1.4+dfsg1-1) date 2020-02-14 18:07:55*
%MOMM*%
%LPD*%
G04 APERTURE LIST*
%ADD10C,0.100000*%
%ADD11C,0.200000*%
%ADD12C,0.300000*%
G04 APERTURE END LIST*
D10*
X6096000Y-11811000D02*
X6096000Y-2032000D01*
X14224000Y-11811000D02*
X6096000Y-11811000D01*
X14224000Y-2032000D02*
X14224000Y-11811000D01*
X6096000Y-2032000D02*
X14224000Y-2032000D01*
D11*
D12*
X6377428Y-12281714D02*
X6377428Y-11981714D01*
X6448857Y-11981714D01*
X6491714Y-11996000D01*
X6520286Y-12024571D01*
X6534571Y-12053143D01*
X6548857Y-12110286D01*
X6548857Y-12153143D01*
X6534571Y-12210286D01*
X6520286Y-12238857D01*
X6491714Y-12267429D01*
X6448857Y-12281714D01*
X6377428Y-12281714D01*
X6677428Y-12281714D02*
X6677428Y-12081714D01*
X6677428Y-12138857D02*
X6691714Y-12110286D01*
X6706000Y-12096000D01*
X6734571Y-12081714D01*
X6763143Y-12081714D01*
X6863143Y-12281714D02*
X6863143Y-12081714D01*
X6863143Y-11981714D02*
X6848857Y-11996000D01*
X6863143Y-12010286D01*
X6877428Y-11996000D01*
X6863143Y-11981714D01*
X6863143Y-12010286D01*
X7048857Y-12281714D02*
X7020286Y-12267429D01*
X7006000Y-12238857D01*
X7006000Y-11981714D01*
X7206000Y-12281714D02*
X7177428Y-12267429D01*
X7163143Y-12238857D01*
X7163143Y-11981714D01*
X7548857Y-12281714D02*
X7548857Y-11981714D01*
X7648857Y-12196000D01*
X7748857Y-11981714D01*
X7748857Y-12281714D01*
X8020286Y-12281714D02*
X8020286Y-12124571D01*
X8006000Y-12096000D01*
X7977428Y-12081714D01*
X7920286Y-12081714D01*
X7891714Y-12096000D01*
X8020286Y-12267429D02*
X7991714Y-12281714D01*
X7920286Y-12281714D01*
X7891714Y-12267429D01*
X7877428Y-12238857D01*
X7877428Y-12210286D01*
X7891714Y-12181714D01*
X7920286Y-12167429D01*
X7991714Y-12167429D01*
X8020286Y-12153143D01*
X8163143Y-12081714D02*
X8163143Y-12381714D01*
X8163143Y-12096000D02*
X8191714Y-12081714D01*
X8248857Y-12081714D01*
X8277428Y-12096000D01*
X8291714Y-12110286D01*
X8306000Y-12138857D01*
X8306000Y-12224571D01*
X8291714Y-12253143D01*
X8277428Y-12267429D01*
X8248857Y-12281714D01*
X8191714Y-12281714D01*
X8163143Y-12267429D01*
X8434571Y-12253143D02*
X8448857Y-12267429D01*
X8434571Y-12281714D01*
X8420286Y-12267429D01*
X8434571Y-12253143D01*
X8434571Y-12281714D01*
X8434571Y-12096000D02*
X8448857Y-12110286D01*
X8434571Y-12124571D01*
X8420286Y-12110286D01*
X8434571Y-12096000D01*
X8434571Y-12124571D01*
M02*
