G04 #@! TF.GenerationSoftware,KiCad,Pcbnew,5.1.4+dfsg1-1*
G04 #@! TF.CreationDate,2020-02-14T18:49:56+01:00*
G04 #@! TF.ProjectId,1_solar_bank,315f736f-6c61-4725-9f62-616e6b2e6b69,rev?*
G04 #@! TF.SameCoordinates,Original*
G04 #@! TF.FileFunction,Soldermask,Bot*
G04 #@! TF.FilePolarity,Negative*
%FSLAX46Y46*%
G04 Gerber Fmt 4.6, Leading zero omitted, Abs format (unit mm)*
G04 Created by KiCad (PCBNEW 5.1.4+dfsg1-1) date 2020-02-14 18:49:56*
%MOMM*%
%LPD*%
G04 APERTURE LIST*
%ADD10C,0.100000*%
G04 APERTURE END LIST*
D10*
G36*
X96630443Y-113405519D02*
G01*
X96696627Y-113412037D01*
X96866466Y-113463557D01*
X97022991Y-113547222D01*
X97058729Y-113576552D01*
X97160186Y-113659814D01*
X97243448Y-113761271D01*
X97272778Y-113797009D01*
X97356443Y-113953534D01*
X97407963Y-114123373D01*
X97425359Y-114300000D01*
X97407963Y-114476627D01*
X97356443Y-114646466D01*
X97272778Y-114802991D01*
X97243448Y-114838729D01*
X97160186Y-114940186D01*
X97058729Y-115023448D01*
X97022991Y-115052778D01*
X96866466Y-115136443D01*
X96696627Y-115187963D01*
X96630442Y-115194482D01*
X96564260Y-115201000D01*
X96475740Y-115201000D01*
X96409558Y-115194482D01*
X96343373Y-115187963D01*
X96173534Y-115136443D01*
X96017009Y-115052778D01*
X95981271Y-115023448D01*
X95879814Y-114940186D01*
X95796552Y-114838729D01*
X95767222Y-114802991D01*
X95683557Y-114646466D01*
X95632037Y-114476627D01*
X95614641Y-114300000D01*
X95632037Y-114123373D01*
X95683557Y-113953534D01*
X95767222Y-113797009D01*
X95796552Y-113761271D01*
X95879814Y-113659814D01*
X95981271Y-113576552D01*
X96017009Y-113547222D01*
X96173534Y-113463557D01*
X96343373Y-113412037D01*
X96409557Y-113405519D01*
X96475740Y-113399000D01*
X96564260Y-113399000D01*
X96630443Y-113405519D01*
X96630443Y-113405519D01*
G37*
G36*
X82181000Y-115201000D02*
G01*
X80379000Y-115201000D01*
X80379000Y-113399000D01*
X82181000Y-113399000D01*
X82181000Y-115201000D01*
X82181000Y-115201000D01*
G37*
G36*
X83930443Y-113405519D02*
G01*
X83996627Y-113412037D01*
X84166466Y-113463557D01*
X84322991Y-113547222D01*
X84358729Y-113576552D01*
X84460186Y-113659814D01*
X84543448Y-113761271D01*
X84572778Y-113797009D01*
X84656443Y-113953534D01*
X84707963Y-114123373D01*
X84725359Y-114300000D01*
X84707963Y-114476627D01*
X84656443Y-114646466D01*
X84572778Y-114802991D01*
X84543448Y-114838729D01*
X84460186Y-114940186D01*
X84358729Y-115023448D01*
X84322991Y-115052778D01*
X84166466Y-115136443D01*
X83996627Y-115187963D01*
X83930442Y-115194482D01*
X83864260Y-115201000D01*
X83775740Y-115201000D01*
X83709558Y-115194482D01*
X83643373Y-115187963D01*
X83473534Y-115136443D01*
X83317009Y-115052778D01*
X83281271Y-115023448D01*
X83179814Y-114940186D01*
X83096552Y-114838729D01*
X83067222Y-114802991D01*
X82983557Y-114646466D01*
X82932037Y-114476627D01*
X82914641Y-114300000D01*
X82932037Y-114123373D01*
X82983557Y-113953534D01*
X83067222Y-113797009D01*
X83096552Y-113761271D01*
X83179814Y-113659814D01*
X83281271Y-113576552D01*
X83317009Y-113547222D01*
X83473534Y-113463557D01*
X83643373Y-113412037D01*
X83709557Y-113405519D01*
X83775740Y-113399000D01*
X83864260Y-113399000D01*
X83930443Y-113405519D01*
X83930443Y-113405519D01*
G37*
G36*
X86470443Y-113405519D02*
G01*
X86536627Y-113412037D01*
X86706466Y-113463557D01*
X86862991Y-113547222D01*
X86898729Y-113576552D01*
X87000186Y-113659814D01*
X87083448Y-113761271D01*
X87112778Y-113797009D01*
X87196443Y-113953534D01*
X87247963Y-114123373D01*
X87265359Y-114300000D01*
X87247963Y-114476627D01*
X87196443Y-114646466D01*
X87112778Y-114802991D01*
X87083448Y-114838729D01*
X87000186Y-114940186D01*
X86898729Y-115023448D01*
X86862991Y-115052778D01*
X86706466Y-115136443D01*
X86536627Y-115187963D01*
X86470442Y-115194482D01*
X86404260Y-115201000D01*
X86315740Y-115201000D01*
X86249558Y-115194482D01*
X86183373Y-115187963D01*
X86013534Y-115136443D01*
X85857009Y-115052778D01*
X85821271Y-115023448D01*
X85719814Y-114940186D01*
X85636552Y-114838729D01*
X85607222Y-114802991D01*
X85523557Y-114646466D01*
X85472037Y-114476627D01*
X85454641Y-114300000D01*
X85472037Y-114123373D01*
X85523557Y-113953534D01*
X85607222Y-113797009D01*
X85636552Y-113761271D01*
X85719814Y-113659814D01*
X85821271Y-113576552D01*
X85857009Y-113547222D01*
X86013534Y-113463557D01*
X86183373Y-113412037D01*
X86249557Y-113405519D01*
X86315740Y-113399000D01*
X86404260Y-113399000D01*
X86470443Y-113405519D01*
X86470443Y-113405519D01*
G37*
G36*
X89010443Y-113405519D02*
G01*
X89076627Y-113412037D01*
X89246466Y-113463557D01*
X89402991Y-113547222D01*
X89438729Y-113576552D01*
X89540186Y-113659814D01*
X89623448Y-113761271D01*
X89652778Y-113797009D01*
X89736443Y-113953534D01*
X89787963Y-114123373D01*
X89805359Y-114300000D01*
X89787963Y-114476627D01*
X89736443Y-114646466D01*
X89652778Y-114802991D01*
X89623448Y-114838729D01*
X89540186Y-114940186D01*
X89438729Y-115023448D01*
X89402991Y-115052778D01*
X89246466Y-115136443D01*
X89076627Y-115187963D01*
X89010442Y-115194482D01*
X88944260Y-115201000D01*
X88855740Y-115201000D01*
X88789558Y-115194482D01*
X88723373Y-115187963D01*
X88553534Y-115136443D01*
X88397009Y-115052778D01*
X88361271Y-115023448D01*
X88259814Y-114940186D01*
X88176552Y-114838729D01*
X88147222Y-114802991D01*
X88063557Y-114646466D01*
X88012037Y-114476627D01*
X87994641Y-114300000D01*
X88012037Y-114123373D01*
X88063557Y-113953534D01*
X88147222Y-113797009D01*
X88176552Y-113761271D01*
X88259814Y-113659814D01*
X88361271Y-113576552D01*
X88397009Y-113547222D01*
X88553534Y-113463557D01*
X88723373Y-113412037D01*
X88789557Y-113405519D01*
X88855740Y-113399000D01*
X88944260Y-113399000D01*
X89010443Y-113405519D01*
X89010443Y-113405519D01*
G37*
G36*
X91550443Y-113405519D02*
G01*
X91616627Y-113412037D01*
X91786466Y-113463557D01*
X91942991Y-113547222D01*
X91978729Y-113576552D01*
X92080186Y-113659814D01*
X92163448Y-113761271D01*
X92192778Y-113797009D01*
X92276443Y-113953534D01*
X92327963Y-114123373D01*
X92345359Y-114300000D01*
X92327963Y-114476627D01*
X92276443Y-114646466D01*
X92192778Y-114802991D01*
X92163448Y-114838729D01*
X92080186Y-114940186D01*
X91978729Y-115023448D01*
X91942991Y-115052778D01*
X91786466Y-115136443D01*
X91616627Y-115187963D01*
X91550442Y-115194482D01*
X91484260Y-115201000D01*
X91395740Y-115201000D01*
X91329558Y-115194482D01*
X91263373Y-115187963D01*
X91093534Y-115136443D01*
X90937009Y-115052778D01*
X90901271Y-115023448D01*
X90799814Y-114940186D01*
X90716552Y-114838729D01*
X90687222Y-114802991D01*
X90603557Y-114646466D01*
X90552037Y-114476627D01*
X90534641Y-114300000D01*
X90552037Y-114123373D01*
X90603557Y-113953534D01*
X90687222Y-113797009D01*
X90716552Y-113761271D01*
X90799814Y-113659814D01*
X90901271Y-113576552D01*
X90937009Y-113547222D01*
X91093534Y-113463557D01*
X91263373Y-113412037D01*
X91329557Y-113405519D01*
X91395740Y-113399000D01*
X91484260Y-113399000D01*
X91550443Y-113405519D01*
X91550443Y-113405519D01*
G37*
G36*
X94090443Y-113405519D02*
G01*
X94156627Y-113412037D01*
X94326466Y-113463557D01*
X94482991Y-113547222D01*
X94518729Y-113576552D01*
X94620186Y-113659814D01*
X94703448Y-113761271D01*
X94732778Y-113797009D01*
X94816443Y-113953534D01*
X94867963Y-114123373D01*
X94885359Y-114300000D01*
X94867963Y-114476627D01*
X94816443Y-114646466D01*
X94732778Y-114802991D01*
X94703448Y-114838729D01*
X94620186Y-114940186D01*
X94518729Y-115023448D01*
X94482991Y-115052778D01*
X94326466Y-115136443D01*
X94156627Y-115187963D01*
X94090442Y-115194482D01*
X94024260Y-115201000D01*
X93935740Y-115201000D01*
X93869558Y-115194482D01*
X93803373Y-115187963D01*
X93633534Y-115136443D01*
X93477009Y-115052778D01*
X93441271Y-115023448D01*
X93339814Y-114940186D01*
X93256552Y-114838729D01*
X93227222Y-114802991D01*
X93143557Y-114646466D01*
X93092037Y-114476627D01*
X93074641Y-114300000D01*
X93092037Y-114123373D01*
X93143557Y-113953534D01*
X93227222Y-113797009D01*
X93256552Y-113761271D01*
X93339814Y-113659814D01*
X93441271Y-113576552D01*
X93477009Y-113547222D01*
X93633534Y-113463557D01*
X93803373Y-113412037D01*
X93869557Y-113405519D01*
X93935740Y-113399000D01*
X94024260Y-113399000D01*
X94090443Y-113405519D01*
X94090443Y-113405519D01*
G37*
G36*
X101710443Y-113405519D02*
G01*
X101776627Y-113412037D01*
X101946466Y-113463557D01*
X102102991Y-113547222D01*
X102138729Y-113576552D01*
X102240186Y-113659814D01*
X102323448Y-113761271D01*
X102352778Y-113797009D01*
X102436443Y-113953534D01*
X102487963Y-114123373D01*
X102505359Y-114300000D01*
X102487963Y-114476627D01*
X102436443Y-114646466D01*
X102352778Y-114802991D01*
X102323448Y-114838729D01*
X102240186Y-114940186D01*
X102138729Y-115023448D01*
X102102991Y-115052778D01*
X101946466Y-115136443D01*
X101776627Y-115187963D01*
X101710442Y-115194482D01*
X101644260Y-115201000D01*
X101555740Y-115201000D01*
X101489558Y-115194482D01*
X101423373Y-115187963D01*
X101253534Y-115136443D01*
X101097009Y-115052778D01*
X101061271Y-115023448D01*
X100959814Y-114940186D01*
X100876552Y-114838729D01*
X100847222Y-114802991D01*
X100763557Y-114646466D01*
X100712037Y-114476627D01*
X100694641Y-114300000D01*
X100712037Y-114123373D01*
X100763557Y-113953534D01*
X100847222Y-113797009D01*
X100876552Y-113761271D01*
X100959814Y-113659814D01*
X101061271Y-113576552D01*
X101097009Y-113547222D01*
X101253534Y-113463557D01*
X101423373Y-113412037D01*
X101489557Y-113405519D01*
X101555740Y-113399000D01*
X101644260Y-113399000D01*
X101710443Y-113405519D01*
X101710443Y-113405519D01*
G37*
G36*
X99170443Y-113405519D02*
G01*
X99236627Y-113412037D01*
X99406466Y-113463557D01*
X99562991Y-113547222D01*
X99598729Y-113576552D01*
X99700186Y-113659814D01*
X99783448Y-113761271D01*
X99812778Y-113797009D01*
X99896443Y-113953534D01*
X99947963Y-114123373D01*
X99965359Y-114300000D01*
X99947963Y-114476627D01*
X99896443Y-114646466D01*
X99812778Y-114802991D01*
X99783448Y-114838729D01*
X99700186Y-114940186D01*
X99598729Y-115023448D01*
X99562991Y-115052778D01*
X99406466Y-115136443D01*
X99236627Y-115187963D01*
X99170442Y-115194482D01*
X99104260Y-115201000D01*
X99015740Y-115201000D01*
X98949558Y-115194482D01*
X98883373Y-115187963D01*
X98713534Y-115136443D01*
X98557009Y-115052778D01*
X98521271Y-115023448D01*
X98419814Y-114940186D01*
X98336552Y-114838729D01*
X98307222Y-114802991D01*
X98223557Y-114646466D01*
X98172037Y-114476627D01*
X98154641Y-114300000D01*
X98172037Y-114123373D01*
X98223557Y-113953534D01*
X98307222Y-113797009D01*
X98336552Y-113761271D01*
X98419814Y-113659814D01*
X98521271Y-113576552D01*
X98557009Y-113547222D01*
X98713534Y-113463557D01*
X98883373Y-113412037D01*
X98949557Y-113405519D01*
X99015740Y-113399000D01*
X99104260Y-113399000D01*
X99170443Y-113405519D01*
X99170443Y-113405519D01*
G37*
G36*
X85256823Y-102031313D02*
G01*
X85417242Y-102079976D01*
X85484361Y-102115852D01*
X85565078Y-102158996D01*
X85694659Y-102265341D01*
X85801004Y-102394922D01*
X85801005Y-102394924D01*
X85880024Y-102542758D01*
X85928687Y-102703177D01*
X85945117Y-102870000D01*
X85928687Y-103036823D01*
X85880024Y-103197242D01*
X85839477Y-103273100D01*
X85801004Y-103345078D01*
X85694659Y-103474659D01*
X85565078Y-103581004D01*
X85565076Y-103581005D01*
X85417242Y-103660024D01*
X85256823Y-103708687D01*
X85131804Y-103721000D01*
X85048196Y-103721000D01*
X84923177Y-103708687D01*
X84762758Y-103660024D01*
X84614924Y-103581005D01*
X84614922Y-103581004D01*
X84485341Y-103474659D01*
X84378996Y-103345078D01*
X84340523Y-103273100D01*
X84299976Y-103197242D01*
X84251313Y-103036823D01*
X84234883Y-102870000D01*
X84251313Y-102703177D01*
X84299976Y-102542758D01*
X84378995Y-102394924D01*
X84378996Y-102394922D01*
X84485341Y-102265341D01*
X84614922Y-102158996D01*
X84695639Y-102115852D01*
X84762758Y-102079976D01*
X84923177Y-102031313D01*
X85048196Y-102019000D01*
X85131804Y-102019000D01*
X85256823Y-102031313D01*
X85256823Y-102031313D01*
G37*
G36*
X70098228Y-102051703D02*
G01*
X70253100Y-102115853D01*
X70392481Y-102208985D01*
X70511015Y-102327519D01*
X70604147Y-102466900D01*
X70668297Y-102621772D01*
X70701000Y-102786184D01*
X70701000Y-102953816D01*
X70668297Y-103118228D01*
X70604147Y-103273100D01*
X70511015Y-103412481D01*
X70392481Y-103531015D01*
X70253100Y-103624147D01*
X70098228Y-103688297D01*
X69933816Y-103721000D01*
X69766184Y-103721000D01*
X69601772Y-103688297D01*
X69446900Y-103624147D01*
X69307519Y-103531015D01*
X69188985Y-103412481D01*
X69095853Y-103273100D01*
X69031703Y-103118228D01*
X68999000Y-102953816D01*
X68999000Y-102786184D01*
X69031703Y-102621772D01*
X69095853Y-102466900D01*
X69188985Y-102327519D01*
X69307519Y-102208985D01*
X69446900Y-102115853D01*
X69601772Y-102051703D01*
X69766184Y-102019000D01*
X69933816Y-102019000D01*
X70098228Y-102051703D01*
X70098228Y-102051703D01*
G37*
G36*
X66259059Y-100242860D02*
G01*
X66395732Y-100299472D01*
X66518735Y-100381660D01*
X66623340Y-100486265D01*
X66705528Y-100609268D01*
X66762140Y-100745941D01*
X66791000Y-100891033D01*
X66791000Y-101038967D01*
X66762140Y-101184059D01*
X66705528Y-101320732D01*
X66623340Y-101443735D01*
X66518735Y-101548340D01*
X66395732Y-101630528D01*
X66395731Y-101630529D01*
X66395730Y-101630529D01*
X66259059Y-101687140D01*
X66113968Y-101716000D01*
X65966032Y-101716000D01*
X65820941Y-101687140D01*
X65684270Y-101630529D01*
X65684269Y-101630529D01*
X65684268Y-101630528D01*
X65561265Y-101548340D01*
X65456660Y-101443735D01*
X65374472Y-101320732D01*
X65317860Y-101184059D01*
X65289000Y-101038967D01*
X65289000Y-100891033D01*
X65317860Y-100745941D01*
X65374472Y-100609268D01*
X65456660Y-100486265D01*
X65561265Y-100381660D01*
X65684268Y-100299472D01*
X65820941Y-100242860D01*
X65966032Y-100214000D01*
X66113968Y-100214000D01*
X66259059Y-100242860D01*
X66259059Y-100242860D01*
G37*
G36*
X66259059Y-97702860D02*
G01*
X66395732Y-97759472D01*
X66518735Y-97841660D01*
X66623340Y-97946265D01*
X66705528Y-98069268D01*
X66762140Y-98205941D01*
X66791000Y-98351033D01*
X66791000Y-98498967D01*
X66762140Y-98644059D01*
X66705528Y-98780732D01*
X66623340Y-98903735D01*
X66518735Y-99008340D01*
X66395732Y-99090528D01*
X66395731Y-99090529D01*
X66395730Y-99090529D01*
X66259059Y-99147140D01*
X66113968Y-99176000D01*
X65966032Y-99176000D01*
X65820941Y-99147140D01*
X65684270Y-99090529D01*
X65684269Y-99090529D01*
X65684268Y-99090528D01*
X65561265Y-99008340D01*
X65456660Y-98903735D01*
X65374472Y-98780732D01*
X65317860Y-98644059D01*
X65289000Y-98498967D01*
X65289000Y-98351033D01*
X65317860Y-98205941D01*
X65374472Y-98069268D01*
X65456660Y-97946265D01*
X65561265Y-97841660D01*
X65684268Y-97759472D01*
X65820941Y-97702860D01*
X65966032Y-97674000D01*
X66113968Y-97674000D01*
X66259059Y-97702860D01*
X66259059Y-97702860D01*
G37*
G36*
X85338228Y-95066703D02*
G01*
X85493100Y-95130853D01*
X85632481Y-95223985D01*
X85751015Y-95342519D01*
X85844147Y-95481900D01*
X85908297Y-95636772D01*
X85941000Y-95801184D01*
X85941000Y-95968816D01*
X85908297Y-96133228D01*
X85844147Y-96288100D01*
X85751015Y-96427481D01*
X85632481Y-96546015D01*
X85493100Y-96639147D01*
X85338228Y-96703297D01*
X85173816Y-96736000D01*
X85006184Y-96736000D01*
X84841772Y-96703297D01*
X84686900Y-96639147D01*
X84547519Y-96546015D01*
X84428985Y-96427481D01*
X84335853Y-96288100D01*
X84271703Y-96133228D01*
X84239000Y-95968816D01*
X84239000Y-95801184D01*
X84271703Y-95636772D01*
X84335853Y-95481900D01*
X84428985Y-95342519D01*
X84547519Y-95223985D01*
X84686900Y-95130853D01*
X84841772Y-95066703D01*
X85006184Y-95034000D01*
X85173816Y-95034000D01*
X85338228Y-95066703D01*
X85338228Y-95066703D01*
G37*
G36*
X70016823Y-95046313D02*
G01*
X70177242Y-95094976D01*
X70244361Y-95130852D01*
X70325078Y-95173996D01*
X70454659Y-95280341D01*
X70561004Y-95409922D01*
X70561005Y-95409924D01*
X70640024Y-95557758D01*
X70688687Y-95718177D01*
X70705117Y-95885000D01*
X70688687Y-96051823D01*
X70640024Y-96212242D01*
X70599477Y-96288100D01*
X70561004Y-96360078D01*
X70454659Y-96489659D01*
X70325078Y-96596004D01*
X70325076Y-96596005D01*
X70177242Y-96675024D01*
X70016823Y-96723687D01*
X69891804Y-96736000D01*
X69808196Y-96736000D01*
X69683177Y-96723687D01*
X69522758Y-96675024D01*
X69374924Y-96596005D01*
X69374922Y-96596004D01*
X69245341Y-96489659D01*
X69138996Y-96360078D01*
X69100523Y-96288100D01*
X69059976Y-96212242D01*
X69011313Y-96051823D01*
X68994883Y-95885000D01*
X69011313Y-95718177D01*
X69059976Y-95557758D01*
X69138995Y-95409924D01*
X69138996Y-95409922D01*
X69245341Y-95280341D01*
X69374922Y-95173996D01*
X69455639Y-95130852D01*
X69522758Y-95094976D01*
X69683177Y-95046313D01*
X69808196Y-95034000D01*
X69891804Y-95034000D01*
X70016823Y-95046313D01*
X70016823Y-95046313D01*
G37*
G36*
X70016823Y-88061313D02*
G01*
X70177242Y-88109976D01*
X70244361Y-88145852D01*
X70325078Y-88188996D01*
X70454659Y-88295341D01*
X70561004Y-88424922D01*
X70561005Y-88424924D01*
X70640024Y-88572758D01*
X70688687Y-88733177D01*
X70705117Y-88900000D01*
X70688687Y-89066823D01*
X70640024Y-89227242D01*
X70599477Y-89303100D01*
X70561004Y-89375078D01*
X70454659Y-89504659D01*
X70325078Y-89611004D01*
X70325076Y-89611005D01*
X70177242Y-89690024D01*
X70016823Y-89738687D01*
X69891804Y-89751000D01*
X69808196Y-89751000D01*
X69683177Y-89738687D01*
X69522758Y-89690024D01*
X69374924Y-89611005D01*
X69374922Y-89611004D01*
X69245341Y-89504659D01*
X69138996Y-89375078D01*
X69100523Y-89303100D01*
X69059976Y-89227242D01*
X69011313Y-89066823D01*
X68994883Y-88900000D01*
X69011313Y-88733177D01*
X69059976Y-88572758D01*
X69138995Y-88424924D01*
X69138996Y-88424922D01*
X69245341Y-88295341D01*
X69374922Y-88188996D01*
X69455639Y-88145852D01*
X69522758Y-88109976D01*
X69683177Y-88061313D01*
X69808196Y-88049000D01*
X69891804Y-88049000D01*
X70016823Y-88061313D01*
X70016823Y-88061313D01*
G37*
G36*
X85338228Y-88081703D02*
G01*
X85493100Y-88145853D01*
X85632481Y-88238985D01*
X85751015Y-88357519D01*
X85844147Y-88496900D01*
X85908297Y-88651772D01*
X85941000Y-88816184D01*
X85941000Y-88983816D01*
X85908297Y-89148228D01*
X85844147Y-89303100D01*
X85751015Y-89442481D01*
X85632481Y-89561015D01*
X85493100Y-89654147D01*
X85338228Y-89718297D01*
X85173816Y-89751000D01*
X85006184Y-89751000D01*
X84841772Y-89718297D01*
X84686900Y-89654147D01*
X84547519Y-89561015D01*
X84428985Y-89442481D01*
X84335853Y-89303100D01*
X84271703Y-89148228D01*
X84239000Y-88983816D01*
X84239000Y-88816184D01*
X84271703Y-88651772D01*
X84335853Y-88496900D01*
X84428985Y-88357519D01*
X84547519Y-88238985D01*
X84686900Y-88145853D01*
X84841772Y-88081703D01*
X85006184Y-88049000D01*
X85173816Y-88049000D01*
X85338228Y-88081703D01*
X85338228Y-88081703D01*
G37*
G36*
X70016823Y-82981313D02*
G01*
X70177242Y-83029976D01*
X70244361Y-83065852D01*
X70325078Y-83108996D01*
X70454659Y-83215341D01*
X70561004Y-83344922D01*
X70561005Y-83344924D01*
X70640024Y-83492758D01*
X70688687Y-83653177D01*
X70705117Y-83820000D01*
X70688687Y-83986823D01*
X70640024Y-84147242D01*
X70599477Y-84223100D01*
X70561004Y-84295078D01*
X70454659Y-84424659D01*
X70325078Y-84531004D01*
X70325076Y-84531005D01*
X70177242Y-84610024D01*
X70016823Y-84658687D01*
X69891804Y-84671000D01*
X69808196Y-84671000D01*
X69683177Y-84658687D01*
X69522758Y-84610024D01*
X69374924Y-84531005D01*
X69374922Y-84531004D01*
X69245341Y-84424659D01*
X69138996Y-84295078D01*
X69100523Y-84223100D01*
X69059976Y-84147242D01*
X69011313Y-83986823D01*
X68994883Y-83820000D01*
X69011313Y-83653177D01*
X69059976Y-83492758D01*
X69138995Y-83344924D01*
X69138996Y-83344922D01*
X69245341Y-83215341D01*
X69374922Y-83108996D01*
X69455639Y-83065852D01*
X69522758Y-83029976D01*
X69683177Y-82981313D01*
X69808196Y-82969000D01*
X69891804Y-82969000D01*
X70016823Y-82981313D01*
X70016823Y-82981313D01*
G37*
G36*
X85338228Y-83001703D02*
G01*
X85493100Y-83065853D01*
X85632481Y-83158985D01*
X85751015Y-83277519D01*
X85844147Y-83416900D01*
X85908297Y-83571772D01*
X85941000Y-83736184D01*
X85941000Y-83903816D01*
X85908297Y-84068228D01*
X85844147Y-84223100D01*
X85751015Y-84362481D01*
X85632481Y-84481015D01*
X85493100Y-84574147D01*
X85338228Y-84638297D01*
X85173816Y-84671000D01*
X85006184Y-84671000D01*
X84841772Y-84638297D01*
X84686900Y-84574147D01*
X84547519Y-84481015D01*
X84428985Y-84362481D01*
X84335853Y-84223100D01*
X84271703Y-84068228D01*
X84239000Y-83903816D01*
X84239000Y-83736184D01*
X84271703Y-83571772D01*
X84335853Y-83416900D01*
X84428985Y-83277519D01*
X84547519Y-83158985D01*
X84686900Y-83065853D01*
X84841772Y-83001703D01*
X85006184Y-82969000D01*
X85173816Y-82969000D01*
X85338228Y-83001703D01*
X85338228Y-83001703D01*
G37*
G36*
X85256823Y-77266313D02*
G01*
X85417242Y-77314976D01*
X85484361Y-77350852D01*
X85565078Y-77393996D01*
X85694659Y-77500341D01*
X85801004Y-77629922D01*
X85801005Y-77629924D01*
X85880024Y-77777758D01*
X85928687Y-77938177D01*
X85945117Y-78105000D01*
X85928687Y-78271823D01*
X85880024Y-78432242D01*
X85839477Y-78508100D01*
X85801004Y-78580078D01*
X85694659Y-78709659D01*
X85565078Y-78816004D01*
X85565076Y-78816005D01*
X85417242Y-78895024D01*
X85256823Y-78943687D01*
X85131804Y-78956000D01*
X85048196Y-78956000D01*
X84923177Y-78943687D01*
X84762758Y-78895024D01*
X84614924Y-78816005D01*
X84614922Y-78816004D01*
X84485341Y-78709659D01*
X84378996Y-78580078D01*
X84340523Y-78508100D01*
X84299976Y-78432242D01*
X84251313Y-78271823D01*
X84234883Y-78105000D01*
X84251313Y-77938177D01*
X84299976Y-77777758D01*
X84378995Y-77629924D01*
X84378996Y-77629922D01*
X84485341Y-77500341D01*
X84614922Y-77393996D01*
X84695639Y-77350852D01*
X84762758Y-77314976D01*
X84923177Y-77266313D01*
X85048196Y-77254000D01*
X85131804Y-77254000D01*
X85256823Y-77266313D01*
X85256823Y-77266313D01*
G37*
G36*
X70098228Y-77286703D02*
G01*
X70253100Y-77350853D01*
X70392481Y-77443985D01*
X70511015Y-77562519D01*
X70604147Y-77701900D01*
X70668297Y-77856772D01*
X70701000Y-78021184D01*
X70701000Y-78188816D01*
X70668297Y-78353228D01*
X70604147Y-78508100D01*
X70511015Y-78647481D01*
X70392481Y-78766015D01*
X70253100Y-78859147D01*
X70098228Y-78923297D01*
X69933816Y-78956000D01*
X69766184Y-78956000D01*
X69601772Y-78923297D01*
X69446900Y-78859147D01*
X69307519Y-78766015D01*
X69188985Y-78647481D01*
X69095853Y-78508100D01*
X69031703Y-78353228D01*
X68999000Y-78188816D01*
X68999000Y-78021184D01*
X69031703Y-77856772D01*
X69095853Y-77701900D01*
X69188985Y-77562519D01*
X69307519Y-77443985D01*
X69446900Y-77350853D01*
X69601772Y-77286703D01*
X69766184Y-77254000D01*
X69933816Y-77254000D01*
X70098228Y-77286703D01*
X70098228Y-77286703D01*
G37*
G36*
X85256823Y-70281313D02*
G01*
X85417242Y-70329976D01*
X85484361Y-70365852D01*
X85565078Y-70408996D01*
X85694659Y-70515341D01*
X85801004Y-70644922D01*
X85801005Y-70644924D01*
X85880024Y-70792758D01*
X85928687Y-70953177D01*
X85945117Y-71120000D01*
X85928687Y-71286823D01*
X85880024Y-71447242D01*
X85839477Y-71523100D01*
X85801004Y-71595078D01*
X85694659Y-71724659D01*
X85565078Y-71831004D01*
X85565076Y-71831005D01*
X85417242Y-71910024D01*
X85256823Y-71958687D01*
X85131804Y-71971000D01*
X85048196Y-71971000D01*
X84923177Y-71958687D01*
X84762758Y-71910024D01*
X84614924Y-71831005D01*
X84614922Y-71831004D01*
X84485341Y-71724659D01*
X84378996Y-71595078D01*
X84340523Y-71523100D01*
X84299976Y-71447242D01*
X84251313Y-71286823D01*
X84234883Y-71120000D01*
X84251313Y-70953177D01*
X84299976Y-70792758D01*
X84378995Y-70644924D01*
X84378996Y-70644922D01*
X84485341Y-70515341D01*
X84614922Y-70408996D01*
X84695639Y-70365852D01*
X84762758Y-70329976D01*
X84923177Y-70281313D01*
X85048196Y-70269000D01*
X85131804Y-70269000D01*
X85256823Y-70281313D01*
X85256823Y-70281313D01*
G37*
G36*
X70098228Y-70301703D02*
G01*
X70253100Y-70365853D01*
X70392481Y-70458985D01*
X70511015Y-70577519D01*
X70604147Y-70716900D01*
X70668297Y-70871772D01*
X70701000Y-71036184D01*
X70701000Y-71203816D01*
X70668297Y-71368228D01*
X70604147Y-71523100D01*
X70511015Y-71662481D01*
X70392481Y-71781015D01*
X70253100Y-71874147D01*
X70098228Y-71938297D01*
X69933816Y-71971000D01*
X69766184Y-71971000D01*
X69601772Y-71938297D01*
X69446900Y-71874147D01*
X69307519Y-71781015D01*
X69188985Y-71662481D01*
X69095853Y-71523100D01*
X69031703Y-71368228D01*
X68999000Y-71203816D01*
X68999000Y-71036184D01*
X69031703Y-70871772D01*
X69095853Y-70716900D01*
X69188985Y-70577519D01*
X69307519Y-70458985D01*
X69446900Y-70365853D01*
X69601772Y-70301703D01*
X69766184Y-70269000D01*
X69933816Y-70269000D01*
X70098228Y-70301703D01*
X70098228Y-70301703D01*
G37*
G36*
X75149059Y-57697860D02*
G01*
X75285732Y-57754472D01*
X75408735Y-57836660D01*
X75513340Y-57941265D01*
X75595528Y-58064268D01*
X75652140Y-58200941D01*
X75681000Y-58346033D01*
X75681000Y-58493967D01*
X75652140Y-58639059D01*
X75595528Y-58775732D01*
X75513340Y-58898735D01*
X75408735Y-59003340D01*
X75285732Y-59085528D01*
X75285731Y-59085529D01*
X75285730Y-59085529D01*
X75149059Y-59142140D01*
X75003968Y-59171000D01*
X74856032Y-59171000D01*
X74710941Y-59142140D01*
X74574270Y-59085529D01*
X74574269Y-59085529D01*
X74574268Y-59085528D01*
X74451265Y-59003340D01*
X74346660Y-58898735D01*
X74264472Y-58775732D01*
X74207860Y-58639059D01*
X74179000Y-58493967D01*
X74179000Y-58346033D01*
X74207860Y-58200941D01*
X74264472Y-58064268D01*
X74346660Y-57941265D01*
X74451265Y-57836660D01*
X74574268Y-57754472D01*
X74710941Y-57697860D01*
X74856032Y-57669000D01*
X75003968Y-57669000D01*
X75149059Y-57697860D01*
X75149059Y-57697860D01*
G37*
G36*
X87214059Y-57697860D02*
G01*
X87350732Y-57754472D01*
X87473735Y-57836660D01*
X87578340Y-57941265D01*
X87660528Y-58064268D01*
X87717140Y-58200941D01*
X87746000Y-58346033D01*
X87746000Y-58493967D01*
X87717140Y-58639059D01*
X87660528Y-58775732D01*
X87578340Y-58898735D01*
X87473735Y-59003340D01*
X87350732Y-59085528D01*
X87350731Y-59085529D01*
X87350730Y-59085529D01*
X87214059Y-59142140D01*
X87068968Y-59171000D01*
X86921032Y-59171000D01*
X86775941Y-59142140D01*
X86639270Y-59085529D01*
X86639269Y-59085529D01*
X86639268Y-59085528D01*
X86516265Y-59003340D01*
X86411660Y-58898735D01*
X86329472Y-58775732D01*
X86272860Y-58639059D01*
X86244000Y-58493967D01*
X86244000Y-58346033D01*
X86272860Y-58200941D01*
X86329472Y-58064268D01*
X86411660Y-57941265D01*
X86516265Y-57836660D01*
X86639268Y-57754472D01*
X86775941Y-57697860D01*
X86921032Y-57669000D01*
X87068968Y-57669000D01*
X87214059Y-57697860D01*
X87214059Y-57697860D01*
G37*
G36*
X82134059Y-57697860D02*
G01*
X82270732Y-57754472D01*
X82393735Y-57836660D01*
X82498340Y-57941265D01*
X82580528Y-58064268D01*
X82637140Y-58200941D01*
X82666000Y-58346033D01*
X82666000Y-58493967D01*
X82637140Y-58639059D01*
X82580528Y-58775732D01*
X82498340Y-58898735D01*
X82393735Y-59003340D01*
X82270732Y-59085528D01*
X82270731Y-59085529D01*
X82270730Y-59085529D01*
X82134059Y-59142140D01*
X81988968Y-59171000D01*
X81841032Y-59171000D01*
X81695941Y-59142140D01*
X81559270Y-59085529D01*
X81559269Y-59085529D01*
X81559268Y-59085528D01*
X81436265Y-59003340D01*
X81331660Y-58898735D01*
X81249472Y-58775732D01*
X81192860Y-58639059D01*
X81164000Y-58493967D01*
X81164000Y-58346033D01*
X81192860Y-58200941D01*
X81249472Y-58064268D01*
X81331660Y-57941265D01*
X81436265Y-57836660D01*
X81559268Y-57754472D01*
X81695941Y-57697860D01*
X81841032Y-57669000D01*
X81988968Y-57669000D01*
X82134059Y-57697860D01*
X82134059Y-57697860D01*
G37*
G36*
X70069059Y-57697860D02*
G01*
X70205732Y-57754472D01*
X70328735Y-57836660D01*
X70433340Y-57941265D01*
X70515528Y-58064268D01*
X70572140Y-58200941D01*
X70601000Y-58346033D01*
X70601000Y-58493967D01*
X70572140Y-58639059D01*
X70515528Y-58775732D01*
X70433340Y-58898735D01*
X70328735Y-59003340D01*
X70205732Y-59085528D01*
X70205731Y-59085529D01*
X70205730Y-59085529D01*
X70069059Y-59142140D01*
X69923968Y-59171000D01*
X69776032Y-59171000D01*
X69630941Y-59142140D01*
X69494270Y-59085529D01*
X69494269Y-59085529D01*
X69494268Y-59085528D01*
X69371265Y-59003340D01*
X69266660Y-58898735D01*
X69184472Y-58775732D01*
X69127860Y-58639059D01*
X69099000Y-58493967D01*
X69099000Y-58346033D01*
X69127860Y-58200941D01*
X69184472Y-58064268D01*
X69266660Y-57941265D01*
X69371265Y-57836660D01*
X69494268Y-57754472D01*
X69630941Y-57697860D01*
X69776032Y-57669000D01*
X69923968Y-57669000D01*
X70069059Y-57697860D01*
X70069059Y-57697860D01*
G37*
G36*
X70069059Y-55157860D02*
G01*
X70205732Y-55214472D01*
X70328735Y-55296660D01*
X70433340Y-55401265D01*
X70515528Y-55524268D01*
X70572140Y-55660941D01*
X70601000Y-55806033D01*
X70601000Y-55953967D01*
X70572140Y-56099059D01*
X70515528Y-56235732D01*
X70433340Y-56358735D01*
X70328735Y-56463340D01*
X70205732Y-56545528D01*
X70205731Y-56545529D01*
X70205730Y-56545529D01*
X70069059Y-56602140D01*
X69923968Y-56631000D01*
X69776032Y-56631000D01*
X69630941Y-56602140D01*
X69494270Y-56545529D01*
X69494269Y-56545529D01*
X69494268Y-56545528D01*
X69371265Y-56463340D01*
X69266660Y-56358735D01*
X69184472Y-56235732D01*
X69127860Y-56099059D01*
X69099000Y-55953967D01*
X69099000Y-55806033D01*
X69127860Y-55660941D01*
X69184472Y-55524268D01*
X69266660Y-55401265D01*
X69371265Y-55296660D01*
X69494268Y-55214472D01*
X69630941Y-55157860D01*
X69776032Y-55129000D01*
X69923968Y-55129000D01*
X70069059Y-55157860D01*
X70069059Y-55157860D01*
G37*
G36*
X75149059Y-55157860D02*
G01*
X75285732Y-55214472D01*
X75408735Y-55296660D01*
X75513340Y-55401265D01*
X75595528Y-55524268D01*
X75652140Y-55660941D01*
X75681000Y-55806033D01*
X75681000Y-55953967D01*
X75652140Y-56099059D01*
X75595528Y-56235732D01*
X75513340Y-56358735D01*
X75408735Y-56463340D01*
X75285732Y-56545528D01*
X75285731Y-56545529D01*
X75285730Y-56545529D01*
X75149059Y-56602140D01*
X75003968Y-56631000D01*
X74856032Y-56631000D01*
X74710941Y-56602140D01*
X74574270Y-56545529D01*
X74574269Y-56545529D01*
X74574268Y-56545528D01*
X74451265Y-56463340D01*
X74346660Y-56358735D01*
X74264472Y-56235732D01*
X74207860Y-56099059D01*
X74179000Y-55953967D01*
X74179000Y-55806033D01*
X74207860Y-55660941D01*
X74264472Y-55524268D01*
X74346660Y-55401265D01*
X74451265Y-55296660D01*
X74574268Y-55214472D01*
X74710941Y-55157860D01*
X74856032Y-55129000D01*
X75003968Y-55129000D01*
X75149059Y-55157860D01*
X75149059Y-55157860D01*
G37*
G36*
X82134059Y-55157860D02*
G01*
X82270732Y-55214472D01*
X82393735Y-55296660D01*
X82498340Y-55401265D01*
X82580528Y-55524268D01*
X82637140Y-55660941D01*
X82666000Y-55806033D01*
X82666000Y-55953967D01*
X82637140Y-56099059D01*
X82580528Y-56235732D01*
X82498340Y-56358735D01*
X82393735Y-56463340D01*
X82270732Y-56545528D01*
X82270731Y-56545529D01*
X82270730Y-56545529D01*
X82134059Y-56602140D01*
X81988968Y-56631000D01*
X81841032Y-56631000D01*
X81695941Y-56602140D01*
X81559270Y-56545529D01*
X81559269Y-56545529D01*
X81559268Y-56545528D01*
X81436265Y-56463340D01*
X81331660Y-56358735D01*
X81249472Y-56235732D01*
X81192860Y-56099059D01*
X81164000Y-55953967D01*
X81164000Y-55806033D01*
X81192860Y-55660941D01*
X81249472Y-55524268D01*
X81331660Y-55401265D01*
X81436265Y-55296660D01*
X81559268Y-55214472D01*
X81695941Y-55157860D01*
X81841032Y-55129000D01*
X81988968Y-55129000D01*
X82134059Y-55157860D01*
X82134059Y-55157860D01*
G37*
G36*
X87214059Y-55157860D02*
G01*
X87350732Y-55214472D01*
X87473735Y-55296660D01*
X87578340Y-55401265D01*
X87660528Y-55524268D01*
X87717140Y-55660941D01*
X87746000Y-55806033D01*
X87746000Y-55953967D01*
X87717140Y-56099059D01*
X87660528Y-56235732D01*
X87578340Y-56358735D01*
X87473735Y-56463340D01*
X87350732Y-56545528D01*
X87350731Y-56545529D01*
X87350730Y-56545529D01*
X87214059Y-56602140D01*
X87068968Y-56631000D01*
X86921032Y-56631000D01*
X86775941Y-56602140D01*
X86639270Y-56545529D01*
X86639269Y-56545529D01*
X86639268Y-56545528D01*
X86516265Y-56463340D01*
X86411660Y-56358735D01*
X86329472Y-56235732D01*
X86272860Y-56099059D01*
X86244000Y-55953967D01*
X86244000Y-55806033D01*
X86272860Y-55660941D01*
X86329472Y-55524268D01*
X86411660Y-55401265D01*
X86516265Y-55296660D01*
X86639268Y-55214472D01*
X86775941Y-55157860D01*
X86921032Y-55129000D01*
X87068968Y-55129000D01*
X87214059Y-55157860D01*
X87214059Y-55157860D01*
G37*
G36*
X70651823Y-41706313D02*
G01*
X70812242Y-41754976D01*
X70879361Y-41790852D01*
X70960078Y-41833996D01*
X71089659Y-41940341D01*
X71196004Y-42069922D01*
X71196005Y-42069924D01*
X71275024Y-42217758D01*
X71323687Y-42378177D01*
X71340117Y-42545000D01*
X71323687Y-42711823D01*
X71275024Y-42872242D01*
X71234477Y-42948100D01*
X71196004Y-43020078D01*
X71089659Y-43149659D01*
X70960078Y-43256004D01*
X70960076Y-43256005D01*
X70812242Y-43335024D01*
X70651823Y-43383687D01*
X70526804Y-43396000D01*
X70443196Y-43396000D01*
X70318177Y-43383687D01*
X70157758Y-43335024D01*
X70009924Y-43256005D01*
X70009922Y-43256004D01*
X69880341Y-43149659D01*
X69773996Y-43020078D01*
X69735523Y-42948100D01*
X69694976Y-42872242D01*
X69646313Y-42711823D01*
X69629883Y-42545000D01*
X69646313Y-42378177D01*
X69694976Y-42217758D01*
X69773995Y-42069924D01*
X69773996Y-42069922D01*
X69880341Y-41940341D01*
X70009922Y-41833996D01*
X70090639Y-41790852D01*
X70157758Y-41754976D01*
X70318177Y-41706313D01*
X70443196Y-41694000D01*
X70526804Y-41694000D01*
X70651823Y-41706313D01*
X70651823Y-41706313D01*
G37*
G36*
X82716823Y-41706313D02*
G01*
X82877242Y-41754976D01*
X82944361Y-41790852D01*
X83025078Y-41833996D01*
X83154659Y-41940341D01*
X83261004Y-42069922D01*
X83261005Y-42069924D01*
X83340024Y-42217758D01*
X83388687Y-42378177D01*
X83405117Y-42545000D01*
X83388687Y-42711823D01*
X83340024Y-42872242D01*
X83299477Y-42948100D01*
X83261004Y-43020078D01*
X83154659Y-43149659D01*
X83025078Y-43256004D01*
X83025076Y-43256005D01*
X82877242Y-43335024D01*
X82716823Y-43383687D01*
X82591804Y-43396000D01*
X82508196Y-43396000D01*
X82383177Y-43383687D01*
X82222758Y-43335024D01*
X82074924Y-43256005D01*
X82074922Y-43256004D01*
X81945341Y-43149659D01*
X81838996Y-43020078D01*
X81800523Y-42948100D01*
X81759976Y-42872242D01*
X81711313Y-42711823D01*
X81694883Y-42545000D01*
X81711313Y-42378177D01*
X81759976Y-42217758D01*
X81838995Y-42069924D01*
X81838996Y-42069922D01*
X81945341Y-41940341D01*
X82074922Y-41833996D01*
X82155639Y-41790852D01*
X82222758Y-41754976D01*
X82383177Y-41706313D01*
X82508196Y-41694000D01*
X82591804Y-41694000D01*
X82716823Y-41706313D01*
X82716823Y-41706313D01*
G37*
G36*
X87243228Y-41726703D02*
G01*
X87398100Y-41790853D01*
X87537481Y-41883985D01*
X87656015Y-42002519D01*
X87749147Y-42141900D01*
X87813297Y-42296772D01*
X87846000Y-42461184D01*
X87846000Y-42628816D01*
X87813297Y-42793228D01*
X87749147Y-42948100D01*
X87656015Y-43087481D01*
X87537481Y-43206015D01*
X87398100Y-43299147D01*
X87243228Y-43363297D01*
X87078816Y-43396000D01*
X86911184Y-43396000D01*
X86746772Y-43363297D01*
X86591900Y-43299147D01*
X86452519Y-43206015D01*
X86333985Y-43087481D01*
X86240853Y-42948100D01*
X86176703Y-42793228D01*
X86144000Y-42628816D01*
X86144000Y-42461184D01*
X86176703Y-42296772D01*
X86240853Y-42141900D01*
X86333985Y-42002519D01*
X86452519Y-41883985D01*
X86591900Y-41790853D01*
X86746772Y-41726703D01*
X86911184Y-41694000D01*
X87078816Y-41694000D01*
X87243228Y-41726703D01*
X87243228Y-41726703D01*
G37*
G36*
X75178228Y-41726703D02*
G01*
X75333100Y-41790853D01*
X75472481Y-41883985D01*
X75591015Y-42002519D01*
X75684147Y-42141900D01*
X75748297Y-42296772D01*
X75781000Y-42461184D01*
X75781000Y-42628816D01*
X75748297Y-42793228D01*
X75684147Y-42948100D01*
X75591015Y-43087481D01*
X75472481Y-43206015D01*
X75333100Y-43299147D01*
X75178228Y-43363297D01*
X75013816Y-43396000D01*
X74846184Y-43396000D01*
X74681772Y-43363297D01*
X74526900Y-43299147D01*
X74387519Y-43206015D01*
X74268985Y-43087481D01*
X74175853Y-42948100D01*
X74111703Y-42793228D01*
X74079000Y-42628816D01*
X74079000Y-42461184D01*
X74111703Y-42296772D01*
X74175853Y-42141900D01*
X74268985Y-42002519D01*
X74387519Y-41883985D01*
X74526900Y-41790853D01*
X74681772Y-41726703D01*
X74846184Y-41694000D01*
X75013816Y-41694000D01*
X75178228Y-41726703D01*
X75178228Y-41726703D01*
G37*
G36*
X82798228Y-26486703D02*
G01*
X82953100Y-26550853D01*
X83092481Y-26643985D01*
X83211015Y-26762519D01*
X83304147Y-26901900D01*
X83368297Y-27056772D01*
X83401000Y-27221184D01*
X83401000Y-27388816D01*
X83368297Y-27553228D01*
X83304147Y-27708100D01*
X83211015Y-27847481D01*
X83092481Y-27966015D01*
X82953100Y-28059147D01*
X82798228Y-28123297D01*
X82633816Y-28156000D01*
X82466184Y-28156000D01*
X82301772Y-28123297D01*
X82146900Y-28059147D01*
X82007519Y-27966015D01*
X81888985Y-27847481D01*
X81795853Y-27708100D01*
X81731703Y-27553228D01*
X81699000Y-27388816D01*
X81699000Y-27221184D01*
X81731703Y-27056772D01*
X81795853Y-26901900D01*
X81888985Y-26762519D01*
X82007519Y-26643985D01*
X82146900Y-26550853D01*
X82301772Y-26486703D01*
X82466184Y-26454000D01*
X82633816Y-26454000D01*
X82798228Y-26486703D01*
X82798228Y-26486703D01*
G37*
G36*
X75096823Y-26466313D02*
G01*
X75257242Y-26514976D01*
X75324361Y-26550852D01*
X75405078Y-26593996D01*
X75534659Y-26700341D01*
X75641004Y-26829922D01*
X75641005Y-26829924D01*
X75720024Y-26977758D01*
X75768687Y-27138177D01*
X75785117Y-27305000D01*
X75768687Y-27471823D01*
X75720024Y-27632242D01*
X75679477Y-27708100D01*
X75641004Y-27780078D01*
X75534659Y-27909659D01*
X75405078Y-28016004D01*
X75405076Y-28016005D01*
X75257242Y-28095024D01*
X75096823Y-28143687D01*
X74971804Y-28156000D01*
X74888196Y-28156000D01*
X74763177Y-28143687D01*
X74602758Y-28095024D01*
X74454924Y-28016005D01*
X74454922Y-28016004D01*
X74325341Y-27909659D01*
X74218996Y-27780078D01*
X74180523Y-27708100D01*
X74139976Y-27632242D01*
X74091313Y-27471823D01*
X74074883Y-27305000D01*
X74091313Y-27138177D01*
X74139976Y-26977758D01*
X74218995Y-26829924D01*
X74218996Y-26829922D01*
X74325341Y-26700341D01*
X74454922Y-26593996D01*
X74535639Y-26550852D01*
X74602758Y-26514976D01*
X74763177Y-26466313D01*
X74888196Y-26454000D01*
X74971804Y-26454000D01*
X75096823Y-26466313D01*
X75096823Y-26466313D01*
G37*
G36*
X70733228Y-26486703D02*
G01*
X70888100Y-26550853D01*
X71027481Y-26643985D01*
X71146015Y-26762519D01*
X71239147Y-26901900D01*
X71303297Y-27056772D01*
X71336000Y-27221184D01*
X71336000Y-27388816D01*
X71303297Y-27553228D01*
X71239147Y-27708100D01*
X71146015Y-27847481D01*
X71027481Y-27966015D01*
X70888100Y-28059147D01*
X70733228Y-28123297D01*
X70568816Y-28156000D01*
X70401184Y-28156000D01*
X70236772Y-28123297D01*
X70081900Y-28059147D01*
X69942519Y-27966015D01*
X69823985Y-27847481D01*
X69730853Y-27708100D01*
X69666703Y-27553228D01*
X69634000Y-27388816D01*
X69634000Y-27221184D01*
X69666703Y-27056772D01*
X69730853Y-26901900D01*
X69823985Y-26762519D01*
X69942519Y-26643985D01*
X70081900Y-26550853D01*
X70236772Y-26486703D01*
X70401184Y-26454000D01*
X70568816Y-26454000D01*
X70733228Y-26486703D01*
X70733228Y-26486703D01*
G37*
G36*
X87161823Y-26466313D02*
G01*
X87322242Y-26514976D01*
X87389361Y-26550852D01*
X87470078Y-26593996D01*
X87599659Y-26700341D01*
X87706004Y-26829922D01*
X87706005Y-26829924D01*
X87785024Y-26977758D01*
X87833687Y-27138177D01*
X87850117Y-27305000D01*
X87833687Y-27471823D01*
X87785024Y-27632242D01*
X87744477Y-27708100D01*
X87706004Y-27780078D01*
X87599659Y-27909659D01*
X87470078Y-28016004D01*
X87470076Y-28016005D01*
X87322242Y-28095024D01*
X87161823Y-28143687D01*
X87036804Y-28156000D01*
X86953196Y-28156000D01*
X86828177Y-28143687D01*
X86667758Y-28095024D01*
X86519924Y-28016005D01*
X86519922Y-28016004D01*
X86390341Y-27909659D01*
X86283996Y-27780078D01*
X86245523Y-27708100D01*
X86204976Y-27632242D01*
X86156313Y-27471823D01*
X86139883Y-27305000D01*
X86156313Y-27138177D01*
X86204976Y-26977758D01*
X86283995Y-26829924D01*
X86283996Y-26829922D01*
X86390341Y-26700341D01*
X86519922Y-26593996D01*
X86600639Y-26550852D01*
X86667758Y-26514976D01*
X86828177Y-26466313D01*
X86953196Y-26454000D01*
X87036804Y-26454000D01*
X87161823Y-26466313D01*
X87161823Y-26466313D01*
G37*
M02*
