G04 #@! TF.GenerationSoftware,KiCad,Pcbnew,5.1.4+dfsg1-1*
G04 #@! TF.CreationDate,2020-02-14T18:49:56+01:00*
G04 #@! TF.ProjectId,1_solar_bank,315f736f-6c61-4725-9f62-616e6b2e6b69,rev?*
G04 #@! TF.SameCoordinates,Original*
G04 #@! TF.FileFunction,Paste,Top*
G04 #@! TF.FilePolarity,Positive*
%FSLAX46Y46*%
G04 Gerber Fmt 4.6, Leading zero omitted, Abs format (unit mm)*
G04 Created by KiCad (PCBNEW 5.1.4+dfsg1-1) date 2020-02-14 18:49:56*
%MOMM*%
%LPD*%
G04 APERTURE LIST*
%ADD10C,0.100000*%
%ADD11R,0.730000X1.210000*%
%ADD12R,0.600000X1.300000*%
%ADD13R,1.000000X1.500000*%
%ADD14R,3.810000X1.930400*%
G04 APERTURE END LIST*
D10*
G36*
X109190000Y-94595000D02*
G01*
X135770000Y-94595000D01*
X129670000Y-100665000D01*
X128281430Y-101228703D01*
X126876589Y-101750539D01*
X125456741Y-102230039D01*
X124023160Y-102666771D01*
X122577135Y-103060344D01*
X121119964Y-103410404D01*
X119652957Y-103716637D01*
X118177431Y-103978766D01*
X116694712Y-104196558D01*
X115206132Y-104369816D01*
X113713028Y-104498385D01*
X112216741Y-104582148D01*
X109220000Y-104615000D01*
X109190000Y-94595000D01*
G37*
G36*
X135920000Y-93365000D02*
G01*
X109340000Y-93365000D01*
X115440000Y-87295000D01*
X116828570Y-86731297D01*
X118233411Y-86209461D01*
X119653259Y-85729961D01*
X121086840Y-85293229D01*
X122532865Y-84899656D01*
X123990036Y-84549596D01*
X125457043Y-84243363D01*
X126932569Y-83981234D01*
X128415288Y-83763442D01*
X129903868Y-83590184D01*
X131396972Y-83461615D01*
X132893259Y-83377852D01*
X135890000Y-83345000D01*
X135920000Y-93365000D01*
G37*
G36*
X109190000Y-75545000D02*
G01*
X135770000Y-75545000D01*
X129670000Y-81615000D01*
X128281430Y-82178703D01*
X126876589Y-82700539D01*
X125456741Y-83180039D01*
X124023160Y-83616771D01*
X122577135Y-84010344D01*
X121119964Y-84360404D01*
X119652957Y-84666637D01*
X118177431Y-84928766D01*
X116694712Y-85146558D01*
X115206132Y-85319816D01*
X113713028Y-85448385D01*
X112216741Y-85532148D01*
X109220000Y-85565000D01*
X109190000Y-75545000D01*
G37*
G36*
X135920000Y-74315000D02*
G01*
X109340000Y-74315000D01*
X115440000Y-68245000D01*
X116828570Y-67681297D01*
X118233411Y-67159461D01*
X119653259Y-66679961D01*
X121086840Y-66243229D01*
X122532865Y-65849656D01*
X123990036Y-65499596D01*
X125457043Y-65193363D01*
X126932569Y-64931234D01*
X128415288Y-64713442D01*
X129903868Y-64540184D01*
X131396972Y-64411615D01*
X132893259Y-64327852D01*
X135890000Y-64295000D01*
X135920000Y-74315000D01*
G37*
G36*
X109190000Y-56495000D02*
G01*
X135770000Y-56495000D01*
X129670000Y-62565000D01*
X128281430Y-63128703D01*
X126876589Y-63650539D01*
X125456741Y-64130039D01*
X124023160Y-64566771D01*
X122577135Y-64960344D01*
X121119964Y-65310404D01*
X119652957Y-65616637D01*
X118177431Y-65878766D01*
X116694712Y-66096558D01*
X115206132Y-66269816D01*
X113713028Y-66398385D01*
X112216741Y-66482148D01*
X109220000Y-66515000D01*
X109190000Y-56495000D01*
G37*
G36*
X135920000Y-55265000D02*
G01*
X109340000Y-55265000D01*
X115440000Y-49195000D01*
X116828570Y-48631297D01*
X118233411Y-48109461D01*
X119653259Y-47629961D01*
X121086840Y-47193229D01*
X122532865Y-46799656D01*
X123990036Y-46449596D01*
X125457043Y-46143363D01*
X126932569Y-45881234D01*
X128415288Y-45663442D01*
X129903868Y-45490184D01*
X131396972Y-45361615D01*
X132893259Y-45277852D01*
X135890000Y-45245000D01*
X135920000Y-55265000D01*
G37*
G36*
X109190000Y-37445000D02*
G01*
X135770000Y-37445000D01*
X129670000Y-43515000D01*
X128281430Y-44078703D01*
X126876589Y-44600539D01*
X125456741Y-45080039D01*
X124023160Y-45516771D01*
X122577135Y-45910344D01*
X121119964Y-46260404D01*
X119652957Y-46566637D01*
X118177431Y-46828766D01*
X116694712Y-47046558D01*
X115206132Y-47219816D01*
X113713028Y-47348385D01*
X112216741Y-47432148D01*
X109220000Y-47465000D01*
X109190000Y-37445000D01*
G37*
G36*
X135920000Y-36215000D02*
G01*
X109340000Y-36215000D01*
X115440000Y-30145000D01*
X116828570Y-29581297D01*
X118233411Y-29059461D01*
X119653259Y-28579961D01*
X121086840Y-28143229D01*
X122532865Y-27749656D01*
X123990036Y-27399596D01*
X125457043Y-27093363D01*
X126932569Y-26831234D01*
X128415288Y-26613442D01*
X129903868Y-26440184D01*
X131396972Y-26311615D01*
X132893259Y-26227852D01*
X135890000Y-26195000D01*
X135920000Y-36215000D01*
G37*
D11*
X104140000Y-67466000D03*
X104140000Y-64106000D03*
D12*
X74930000Y-49945000D03*
X73980000Y-47845000D03*
X75880000Y-47845000D03*
X70800000Y-47845000D03*
X68900000Y-47845000D03*
X69850000Y-49945000D03*
X86995000Y-49945000D03*
X86045000Y-47845000D03*
X87945000Y-47845000D03*
X82865000Y-47845000D03*
X80965000Y-47845000D03*
X81915000Y-49945000D03*
D11*
X104140000Y-92300000D03*
X104140000Y-95660000D03*
D13*
X108120000Y-98115000D03*
D14*
X111220000Y-99615000D03*
X133890000Y-88345000D03*
D13*
X136990000Y-89845000D03*
D14*
X111220000Y-80565000D03*
D13*
X108120000Y-79065000D03*
X136990000Y-70795000D03*
D14*
X133890000Y-69295000D03*
X111220000Y-61515000D03*
D13*
X108120000Y-60015000D03*
X136990000Y-51745000D03*
D14*
X133890000Y-50245000D03*
X111220000Y-42465000D03*
D13*
X108120000Y-40965000D03*
X136990000Y-32695000D03*
D14*
X133890000Y-31195000D03*
M02*
