%FSLAX45Y45*%
G04 Gerber Fmt 4.5, Leading zero omitted, Abs format (unit mm)*
G04 Created by KiCad (PCBNEW 5.1.4+dfsg1-1) date 2020-02-14 18:07:55*
%MOMM*%
%LPD*%
G04 APERTURE LIST*
%ADD10C,0.100000*%
%ADD11C,0.200000*%
%ADD12C,0.300000*%
G04 APERTURE END LIST*
D10*
X6096000Y-11811000D02*
X6096000Y-2032000D01*
X14224000Y-11811000D02*
X6096000Y-11811000D01*
X14224000Y-2032000D02*
X14224000Y-11811000D01*
X6096000Y-2032000D02*
X14224000Y-2032000D01*
D11*
X10130000Y-11400000D02*
X10190000Y-11460000D01*
X10190000Y-11400000D02*
X10130000Y-11460000D01*
X6639000Y-9842500D02*
G75*
G03X6639000Y-9842500I-35000J0D01*
G01*
X6639000Y-10096500D02*
G75*
G03X6639000Y-10096500I-35000J0D01*
G01*
X8226500Y-5588000D02*
G75*
G03X8226500Y-5588000I-35000J0D01*
G01*
X8226500Y-5842000D02*
G75*
G03X8226500Y-5842000I-35000J0D01*
G01*
X7020000Y-5588000D02*
G75*
G03X7020000Y-5588000I-35000J0D01*
G01*
X7020000Y-5842000D02*
G75*
G03X7020000Y-5842000I-35000J0D01*
G01*
X8734500Y-5588000D02*
G75*
G03X8734500Y-5588000I-35000J0D01*
G01*
X8734500Y-5842000D02*
G75*
G03X8734500Y-5842000I-35000J0D01*
G01*
X7528000Y-5588000D02*
G75*
G03X7528000Y-5588000I-35000J0D01*
G01*
X7528000Y-5842000D02*
G75*
G03X7528000Y-5842000I-35000J0D01*
G01*
X6985000Y-7770500D02*
X6985000Y-7850500D01*
X6945000Y-7810500D02*
X7025000Y-7810500D01*
X8509000Y-7770500D02*
X8509000Y-7850500D01*
X8469000Y-7810500D02*
X8549000Y-7810500D01*
X6985000Y-8342000D02*
X6985000Y-8422000D01*
X6945000Y-8382000D02*
X7025000Y-8382000D01*
X8509000Y-8342000D02*
X8509000Y-8422000D01*
X8469000Y-8382000D02*
X8549000Y-8382000D01*
X6985000Y-7072000D02*
X6985000Y-7152000D01*
X6945000Y-7112000D02*
X7025000Y-7112000D01*
X8509000Y-7072000D02*
X8509000Y-7152000D01*
X8469000Y-7112000D02*
X8549000Y-7112000D01*
X6985000Y-10247000D02*
X6985000Y-10327000D01*
X6945000Y-10287000D02*
X7025000Y-10287000D01*
X8509000Y-10247000D02*
X8509000Y-10327000D01*
X8469000Y-10287000D02*
X8549000Y-10287000D01*
X7493000Y-2690500D02*
X7493000Y-2770500D01*
X7453000Y-2730500D02*
X7533000Y-2730500D01*
X7493000Y-4214500D02*
X7493000Y-4294500D01*
X7453000Y-4254500D02*
X7533000Y-4254500D01*
X8255000Y-2690500D02*
X8255000Y-2770500D01*
X8215000Y-2730500D02*
X8295000Y-2730500D01*
X8255000Y-4214500D02*
X8255000Y-4294500D01*
X8215000Y-4254500D02*
X8295000Y-4254500D01*
X8699500Y-2690500D02*
X8699500Y-2770500D01*
X8659500Y-2730500D02*
X8739500Y-2730500D01*
X8699500Y-4214500D02*
X8699500Y-4294500D01*
X8659500Y-4254500D02*
X8739500Y-4254500D01*
X7048500Y-2690500D02*
X7048500Y-2770500D01*
X7008500Y-2730500D02*
X7088500Y-2730500D01*
X7048500Y-4214500D02*
X7048500Y-4294500D01*
X7008500Y-4254500D02*
X7088500Y-4254500D01*
X6985000Y-8850000D02*
X6985000Y-8930000D01*
X6945000Y-8890000D02*
X7025000Y-8890000D01*
X8509000Y-8850000D02*
X8509000Y-8930000D01*
X8469000Y-8890000D02*
X8549000Y-8890000D01*
X6985000Y-9548500D02*
X6985000Y-9628500D01*
X6945000Y-9588500D02*
X7025000Y-9588500D01*
X8509000Y-9548500D02*
X8509000Y-9628500D01*
X8469000Y-9588500D02*
X8549000Y-9588500D01*
X6690156Y-6080556D02*
X6690156Y-6009844D01*
X6619444Y-6009844D01*
X6619444Y-6080556D01*
X6690156Y-6080556D01*
X7858556Y-3921556D02*
X7858556Y-3850844D01*
X7787844Y-3850844D01*
X7787844Y-3921556D01*
X7858556Y-3921556D01*
X7883956Y-5724956D02*
X7883956Y-5654244D01*
X7813244Y-5654244D01*
X7813244Y-5724956D01*
X7883956Y-5724956D01*
X9052356Y-9026956D02*
X9052356Y-8956244D01*
X8981644Y-8956244D01*
X8981644Y-9026956D01*
X9052356Y-9026956D01*
X9331756Y-8214156D02*
X9331756Y-8143444D01*
X9261044Y-8143444D01*
X9261044Y-8214156D01*
X9331756Y-8214156D01*
X9788956Y-3997756D02*
X9788956Y-3927044D01*
X9718244Y-3927044D01*
X9718244Y-3997756D01*
X9788956Y-3997756D01*
X10119156Y-6461556D02*
X10119156Y-6390844D01*
X10048444Y-6390844D01*
X10048444Y-6461556D01*
X10119156Y-6461556D01*
X10601756Y-5597956D02*
X10601756Y-5527244D01*
X10531044Y-5527244D01*
X10531044Y-5597956D01*
X10601756Y-5597956D01*
X10881156Y-7121956D02*
X10881156Y-7051244D01*
X10810444Y-7051244D01*
X10810444Y-7121956D01*
X10881156Y-7121956D01*
X8163356Y-11465356D02*
X8163356Y-11394644D01*
X8092644Y-11394644D01*
X8092644Y-11465356D01*
X8163356Y-11465356D01*
X8417356Y-11465356D02*
X8417356Y-11394644D01*
X8346644Y-11394644D01*
X8346644Y-11465356D01*
X8417356Y-11465356D01*
X8671356Y-11465356D02*
X8671356Y-11394644D01*
X8600644Y-11394644D01*
X8600644Y-11465356D01*
X8671356Y-11465356D01*
X8925356Y-11465356D02*
X8925356Y-11394644D01*
X8854644Y-11394644D01*
X8854644Y-11465356D01*
X8925356Y-11465356D01*
X9179356Y-11465356D02*
X9179356Y-11394644D01*
X9108644Y-11394644D01*
X9108644Y-11465356D01*
X9179356Y-11465356D01*
X9433356Y-11465356D02*
X9433356Y-11394644D01*
X9362644Y-11394644D01*
X9362644Y-11465356D01*
X9433356Y-11465356D01*
X9687356Y-11465356D02*
X9687356Y-11394644D01*
X9616644Y-11394644D01*
X9616644Y-11465356D01*
X9687356Y-11465356D01*
X9941356Y-11465356D02*
X9941356Y-11394644D01*
X9870644Y-11394644D01*
X9870644Y-11465356D01*
X9941356Y-11465356D01*
X10195356Y-11465356D02*
X10195356Y-11394644D01*
X10124644Y-11394644D01*
X10124644Y-11465356D01*
X10195356Y-11465356D01*
D12*
X6377428Y-12281714D02*
X6377428Y-11981714D01*
X6448857Y-11981714D01*
X6491714Y-11996000D01*
X6520286Y-12024571D01*
X6534571Y-12053143D01*
X6548857Y-12110286D01*
X6548857Y-12153143D01*
X6534571Y-12210286D01*
X6520286Y-12238857D01*
X6491714Y-12267429D01*
X6448857Y-12281714D01*
X6377428Y-12281714D01*
X6677428Y-12281714D02*
X6677428Y-12081714D01*
X6677428Y-12138857D02*
X6691714Y-12110286D01*
X6706000Y-12096000D01*
X6734571Y-12081714D01*
X6763143Y-12081714D01*
X6863143Y-12281714D02*
X6863143Y-12081714D01*
X6863143Y-11981714D02*
X6848857Y-11996000D01*
X6863143Y-12010286D01*
X6877428Y-11996000D01*
X6863143Y-11981714D01*
X6863143Y-12010286D01*
X7048857Y-12281714D02*
X7020286Y-12267429D01*
X7006000Y-12238857D01*
X7006000Y-11981714D01*
X7206000Y-12281714D02*
X7177428Y-12267429D01*
X7163143Y-12238857D01*
X7163143Y-11981714D01*
X7548857Y-12281714D02*
X7548857Y-11981714D01*
X7648857Y-12196000D01*
X7748857Y-11981714D01*
X7748857Y-12281714D01*
X8020286Y-12281714D02*
X8020286Y-12124571D01*
X8006000Y-12096000D01*
X7977428Y-12081714D01*
X7920286Y-12081714D01*
X7891714Y-12096000D01*
X8020286Y-12267429D02*
X7991714Y-12281714D01*
X7920286Y-12281714D01*
X7891714Y-12267429D01*
X7877428Y-12238857D01*
X7877428Y-12210286D01*
X7891714Y-12181714D01*
X7920286Y-12167429D01*
X7991714Y-12167429D01*
X8020286Y-12153143D01*
X8163143Y-12081714D02*
X8163143Y-12381714D01*
X8163143Y-12096000D02*
X8191714Y-12081714D01*
X8248857Y-12081714D01*
X8277428Y-12096000D01*
X8291714Y-12110286D01*
X8306000Y-12138857D01*
X8306000Y-12224571D01*
X8291714Y-12253143D01*
X8277428Y-12267429D01*
X8248857Y-12281714D01*
X8191714Y-12281714D01*
X8163143Y-12267429D01*
X8434571Y-12253143D02*
X8448857Y-12267429D01*
X8434571Y-12281714D01*
X8420286Y-12267429D01*
X8434571Y-12253143D01*
X8434571Y-12281714D01*
X8434571Y-12096000D02*
X8448857Y-12110286D01*
X8434571Y-12124571D01*
X8420286Y-12110286D01*
X8434571Y-12096000D01*
X8434571Y-12124571D01*
X6031000Y-12746000D02*
X6091000Y-12806000D01*
X6091000Y-12746000D02*
X6031000Y-12806000D01*
X6434571Y-12611714D02*
X6463143Y-12611714D01*
X6491714Y-12626000D01*
X6506000Y-12640286D01*
X6520286Y-12668857D01*
X6534571Y-12726000D01*
X6534571Y-12797429D01*
X6520286Y-12854571D01*
X6506000Y-12883143D01*
X6491714Y-12897429D01*
X6463143Y-12911714D01*
X6434571Y-12911714D01*
X6406000Y-12897429D01*
X6391714Y-12883143D01*
X6377428Y-12854571D01*
X6363143Y-12797429D01*
X6363143Y-12726000D01*
X6377428Y-12668857D01*
X6391714Y-12640286D01*
X6406000Y-12626000D01*
X6434571Y-12611714D01*
X6663143Y-12883143D02*
X6677428Y-12897429D01*
X6663143Y-12911714D01*
X6648857Y-12897429D01*
X6663143Y-12883143D01*
X6663143Y-12911714D01*
X6934571Y-12611714D02*
X6877428Y-12611714D01*
X6848857Y-12626000D01*
X6834571Y-12640286D01*
X6806000Y-12683143D01*
X6791714Y-12740286D01*
X6791714Y-12854571D01*
X6806000Y-12883143D01*
X6820286Y-12897429D01*
X6848857Y-12911714D01*
X6906000Y-12911714D01*
X6934571Y-12897429D01*
X6948857Y-12883143D01*
X6963143Y-12854571D01*
X6963143Y-12783143D01*
X6948857Y-12754571D01*
X6934571Y-12740286D01*
X6906000Y-12726000D01*
X6848857Y-12726000D01*
X6820286Y-12740286D01*
X6806000Y-12754571D01*
X6791714Y-12783143D01*
X7148857Y-12611714D02*
X7177428Y-12611714D01*
X7206000Y-12626000D01*
X7220286Y-12640286D01*
X7234571Y-12668857D01*
X7248857Y-12726000D01*
X7248857Y-12797429D01*
X7234571Y-12854571D01*
X7220286Y-12883143D01*
X7206000Y-12897429D01*
X7177428Y-12911714D01*
X7148857Y-12911714D01*
X7120286Y-12897429D01*
X7106000Y-12883143D01*
X7091714Y-12854571D01*
X7077428Y-12797429D01*
X7077428Y-12726000D01*
X7091714Y-12668857D01*
X7106000Y-12640286D01*
X7120286Y-12626000D01*
X7148857Y-12611714D01*
X7377428Y-12911714D02*
X7377428Y-12711714D01*
X7377428Y-12740286D02*
X7391714Y-12726000D01*
X7420286Y-12711714D01*
X7463143Y-12711714D01*
X7491714Y-12726000D01*
X7506000Y-12754571D01*
X7506000Y-12911714D01*
X7506000Y-12754571D02*
X7520286Y-12726000D01*
X7548857Y-12711714D01*
X7591714Y-12711714D01*
X7620286Y-12726000D01*
X7634571Y-12754571D01*
X7634571Y-12911714D01*
X7777428Y-12911714D02*
X7777428Y-12711714D01*
X7777428Y-12740286D02*
X7791714Y-12726000D01*
X7820286Y-12711714D01*
X7863143Y-12711714D01*
X7891714Y-12726000D01*
X7906000Y-12754571D01*
X7906000Y-12911714D01*
X7906000Y-12754571D02*
X7920286Y-12726000D01*
X7948857Y-12711714D01*
X7991714Y-12711714D01*
X8020286Y-12726000D01*
X8034571Y-12754571D01*
X8034571Y-12911714D01*
X8620286Y-12597429D02*
X8363143Y-12983143D01*
X9006000Y-12611714D02*
X9034571Y-12611714D01*
X9063143Y-12626000D01*
X9077428Y-12640286D01*
X9091714Y-12668857D01*
X9106000Y-12726000D01*
X9106000Y-12797429D01*
X9091714Y-12854571D01*
X9077428Y-12883143D01*
X9063143Y-12897429D01*
X9034571Y-12911714D01*
X9006000Y-12911714D01*
X8977428Y-12897429D01*
X8963143Y-12883143D01*
X8948857Y-12854571D01*
X8934571Y-12797429D01*
X8934571Y-12726000D01*
X8948857Y-12668857D01*
X8963143Y-12640286D01*
X8977428Y-12626000D01*
X9006000Y-12611714D01*
X9234571Y-12883143D02*
X9248857Y-12897429D01*
X9234571Y-12911714D01*
X9220286Y-12897429D01*
X9234571Y-12883143D01*
X9234571Y-12911714D01*
X9434571Y-12611714D02*
X9463143Y-12611714D01*
X9491714Y-12626000D01*
X9506000Y-12640286D01*
X9520286Y-12668857D01*
X9534571Y-12726000D01*
X9534571Y-12797429D01*
X9520286Y-12854571D01*
X9506000Y-12883143D01*
X9491714Y-12897429D01*
X9463143Y-12911714D01*
X9434571Y-12911714D01*
X9406000Y-12897429D01*
X9391714Y-12883143D01*
X9377428Y-12854571D01*
X9363143Y-12797429D01*
X9363143Y-12726000D01*
X9377428Y-12668857D01*
X9391714Y-12640286D01*
X9406000Y-12626000D01*
X9434571Y-12611714D01*
X9648857Y-12640286D02*
X9663143Y-12626000D01*
X9691714Y-12611714D01*
X9763143Y-12611714D01*
X9791714Y-12626000D01*
X9806000Y-12640286D01*
X9820286Y-12668857D01*
X9820286Y-12697429D01*
X9806000Y-12740286D01*
X9634571Y-12911714D01*
X9820286Y-12911714D01*
X10077428Y-12711714D02*
X10077428Y-12911714D01*
X10006000Y-12597429D02*
X9934571Y-12811714D01*
X10120286Y-12811714D01*
X10220286Y-12611714D02*
X10220286Y-12668857D01*
X10334571Y-12611714D02*
X10334571Y-12668857D01*
X10777428Y-13026000D02*
X10763143Y-13011714D01*
X10734571Y-12968857D01*
X10720286Y-12940286D01*
X10706000Y-12897429D01*
X10691714Y-12826000D01*
X10691714Y-12768857D01*
X10706000Y-12697429D01*
X10720286Y-12654571D01*
X10734571Y-12626000D01*
X10763143Y-12583143D01*
X10777428Y-12568857D01*
X11048857Y-12911714D02*
X10877428Y-12911714D01*
X10963143Y-12911714D02*
X10963143Y-12611714D01*
X10934571Y-12654571D01*
X10906000Y-12683143D01*
X10877428Y-12697429D01*
X11406000Y-12911714D02*
X11406000Y-12611714D01*
X11534571Y-12911714D02*
X11534571Y-12754571D01*
X11520286Y-12726000D01*
X11491714Y-12711714D01*
X11448857Y-12711714D01*
X11420286Y-12726000D01*
X11406000Y-12740286D01*
X11720286Y-12911714D02*
X11691714Y-12897429D01*
X11677428Y-12883143D01*
X11663143Y-12854571D01*
X11663143Y-12768857D01*
X11677428Y-12740286D01*
X11691714Y-12726000D01*
X11720286Y-12711714D01*
X11763143Y-12711714D01*
X11791714Y-12726000D01*
X11806000Y-12740286D01*
X11820286Y-12768857D01*
X11820286Y-12854571D01*
X11806000Y-12883143D01*
X11791714Y-12897429D01*
X11763143Y-12911714D01*
X11720286Y-12911714D01*
X11991714Y-12911714D02*
X11963143Y-12897429D01*
X11948857Y-12868857D01*
X11948857Y-12611714D01*
X12220286Y-12897429D02*
X12191714Y-12911714D01*
X12134571Y-12911714D01*
X12106000Y-12897429D01*
X12091714Y-12868857D01*
X12091714Y-12754571D01*
X12106000Y-12726000D01*
X12134571Y-12711714D01*
X12191714Y-12711714D01*
X12220286Y-12726000D01*
X12234571Y-12754571D01*
X12234571Y-12783143D01*
X12091714Y-12811714D01*
X12334571Y-13026000D02*
X12348857Y-13011714D01*
X12377428Y-12968857D01*
X12391714Y-12940286D01*
X12406000Y-12897429D01*
X12420286Y-12826000D01*
X12420286Y-12768857D01*
X12406000Y-12697429D01*
X12391714Y-12654571D01*
X12377428Y-12626000D01*
X12348857Y-12583143D01*
X12334571Y-12568857D01*
X6091000Y-13172000D02*
G75*
G03X6091000Y-13172000I-35000J0D01*
G01*
X6434571Y-13007714D02*
X6463143Y-13007714D01*
X6491714Y-13022000D01*
X6506000Y-13036286D01*
X6520286Y-13064857D01*
X6534571Y-13122000D01*
X6534571Y-13193429D01*
X6520286Y-13250571D01*
X6506000Y-13279143D01*
X6491714Y-13293429D01*
X6463143Y-13307714D01*
X6434571Y-13307714D01*
X6406000Y-13293429D01*
X6391714Y-13279143D01*
X6377428Y-13250571D01*
X6363143Y-13193429D01*
X6363143Y-13122000D01*
X6377428Y-13064857D01*
X6391714Y-13036286D01*
X6406000Y-13022000D01*
X6434571Y-13007714D01*
X6663143Y-13279143D02*
X6677428Y-13293429D01*
X6663143Y-13307714D01*
X6648857Y-13293429D01*
X6663143Y-13279143D01*
X6663143Y-13307714D01*
X6777428Y-13007714D02*
X6977428Y-13007714D01*
X6848857Y-13307714D01*
X7148857Y-13007714D02*
X7177428Y-13007714D01*
X7206000Y-13022000D01*
X7220286Y-13036286D01*
X7234571Y-13064857D01*
X7248857Y-13122000D01*
X7248857Y-13193429D01*
X7234571Y-13250571D01*
X7220286Y-13279143D01*
X7206000Y-13293429D01*
X7177428Y-13307714D01*
X7148857Y-13307714D01*
X7120286Y-13293429D01*
X7106000Y-13279143D01*
X7091714Y-13250571D01*
X7077428Y-13193429D01*
X7077428Y-13122000D01*
X7091714Y-13064857D01*
X7106000Y-13036286D01*
X7120286Y-13022000D01*
X7148857Y-13007714D01*
X7377428Y-13307714D02*
X7377428Y-13107714D01*
X7377428Y-13136286D02*
X7391714Y-13122000D01*
X7420286Y-13107714D01*
X7463143Y-13107714D01*
X7491714Y-13122000D01*
X7506000Y-13150571D01*
X7506000Y-13307714D01*
X7506000Y-13150571D02*
X7520286Y-13122000D01*
X7548857Y-13107714D01*
X7591714Y-13107714D01*
X7620286Y-13122000D01*
X7634571Y-13150571D01*
X7634571Y-13307714D01*
X7777428Y-13307714D02*
X7777428Y-13107714D01*
X7777428Y-13136286D02*
X7791714Y-13122000D01*
X7820286Y-13107714D01*
X7863143Y-13107714D01*
X7891714Y-13122000D01*
X7906000Y-13150571D01*
X7906000Y-13307714D01*
X7906000Y-13150571D02*
X7920286Y-13122000D01*
X7948857Y-13107714D01*
X7991714Y-13107714D01*
X8020286Y-13122000D01*
X8034571Y-13150571D01*
X8034571Y-13307714D01*
X8620286Y-12993429D02*
X8363143Y-13379143D01*
X9006000Y-13007714D02*
X9034571Y-13007714D01*
X9063143Y-13022000D01*
X9077428Y-13036286D01*
X9091714Y-13064857D01*
X9106000Y-13122000D01*
X9106000Y-13193429D01*
X9091714Y-13250571D01*
X9077428Y-13279143D01*
X9063143Y-13293429D01*
X9034571Y-13307714D01*
X9006000Y-13307714D01*
X8977428Y-13293429D01*
X8963143Y-13279143D01*
X8948857Y-13250571D01*
X8934571Y-13193429D01*
X8934571Y-13122000D01*
X8948857Y-13064857D01*
X8963143Y-13036286D01*
X8977428Y-13022000D01*
X9006000Y-13007714D01*
X9234571Y-13279143D02*
X9248857Y-13293429D01*
X9234571Y-13307714D01*
X9220286Y-13293429D01*
X9234571Y-13279143D01*
X9234571Y-13307714D01*
X9434571Y-13007714D02*
X9463143Y-13007714D01*
X9491714Y-13022000D01*
X9506000Y-13036286D01*
X9520286Y-13064857D01*
X9534571Y-13122000D01*
X9534571Y-13193429D01*
X9520286Y-13250571D01*
X9506000Y-13279143D01*
X9491714Y-13293429D01*
X9463143Y-13307714D01*
X9434571Y-13307714D01*
X9406000Y-13293429D01*
X9391714Y-13279143D01*
X9377428Y-13250571D01*
X9363143Y-13193429D01*
X9363143Y-13122000D01*
X9377428Y-13064857D01*
X9391714Y-13036286D01*
X9406000Y-13022000D01*
X9434571Y-13007714D01*
X9648857Y-13036286D02*
X9663143Y-13022000D01*
X9691714Y-13007714D01*
X9763143Y-13007714D01*
X9791714Y-13022000D01*
X9806000Y-13036286D01*
X9820286Y-13064857D01*
X9820286Y-13093429D01*
X9806000Y-13136286D01*
X9634571Y-13307714D01*
X9820286Y-13307714D01*
X9991714Y-13136286D02*
X9963143Y-13122000D01*
X9948857Y-13107714D01*
X9934571Y-13079143D01*
X9934571Y-13064857D01*
X9948857Y-13036286D01*
X9963143Y-13022000D01*
X9991714Y-13007714D01*
X10048857Y-13007714D01*
X10077428Y-13022000D01*
X10091714Y-13036286D01*
X10106000Y-13064857D01*
X10106000Y-13079143D01*
X10091714Y-13107714D01*
X10077428Y-13122000D01*
X10048857Y-13136286D01*
X9991714Y-13136286D01*
X9963143Y-13150571D01*
X9948857Y-13164857D01*
X9934571Y-13193429D01*
X9934571Y-13250571D01*
X9948857Y-13279143D01*
X9963143Y-13293429D01*
X9991714Y-13307714D01*
X10048857Y-13307714D01*
X10077428Y-13293429D01*
X10091714Y-13279143D01*
X10106000Y-13250571D01*
X10106000Y-13193429D01*
X10091714Y-13164857D01*
X10077428Y-13150571D01*
X10048857Y-13136286D01*
X10220286Y-13007714D02*
X10220286Y-13064857D01*
X10334571Y-13007714D02*
X10334571Y-13064857D01*
X10777428Y-13422000D02*
X10763143Y-13407714D01*
X10734571Y-13364857D01*
X10720286Y-13336286D01*
X10706000Y-13293429D01*
X10691714Y-13222000D01*
X10691714Y-13164857D01*
X10706000Y-13093429D01*
X10720286Y-13050571D01*
X10734571Y-13022000D01*
X10763143Y-12979143D01*
X10777428Y-12964857D01*
X11048857Y-13307714D02*
X10877428Y-13307714D01*
X10963143Y-13307714D02*
X10963143Y-13007714D01*
X10934571Y-13050571D01*
X10906000Y-13079143D01*
X10877428Y-13093429D01*
X11234571Y-13007714D02*
X11263143Y-13007714D01*
X11291714Y-13022000D01*
X11306000Y-13036286D01*
X11320286Y-13064857D01*
X11334571Y-13122000D01*
X11334571Y-13193429D01*
X11320286Y-13250571D01*
X11306000Y-13279143D01*
X11291714Y-13293429D01*
X11263143Y-13307714D01*
X11234571Y-13307714D01*
X11206000Y-13293429D01*
X11191714Y-13279143D01*
X11177428Y-13250571D01*
X11163143Y-13193429D01*
X11163143Y-13122000D01*
X11177428Y-13064857D01*
X11191714Y-13036286D01*
X11206000Y-13022000D01*
X11234571Y-13007714D01*
X11691714Y-13307714D02*
X11691714Y-13007714D01*
X11820286Y-13307714D02*
X11820286Y-13150571D01*
X11806000Y-13122000D01*
X11777428Y-13107714D01*
X11734571Y-13107714D01*
X11706000Y-13122000D01*
X11691714Y-13136286D01*
X12006000Y-13307714D02*
X11977428Y-13293429D01*
X11963143Y-13279143D01*
X11948857Y-13250571D01*
X11948857Y-13164857D01*
X11963143Y-13136286D01*
X11977428Y-13122000D01*
X12006000Y-13107714D01*
X12048857Y-13107714D01*
X12077428Y-13122000D01*
X12091714Y-13136286D01*
X12106000Y-13164857D01*
X12106000Y-13250571D01*
X12091714Y-13279143D01*
X12077428Y-13293429D01*
X12048857Y-13307714D01*
X12006000Y-13307714D01*
X12277428Y-13307714D02*
X12248857Y-13293429D01*
X12234571Y-13264857D01*
X12234571Y-13007714D01*
X12506000Y-13293429D02*
X12477428Y-13307714D01*
X12420286Y-13307714D01*
X12391714Y-13293429D01*
X12377428Y-13264857D01*
X12377428Y-13150571D01*
X12391714Y-13122000D01*
X12420286Y-13107714D01*
X12477428Y-13107714D01*
X12506000Y-13122000D01*
X12520286Y-13150571D01*
X12520286Y-13179143D01*
X12377428Y-13207714D01*
X12634571Y-13293429D02*
X12663143Y-13307714D01*
X12720286Y-13307714D01*
X12748857Y-13293429D01*
X12763143Y-13264857D01*
X12763143Y-13250571D01*
X12748857Y-13222000D01*
X12720286Y-13207714D01*
X12677428Y-13207714D01*
X12648857Y-13193429D01*
X12634571Y-13164857D01*
X12634571Y-13150571D01*
X12648857Y-13122000D01*
X12677428Y-13107714D01*
X12720286Y-13107714D01*
X12748857Y-13122000D01*
X12863143Y-13422000D02*
X12877428Y-13407714D01*
X12906000Y-13364857D01*
X12920286Y-13336286D01*
X12934571Y-13293429D01*
X12948857Y-13222000D01*
X12948857Y-13164857D01*
X12934571Y-13093429D01*
X12920286Y-13050571D01*
X12906000Y-13022000D01*
X12877428Y-12979143D01*
X12863143Y-12964857D01*
X6051000Y-13528000D02*
X6051000Y-13608000D01*
X6011000Y-13568000D02*
X6091000Y-13568000D01*
X6434571Y-13403714D02*
X6463143Y-13403714D01*
X6491714Y-13418000D01*
X6506000Y-13432286D01*
X6520286Y-13460857D01*
X6534571Y-13518000D01*
X6534571Y-13589429D01*
X6520286Y-13646571D01*
X6506000Y-13675143D01*
X6491714Y-13689429D01*
X6463143Y-13703714D01*
X6434571Y-13703714D01*
X6406000Y-13689429D01*
X6391714Y-13675143D01*
X6377428Y-13646571D01*
X6363143Y-13589429D01*
X6363143Y-13518000D01*
X6377428Y-13460857D01*
X6391714Y-13432286D01*
X6406000Y-13418000D01*
X6434571Y-13403714D01*
X6663143Y-13675143D02*
X6677428Y-13689429D01*
X6663143Y-13703714D01*
X6648857Y-13689429D01*
X6663143Y-13675143D01*
X6663143Y-13703714D01*
X6848857Y-13532286D02*
X6820286Y-13518000D01*
X6806000Y-13503714D01*
X6791714Y-13475143D01*
X6791714Y-13460857D01*
X6806000Y-13432286D01*
X6820286Y-13418000D01*
X6848857Y-13403714D01*
X6906000Y-13403714D01*
X6934571Y-13418000D01*
X6948857Y-13432286D01*
X6963143Y-13460857D01*
X6963143Y-13475143D01*
X6948857Y-13503714D01*
X6934571Y-13518000D01*
X6906000Y-13532286D01*
X6848857Y-13532286D01*
X6820286Y-13546571D01*
X6806000Y-13560857D01*
X6791714Y-13589429D01*
X6791714Y-13646571D01*
X6806000Y-13675143D01*
X6820286Y-13689429D01*
X6848857Y-13703714D01*
X6906000Y-13703714D01*
X6934571Y-13689429D01*
X6948857Y-13675143D01*
X6963143Y-13646571D01*
X6963143Y-13589429D01*
X6948857Y-13560857D01*
X6934571Y-13546571D01*
X6906000Y-13532286D01*
X7148857Y-13403714D02*
X7177428Y-13403714D01*
X7206000Y-13418000D01*
X7220286Y-13432286D01*
X7234571Y-13460857D01*
X7248857Y-13518000D01*
X7248857Y-13589429D01*
X7234571Y-13646571D01*
X7220286Y-13675143D01*
X7206000Y-13689429D01*
X7177428Y-13703714D01*
X7148857Y-13703714D01*
X7120286Y-13689429D01*
X7106000Y-13675143D01*
X7091714Y-13646571D01*
X7077428Y-13589429D01*
X7077428Y-13518000D01*
X7091714Y-13460857D01*
X7106000Y-13432286D01*
X7120286Y-13418000D01*
X7148857Y-13403714D01*
X7377428Y-13703714D02*
X7377428Y-13503714D01*
X7377428Y-13532286D02*
X7391714Y-13518000D01*
X7420286Y-13503714D01*
X7463143Y-13503714D01*
X7491714Y-13518000D01*
X7506000Y-13546571D01*
X7506000Y-13703714D01*
X7506000Y-13546571D02*
X7520286Y-13518000D01*
X7548857Y-13503714D01*
X7591714Y-13503714D01*
X7620286Y-13518000D01*
X7634571Y-13546571D01*
X7634571Y-13703714D01*
X7777428Y-13703714D02*
X7777428Y-13503714D01*
X7777428Y-13532286D02*
X7791714Y-13518000D01*
X7820286Y-13503714D01*
X7863143Y-13503714D01*
X7891714Y-13518000D01*
X7906000Y-13546571D01*
X7906000Y-13703714D01*
X7906000Y-13546571D02*
X7920286Y-13518000D01*
X7948857Y-13503714D01*
X7991714Y-13503714D01*
X8020286Y-13518000D01*
X8034571Y-13546571D01*
X8034571Y-13703714D01*
X8620286Y-13389429D02*
X8363143Y-13775143D01*
X9006000Y-13403714D02*
X9034571Y-13403714D01*
X9063143Y-13418000D01*
X9077428Y-13432286D01*
X9091714Y-13460857D01*
X9106000Y-13518000D01*
X9106000Y-13589429D01*
X9091714Y-13646571D01*
X9077428Y-13675143D01*
X9063143Y-13689429D01*
X9034571Y-13703714D01*
X9006000Y-13703714D01*
X8977428Y-13689429D01*
X8963143Y-13675143D01*
X8948857Y-13646571D01*
X8934571Y-13589429D01*
X8934571Y-13518000D01*
X8948857Y-13460857D01*
X8963143Y-13432286D01*
X8977428Y-13418000D01*
X9006000Y-13403714D01*
X9234571Y-13675143D02*
X9248857Y-13689429D01*
X9234571Y-13703714D01*
X9220286Y-13689429D01*
X9234571Y-13675143D01*
X9234571Y-13703714D01*
X9434571Y-13403714D02*
X9463143Y-13403714D01*
X9491714Y-13418000D01*
X9506000Y-13432286D01*
X9520286Y-13460857D01*
X9534571Y-13518000D01*
X9534571Y-13589429D01*
X9520286Y-13646571D01*
X9506000Y-13675143D01*
X9491714Y-13689429D01*
X9463143Y-13703714D01*
X9434571Y-13703714D01*
X9406000Y-13689429D01*
X9391714Y-13675143D01*
X9377428Y-13646571D01*
X9363143Y-13589429D01*
X9363143Y-13518000D01*
X9377428Y-13460857D01*
X9391714Y-13432286D01*
X9406000Y-13418000D01*
X9434571Y-13403714D01*
X9634571Y-13403714D02*
X9820286Y-13403714D01*
X9720286Y-13518000D01*
X9763143Y-13518000D01*
X9791714Y-13532286D01*
X9806000Y-13546571D01*
X9820286Y-13575143D01*
X9820286Y-13646571D01*
X9806000Y-13675143D01*
X9791714Y-13689429D01*
X9763143Y-13703714D01*
X9677428Y-13703714D01*
X9648857Y-13689429D01*
X9634571Y-13675143D01*
X10106000Y-13703714D02*
X9934571Y-13703714D01*
X10020286Y-13703714D02*
X10020286Y-13403714D01*
X9991714Y-13446571D01*
X9963143Y-13475143D01*
X9934571Y-13489429D01*
X10220286Y-13403714D02*
X10220286Y-13460857D01*
X10334571Y-13403714D02*
X10334571Y-13460857D01*
X10777428Y-13818000D02*
X10763143Y-13803714D01*
X10734571Y-13760857D01*
X10720286Y-13732286D01*
X10706000Y-13689429D01*
X10691714Y-13618000D01*
X10691714Y-13560857D01*
X10706000Y-13489429D01*
X10720286Y-13446571D01*
X10734571Y-13418000D01*
X10763143Y-13375143D01*
X10777428Y-13360857D01*
X10877428Y-13432286D02*
X10891714Y-13418000D01*
X10920286Y-13403714D01*
X10991714Y-13403714D01*
X11020286Y-13418000D01*
X11034571Y-13432286D01*
X11048857Y-13460857D01*
X11048857Y-13489429D01*
X11034571Y-13532286D01*
X10863143Y-13703714D01*
X11048857Y-13703714D01*
X11234571Y-13403714D02*
X11263143Y-13403714D01*
X11291714Y-13418000D01*
X11306000Y-13432286D01*
X11320286Y-13460857D01*
X11334571Y-13518000D01*
X11334571Y-13589429D01*
X11320286Y-13646571D01*
X11306000Y-13675143D01*
X11291714Y-13689429D01*
X11263143Y-13703714D01*
X11234571Y-13703714D01*
X11206000Y-13689429D01*
X11191714Y-13675143D01*
X11177428Y-13646571D01*
X11163143Y-13589429D01*
X11163143Y-13518000D01*
X11177428Y-13460857D01*
X11191714Y-13432286D01*
X11206000Y-13418000D01*
X11234571Y-13403714D01*
X11691714Y-13703714D02*
X11691714Y-13403714D01*
X11820286Y-13703714D02*
X11820286Y-13546571D01*
X11806000Y-13518000D01*
X11777428Y-13503714D01*
X11734571Y-13503714D01*
X11706000Y-13518000D01*
X11691714Y-13532286D01*
X12006000Y-13703714D02*
X11977428Y-13689429D01*
X11963143Y-13675143D01*
X11948857Y-13646571D01*
X11948857Y-13560857D01*
X11963143Y-13532286D01*
X11977428Y-13518000D01*
X12006000Y-13503714D01*
X12048857Y-13503714D01*
X12077428Y-13518000D01*
X12091714Y-13532286D01*
X12106000Y-13560857D01*
X12106000Y-13646571D01*
X12091714Y-13675143D01*
X12077428Y-13689429D01*
X12048857Y-13703714D01*
X12006000Y-13703714D01*
X12277428Y-13703714D02*
X12248857Y-13689429D01*
X12234571Y-13660857D01*
X12234571Y-13403714D01*
X12506000Y-13689429D02*
X12477428Y-13703714D01*
X12420286Y-13703714D01*
X12391714Y-13689429D01*
X12377428Y-13660857D01*
X12377428Y-13546571D01*
X12391714Y-13518000D01*
X12420286Y-13503714D01*
X12477428Y-13503714D01*
X12506000Y-13518000D01*
X12520286Y-13546571D01*
X12520286Y-13575143D01*
X12377428Y-13603714D01*
X12634571Y-13689429D02*
X12663143Y-13703714D01*
X12720286Y-13703714D01*
X12748857Y-13689429D01*
X12763143Y-13660857D01*
X12763143Y-13646571D01*
X12748857Y-13618000D01*
X12720286Y-13603714D01*
X12677428Y-13603714D01*
X12648857Y-13589429D01*
X12634571Y-13560857D01*
X12634571Y-13546571D01*
X12648857Y-13518000D01*
X12677428Y-13503714D01*
X12720286Y-13503714D01*
X12748857Y-13518000D01*
X12863143Y-13818000D02*
X12877428Y-13803714D01*
X12906000Y-13760857D01*
X12920286Y-13732286D01*
X12934571Y-13689429D01*
X12948857Y-13618000D01*
X12948857Y-13560857D01*
X12934571Y-13489429D01*
X12920286Y-13446571D01*
X12906000Y-13418000D01*
X12877428Y-13375143D01*
X12863143Y-13360857D01*
X6076356Y-13999356D02*
X6076356Y-13928644D01*
X6005644Y-13928644D01*
X6005644Y-13999356D01*
X6076356Y-13999356D01*
X6534571Y-14099714D02*
X6363143Y-14099714D01*
X6448857Y-14099714D02*
X6448857Y-13799714D01*
X6420286Y-13842571D01*
X6391714Y-13871143D01*
X6363143Y-13885429D01*
X6663143Y-14071143D02*
X6677428Y-14085429D01*
X6663143Y-14099714D01*
X6648857Y-14085429D01*
X6663143Y-14071143D01*
X6663143Y-14099714D01*
X6863143Y-13799714D02*
X6891714Y-13799714D01*
X6920286Y-13814000D01*
X6934571Y-13828286D01*
X6948857Y-13856857D01*
X6963143Y-13914000D01*
X6963143Y-13985429D01*
X6948857Y-14042571D01*
X6934571Y-14071143D01*
X6920286Y-14085429D01*
X6891714Y-14099714D01*
X6863143Y-14099714D01*
X6834571Y-14085429D01*
X6820286Y-14071143D01*
X6806000Y-14042571D01*
X6791714Y-13985429D01*
X6791714Y-13914000D01*
X6806000Y-13856857D01*
X6820286Y-13828286D01*
X6834571Y-13814000D01*
X6863143Y-13799714D01*
X7148857Y-13799714D02*
X7177428Y-13799714D01*
X7206000Y-13814000D01*
X7220286Y-13828286D01*
X7234571Y-13856857D01*
X7248857Y-13914000D01*
X7248857Y-13985429D01*
X7234571Y-14042571D01*
X7220286Y-14071143D01*
X7206000Y-14085429D01*
X7177428Y-14099714D01*
X7148857Y-14099714D01*
X7120286Y-14085429D01*
X7106000Y-14071143D01*
X7091714Y-14042571D01*
X7077428Y-13985429D01*
X7077428Y-13914000D01*
X7091714Y-13856857D01*
X7106000Y-13828286D01*
X7120286Y-13814000D01*
X7148857Y-13799714D01*
X7377428Y-14099714D02*
X7377428Y-13899714D01*
X7377428Y-13928286D02*
X7391714Y-13914000D01*
X7420286Y-13899714D01*
X7463143Y-13899714D01*
X7491714Y-13914000D01*
X7506000Y-13942571D01*
X7506000Y-14099714D01*
X7506000Y-13942571D02*
X7520286Y-13914000D01*
X7548857Y-13899714D01*
X7591714Y-13899714D01*
X7620286Y-13914000D01*
X7634571Y-13942571D01*
X7634571Y-14099714D01*
X7777428Y-14099714D02*
X7777428Y-13899714D01*
X7777428Y-13928286D02*
X7791714Y-13914000D01*
X7820286Y-13899714D01*
X7863143Y-13899714D01*
X7891714Y-13914000D01*
X7906000Y-13942571D01*
X7906000Y-14099714D01*
X7906000Y-13942571D02*
X7920286Y-13914000D01*
X7948857Y-13899714D01*
X7991714Y-13899714D01*
X8020286Y-13914000D01*
X8034571Y-13942571D01*
X8034571Y-14099714D01*
X8620286Y-13785429D02*
X8363143Y-14171143D01*
X9006000Y-13799714D02*
X9034571Y-13799714D01*
X9063143Y-13814000D01*
X9077428Y-13828286D01*
X9091714Y-13856857D01*
X9106000Y-13914000D01*
X9106000Y-13985429D01*
X9091714Y-14042571D01*
X9077428Y-14071143D01*
X9063143Y-14085429D01*
X9034571Y-14099714D01*
X9006000Y-14099714D01*
X8977428Y-14085429D01*
X8963143Y-14071143D01*
X8948857Y-14042571D01*
X8934571Y-13985429D01*
X8934571Y-13914000D01*
X8948857Y-13856857D01*
X8963143Y-13828286D01*
X8977428Y-13814000D01*
X9006000Y-13799714D01*
X9234571Y-14071143D02*
X9248857Y-14085429D01*
X9234571Y-14099714D01*
X9220286Y-14085429D01*
X9234571Y-14071143D01*
X9234571Y-14099714D01*
X9434571Y-13799714D02*
X9463143Y-13799714D01*
X9491714Y-13814000D01*
X9506000Y-13828286D01*
X9520286Y-13856857D01*
X9534571Y-13914000D01*
X9534571Y-13985429D01*
X9520286Y-14042571D01*
X9506000Y-14071143D01*
X9491714Y-14085429D01*
X9463143Y-14099714D01*
X9434571Y-14099714D01*
X9406000Y-14085429D01*
X9391714Y-14071143D01*
X9377428Y-14042571D01*
X9363143Y-13985429D01*
X9363143Y-13914000D01*
X9377428Y-13856857D01*
X9391714Y-13828286D01*
X9406000Y-13814000D01*
X9434571Y-13799714D01*
X9634571Y-13799714D02*
X9820286Y-13799714D01*
X9720286Y-13914000D01*
X9763143Y-13914000D01*
X9791714Y-13928286D01*
X9806000Y-13942571D01*
X9820286Y-13971143D01*
X9820286Y-14042571D01*
X9806000Y-14071143D01*
X9791714Y-14085429D01*
X9763143Y-14099714D01*
X9677428Y-14099714D01*
X9648857Y-14085429D01*
X9634571Y-14071143D01*
X9963143Y-14099714D02*
X10020286Y-14099714D01*
X10048857Y-14085429D01*
X10063143Y-14071143D01*
X10091714Y-14028286D01*
X10106000Y-13971143D01*
X10106000Y-13856857D01*
X10091714Y-13828286D01*
X10077428Y-13814000D01*
X10048857Y-13799714D01*
X9991714Y-13799714D01*
X9963143Y-13814000D01*
X9948857Y-13828286D01*
X9934571Y-13856857D01*
X9934571Y-13928286D01*
X9948857Y-13956857D01*
X9963143Y-13971143D01*
X9991714Y-13985429D01*
X10048857Y-13985429D01*
X10077428Y-13971143D01*
X10091714Y-13956857D01*
X10106000Y-13928286D01*
X10220286Y-13799714D02*
X10220286Y-13856857D01*
X10334571Y-13799714D02*
X10334571Y-13856857D01*
X10777428Y-14214000D02*
X10763143Y-14199714D01*
X10734571Y-14156857D01*
X10720286Y-14128286D01*
X10706000Y-14085429D01*
X10691714Y-14014000D01*
X10691714Y-13956857D01*
X10706000Y-13885429D01*
X10720286Y-13842571D01*
X10734571Y-13814000D01*
X10763143Y-13771143D01*
X10777428Y-13756857D01*
X11048857Y-14099714D02*
X10877428Y-14099714D01*
X10963143Y-14099714D02*
X10963143Y-13799714D01*
X10934571Y-13842571D01*
X10906000Y-13871143D01*
X10877428Y-13885429D01*
X11220286Y-13928286D02*
X11191714Y-13914000D01*
X11177428Y-13899714D01*
X11163143Y-13871143D01*
X11163143Y-13856857D01*
X11177428Y-13828286D01*
X11191714Y-13814000D01*
X11220286Y-13799714D01*
X11277428Y-13799714D01*
X11306000Y-13814000D01*
X11320286Y-13828286D01*
X11334571Y-13856857D01*
X11334571Y-13871143D01*
X11320286Y-13899714D01*
X11306000Y-13914000D01*
X11277428Y-13928286D01*
X11220286Y-13928286D01*
X11191714Y-13942571D01*
X11177428Y-13956857D01*
X11163143Y-13985429D01*
X11163143Y-14042571D01*
X11177428Y-14071143D01*
X11191714Y-14085429D01*
X11220286Y-14099714D01*
X11277428Y-14099714D01*
X11306000Y-14085429D01*
X11320286Y-14071143D01*
X11334571Y-14042571D01*
X11334571Y-13985429D01*
X11320286Y-13956857D01*
X11306000Y-13942571D01*
X11277428Y-13928286D01*
X11691714Y-14099714D02*
X11691714Y-13799714D01*
X11820286Y-14099714D02*
X11820286Y-13942571D01*
X11806000Y-13914000D01*
X11777428Y-13899714D01*
X11734571Y-13899714D01*
X11706000Y-13914000D01*
X11691714Y-13928286D01*
X12006000Y-14099714D02*
X11977428Y-14085429D01*
X11963143Y-14071143D01*
X11948857Y-14042571D01*
X11948857Y-13956857D01*
X11963143Y-13928286D01*
X11977428Y-13914000D01*
X12006000Y-13899714D01*
X12048857Y-13899714D01*
X12077428Y-13914000D01*
X12091714Y-13928286D01*
X12106000Y-13956857D01*
X12106000Y-14042571D01*
X12091714Y-14071143D01*
X12077428Y-14085429D01*
X12048857Y-14099714D01*
X12006000Y-14099714D01*
X12277428Y-14099714D02*
X12248857Y-14085429D01*
X12234571Y-14056857D01*
X12234571Y-13799714D01*
X12506000Y-14085429D02*
X12477428Y-14099714D01*
X12420286Y-14099714D01*
X12391714Y-14085429D01*
X12377428Y-14056857D01*
X12377428Y-13942571D01*
X12391714Y-13914000D01*
X12420286Y-13899714D01*
X12477428Y-13899714D01*
X12506000Y-13914000D01*
X12520286Y-13942571D01*
X12520286Y-13971143D01*
X12377428Y-13999714D01*
X12634571Y-14085429D02*
X12663143Y-14099714D01*
X12720286Y-14099714D01*
X12748857Y-14085429D01*
X12763143Y-14056857D01*
X12763143Y-14042571D01*
X12748857Y-14014000D01*
X12720286Y-13999714D01*
X12677428Y-13999714D01*
X12648857Y-13985429D01*
X12634571Y-13956857D01*
X12634571Y-13942571D01*
X12648857Y-13914000D01*
X12677428Y-13899714D01*
X12720286Y-13899714D01*
X12748857Y-13914000D01*
X12863143Y-14214000D02*
X12877428Y-14199714D01*
X12906000Y-14156857D01*
X12920286Y-14128286D01*
X12934571Y-14085429D01*
X12948857Y-14014000D01*
X12948857Y-13956857D01*
X12934571Y-13885429D01*
X12920286Y-13842571D01*
X12906000Y-13814000D01*
X12877428Y-13771143D01*
X12863143Y-13756857D01*
M02*
