G04 #@! TF.GenerationSoftware,KiCad,Pcbnew,5.1.4+dfsg1-1*
G04 #@! TF.CreationDate,2020-02-14T18:49:56+01:00*
G04 #@! TF.ProjectId,1_solar_bank,315f736f-6c61-4725-9f62-616e6b2e6b69,rev?*
G04 #@! TF.SameCoordinates,Original*
G04 #@! TF.FileFunction,Copper,L2,Bot*
G04 #@! TF.FilePolarity,Positive*
%FSLAX46Y46*%
G04 Gerber Fmt 4.6, Leading zero omitted, Abs format (unit mm)*
G04 Created by KiCad (PCBNEW 5.1.4+dfsg1-1) date 2020-02-14 18:49:56*
%MOMM*%
%LPD*%
G04 APERTURE LIST*
%ADD10C,1.400000*%
%ADD11C,1.600000*%
%ADD12O,1.600000X1.600000*%
%ADD13R,1.700000X1.700000*%
%ADD14O,1.700000X1.700000*%
%ADD15C,3.000000*%
%ADD16C,1.000000*%
%ADD17C,0.380000*%
%ADD18C,0.254000*%
G04 APERTURE END LIST*
D10*
X74930000Y-58420000D03*
X74930000Y-55880000D03*
D11*
X85090000Y-95885000D03*
D12*
X69850000Y-95885000D03*
X85090000Y-78105000D03*
D11*
X69850000Y-78105000D03*
X69850000Y-71120000D03*
D12*
X85090000Y-71120000D03*
D13*
X81280000Y-114300000D03*
D14*
X83820000Y-114300000D03*
X86360000Y-114300000D03*
X88900000Y-114300000D03*
X91440000Y-114300000D03*
X93980000Y-114300000D03*
X96520000Y-114300000D03*
X99060000Y-114300000D03*
X101600000Y-114300000D03*
D10*
X86995000Y-58420000D03*
X86995000Y-55880000D03*
X69850000Y-55880000D03*
X69850000Y-58420000D03*
X81915000Y-55880000D03*
X81915000Y-58420000D03*
X66040000Y-98425000D03*
X66040000Y-100965000D03*
D11*
X74930000Y-42545000D03*
D12*
X74930000Y-27305000D03*
X69850000Y-88900000D03*
D11*
X85090000Y-88900000D03*
D12*
X70485000Y-42545000D03*
D11*
X70485000Y-27305000D03*
X86995000Y-42545000D03*
D12*
X86995000Y-27305000D03*
D11*
X69850000Y-102870000D03*
D12*
X85090000Y-102870000D03*
X82550000Y-42545000D03*
D11*
X82550000Y-27305000D03*
D12*
X69850000Y-83820000D03*
D11*
X85090000Y-83820000D03*
D15*
X108458000Y-70866000D03*
X100838000Y-64262000D03*
X90169998Y-89916000D03*
X66548000Y-60452000D03*
X99314000Y-58166000D03*
X78486000Y-56896000D03*
X92964000Y-81788002D03*
X78232000Y-38862000D03*
X97536000Y-39624000D03*
D16*
X101600000Y-114300000D03*
D17*
X100838000Y-66802000D02*
X100838000Y-64262000D01*
X108458000Y-70866000D02*
X104902000Y-70866000D01*
X104902000Y-70866000D02*
X100838000Y-66802000D01*
X68047999Y-63729999D02*
X68047999Y-61951999D01*
X68047999Y-61951999D02*
X66548000Y-60452000D01*
X90169998Y-85851998D02*
X68047999Y-63729999D01*
X90169998Y-89916000D02*
X90169998Y-85851998D01*
X105664000Y-116586000D02*
X112268000Y-109982000D01*
X112268000Y-109982000D02*
X112268000Y-71120000D01*
X112268000Y-71120000D02*
X100813999Y-59665999D01*
X96520000Y-114300000D02*
X98806000Y-116586000D01*
X100813999Y-59665999D02*
X99314000Y-58166000D01*
X98806000Y-116586000D02*
X105664000Y-116586000D01*
X92964000Y-79666682D02*
X92964000Y-81788002D01*
X92964000Y-71374000D02*
X92964000Y-79666682D01*
X78486000Y-56896000D02*
X92964000Y-71374000D01*
X95250000Y-109601000D02*
X93980000Y-110871000D01*
X95250000Y-42164000D02*
X95250000Y-109601000D01*
X93980000Y-110871000D02*
X93980000Y-114300000D01*
X78232000Y-38862000D02*
X91948000Y-38862000D01*
X91948000Y-38862000D02*
X95250000Y-42164000D01*
X97536000Y-110236000D02*
X100750001Y-113450001D01*
X97536000Y-39624000D02*
X95899998Y-41260002D01*
X95899998Y-60597200D02*
X97536000Y-62233202D01*
X95899998Y-41260002D02*
X95899998Y-60597200D01*
X100750001Y-113450001D02*
X101600000Y-114300000D01*
X97536000Y-62233202D02*
X97536000Y-110236000D01*
D18*
G36*
X141263001Y-117133000D02*
G01*
X106696676Y-117133000D01*
X113019042Y-110810634D01*
X113061659Y-110775659D01*
X113201245Y-110605574D01*
X113304966Y-110411525D01*
X113368837Y-110200970D01*
X113385000Y-110036867D01*
X113385000Y-110036860D01*
X113390403Y-109982001D01*
X113385000Y-109927141D01*
X113385000Y-71174859D01*
X113390403Y-71120000D01*
X113385000Y-71065140D01*
X113385000Y-71065133D01*
X113368837Y-70901030D01*
X113304966Y-70690475D01*
X113304966Y-70690474D01*
X113246098Y-70580341D01*
X113201245Y-70496426D01*
X113146747Y-70430020D01*
X113096635Y-70368958D01*
X113096630Y-70368953D01*
X113061659Y-70326341D01*
X113019047Y-70291370D01*
X101642639Y-58914963D01*
X101642634Y-58914957D01*
X101634222Y-58906545D01*
X101647732Y-58873930D01*
X101741000Y-58405039D01*
X101741000Y-57926961D01*
X101647732Y-57458070D01*
X101464779Y-57016385D01*
X101199174Y-56618878D01*
X100861122Y-56280826D01*
X100463615Y-56015221D01*
X100021930Y-55832268D01*
X99553039Y-55739000D01*
X99074961Y-55739000D01*
X98606070Y-55832268D01*
X98164385Y-56015221D01*
X97766878Y-56280826D01*
X97428826Y-56618878D01*
X97163221Y-57016385D01*
X97016998Y-57369396D01*
X97016998Y-41995312D01*
X97296961Y-42051000D01*
X97775039Y-42051000D01*
X98243930Y-41957732D01*
X98685615Y-41774779D01*
X99083122Y-41509174D01*
X99421174Y-41171122D01*
X99686779Y-40773615D01*
X99869732Y-40331930D01*
X99963000Y-39863039D01*
X99963000Y-39384961D01*
X99869732Y-38916070D01*
X99686779Y-38474385D01*
X99421174Y-38076878D01*
X99083122Y-37738826D01*
X98685615Y-37473221D01*
X98243930Y-37290268D01*
X97775039Y-37197000D01*
X97296961Y-37197000D01*
X96828070Y-37290268D01*
X96386385Y-37473221D01*
X95988878Y-37738826D01*
X95650826Y-38076878D01*
X95385221Y-38474385D01*
X95202268Y-38916070D01*
X95109000Y-39384961D01*
X95109000Y-39863039D01*
X95202268Y-40331930D01*
X95215778Y-40364546D01*
X95148956Y-40431368D01*
X95120444Y-40454768D01*
X92776634Y-38110958D01*
X92741659Y-38068341D01*
X92571574Y-37928755D01*
X92377525Y-37825034D01*
X92166970Y-37761163D01*
X92002867Y-37745000D01*
X92002859Y-37745000D01*
X91948000Y-37739597D01*
X91893141Y-37745000D01*
X80396289Y-37745000D01*
X80382779Y-37712385D01*
X80117174Y-37314878D01*
X79779122Y-36976826D01*
X79381615Y-36711221D01*
X78939930Y-36528268D01*
X78471039Y-36435000D01*
X77992961Y-36435000D01*
X77524070Y-36528268D01*
X77082385Y-36711221D01*
X76684878Y-36976826D01*
X76346826Y-37314878D01*
X76081221Y-37712385D01*
X75898268Y-38154070D01*
X75805000Y-38622961D01*
X75805000Y-39101039D01*
X75898268Y-39569930D01*
X76081221Y-40011615D01*
X76346826Y-40409122D01*
X76684878Y-40747174D01*
X77082385Y-41012779D01*
X77524070Y-41195732D01*
X77992961Y-41289000D01*
X78471039Y-41289000D01*
X78939930Y-41195732D01*
X79381615Y-41012779D01*
X79779122Y-40747174D01*
X80117174Y-40409122D01*
X80382779Y-40011615D01*
X80396289Y-39979000D01*
X91485324Y-39979000D01*
X94133000Y-42626676D01*
X94133001Y-79650176D01*
X94113615Y-79637223D01*
X94081000Y-79623713D01*
X94081000Y-71428859D01*
X94086403Y-71374000D01*
X94081000Y-71319140D01*
X94081000Y-71319133D01*
X94064837Y-71155030D01*
X94049673Y-71105039D01*
X94037567Y-71065133D01*
X94000966Y-70944475D01*
X93897245Y-70750426D01*
X93880173Y-70729624D01*
X93792635Y-70622958D01*
X93792630Y-70622953D01*
X93757659Y-70580341D01*
X93715047Y-70545370D01*
X82892984Y-59723308D01*
X82952152Y-59683773D01*
X83178773Y-59457152D01*
X83356828Y-59190673D01*
X83479475Y-58894578D01*
X83542000Y-58580245D01*
X83542000Y-58259755D01*
X83479475Y-57945422D01*
X83356828Y-57649327D01*
X83178773Y-57382848D01*
X82952152Y-57156227D01*
X82942833Y-57150000D01*
X82952152Y-57143773D01*
X83178773Y-56917152D01*
X83356828Y-56650673D01*
X83479475Y-56354578D01*
X83542000Y-56040245D01*
X83542000Y-55719755D01*
X85368000Y-55719755D01*
X85368000Y-56040245D01*
X85430525Y-56354578D01*
X85553172Y-56650673D01*
X85731227Y-56917152D01*
X85957848Y-57143773D01*
X85967167Y-57150000D01*
X85957848Y-57156227D01*
X85731227Y-57382848D01*
X85553172Y-57649327D01*
X85430525Y-57945422D01*
X85368000Y-58259755D01*
X85368000Y-58580245D01*
X85430525Y-58894578D01*
X85553172Y-59190673D01*
X85731227Y-59457152D01*
X85957848Y-59683773D01*
X86224327Y-59861828D01*
X86520422Y-59984475D01*
X86834755Y-60047000D01*
X87155245Y-60047000D01*
X87469578Y-59984475D01*
X87765673Y-59861828D01*
X88032152Y-59683773D01*
X88258773Y-59457152D01*
X88436828Y-59190673D01*
X88559475Y-58894578D01*
X88622000Y-58580245D01*
X88622000Y-58259755D01*
X88559475Y-57945422D01*
X88436828Y-57649327D01*
X88258773Y-57382848D01*
X88032152Y-57156227D01*
X88022833Y-57150000D01*
X88032152Y-57143773D01*
X88258773Y-56917152D01*
X88436828Y-56650673D01*
X88559475Y-56354578D01*
X88622000Y-56040245D01*
X88622000Y-55719755D01*
X88559475Y-55405422D01*
X88436828Y-55109327D01*
X88258773Y-54842848D01*
X88032152Y-54616227D01*
X87765673Y-54438172D01*
X87469578Y-54315525D01*
X87155245Y-54253000D01*
X86834755Y-54253000D01*
X86520422Y-54315525D01*
X86224327Y-54438172D01*
X85957848Y-54616227D01*
X85731227Y-54842848D01*
X85553172Y-55109327D01*
X85430525Y-55405422D01*
X85368000Y-55719755D01*
X83542000Y-55719755D01*
X83479475Y-55405422D01*
X83356828Y-55109327D01*
X83178773Y-54842848D01*
X82952152Y-54616227D01*
X82685673Y-54438172D01*
X82389578Y-54315525D01*
X82075245Y-54253000D01*
X81754755Y-54253000D01*
X81440422Y-54315525D01*
X81144327Y-54438172D01*
X80877848Y-54616227D01*
X80651227Y-54842848D01*
X80473172Y-55109327D01*
X80372885Y-55351439D01*
X80371174Y-55348878D01*
X80033122Y-55010826D01*
X79635615Y-54745221D01*
X79193930Y-54562268D01*
X78725039Y-54469000D01*
X78246961Y-54469000D01*
X77778070Y-54562268D01*
X77336385Y-54745221D01*
X76938878Y-55010826D01*
X76600826Y-55348878D01*
X76510205Y-55484502D01*
X76494475Y-55405422D01*
X76371828Y-55109327D01*
X76193773Y-54842848D01*
X75967152Y-54616227D01*
X75700673Y-54438172D01*
X75404578Y-54315525D01*
X75090245Y-54253000D01*
X74769755Y-54253000D01*
X74455422Y-54315525D01*
X74159327Y-54438172D01*
X73892848Y-54616227D01*
X73666227Y-54842848D01*
X73488172Y-55109327D01*
X73365525Y-55405422D01*
X73303000Y-55719755D01*
X73303000Y-56040245D01*
X73365525Y-56354578D01*
X73488172Y-56650673D01*
X73666227Y-56917152D01*
X73892848Y-57143773D01*
X73902167Y-57150000D01*
X73892848Y-57156227D01*
X73666227Y-57382848D01*
X73488172Y-57649327D01*
X73365525Y-57945422D01*
X73303000Y-58259755D01*
X73303000Y-58580245D01*
X73365525Y-58894578D01*
X73488172Y-59190673D01*
X73666227Y-59457152D01*
X73892848Y-59683773D01*
X74159327Y-59861828D01*
X74455422Y-59984475D01*
X74769755Y-60047000D01*
X75090245Y-60047000D01*
X75404578Y-59984475D01*
X75700673Y-59861828D01*
X75967152Y-59683773D01*
X76193773Y-59457152D01*
X76371828Y-59190673D01*
X76494475Y-58894578D01*
X76557000Y-58580245D01*
X76557000Y-58377532D01*
X76600826Y-58443122D01*
X76938878Y-58781174D01*
X77336385Y-59046779D01*
X77778070Y-59229732D01*
X78246961Y-59323000D01*
X78725039Y-59323000D01*
X79193930Y-59229732D01*
X79226546Y-59216222D01*
X91847000Y-71836677D01*
X91847001Y-79611806D01*
X91847000Y-79611816D01*
X91847000Y-79623713D01*
X91814385Y-79637223D01*
X91416878Y-79902828D01*
X91078826Y-80240880D01*
X90813221Y-80638387D01*
X90630268Y-81080072D01*
X90537000Y-81548963D01*
X90537000Y-82027041D01*
X90630268Y-82495932D01*
X90813221Y-82937617D01*
X91078826Y-83335124D01*
X91416878Y-83673176D01*
X91814385Y-83938781D01*
X92256070Y-84121734D01*
X92724961Y-84215002D01*
X93203039Y-84215002D01*
X93671930Y-84121734D01*
X94113615Y-83938781D01*
X94133001Y-83925828D01*
X94133001Y-109138323D01*
X93228958Y-110042366D01*
X93186341Y-110077341D01*
X93046755Y-110247426D01*
X92943034Y-110441476D01*
X92938941Y-110454970D01*
X92883430Y-110637966D01*
X92879163Y-110652031D01*
X92863000Y-110816134D01*
X92863000Y-110816141D01*
X92857597Y-110871000D01*
X92863000Y-110925860D01*
X92863001Y-112917894D01*
X92717392Y-113037392D01*
X92710000Y-113046399D01*
X92702608Y-113037392D01*
X92432025Y-112815330D01*
X92123319Y-112650323D01*
X91788353Y-112548712D01*
X91527296Y-112523000D01*
X91352704Y-112523000D01*
X91091647Y-112548712D01*
X90756681Y-112650323D01*
X90447975Y-112815330D01*
X90177392Y-113037392D01*
X90170000Y-113046399D01*
X90162608Y-113037392D01*
X89892025Y-112815330D01*
X89583319Y-112650323D01*
X89248353Y-112548712D01*
X88987296Y-112523000D01*
X88812704Y-112523000D01*
X88551647Y-112548712D01*
X88216681Y-112650323D01*
X87907975Y-112815330D01*
X87637392Y-113037392D01*
X87630000Y-113046399D01*
X87622608Y-113037392D01*
X87352025Y-112815330D01*
X87043319Y-112650323D01*
X86708353Y-112548712D01*
X86447296Y-112523000D01*
X86272704Y-112523000D01*
X86011647Y-112548712D01*
X85676681Y-112650323D01*
X85367975Y-112815330D01*
X85097392Y-113037392D01*
X84894436Y-113284694D01*
X84820269Y-113202412D01*
X84586920Y-113028359D01*
X84324099Y-112903175D01*
X84176890Y-112858524D01*
X83947000Y-112979845D01*
X83947000Y-114173000D01*
X83967000Y-114173000D01*
X83967000Y-114427000D01*
X83947000Y-114427000D01*
X83947000Y-115620155D01*
X84176890Y-115741476D01*
X84324099Y-115696825D01*
X84586920Y-115571641D01*
X84820269Y-115397588D01*
X84894436Y-115315306D01*
X85097392Y-115562608D01*
X85367975Y-115784670D01*
X85676681Y-115949677D01*
X86011647Y-116051288D01*
X86272704Y-116077000D01*
X86447296Y-116077000D01*
X86708353Y-116051288D01*
X87043319Y-115949677D01*
X87352025Y-115784670D01*
X87622608Y-115562608D01*
X87630000Y-115553601D01*
X87637392Y-115562608D01*
X87907975Y-115784670D01*
X88216681Y-115949677D01*
X88551647Y-116051288D01*
X88812704Y-116077000D01*
X88987296Y-116077000D01*
X89248353Y-116051288D01*
X89583319Y-115949677D01*
X89892025Y-115784670D01*
X90162608Y-115562608D01*
X90170000Y-115553601D01*
X90177392Y-115562608D01*
X90447975Y-115784670D01*
X90756681Y-115949677D01*
X91091647Y-116051288D01*
X91352704Y-116077000D01*
X91527296Y-116077000D01*
X91788353Y-116051288D01*
X92123319Y-115949677D01*
X92432025Y-115784670D01*
X92702608Y-115562608D01*
X92710000Y-115553601D01*
X92717392Y-115562608D01*
X92987975Y-115784670D01*
X93296681Y-115949677D01*
X93631647Y-116051288D01*
X93892704Y-116077000D01*
X94067296Y-116077000D01*
X94328353Y-116051288D01*
X94663319Y-115949677D01*
X94972025Y-115784670D01*
X95242608Y-115562608D01*
X95250000Y-115553601D01*
X95257392Y-115562608D01*
X95527975Y-115784670D01*
X95836681Y-115949677D01*
X96171647Y-116051288D01*
X96432704Y-116077000D01*
X96607296Y-116077000D01*
X96707459Y-116067135D01*
X97773324Y-117133000D01*
X61937000Y-117133000D01*
X61937000Y-113450000D01*
X79498515Y-113450000D01*
X79498515Y-115150000D01*
X79516413Y-115331724D01*
X79569420Y-115506464D01*
X79655499Y-115667505D01*
X79771341Y-115808659D01*
X79912495Y-115924501D01*
X80073536Y-116010580D01*
X80248276Y-116063587D01*
X80430000Y-116081485D01*
X82130000Y-116081485D01*
X82311724Y-116063587D01*
X82486464Y-116010580D01*
X82647505Y-115924501D01*
X82788659Y-115808659D01*
X82904501Y-115667505D01*
X82983488Y-115519733D01*
X83053080Y-115571641D01*
X83315901Y-115696825D01*
X83463110Y-115741476D01*
X83693000Y-115620155D01*
X83693000Y-114427000D01*
X83673000Y-114427000D01*
X83673000Y-114173000D01*
X83693000Y-114173000D01*
X83693000Y-112979845D01*
X83463110Y-112858524D01*
X83315901Y-112903175D01*
X83053080Y-113028359D01*
X82983488Y-113080267D01*
X82904501Y-112932495D01*
X82788659Y-112791341D01*
X82647505Y-112675499D01*
X82486464Y-112589420D01*
X82311724Y-112536413D01*
X82130000Y-112518515D01*
X80430000Y-112518515D01*
X80248276Y-112536413D01*
X80073536Y-112589420D01*
X79912495Y-112675499D01*
X79771341Y-112791341D01*
X79655499Y-112932495D01*
X79569420Y-113093536D01*
X79516413Y-113268276D01*
X79498515Y-113450000D01*
X61937000Y-113450000D01*
X61937000Y-102699905D01*
X68123000Y-102699905D01*
X68123000Y-103040095D01*
X68189368Y-103373747D01*
X68319553Y-103688041D01*
X68508552Y-103970898D01*
X68749102Y-104211448D01*
X69031959Y-104400447D01*
X69346253Y-104530632D01*
X69679905Y-104597000D01*
X70020095Y-104597000D01*
X70353747Y-104530632D01*
X70668041Y-104400447D01*
X70950898Y-104211448D01*
X71191448Y-103970898D01*
X71380447Y-103688041D01*
X71510632Y-103373747D01*
X71577000Y-103040095D01*
X71577000Y-102870000D01*
X83354644Y-102870000D01*
X83387988Y-103208551D01*
X83486740Y-103534092D01*
X83647104Y-103834112D01*
X83862918Y-104097082D01*
X84125888Y-104312896D01*
X84425908Y-104473260D01*
X84751449Y-104572012D01*
X85005159Y-104597000D01*
X85174841Y-104597000D01*
X85428551Y-104572012D01*
X85754092Y-104473260D01*
X86054112Y-104312896D01*
X86317082Y-104097082D01*
X86532896Y-103834112D01*
X86693260Y-103534092D01*
X86792012Y-103208551D01*
X86825356Y-102870000D01*
X86792012Y-102531449D01*
X86693260Y-102205908D01*
X86532896Y-101905888D01*
X86317082Y-101642918D01*
X86054112Y-101427104D01*
X85754092Y-101266740D01*
X85428551Y-101167988D01*
X85174841Y-101143000D01*
X85005159Y-101143000D01*
X84751449Y-101167988D01*
X84425908Y-101266740D01*
X84125888Y-101427104D01*
X83862918Y-101642918D01*
X83647104Y-101905888D01*
X83486740Y-102205908D01*
X83387988Y-102531449D01*
X83354644Y-102870000D01*
X71577000Y-102870000D01*
X71577000Y-102699905D01*
X71510632Y-102366253D01*
X71380447Y-102051959D01*
X71191448Y-101769102D01*
X70950898Y-101528552D01*
X70668041Y-101339553D01*
X70353747Y-101209368D01*
X70020095Y-101143000D01*
X69679905Y-101143000D01*
X69346253Y-101209368D01*
X69031959Y-101339553D01*
X68749102Y-101528552D01*
X68508552Y-101769102D01*
X68319553Y-102051959D01*
X68189368Y-102366253D01*
X68123000Y-102699905D01*
X61937000Y-102699905D01*
X61937000Y-98264755D01*
X64413000Y-98264755D01*
X64413000Y-98585245D01*
X64475525Y-98899578D01*
X64598172Y-99195673D01*
X64776227Y-99462152D01*
X65002848Y-99688773D01*
X65012167Y-99695000D01*
X65002848Y-99701227D01*
X64776227Y-99927848D01*
X64598172Y-100194327D01*
X64475525Y-100490422D01*
X64413000Y-100804755D01*
X64413000Y-101125245D01*
X64475525Y-101439578D01*
X64598172Y-101735673D01*
X64776227Y-102002152D01*
X65002848Y-102228773D01*
X65269327Y-102406828D01*
X65565422Y-102529475D01*
X65879755Y-102592000D01*
X66200245Y-102592000D01*
X66514578Y-102529475D01*
X66810673Y-102406828D01*
X67077152Y-102228773D01*
X67303773Y-102002152D01*
X67481828Y-101735673D01*
X67604475Y-101439578D01*
X67667000Y-101125245D01*
X67667000Y-100804755D01*
X67604475Y-100490422D01*
X67481828Y-100194327D01*
X67303773Y-99927848D01*
X67077152Y-99701227D01*
X67067833Y-99695000D01*
X67077152Y-99688773D01*
X67303773Y-99462152D01*
X67481828Y-99195673D01*
X67604475Y-98899578D01*
X67667000Y-98585245D01*
X67667000Y-98264755D01*
X67604475Y-97950422D01*
X67481828Y-97654327D01*
X67303773Y-97387848D01*
X67077152Y-97161227D01*
X66810673Y-96983172D01*
X66514578Y-96860525D01*
X66200245Y-96798000D01*
X65879755Y-96798000D01*
X65565422Y-96860525D01*
X65269327Y-96983172D01*
X65002848Y-97161227D01*
X64776227Y-97387848D01*
X64598172Y-97654327D01*
X64475525Y-97950422D01*
X64413000Y-98264755D01*
X61937000Y-98264755D01*
X61937000Y-96234039D01*
X68458096Y-96234039D01*
X68498754Y-96368087D01*
X68618963Y-96622420D01*
X68786481Y-96848414D01*
X68994869Y-97037385D01*
X69236119Y-97182070D01*
X69500960Y-97276909D01*
X69723000Y-97155624D01*
X69723000Y-96012000D01*
X69977000Y-96012000D01*
X69977000Y-97155624D01*
X70199040Y-97276909D01*
X70463881Y-97182070D01*
X70705131Y-97037385D01*
X70913519Y-96848414D01*
X71081037Y-96622420D01*
X71201246Y-96368087D01*
X71241904Y-96234039D01*
X71119915Y-96012000D01*
X69977000Y-96012000D01*
X69723000Y-96012000D01*
X68580085Y-96012000D01*
X68458096Y-96234039D01*
X61937000Y-96234039D01*
X61937000Y-95535961D01*
X68458096Y-95535961D01*
X68580085Y-95758000D01*
X69723000Y-95758000D01*
X69723000Y-94614376D01*
X69977000Y-94614376D01*
X69977000Y-95758000D01*
X71119915Y-95758000D01*
X71143591Y-95714905D01*
X83363000Y-95714905D01*
X83363000Y-96055095D01*
X83429368Y-96388747D01*
X83559553Y-96703041D01*
X83748552Y-96985898D01*
X83989102Y-97226448D01*
X84271959Y-97415447D01*
X84586253Y-97545632D01*
X84919905Y-97612000D01*
X85260095Y-97612000D01*
X85593747Y-97545632D01*
X85908041Y-97415447D01*
X86190898Y-97226448D01*
X86431448Y-96985898D01*
X86620447Y-96703041D01*
X86750632Y-96388747D01*
X86817000Y-96055095D01*
X86817000Y-95714905D01*
X86750632Y-95381253D01*
X86620447Y-95066959D01*
X86431448Y-94784102D01*
X86190898Y-94543552D01*
X85908041Y-94354553D01*
X85593747Y-94224368D01*
X85260095Y-94158000D01*
X84919905Y-94158000D01*
X84586253Y-94224368D01*
X84271959Y-94354553D01*
X83989102Y-94543552D01*
X83748552Y-94784102D01*
X83559553Y-95066959D01*
X83429368Y-95381253D01*
X83363000Y-95714905D01*
X71143591Y-95714905D01*
X71241904Y-95535961D01*
X71201246Y-95401913D01*
X71081037Y-95147580D01*
X70913519Y-94921586D01*
X70705131Y-94732615D01*
X70463881Y-94587930D01*
X70199040Y-94493091D01*
X69977000Y-94614376D01*
X69723000Y-94614376D01*
X69500960Y-94493091D01*
X69236119Y-94587930D01*
X68994869Y-94732615D01*
X68786481Y-94921586D01*
X68618963Y-95147580D01*
X68498754Y-95401913D01*
X68458096Y-95535961D01*
X61937000Y-95535961D01*
X61937000Y-89249039D01*
X68458096Y-89249039D01*
X68498754Y-89383087D01*
X68618963Y-89637420D01*
X68786481Y-89863414D01*
X68994869Y-90052385D01*
X69236119Y-90197070D01*
X69500960Y-90291909D01*
X69723000Y-90170624D01*
X69723000Y-89027000D01*
X69977000Y-89027000D01*
X69977000Y-90170624D01*
X70199040Y-90291909D01*
X70463881Y-90197070D01*
X70705131Y-90052385D01*
X70913519Y-89863414D01*
X71081037Y-89637420D01*
X71201246Y-89383087D01*
X71241904Y-89249039D01*
X71119915Y-89027000D01*
X69977000Y-89027000D01*
X69723000Y-89027000D01*
X68580085Y-89027000D01*
X68458096Y-89249039D01*
X61937000Y-89249039D01*
X61937000Y-88550961D01*
X68458096Y-88550961D01*
X68580085Y-88773000D01*
X69723000Y-88773000D01*
X69723000Y-87629376D01*
X69977000Y-87629376D01*
X69977000Y-88773000D01*
X71119915Y-88773000D01*
X71143591Y-88729905D01*
X83363000Y-88729905D01*
X83363000Y-89070095D01*
X83429368Y-89403747D01*
X83559553Y-89718041D01*
X83748552Y-90000898D01*
X83989102Y-90241448D01*
X84271959Y-90430447D01*
X84586253Y-90560632D01*
X84919905Y-90627000D01*
X85260095Y-90627000D01*
X85593747Y-90560632D01*
X85908041Y-90430447D01*
X86190898Y-90241448D01*
X86431448Y-90000898D01*
X86620447Y-89718041D01*
X86750632Y-89403747D01*
X86817000Y-89070095D01*
X86817000Y-88729905D01*
X86750632Y-88396253D01*
X86620447Y-88081959D01*
X86431448Y-87799102D01*
X86190898Y-87558552D01*
X85908041Y-87369553D01*
X85593747Y-87239368D01*
X85260095Y-87173000D01*
X84919905Y-87173000D01*
X84586253Y-87239368D01*
X84271959Y-87369553D01*
X83989102Y-87558552D01*
X83748552Y-87799102D01*
X83559553Y-88081959D01*
X83429368Y-88396253D01*
X83363000Y-88729905D01*
X71143591Y-88729905D01*
X71241904Y-88550961D01*
X71201246Y-88416913D01*
X71081037Y-88162580D01*
X70913519Y-87936586D01*
X70705131Y-87747615D01*
X70463881Y-87602930D01*
X70199040Y-87508091D01*
X69977000Y-87629376D01*
X69723000Y-87629376D01*
X69500960Y-87508091D01*
X69236119Y-87602930D01*
X68994869Y-87747615D01*
X68786481Y-87936586D01*
X68618963Y-88162580D01*
X68498754Y-88416913D01*
X68458096Y-88550961D01*
X61937000Y-88550961D01*
X61937000Y-84169039D01*
X68458096Y-84169039D01*
X68498754Y-84303087D01*
X68618963Y-84557420D01*
X68786481Y-84783414D01*
X68994869Y-84972385D01*
X69236119Y-85117070D01*
X69500960Y-85211909D01*
X69723000Y-85090624D01*
X69723000Y-83947000D01*
X69977000Y-83947000D01*
X69977000Y-85090624D01*
X70199040Y-85211909D01*
X70463881Y-85117070D01*
X70705131Y-84972385D01*
X70913519Y-84783414D01*
X71081037Y-84557420D01*
X71201246Y-84303087D01*
X71241904Y-84169039D01*
X71119915Y-83947000D01*
X69977000Y-83947000D01*
X69723000Y-83947000D01*
X68580085Y-83947000D01*
X68458096Y-84169039D01*
X61937000Y-84169039D01*
X61937000Y-83470961D01*
X68458096Y-83470961D01*
X68580085Y-83693000D01*
X69723000Y-83693000D01*
X69723000Y-82549376D01*
X69977000Y-82549376D01*
X69977000Y-83693000D01*
X71119915Y-83693000D01*
X71241904Y-83470961D01*
X71201246Y-83336913D01*
X71081037Y-83082580D01*
X70913519Y-82856586D01*
X70705131Y-82667615D01*
X70463881Y-82522930D01*
X70199040Y-82428091D01*
X69977000Y-82549376D01*
X69723000Y-82549376D01*
X69500960Y-82428091D01*
X69236119Y-82522930D01*
X68994869Y-82667615D01*
X68786481Y-82856586D01*
X68618963Y-83082580D01*
X68498754Y-83336913D01*
X68458096Y-83470961D01*
X61937000Y-83470961D01*
X61937000Y-77934905D01*
X68123000Y-77934905D01*
X68123000Y-78275095D01*
X68189368Y-78608747D01*
X68319553Y-78923041D01*
X68508552Y-79205898D01*
X68749102Y-79446448D01*
X69031959Y-79635447D01*
X69346253Y-79765632D01*
X69679905Y-79832000D01*
X70020095Y-79832000D01*
X70353747Y-79765632D01*
X70668041Y-79635447D01*
X70950898Y-79446448D01*
X71191448Y-79205898D01*
X71380447Y-78923041D01*
X71510632Y-78608747D01*
X71577000Y-78275095D01*
X71577000Y-77934905D01*
X71510632Y-77601253D01*
X71380447Y-77286959D01*
X71191448Y-77004102D01*
X70950898Y-76763552D01*
X70668041Y-76574553D01*
X70353747Y-76444368D01*
X70020095Y-76378000D01*
X69679905Y-76378000D01*
X69346253Y-76444368D01*
X69031959Y-76574553D01*
X68749102Y-76763552D01*
X68508552Y-77004102D01*
X68319553Y-77286959D01*
X68189368Y-77601253D01*
X68123000Y-77934905D01*
X61937000Y-77934905D01*
X61937000Y-70949905D01*
X68123000Y-70949905D01*
X68123000Y-71290095D01*
X68189368Y-71623747D01*
X68319553Y-71938041D01*
X68508552Y-72220898D01*
X68749102Y-72461448D01*
X69031959Y-72650447D01*
X69346253Y-72780632D01*
X69679905Y-72847000D01*
X70020095Y-72847000D01*
X70353747Y-72780632D01*
X70668041Y-72650447D01*
X70950898Y-72461448D01*
X71191448Y-72220898D01*
X71380447Y-71938041D01*
X71510632Y-71623747D01*
X71577000Y-71290095D01*
X71577000Y-70949905D01*
X71510632Y-70616253D01*
X71380447Y-70301959D01*
X71191448Y-70019102D01*
X70950898Y-69778552D01*
X70668041Y-69589553D01*
X70353747Y-69459368D01*
X70020095Y-69393000D01*
X69679905Y-69393000D01*
X69346253Y-69459368D01*
X69031959Y-69589553D01*
X68749102Y-69778552D01*
X68508552Y-70019102D01*
X68319553Y-70301959D01*
X68189368Y-70616253D01*
X68123000Y-70949905D01*
X61937000Y-70949905D01*
X61937000Y-60212961D01*
X64121000Y-60212961D01*
X64121000Y-60691039D01*
X64214268Y-61159930D01*
X64397221Y-61601615D01*
X64662826Y-61999122D01*
X65000878Y-62337174D01*
X65398385Y-62602779D01*
X65840070Y-62785732D01*
X66308961Y-62879000D01*
X66787039Y-62879000D01*
X66930999Y-62850365D01*
X66930999Y-63675140D01*
X66925596Y-63729999D01*
X66930999Y-63784858D01*
X66930999Y-63784865D01*
X66947162Y-63948968D01*
X67011033Y-64159523D01*
X67114754Y-64353573D01*
X67254340Y-64523658D01*
X67296957Y-64558633D01*
X84846020Y-82107697D01*
X84586253Y-82159368D01*
X84271959Y-82289553D01*
X83989102Y-82478552D01*
X83748552Y-82719102D01*
X83559553Y-83001959D01*
X83429368Y-83316253D01*
X83363000Y-83649905D01*
X83363000Y-83990095D01*
X83429368Y-84323747D01*
X83559553Y-84638041D01*
X83748552Y-84920898D01*
X83989102Y-85161448D01*
X84271959Y-85350447D01*
X84586253Y-85480632D01*
X84919905Y-85547000D01*
X85260095Y-85547000D01*
X85593747Y-85480632D01*
X85908041Y-85350447D01*
X86190898Y-85161448D01*
X86431448Y-84920898D01*
X86620447Y-84638041D01*
X86750632Y-84323747D01*
X86802303Y-84063980D01*
X89052999Y-86314676D01*
X89052999Y-87751711D01*
X89020383Y-87765221D01*
X88622876Y-88030826D01*
X88284824Y-88368878D01*
X88019219Y-88766385D01*
X87836266Y-89208070D01*
X87742998Y-89676961D01*
X87742998Y-90155039D01*
X87836266Y-90623930D01*
X88019219Y-91065615D01*
X88284824Y-91463122D01*
X88622876Y-91801174D01*
X89020383Y-92066779D01*
X89462068Y-92249732D01*
X89930959Y-92343000D01*
X90409037Y-92343000D01*
X90877928Y-92249732D01*
X91319613Y-92066779D01*
X91717120Y-91801174D01*
X92055172Y-91463122D01*
X92320777Y-91065615D01*
X92503730Y-90623930D01*
X92596998Y-90155039D01*
X92596998Y-89676961D01*
X92503730Y-89208070D01*
X92320777Y-88766385D01*
X92055172Y-88368878D01*
X91717120Y-88030826D01*
X91319613Y-87765221D01*
X91286998Y-87751711D01*
X91286998Y-85906857D01*
X91292401Y-85851997D01*
X91286998Y-85797138D01*
X91286998Y-85797131D01*
X91270835Y-85633028D01*
X91206964Y-85422473D01*
X91103243Y-85228424D01*
X91011857Y-85117070D01*
X90998633Y-85100956D01*
X90998628Y-85100951D01*
X90963657Y-85058339D01*
X90921045Y-85023368D01*
X85640419Y-79742742D01*
X85754092Y-79708260D01*
X86054112Y-79547896D01*
X86317082Y-79332082D01*
X86532896Y-79069112D01*
X86693260Y-78769092D01*
X86792012Y-78443551D01*
X86825356Y-78105000D01*
X86792012Y-77766449D01*
X86693260Y-77440908D01*
X86532896Y-77140888D01*
X86317082Y-76877918D01*
X86054112Y-76662104D01*
X85754092Y-76501740D01*
X85428551Y-76402988D01*
X85174841Y-76378000D01*
X85005159Y-76378000D01*
X84751449Y-76402988D01*
X84425908Y-76501740D01*
X84125888Y-76662104D01*
X83862918Y-76877918D01*
X83647104Y-77140888D01*
X83486740Y-77440908D01*
X83452258Y-77554581D01*
X77017677Y-71120000D01*
X83354644Y-71120000D01*
X83387988Y-71458551D01*
X83486740Y-71784092D01*
X83647104Y-72084112D01*
X83862918Y-72347082D01*
X84125888Y-72562896D01*
X84425908Y-72723260D01*
X84751449Y-72822012D01*
X85005159Y-72847000D01*
X85174841Y-72847000D01*
X85428551Y-72822012D01*
X85754092Y-72723260D01*
X86054112Y-72562896D01*
X86317082Y-72347082D01*
X86532896Y-72084112D01*
X86693260Y-71784092D01*
X86792012Y-71458551D01*
X86825356Y-71120000D01*
X86792012Y-70781449D01*
X86693260Y-70455908D01*
X86532896Y-70155888D01*
X86317082Y-69892918D01*
X86054112Y-69677104D01*
X85754092Y-69516740D01*
X85428551Y-69417988D01*
X85174841Y-69393000D01*
X85005159Y-69393000D01*
X84751449Y-69417988D01*
X84425908Y-69516740D01*
X84125888Y-69677104D01*
X83862918Y-69892918D01*
X83647104Y-70155888D01*
X83486740Y-70455908D01*
X83387988Y-70781449D01*
X83354644Y-71120000D01*
X77017677Y-71120000D01*
X69164999Y-63267323D01*
X69164999Y-62006858D01*
X69170402Y-61951999D01*
X69164999Y-61897139D01*
X69164999Y-61897132D01*
X69148836Y-61733029D01*
X69084965Y-61522474D01*
X68981244Y-61328425D01*
X68892897Y-61220774D01*
X68876634Y-61200957D01*
X68876629Y-61200952D01*
X68868728Y-61191325D01*
X68881732Y-61159930D01*
X68975000Y-60691039D01*
X68975000Y-60212961D01*
X68881732Y-59744070D01*
X68873559Y-59724339D01*
X69079327Y-59861828D01*
X69375422Y-59984475D01*
X69689755Y-60047000D01*
X70010245Y-60047000D01*
X70324578Y-59984475D01*
X70620673Y-59861828D01*
X70887152Y-59683773D01*
X71113773Y-59457152D01*
X71291828Y-59190673D01*
X71414475Y-58894578D01*
X71477000Y-58580245D01*
X71477000Y-58259755D01*
X71414475Y-57945422D01*
X71291828Y-57649327D01*
X71113773Y-57382848D01*
X70887152Y-57156227D01*
X70877833Y-57150000D01*
X70887152Y-57143773D01*
X71113773Y-56917152D01*
X71291828Y-56650673D01*
X71414475Y-56354578D01*
X71477000Y-56040245D01*
X71477000Y-55719755D01*
X71414475Y-55405422D01*
X71291828Y-55109327D01*
X71113773Y-54842848D01*
X70887152Y-54616227D01*
X70620673Y-54438172D01*
X70324578Y-54315525D01*
X70010245Y-54253000D01*
X69689755Y-54253000D01*
X69375422Y-54315525D01*
X69079327Y-54438172D01*
X68812848Y-54616227D01*
X68586227Y-54842848D01*
X68408172Y-55109327D01*
X68285525Y-55405422D01*
X68223000Y-55719755D01*
X68223000Y-56040245D01*
X68285525Y-56354578D01*
X68408172Y-56650673D01*
X68586227Y-56917152D01*
X68812848Y-57143773D01*
X68822167Y-57150000D01*
X68812848Y-57156227D01*
X68586227Y-57382848D01*
X68408172Y-57649327D01*
X68285525Y-57945422D01*
X68223000Y-58259755D01*
X68223000Y-58580245D01*
X68251421Y-58723125D01*
X68095122Y-58566826D01*
X67697615Y-58301221D01*
X67255930Y-58118268D01*
X66787039Y-58025000D01*
X66308961Y-58025000D01*
X65840070Y-58118268D01*
X65398385Y-58301221D01*
X65000878Y-58566826D01*
X64662826Y-58904878D01*
X64397221Y-59302385D01*
X64214268Y-59744070D01*
X64121000Y-60212961D01*
X61937000Y-60212961D01*
X61937000Y-42545000D01*
X68749644Y-42545000D01*
X68782988Y-42883551D01*
X68881740Y-43209092D01*
X69042104Y-43509112D01*
X69257918Y-43772082D01*
X69520888Y-43987896D01*
X69820908Y-44148260D01*
X70146449Y-44247012D01*
X70400159Y-44272000D01*
X70569841Y-44272000D01*
X70823551Y-44247012D01*
X71149092Y-44148260D01*
X71449112Y-43987896D01*
X71712082Y-43772082D01*
X71927896Y-43509112D01*
X72088260Y-43209092D01*
X72187012Y-42883551D01*
X72220356Y-42545000D01*
X72203604Y-42374905D01*
X73203000Y-42374905D01*
X73203000Y-42715095D01*
X73269368Y-43048747D01*
X73399553Y-43363041D01*
X73588552Y-43645898D01*
X73829102Y-43886448D01*
X74111959Y-44075447D01*
X74426253Y-44205632D01*
X74759905Y-44272000D01*
X75100095Y-44272000D01*
X75433747Y-44205632D01*
X75748041Y-44075447D01*
X76030898Y-43886448D01*
X76271448Y-43645898D01*
X76460447Y-43363041D01*
X76590632Y-43048747D01*
X76657000Y-42715095D01*
X76657000Y-42545000D01*
X80814644Y-42545000D01*
X80847988Y-42883551D01*
X80946740Y-43209092D01*
X81107104Y-43509112D01*
X81322918Y-43772082D01*
X81585888Y-43987896D01*
X81885908Y-44148260D01*
X82211449Y-44247012D01*
X82465159Y-44272000D01*
X82634841Y-44272000D01*
X82888551Y-44247012D01*
X83214092Y-44148260D01*
X83514112Y-43987896D01*
X83777082Y-43772082D01*
X83992896Y-43509112D01*
X84153260Y-43209092D01*
X84252012Y-42883551D01*
X84285356Y-42545000D01*
X84268604Y-42374905D01*
X85268000Y-42374905D01*
X85268000Y-42715095D01*
X85334368Y-43048747D01*
X85464553Y-43363041D01*
X85653552Y-43645898D01*
X85894102Y-43886448D01*
X86176959Y-44075447D01*
X86491253Y-44205632D01*
X86824905Y-44272000D01*
X87165095Y-44272000D01*
X87498747Y-44205632D01*
X87813041Y-44075447D01*
X88095898Y-43886448D01*
X88336448Y-43645898D01*
X88525447Y-43363041D01*
X88655632Y-43048747D01*
X88722000Y-42715095D01*
X88722000Y-42374905D01*
X88655632Y-42041253D01*
X88525447Y-41726959D01*
X88336448Y-41444102D01*
X88095898Y-41203552D01*
X87813041Y-41014553D01*
X87498747Y-40884368D01*
X87165095Y-40818000D01*
X86824905Y-40818000D01*
X86491253Y-40884368D01*
X86176959Y-41014553D01*
X85894102Y-41203552D01*
X85653552Y-41444102D01*
X85464553Y-41726959D01*
X85334368Y-42041253D01*
X85268000Y-42374905D01*
X84268604Y-42374905D01*
X84252012Y-42206449D01*
X84153260Y-41880908D01*
X83992896Y-41580888D01*
X83777082Y-41317918D01*
X83514112Y-41102104D01*
X83214092Y-40941740D01*
X82888551Y-40842988D01*
X82634841Y-40818000D01*
X82465159Y-40818000D01*
X82211449Y-40842988D01*
X81885908Y-40941740D01*
X81585888Y-41102104D01*
X81322918Y-41317918D01*
X81107104Y-41580888D01*
X80946740Y-41880908D01*
X80847988Y-42206449D01*
X80814644Y-42545000D01*
X76657000Y-42545000D01*
X76657000Y-42374905D01*
X76590632Y-42041253D01*
X76460447Y-41726959D01*
X76271448Y-41444102D01*
X76030898Y-41203552D01*
X75748041Y-41014553D01*
X75433747Y-40884368D01*
X75100095Y-40818000D01*
X74759905Y-40818000D01*
X74426253Y-40884368D01*
X74111959Y-41014553D01*
X73829102Y-41203552D01*
X73588552Y-41444102D01*
X73399553Y-41726959D01*
X73269368Y-42041253D01*
X73203000Y-42374905D01*
X72203604Y-42374905D01*
X72187012Y-42206449D01*
X72088260Y-41880908D01*
X71927896Y-41580888D01*
X71712082Y-41317918D01*
X71449112Y-41102104D01*
X71149092Y-40941740D01*
X70823551Y-40842988D01*
X70569841Y-40818000D01*
X70400159Y-40818000D01*
X70146449Y-40842988D01*
X69820908Y-40941740D01*
X69520888Y-41102104D01*
X69257918Y-41317918D01*
X69042104Y-41580888D01*
X68881740Y-41880908D01*
X68782988Y-42206449D01*
X68749644Y-42545000D01*
X61937000Y-42545000D01*
X61937000Y-27134905D01*
X68758000Y-27134905D01*
X68758000Y-27475095D01*
X68824368Y-27808747D01*
X68954553Y-28123041D01*
X69143552Y-28405898D01*
X69384102Y-28646448D01*
X69666959Y-28835447D01*
X69981253Y-28965632D01*
X70314905Y-29032000D01*
X70655095Y-29032000D01*
X70988747Y-28965632D01*
X71303041Y-28835447D01*
X71585898Y-28646448D01*
X71826448Y-28405898D01*
X72015447Y-28123041D01*
X72145632Y-27808747D01*
X72176405Y-27654040D01*
X73538091Y-27654040D01*
X73632930Y-27918881D01*
X73777615Y-28160131D01*
X73966586Y-28368519D01*
X74192580Y-28536037D01*
X74446913Y-28656246D01*
X74580961Y-28696904D01*
X74803000Y-28574915D01*
X74803000Y-27432000D01*
X75057000Y-27432000D01*
X75057000Y-28574915D01*
X75279039Y-28696904D01*
X75413087Y-28656246D01*
X75667420Y-28536037D01*
X75893414Y-28368519D01*
X76082385Y-28160131D01*
X76227070Y-27918881D01*
X76321909Y-27654040D01*
X76200624Y-27432000D01*
X75057000Y-27432000D01*
X74803000Y-27432000D01*
X73659376Y-27432000D01*
X73538091Y-27654040D01*
X72176405Y-27654040D01*
X72212000Y-27475095D01*
X72212000Y-27134905D01*
X72176406Y-26955960D01*
X73538091Y-26955960D01*
X73659376Y-27178000D01*
X74803000Y-27178000D01*
X74803000Y-26035085D01*
X75057000Y-26035085D01*
X75057000Y-27178000D01*
X76200624Y-27178000D01*
X76224163Y-27134905D01*
X80823000Y-27134905D01*
X80823000Y-27475095D01*
X80889368Y-27808747D01*
X81019553Y-28123041D01*
X81208552Y-28405898D01*
X81449102Y-28646448D01*
X81731959Y-28835447D01*
X82046253Y-28965632D01*
X82379905Y-29032000D01*
X82720095Y-29032000D01*
X83053747Y-28965632D01*
X83368041Y-28835447D01*
X83650898Y-28646448D01*
X83891448Y-28405898D01*
X84080447Y-28123041D01*
X84210632Y-27808747D01*
X84241405Y-27654040D01*
X85603091Y-27654040D01*
X85697930Y-27918881D01*
X85842615Y-28160131D01*
X86031586Y-28368519D01*
X86257580Y-28536037D01*
X86511913Y-28656246D01*
X86645961Y-28696904D01*
X86868000Y-28574915D01*
X86868000Y-27432000D01*
X87122000Y-27432000D01*
X87122000Y-28574915D01*
X87344039Y-28696904D01*
X87478087Y-28656246D01*
X87732420Y-28536037D01*
X87958414Y-28368519D01*
X88147385Y-28160131D01*
X88292070Y-27918881D01*
X88386909Y-27654040D01*
X88265624Y-27432000D01*
X87122000Y-27432000D01*
X86868000Y-27432000D01*
X85724376Y-27432000D01*
X85603091Y-27654040D01*
X84241405Y-27654040D01*
X84277000Y-27475095D01*
X84277000Y-27134905D01*
X84241406Y-26955960D01*
X85603091Y-26955960D01*
X85724376Y-27178000D01*
X86868000Y-27178000D01*
X86868000Y-26035085D01*
X87122000Y-26035085D01*
X87122000Y-27178000D01*
X88265624Y-27178000D01*
X88386909Y-26955960D01*
X88292070Y-26691119D01*
X88147385Y-26449869D01*
X87958414Y-26241481D01*
X87732420Y-26073963D01*
X87478087Y-25953754D01*
X87344039Y-25913096D01*
X87122000Y-26035085D01*
X86868000Y-26035085D01*
X86645961Y-25913096D01*
X86511913Y-25953754D01*
X86257580Y-26073963D01*
X86031586Y-26241481D01*
X85842615Y-26449869D01*
X85697930Y-26691119D01*
X85603091Y-26955960D01*
X84241406Y-26955960D01*
X84210632Y-26801253D01*
X84080447Y-26486959D01*
X83891448Y-26204102D01*
X83650898Y-25963552D01*
X83368041Y-25774553D01*
X83053747Y-25644368D01*
X82720095Y-25578000D01*
X82379905Y-25578000D01*
X82046253Y-25644368D01*
X81731959Y-25774553D01*
X81449102Y-25963552D01*
X81208552Y-26204102D01*
X81019553Y-26486959D01*
X80889368Y-26801253D01*
X80823000Y-27134905D01*
X76224163Y-27134905D01*
X76321909Y-26955960D01*
X76227070Y-26691119D01*
X76082385Y-26449869D01*
X75893414Y-26241481D01*
X75667420Y-26073963D01*
X75413087Y-25953754D01*
X75279039Y-25913096D01*
X75057000Y-26035085D01*
X74803000Y-26035085D01*
X74580961Y-25913096D01*
X74446913Y-25953754D01*
X74192580Y-26073963D01*
X73966586Y-26241481D01*
X73777615Y-26449869D01*
X73632930Y-26691119D01*
X73538091Y-26955960D01*
X72176406Y-26955960D01*
X72145632Y-26801253D01*
X72015447Y-26486959D01*
X71826448Y-26204102D01*
X71585898Y-25963552D01*
X71303041Y-25774553D01*
X70988747Y-25644368D01*
X70655095Y-25578000D01*
X70314905Y-25578000D01*
X69981253Y-25644368D01*
X69666959Y-25774553D01*
X69384102Y-25963552D01*
X69143552Y-26204102D01*
X68954553Y-26486959D01*
X68824368Y-26801253D01*
X68758000Y-27134905D01*
X61937000Y-27134905D01*
X61937000Y-21297000D01*
X141263000Y-21297000D01*
X141263001Y-117133000D01*
X141263001Y-117133000D01*
G37*
X141263001Y-117133000D02*
X106696676Y-117133000D01*
X113019042Y-110810634D01*
X113061659Y-110775659D01*
X113201245Y-110605574D01*
X113304966Y-110411525D01*
X113368837Y-110200970D01*
X113385000Y-110036867D01*
X113385000Y-110036860D01*
X113390403Y-109982001D01*
X113385000Y-109927141D01*
X113385000Y-71174859D01*
X113390403Y-71120000D01*
X113385000Y-71065140D01*
X113385000Y-71065133D01*
X113368837Y-70901030D01*
X113304966Y-70690475D01*
X113304966Y-70690474D01*
X113246098Y-70580341D01*
X113201245Y-70496426D01*
X113146747Y-70430020D01*
X113096635Y-70368958D01*
X113096630Y-70368953D01*
X113061659Y-70326341D01*
X113019047Y-70291370D01*
X101642639Y-58914963D01*
X101642634Y-58914957D01*
X101634222Y-58906545D01*
X101647732Y-58873930D01*
X101741000Y-58405039D01*
X101741000Y-57926961D01*
X101647732Y-57458070D01*
X101464779Y-57016385D01*
X101199174Y-56618878D01*
X100861122Y-56280826D01*
X100463615Y-56015221D01*
X100021930Y-55832268D01*
X99553039Y-55739000D01*
X99074961Y-55739000D01*
X98606070Y-55832268D01*
X98164385Y-56015221D01*
X97766878Y-56280826D01*
X97428826Y-56618878D01*
X97163221Y-57016385D01*
X97016998Y-57369396D01*
X97016998Y-41995312D01*
X97296961Y-42051000D01*
X97775039Y-42051000D01*
X98243930Y-41957732D01*
X98685615Y-41774779D01*
X99083122Y-41509174D01*
X99421174Y-41171122D01*
X99686779Y-40773615D01*
X99869732Y-40331930D01*
X99963000Y-39863039D01*
X99963000Y-39384961D01*
X99869732Y-38916070D01*
X99686779Y-38474385D01*
X99421174Y-38076878D01*
X99083122Y-37738826D01*
X98685615Y-37473221D01*
X98243930Y-37290268D01*
X97775039Y-37197000D01*
X97296961Y-37197000D01*
X96828070Y-37290268D01*
X96386385Y-37473221D01*
X95988878Y-37738826D01*
X95650826Y-38076878D01*
X95385221Y-38474385D01*
X95202268Y-38916070D01*
X95109000Y-39384961D01*
X95109000Y-39863039D01*
X95202268Y-40331930D01*
X95215778Y-40364546D01*
X95148956Y-40431368D01*
X95120444Y-40454768D01*
X92776634Y-38110958D01*
X92741659Y-38068341D01*
X92571574Y-37928755D01*
X92377525Y-37825034D01*
X92166970Y-37761163D01*
X92002867Y-37745000D01*
X92002859Y-37745000D01*
X91948000Y-37739597D01*
X91893141Y-37745000D01*
X80396289Y-37745000D01*
X80382779Y-37712385D01*
X80117174Y-37314878D01*
X79779122Y-36976826D01*
X79381615Y-36711221D01*
X78939930Y-36528268D01*
X78471039Y-36435000D01*
X77992961Y-36435000D01*
X77524070Y-36528268D01*
X77082385Y-36711221D01*
X76684878Y-36976826D01*
X76346826Y-37314878D01*
X76081221Y-37712385D01*
X75898268Y-38154070D01*
X75805000Y-38622961D01*
X75805000Y-39101039D01*
X75898268Y-39569930D01*
X76081221Y-40011615D01*
X76346826Y-40409122D01*
X76684878Y-40747174D01*
X77082385Y-41012779D01*
X77524070Y-41195732D01*
X77992961Y-41289000D01*
X78471039Y-41289000D01*
X78939930Y-41195732D01*
X79381615Y-41012779D01*
X79779122Y-40747174D01*
X80117174Y-40409122D01*
X80382779Y-40011615D01*
X80396289Y-39979000D01*
X91485324Y-39979000D01*
X94133000Y-42626676D01*
X94133001Y-79650176D01*
X94113615Y-79637223D01*
X94081000Y-79623713D01*
X94081000Y-71428859D01*
X94086403Y-71374000D01*
X94081000Y-71319140D01*
X94081000Y-71319133D01*
X94064837Y-71155030D01*
X94049673Y-71105039D01*
X94037567Y-71065133D01*
X94000966Y-70944475D01*
X93897245Y-70750426D01*
X93880173Y-70729624D01*
X93792635Y-70622958D01*
X93792630Y-70622953D01*
X93757659Y-70580341D01*
X93715047Y-70545370D01*
X82892984Y-59723308D01*
X82952152Y-59683773D01*
X83178773Y-59457152D01*
X83356828Y-59190673D01*
X83479475Y-58894578D01*
X83542000Y-58580245D01*
X83542000Y-58259755D01*
X83479475Y-57945422D01*
X83356828Y-57649327D01*
X83178773Y-57382848D01*
X82952152Y-57156227D01*
X82942833Y-57150000D01*
X82952152Y-57143773D01*
X83178773Y-56917152D01*
X83356828Y-56650673D01*
X83479475Y-56354578D01*
X83542000Y-56040245D01*
X83542000Y-55719755D01*
X85368000Y-55719755D01*
X85368000Y-56040245D01*
X85430525Y-56354578D01*
X85553172Y-56650673D01*
X85731227Y-56917152D01*
X85957848Y-57143773D01*
X85967167Y-57150000D01*
X85957848Y-57156227D01*
X85731227Y-57382848D01*
X85553172Y-57649327D01*
X85430525Y-57945422D01*
X85368000Y-58259755D01*
X85368000Y-58580245D01*
X85430525Y-58894578D01*
X85553172Y-59190673D01*
X85731227Y-59457152D01*
X85957848Y-59683773D01*
X86224327Y-59861828D01*
X86520422Y-59984475D01*
X86834755Y-60047000D01*
X87155245Y-60047000D01*
X87469578Y-59984475D01*
X87765673Y-59861828D01*
X88032152Y-59683773D01*
X88258773Y-59457152D01*
X88436828Y-59190673D01*
X88559475Y-58894578D01*
X88622000Y-58580245D01*
X88622000Y-58259755D01*
X88559475Y-57945422D01*
X88436828Y-57649327D01*
X88258773Y-57382848D01*
X88032152Y-57156227D01*
X88022833Y-57150000D01*
X88032152Y-57143773D01*
X88258773Y-56917152D01*
X88436828Y-56650673D01*
X88559475Y-56354578D01*
X88622000Y-56040245D01*
X88622000Y-55719755D01*
X88559475Y-55405422D01*
X88436828Y-55109327D01*
X88258773Y-54842848D01*
X88032152Y-54616227D01*
X87765673Y-54438172D01*
X87469578Y-54315525D01*
X87155245Y-54253000D01*
X86834755Y-54253000D01*
X86520422Y-54315525D01*
X86224327Y-54438172D01*
X85957848Y-54616227D01*
X85731227Y-54842848D01*
X85553172Y-55109327D01*
X85430525Y-55405422D01*
X85368000Y-55719755D01*
X83542000Y-55719755D01*
X83479475Y-55405422D01*
X83356828Y-55109327D01*
X83178773Y-54842848D01*
X82952152Y-54616227D01*
X82685673Y-54438172D01*
X82389578Y-54315525D01*
X82075245Y-54253000D01*
X81754755Y-54253000D01*
X81440422Y-54315525D01*
X81144327Y-54438172D01*
X80877848Y-54616227D01*
X80651227Y-54842848D01*
X80473172Y-55109327D01*
X80372885Y-55351439D01*
X80371174Y-55348878D01*
X80033122Y-55010826D01*
X79635615Y-54745221D01*
X79193930Y-54562268D01*
X78725039Y-54469000D01*
X78246961Y-54469000D01*
X77778070Y-54562268D01*
X77336385Y-54745221D01*
X76938878Y-55010826D01*
X76600826Y-55348878D01*
X76510205Y-55484502D01*
X76494475Y-55405422D01*
X76371828Y-55109327D01*
X76193773Y-54842848D01*
X75967152Y-54616227D01*
X75700673Y-54438172D01*
X75404578Y-54315525D01*
X75090245Y-54253000D01*
X74769755Y-54253000D01*
X74455422Y-54315525D01*
X74159327Y-54438172D01*
X73892848Y-54616227D01*
X73666227Y-54842848D01*
X73488172Y-55109327D01*
X73365525Y-55405422D01*
X73303000Y-55719755D01*
X73303000Y-56040245D01*
X73365525Y-56354578D01*
X73488172Y-56650673D01*
X73666227Y-56917152D01*
X73892848Y-57143773D01*
X73902167Y-57150000D01*
X73892848Y-57156227D01*
X73666227Y-57382848D01*
X73488172Y-57649327D01*
X73365525Y-57945422D01*
X73303000Y-58259755D01*
X73303000Y-58580245D01*
X73365525Y-58894578D01*
X73488172Y-59190673D01*
X73666227Y-59457152D01*
X73892848Y-59683773D01*
X74159327Y-59861828D01*
X74455422Y-59984475D01*
X74769755Y-60047000D01*
X75090245Y-60047000D01*
X75404578Y-59984475D01*
X75700673Y-59861828D01*
X75967152Y-59683773D01*
X76193773Y-59457152D01*
X76371828Y-59190673D01*
X76494475Y-58894578D01*
X76557000Y-58580245D01*
X76557000Y-58377532D01*
X76600826Y-58443122D01*
X76938878Y-58781174D01*
X77336385Y-59046779D01*
X77778070Y-59229732D01*
X78246961Y-59323000D01*
X78725039Y-59323000D01*
X79193930Y-59229732D01*
X79226546Y-59216222D01*
X91847000Y-71836677D01*
X91847001Y-79611806D01*
X91847000Y-79611816D01*
X91847000Y-79623713D01*
X91814385Y-79637223D01*
X91416878Y-79902828D01*
X91078826Y-80240880D01*
X90813221Y-80638387D01*
X90630268Y-81080072D01*
X90537000Y-81548963D01*
X90537000Y-82027041D01*
X90630268Y-82495932D01*
X90813221Y-82937617D01*
X91078826Y-83335124D01*
X91416878Y-83673176D01*
X91814385Y-83938781D01*
X92256070Y-84121734D01*
X92724961Y-84215002D01*
X93203039Y-84215002D01*
X93671930Y-84121734D01*
X94113615Y-83938781D01*
X94133001Y-83925828D01*
X94133001Y-109138323D01*
X93228958Y-110042366D01*
X93186341Y-110077341D01*
X93046755Y-110247426D01*
X92943034Y-110441476D01*
X92938941Y-110454970D01*
X92883430Y-110637966D01*
X92879163Y-110652031D01*
X92863000Y-110816134D01*
X92863000Y-110816141D01*
X92857597Y-110871000D01*
X92863000Y-110925860D01*
X92863001Y-112917894D01*
X92717392Y-113037392D01*
X92710000Y-113046399D01*
X92702608Y-113037392D01*
X92432025Y-112815330D01*
X92123319Y-112650323D01*
X91788353Y-112548712D01*
X91527296Y-112523000D01*
X91352704Y-112523000D01*
X91091647Y-112548712D01*
X90756681Y-112650323D01*
X90447975Y-112815330D01*
X90177392Y-113037392D01*
X90170000Y-113046399D01*
X90162608Y-113037392D01*
X89892025Y-112815330D01*
X89583319Y-112650323D01*
X89248353Y-112548712D01*
X88987296Y-112523000D01*
X88812704Y-112523000D01*
X88551647Y-112548712D01*
X88216681Y-112650323D01*
X87907975Y-112815330D01*
X87637392Y-113037392D01*
X87630000Y-113046399D01*
X87622608Y-113037392D01*
X87352025Y-112815330D01*
X87043319Y-112650323D01*
X86708353Y-112548712D01*
X86447296Y-112523000D01*
X86272704Y-112523000D01*
X86011647Y-112548712D01*
X85676681Y-112650323D01*
X85367975Y-112815330D01*
X85097392Y-113037392D01*
X84894436Y-113284694D01*
X84820269Y-113202412D01*
X84586920Y-113028359D01*
X84324099Y-112903175D01*
X84176890Y-112858524D01*
X83947000Y-112979845D01*
X83947000Y-114173000D01*
X83967000Y-114173000D01*
X83967000Y-114427000D01*
X83947000Y-114427000D01*
X83947000Y-115620155D01*
X84176890Y-115741476D01*
X84324099Y-115696825D01*
X84586920Y-115571641D01*
X84820269Y-115397588D01*
X84894436Y-115315306D01*
X85097392Y-115562608D01*
X85367975Y-115784670D01*
X85676681Y-115949677D01*
X86011647Y-116051288D01*
X86272704Y-116077000D01*
X86447296Y-116077000D01*
X86708353Y-116051288D01*
X87043319Y-115949677D01*
X87352025Y-115784670D01*
X87622608Y-115562608D01*
X87630000Y-115553601D01*
X87637392Y-115562608D01*
X87907975Y-115784670D01*
X88216681Y-115949677D01*
X88551647Y-116051288D01*
X88812704Y-116077000D01*
X88987296Y-116077000D01*
X89248353Y-116051288D01*
X89583319Y-115949677D01*
X89892025Y-115784670D01*
X90162608Y-115562608D01*
X90170000Y-115553601D01*
X90177392Y-115562608D01*
X90447975Y-115784670D01*
X90756681Y-115949677D01*
X91091647Y-116051288D01*
X91352704Y-116077000D01*
X91527296Y-116077000D01*
X91788353Y-116051288D01*
X92123319Y-115949677D01*
X92432025Y-115784670D01*
X92702608Y-115562608D01*
X92710000Y-115553601D01*
X92717392Y-115562608D01*
X92987975Y-115784670D01*
X93296681Y-115949677D01*
X93631647Y-116051288D01*
X93892704Y-116077000D01*
X94067296Y-116077000D01*
X94328353Y-116051288D01*
X94663319Y-115949677D01*
X94972025Y-115784670D01*
X95242608Y-115562608D01*
X95250000Y-115553601D01*
X95257392Y-115562608D01*
X95527975Y-115784670D01*
X95836681Y-115949677D01*
X96171647Y-116051288D01*
X96432704Y-116077000D01*
X96607296Y-116077000D01*
X96707459Y-116067135D01*
X97773324Y-117133000D01*
X61937000Y-117133000D01*
X61937000Y-113450000D01*
X79498515Y-113450000D01*
X79498515Y-115150000D01*
X79516413Y-115331724D01*
X79569420Y-115506464D01*
X79655499Y-115667505D01*
X79771341Y-115808659D01*
X79912495Y-115924501D01*
X80073536Y-116010580D01*
X80248276Y-116063587D01*
X80430000Y-116081485D01*
X82130000Y-116081485D01*
X82311724Y-116063587D01*
X82486464Y-116010580D01*
X82647505Y-115924501D01*
X82788659Y-115808659D01*
X82904501Y-115667505D01*
X82983488Y-115519733D01*
X83053080Y-115571641D01*
X83315901Y-115696825D01*
X83463110Y-115741476D01*
X83693000Y-115620155D01*
X83693000Y-114427000D01*
X83673000Y-114427000D01*
X83673000Y-114173000D01*
X83693000Y-114173000D01*
X83693000Y-112979845D01*
X83463110Y-112858524D01*
X83315901Y-112903175D01*
X83053080Y-113028359D01*
X82983488Y-113080267D01*
X82904501Y-112932495D01*
X82788659Y-112791341D01*
X82647505Y-112675499D01*
X82486464Y-112589420D01*
X82311724Y-112536413D01*
X82130000Y-112518515D01*
X80430000Y-112518515D01*
X80248276Y-112536413D01*
X80073536Y-112589420D01*
X79912495Y-112675499D01*
X79771341Y-112791341D01*
X79655499Y-112932495D01*
X79569420Y-113093536D01*
X79516413Y-113268276D01*
X79498515Y-113450000D01*
X61937000Y-113450000D01*
X61937000Y-102699905D01*
X68123000Y-102699905D01*
X68123000Y-103040095D01*
X68189368Y-103373747D01*
X68319553Y-103688041D01*
X68508552Y-103970898D01*
X68749102Y-104211448D01*
X69031959Y-104400447D01*
X69346253Y-104530632D01*
X69679905Y-104597000D01*
X70020095Y-104597000D01*
X70353747Y-104530632D01*
X70668041Y-104400447D01*
X70950898Y-104211448D01*
X71191448Y-103970898D01*
X71380447Y-103688041D01*
X71510632Y-103373747D01*
X71577000Y-103040095D01*
X71577000Y-102870000D01*
X83354644Y-102870000D01*
X83387988Y-103208551D01*
X83486740Y-103534092D01*
X83647104Y-103834112D01*
X83862918Y-104097082D01*
X84125888Y-104312896D01*
X84425908Y-104473260D01*
X84751449Y-104572012D01*
X85005159Y-104597000D01*
X85174841Y-104597000D01*
X85428551Y-104572012D01*
X85754092Y-104473260D01*
X86054112Y-104312896D01*
X86317082Y-104097082D01*
X86532896Y-103834112D01*
X86693260Y-103534092D01*
X86792012Y-103208551D01*
X86825356Y-102870000D01*
X86792012Y-102531449D01*
X86693260Y-102205908D01*
X86532896Y-101905888D01*
X86317082Y-101642918D01*
X86054112Y-101427104D01*
X85754092Y-101266740D01*
X85428551Y-101167988D01*
X85174841Y-101143000D01*
X85005159Y-101143000D01*
X84751449Y-101167988D01*
X84425908Y-101266740D01*
X84125888Y-101427104D01*
X83862918Y-101642918D01*
X83647104Y-101905888D01*
X83486740Y-102205908D01*
X83387988Y-102531449D01*
X83354644Y-102870000D01*
X71577000Y-102870000D01*
X71577000Y-102699905D01*
X71510632Y-102366253D01*
X71380447Y-102051959D01*
X71191448Y-101769102D01*
X70950898Y-101528552D01*
X70668041Y-101339553D01*
X70353747Y-101209368D01*
X70020095Y-101143000D01*
X69679905Y-101143000D01*
X69346253Y-101209368D01*
X69031959Y-101339553D01*
X68749102Y-101528552D01*
X68508552Y-101769102D01*
X68319553Y-102051959D01*
X68189368Y-102366253D01*
X68123000Y-102699905D01*
X61937000Y-102699905D01*
X61937000Y-98264755D01*
X64413000Y-98264755D01*
X64413000Y-98585245D01*
X64475525Y-98899578D01*
X64598172Y-99195673D01*
X64776227Y-99462152D01*
X65002848Y-99688773D01*
X65012167Y-99695000D01*
X65002848Y-99701227D01*
X64776227Y-99927848D01*
X64598172Y-100194327D01*
X64475525Y-100490422D01*
X64413000Y-100804755D01*
X64413000Y-101125245D01*
X64475525Y-101439578D01*
X64598172Y-101735673D01*
X64776227Y-102002152D01*
X65002848Y-102228773D01*
X65269327Y-102406828D01*
X65565422Y-102529475D01*
X65879755Y-102592000D01*
X66200245Y-102592000D01*
X66514578Y-102529475D01*
X66810673Y-102406828D01*
X67077152Y-102228773D01*
X67303773Y-102002152D01*
X67481828Y-101735673D01*
X67604475Y-101439578D01*
X67667000Y-101125245D01*
X67667000Y-100804755D01*
X67604475Y-100490422D01*
X67481828Y-100194327D01*
X67303773Y-99927848D01*
X67077152Y-99701227D01*
X67067833Y-99695000D01*
X67077152Y-99688773D01*
X67303773Y-99462152D01*
X67481828Y-99195673D01*
X67604475Y-98899578D01*
X67667000Y-98585245D01*
X67667000Y-98264755D01*
X67604475Y-97950422D01*
X67481828Y-97654327D01*
X67303773Y-97387848D01*
X67077152Y-97161227D01*
X66810673Y-96983172D01*
X66514578Y-96860525D01*
X66200245Y-96798000D01*
X65879755Y-96798000D01*
X65565422Y-96860525D01*
X65269327Y-96983172D01*
X65002848Y-97161227D01*
X64776227Y-97387848D01*
X64598172Y-97654327D01*
X64475525Y-97950422D01*
X64413000Y-98264755D01*
X61937000Y-98264755D01*
X61937000Y-96234039D01*
X68458096Y-96234039D01*
X68498754Y-96368087D01*
X68618963Y-96622420D01*
X68786481Y-96848414D01*
X68994869Y-97037385D01*
X69236119Y-97182070D01*
X69500960Y-97276909D01*
X69723000Y-97155624D01*
X69723000Y-96012000D01*
X69977000Y-96012000D01*
X69977000Y-97155624D01*
X70199040Y-97276909D01*
X70463881Y-97182070D01*
X70705131Y-97037385D01*
X70913519Y-96848414D01*
X71081037Y-96622420D01*
X71201246Y-96368087D01*
X71241904Y-96234039D01*
X71119915Y-96012000D01*
X69977000Y-96012000D01*
X69723000Y-96012000D01*
X68580085Y-96012000D01*
X68458096Y-96234039D01*
X61937000Y-96234039D01*
X61937000Y-95535961D01*
X68458096Y-95535961D01*
X68580085Y-95758000D01*
X69723000Y-95758000D01*
X69723000Y-94614376D01*
X69977000Y-94614376D01*
X69977000Y-95758000D01*
X71119915Y-95758000D01*
X71143591Y-95714905D01*
X83363000Y-95714905D01*
X83363000Y-96055095D01*
X83429368Y-96388747D01*
X83559553Y-96703041D01*
X83748552Y-96985898D01*
X83989102Y-97226448D01*
X84271959Y-97415447D01*
X84586253Y-97545632D01*
X84919905Y-97612000D01*
X85260095Y-97612000D01*
X85593747Y-97545632D01*
X85908041Y-97415447D01*
X86190898Y-97226448D01*
X86431448Y-96985898D01*
X86620447Y-96703041D01*
X86750632Y-96388747D01*
X86817000Y-96055095D01*
X86817000Y-95714905D01*
X86750632Y-95381253D01*
X86620447Y-95066959D01*
X86431448Y-94784102D01*
X86190898Y-94543552D01*
X85908041Y-94354553D01*
X85593747Y-94224368D01*
X85260095Y-94158000D01*
X84919905Y-94158000D01*
X84586253Y-94224368D01*
X84271959Y-94354553D01*
X83989102Y-94543552D01*
X83748552Y-94784102D01*
X83559553Y-95066959D01*
X83429368Y-95381253D01*
X83363000Y-95714905D01*
X71143591Y-95714905D01*
X71241904Y-95535961D01*
X71201246Y-95401913D01*
X71081037Y-95147580D01*
X70913519Y-94921586D01*
X70705131Y-94732615D01*
X70463881Y-94587930D01*
X70199040Y-94493091D01*
X69977000Y-94614376D01*
X69723000Y-94614376D01*
X69500960Y-94493091D01*
X69236119Y-94587930D01*
X68994869Y-94732615D01*
X68786481Y-94921586D01*
X68618963Y-95147580D01*
X68498754Y-95401913D01*
X68458096Y-95535961D01*
X61937000Y-95535961D01*
X61937000Y-89249039D01*
X68458096Y-89249039D01*
X68498754Y-89383087D01*
X68618963Y-89637420D01*
X68786481Y-89863414D01*
X68994869Y-90052385D01*
X69236119Y-90197070D01*
X69500960Y-90291909D01*
X69723000Y-90170624D01*
X69723000Y-89027000D01*
X69977000Y-89027000D01*
X69977000Y-90170624D01*
X70199040Y-90291909D01*
X70463881Y-90197070D01*
X70705131Y-90052385D01*
X70913519Y-89863414D01*
X71081037Y-89637420D01*
X71201246Y-89383087D01*
X71241904Y-89249039D01*
X71119915Y-89027000D01*
X69977000Y-89027000D01*
X69723000Y-89027000D01*
X68580085Y-89027000D01*
X68458096Y-89249039D01*
X61937000Y-89249039D01*
X61937000Y-88550961D01*
X68458096Y-88550961D01*
X68580085Y-88773000D01*
X69723000Y-88773000D01*
X69723000Y-87629376D01*
X69977000Y-87629376D01*
X69977000Y-88773000D01*
X71119915Y-88773000D01*
X71143591Y-88729905D01*
X83363000Y-88729905D01*
X83363000Y-89070095D01*
X83429368Y-89403747D01*
X83559553Y-89718041D01*
X83748552Y-90000898D01*
X83989102Y-90241448D01*
X84271959Y-90430447D01*
X84586253Y-90560632D01*
X84919905Y-90627000D01*
X85260095Y-90627000D01*
X85593747Y-90560632D01*
X85908041Y-90430447D01*
X86190898Y-90241448D01*
X86431448Y-90000898D01*
X86620447Y-89718041D01*
X86750632Y-89403747D01*
X86817000Y-89070095D01*
X86817000Y-88729905D01*
X86750632Y-88396253D01*
X86620447Y-88081959D01*
X86431448Y-87799102D01*
X86190898Y-87558552D01*
X85908041Y-87369553D01*
X85593747Y-87239368D01*
X85260095Y-87173000D01*
X84919905Y-87173000D01*
X84586253Y-87239368D01*
X84271959Y-87369553D01*
X83989102Y-87558552D01*
X83748552Y-87799102D01*
X83559553Y-88081959D01*
X83429368Y-88396253D01*
X83363000Y-88729905D01*
X71143591Y-88729905D01*
X71241904Y-88550961D01*
X71201246Y-88416913D01*
X71081037Y-88162580D01*
X70913519Y-87936586D01*
X70705131Y-87747615D01*
X70463881Y-87602930D01*
X70199040Y-87508091D01*
X69977000Y-87629376D01*
X69723000Y-87629376D01*
X69500960Y-87508091D01*
X69236119Y-87602930D01*
X68994869Y-87747615D01*
X68786481Y-87936586D01*
X68618963Y-88162580D01*
X68498754Y-88416913D01*
X68458096Y-88550961D01*
X61937000Y-88550961D01*
X61937000Y-84169039D01*
X68458096Y-84169039D01*
X68498754Y-84303087D01*
X68618963Y-84557420D01*
X68786481Y-84783414D01*
X68994869Y-84972385D01*
X69236119Y-85117070D01*
X69500960Y-85211909D01*
X69723000Y-85090624D01*
X69723000Y-83947000D01*
X69977000Y-83947000D01*
X69977000Y-85090624D01*
X70199040Y-85211909D01*
X70463881Y-85117070D01*
X70705131Y-84972385D01*
X70913519Y-84783414D01*
X71081037Y-84557420D01*
X71201246Y-84303087D01*
X71241904Y-84169039D01*
X71119915Y-83947000D01*
X69977000Y-83947000D01*
X69723000Y-83947000D01*
X68580085Y-83947000D01*
X68458096Y-84169039D01*
X61937000Y-84169039D01*
X61937000Y-83470961D01*
X68458096Y-83470961D01*
X68580085Y-83693000D01*
X69723000Y-83693000D01*
X69723000Y-82549376D01*
X69977000Y-82549376D01*
X69977000Y-83693000D01*
X71119915Y-83693000D01*
X71241904Y-83470961D01*
X71201246Y-83336913D01*
X71081037Y-83082580D01*
X70913519Y-82856586D01*
X70705131Y-82667615D01*
X70463881Y-82522930D01*
X70199040Y-82428091D01*
X69977000Y-82549376D01*
X69723000Y-82549376D01*
X69500960Y-82428091D01*
X69236119Y-82522930D01*
X68994869Y-82667615D01*
X68786481Y-82856586D01*
X68618963Y-83082580D01*
X68498754Y-83336913D01*
X68458096Y-83470961D01*
X61937000Y-83470961D01*
X61937000Y-77934905D01*
X68123000Y-77934905D01*
X68123000Y-78275095D01*
X68189368Y-78608747D01*
X68319553Y-78923041D01*
X68508552Y-79205898D01*
X68749102Y-79446448D01*
X69031959Y-79635447D01*
X69346253Y-79765632D01*
X69679905Y-79832000D01*
X70020095Y-79832000D01*
X70353747Y-79765632D01*
X70668041Y-79635447D01*
X70950898Y-79446448D01*
X71191448Y-79205898D01*
X71380447Y-78923041D01*
X71510632Y-78608747D01*
X71577000Y-78275095D01*
X71577000Y-77934905D01*
X71510632Y-77601253D01*
X71380447Y-77286959D01*
X71191448Y-77004102D01*
X70950898Y-76763552D01*
X70668041Y-76574553D01*
X70353747Y-76444368D01*
X70020095Y-76378000D01*
X69679905Y-76378000D01*
X69346253Y-76444368D01*
X69031959Y-76574553D01*
X68749102Y-76763552D01*
X68508552Y-77004102D01*
X68319553Y-77286959D01*
X68189368Y-77601253D01*
X68123000Y-77934905D01*
X61937000Y-77934905D01*
X61937000Y-70949905D01*
X68123000Y-70949905D01*
X68123000Y-71290095D01*
X68189368Y-71623747D01*
X68319553Y-71938041D01*
X68508552Y-72220898D01*
X68749102Y-72461448D01*
X69031959Y-72650447D01*
X69346253Y-72780632D01*
X69679905Y-72847000D01*
X70020095Y-72847000D01*
X70353747Y-72780632D01*
X70668041Y-72650447D01*
X70950898Y-72461448D01*
X71191448Y-72220898D01*
X71380447Y-71938041D01*
X71510632Y-71623747D01*
X71577000Y-71290095D01*
X71577000Y-70949905D01*
X71510632Y-70616253D01*
X71380447Y-70301959D01*
X71191448Y-70019102D01*
X70950898Y-69778552D01*
X70668041Y-69589553D01*
X70353747Y-69459368D01*
X70020095Y-69393000D01*
X69679905Y-69393000D01*
X69346253Y-69459368D01*
X69031959Y-69589553D01*
X68749102Y-69778552D01*
X68508552Y-70019102D01*
X68319553Y-70301959D01*
X68189368Y-70616253D01*
X68123000Y-70949905D01*
X61937000Y-70949905D01*
X61937000Y-60212961D01*
X64121000Y-60212961D01*
X64121000Y-60691039D01*
X64214268Y-61159930D01*
X64397221Y-61601615D01*
X64662826Y-61999122D01*
X65000878Y-62337174D01*
X65398385Y-62602779D01*
X65840070Y-62785732D01*
X66308961Y-62879000D01*
X66787039Y-62879000D01*
X66930999Y-62850365D01*
X66930999Y-63675140D01*
X66925596Y-63729999D01*
X66930999Y-63784858D01*
X66930999Y-63784865D01*
X66947162Y-63948968D01*
X67011033Y-64159523D01*
X67114754Y-64353573D01*
X67254340Y-64523658D01*
X67296957Y-64558633D01*
X84846020Y-82107697D01*
X84586253Y-82159368D01*
X84271959Y-82289553D01*
X83989102Y-82478552D01*
X83748552Y-82719102D01*
X83559553Y-83001959D01*
X83429368Y-83316253D01*
X83363000Y-83649905D01*
X83363000Y-83990095D01*
X83429368Y-84323747D01*
X83559553Y-84638041D01*
X83748552Y-84920898D01*
X83989102Y-85161448D01*
X84271959Y-85350447D01*
X84586253Y-85480632D01*
X84919905Y-85547000D01*
X85260095Y-85547000D01*
X85593747Y-85480632D01*
X85908041Y-85350447D01*
X86190898Y-85161448D01*
X86431448Y-84920898D01*
X86620447Y-84638041D01*
X86750632Y-84323747D01*
X86802303Y-84063980D01*
X89052999Y-86314676D01*
X89052999Y-87751711D01*
X89020383Y-87765221D01*
X88622876Y-88030826D01*
X88284824Y-88368878D01*
X88019219Y-88766385D01*
X87836266Y-89208070D01*
X87742998Y-89676961D01*
X87742998Y-90155039D01*
X87836266Y-90623930D01*
X88019219Y-91065615D01*
X88284824Y-91463122D01*
X88622876Y-91801174D01*
X89020383Y-92066779D01*
X89462068Y-92249732D01*
X89930959Y-92343000D01*
X90409037Y-92343000D01*
X90877928Y-92249732D01*
X91319613Y-92066779D01*
X91717120Y-91801174D01*
X92055172Y-91463122D01*
X92320777Y-91065615D01*
X92503730Y-90623930D01*
X92596998Y-90155039D01*
X92596998Y-89676961D01*
X92503730Y-89208070D01*
X92320777Y-88766385D01*
X92055172Y-88368878D01*
X91717120Y-88030826D01*
X91319613Y-87765221D01*
X91286998Y-87751711D01*
X91286998Y-85906857D01*
X91292401Y-85851997D01*
X91286998Y-85797138D01*
X91286998Y-85797131D01*
X91270835Y-85633028D01*
X91206964Y-85422473D01*
X91103243Y-85228424D01*
X91011857Y-85117070D01*
X90998633Y-85100956D01*
X90998628Y-85100951D01*
X90963657Y-85058339D01*
X90921045Y-85023368D01*
X85640419Y-79742742D01*
X85754092Y-79708260D01*
X86054112Y-79547896D01*
X86317082Y-79332082D01*
X86532896Y-79069112D01*
X86693260Y-78769092D01*
X86792012Y-78443551D01*
X86825356Y-78105000D01*
X86792012Y-77766449D01*
X86693260Y-77440908D01*
X86532896Y-77140888D01*
X86317082Y-76877918D01*
X86054112Y-76662104D01*
X85754092Y-76501740D01*
X85428551Y-76402988D01*
X85174841Y-76378000D01*
X85005159Y-76378000D01*
X84751449Y-76402988D01*
X84425908Y-76501740D01*
X84125888Y-76662104D01*
X83862918Y-76877918D01*
X83647104Y-77140888D01*
X83486740Y-77440908D01*
X83452258Y-77554581D01*
X77017677Y-71120000D01*
X83354644Y-71120000D01*
X83387988Y-71458551D01*
X83486740Y-71784092D01*
X83647104Y-72084112D01*
X83862918Y-72347082D01*
X84125888Y-72562896D01*
X84425908Y-72723260D01*
X84751449Y-72822012D01*
X85005159Y-72847000D01*
X85174841Y-72847000D01*
X85428551Y-72822012D01*
X85754092Y-72723260D01*
X86054112Y-72562896D01*
X86317082Y-72347082D01*
X86532896Y-72084112D01*
X86693260Y-71784092D01*
X86792012Y-71458551D01*
X86825356Y-71120000D01*
X86792012Y-70781449D01*
X86693260Y-70455908D01*
X86532896Y-70155888D01*
X86317082Y-69892918D01*
X86054112Y-69677104D01*
X85754092Y-69516740D01*
X85428551Y-69417988D01*
X85174841Y-69393000D01*
X85005159Y-69393000D01*
X84751449Y-69417988D01*
X84425908Y-69516740D01*
X84125888Y-69677104D01*
X83862918Y-69892918D01*
X83647104Y-70155888D01*
X83486740Y-70455908D01*
X83387988Y-70781449D01*
X83354644Y-71120000D01*
X77017677Y-71120000D01*
X69164999Y-63267323D01*
X69164999Y-62006858D01*
X69170402Y-61951999D01*
X69164999Y-61897139D01*
X69164999Y-61897132D01*
X69148836Y-61733029D01*
X69084965Y-61522474D01*
X68981244Y-61328425D01*
X68892897Y-61220774D01*
X68876634Y-61200957D01*
X68876629Y-61200952D01*
X68868728Y-61191325D01*
X68881732Y-61159930D01*
X68975000Y-60691039D01*
X68975000Y-60212961D01*
X68881732Y-59744070D01*
X68873559Y-59724339D01*
X69079327Y-59861828D01*
X69375422Y-59984475D01*
X69689755Y-60047000D01*
X70010245Y-60047000D01*
X70324578Y-59984475D01*
X70620673Y-59861828D01*
X70887152Y-59683773D01*
X71113773Y-59457152D01*
X71291828Y-59190673D01*
X71414475Y-58894578D01*
X71477000Y-58580245D01*
X71477000Y-58259755D01*
X71414475Y-57945422D01*
X71291828Y-57649327D01*
X71113773Y-57382848D01*
X70887152Y-57156227D01*
X70877833Y-57150000D01*
X70887152Y-57143773D01*
X71113773Y-56917152D01*
X71291828Y-56650673D01*
X71414475Y-56354578D01*
X71477000Y-56040245D01*
X71477000Y-55719755D01*
X71414475Y-55405422D01*
X71291828Y-55109327D01*
X71113773Y-54842848D01*
X70887152Y-54616227D01*
X70620673Y-54438172D01*
X70324578Y-54315525D01*
X70010245Y-54253000D01*
X69689755Y-54253000D01*
X69375422Y-54315525D01*
X69079327Y-54438172D01*
X68812848Y-54616227D01*
X68586227Y-54842848D01*
X68408172Y-55109327D01*
X68285525Y-55405422D01*
X68223000Y-55719755D01*
X68223000Y-56040245D01*
X68285525Y-56354578D01*
X68408172Y-56650673D01*
X68586227Y-56917152D01*
X68812848Y-57143773D01*
X68822167Y-57150000D01*
X68812848Y-57156227D01*
X68586227Y-57382848D01*
X68408172Y-57649327D01*
X68285525Y-57945422D01*
X68223000Y-58259755D01*
X68223000Y-58580245D01*
X68251421Y-58723125D01*
X68095122Y-58566826D01*
X67697615Y-58301221D01*
X67255930Y-58118268D01*
X66787039Y-58025000D01*
X66308961Y-58025000D01*
X65840070Y-58118268D01*
X65398385Y-58301221D01*
X65000878Y-58566826D01*
X64662826Y-58904878D01*
X64397221Y-59302385D01*
X64214268Y-59744070D01*
X64121000Y-60212961D01*
X61937000Y-60212961D01*
X61937000Y-42545000D01*
X68749644Y-42545000D01*
X68782988Y-42883551D01*
X68881740Y-43209092D01*
X69042104Y-43509112D01*
X69257918Y-43772082D01*
X69520888Y-43987896D01*
X69820908Y-44148260D01*
X70146449Y-44247012D01*
X70400159Y-44272000D01*
X70569841Y-44272000D01*
X70823551Y-44247012D01*
X71149092Y-44148260D01*
X71449112Y-43987896D01*
X71712082Y-43772082D01*
X71927896Y-43509112D01*
X72088260Y-43209092D01*
X72187012Y-42883551D01*
X72220356Y-42545000D01*
X72203604Y-42374905D01*
X73203000Y-42374905D01*
X73203000Y-42715095D01*
X73269368Y-43048747D01*
X73399553Y-43363041D01*
X73588552Y-43645898D01*
X73829102Y-43886448D01*
X74111959Y-44075447D01*
X74426253Y-44205632D01*
X74759905Y-44272000D01*
X75100095Y-44272000D01*
X75433747Y-44205632D01*
X75748041Y-44075447D01*
X76030898Y-43886448D01*
X76271448Y-43645898D01*
X76460447Y-43363041D01*
X76590632Y-43048747D01*
X76657000Y-42715095D01*
X76657000Y-42545000D01*
X80814644Y-42545000D01*
X80847988Y-42883551D01*
X80946740Y-43209092D01*
X81107104Y-43509112D01*
X81322918Y-43772082D01*
X81585888Y-43987896D01*
X81885908Y-44148260D01*
X82211449Y-44247012D01*
X82465159Y-44272000D01*
X82634841Y-44272000D01*
X82888551Y-44247012D01*
X83214092Y-44148260D01*
X83514112Y-43987896D01*
X83777082Y-43772082D01*
X83992896Y-43509112D01*
X84153260Y-43209092D01*
X84252012Y-42883551D01*
X84285356Y-42545000D01*
X84268604Y-42374905D01*
X85268000Y-42374905D01*
X85268000Y-42715095D01*
X85334368Y-43048747D01*
X85464553Y-43363041D01*
X85653552Y-43645898D01*
X85894102Y-43886448D01*
X86176959Y-44075447D01*
X86491253Y-44205632D01*
X86824905Y-44272000D01*
X87165095Y-44272000D01*
X87498747Y-44205632D01*
X87813041Y-44075447D01*
X88095898Y-43886448D01*
X88336448Y-43645898D01*
X88525447Y-43363041D01*
X88655632Y-43048747D01*
X88722000Y-42715095D01*
X88722000Y-42374905D01*
X88655632Y-42041253D01*
X88525447Y-41726959D01*
X88336448Y-41444102D01*
X88095898Y-41203552D01*
X87813041Y-41014553D01*
X87498747Y-40884368D01*
X87165095Y-40818000D01*
X86824905Y-40818000D01*
X86491253Y-40884368D01*
X86176959Y-41014553D01*
X85894102Y-41203552D01*
X85653552Y-41444102D01*
X85464553Y-41726959D01*
X85334368Y-42041253D01*
X85268000Y-42374905D01*
X84268604Y-42374905D01*
X84252012Y-42206449D01*
X84153260Y-41880908D01*
X83992896Y-41580888D01*
X83777082Y-41317918D01*
X83514112Y-41102104D01*
X83214092Y-40941740D01*
X82888551Y-40842988D01*
X82634841Y-40818000D01*
X82465159Y-40818000D01*
X82211449Y-40842988D01*
X81885908Y-40941740D01*
X81585888Y-41102104D01*
X81322918Y-41317918D01*
X81107104Y-41580888D01*
X80946740Y-41880908D01*
X80847988Y-42206449D01*
X80814644Y-42545000D01*
X76657000Y-42545000D01*
X76657000Y-42374905D01*
X76590632Y-42041253D01*
X76460447Y-41726959D01*
X76271448Y-41444102D01*
X76030898Y-41203552D01*
X75748041Y-41014553D01*
X75433747Y-40884368D01*
X75100095Y-40818000D01*
X74759905Y-40818000D01*
X74426253Y-40884368D01*
X74111959Y-41014553D01*
X73829102Y-41203552D01*
X73588552Y-41444102D01*
X73399553Y-41726959D01*
X73269368Y-42041253D01*
X73203000Y-42374905D01*
X72203604Y-42374905D01*
X72187012Y-42206449D01*
X72088260Y-41880908D01*
X71927896Y-41580888D01*
X71712082Y-41317918D01*
X71449112Y-41102104D01*
X71149092Y-40941740D01*
X70823551Y-40842988D01*
X70569841Y-40818000D01*
X70400159Y-40818000D01*
X70146449Y-40842988D01*
X69820908Y-40941740D01*
X69520888Y-41102104D01*
X69257918Y-41317918D01*
X69042104Y-41580888D01*
X68881740Y-41880908D01*
X68782988Y-42206449D01*
X68749644Y-42545000D01*
X61937000Y-42545000D01*
X61937000Y-27134905D01*
X68758000Y-27134905D01*
X68758000Y-27475095D01*
X68824368Y-27808747D01*
X68954553Y-28123041D01*
X69143552Y-28405898D01*
X69384102Y-28646448D01*
X69666959Y-28835447D01*
X69981253Y-28965632D01*
X70314905Y-29032000D01*
X70655095Y-29032000D01*
X70988747Y-28965632D01*
X71303041Y-28835447D01*
X71585898Y-28646448D01*
X71826448Y-28405898D01*
X72015447Y-28123041D01*
X72145632Y-27808747D01*
X72176405Y-27654040D01*
X73538091Y-27654040D01*
X73632930Y-27918881D01*
X73777615Y-28160131D01*
X73966586Y-28368519D01*
X74192580Y-28536037D01*
X74446913Y-28656246D01*
X74580961Y-28696904D01*
X74803000Y-28574915D01*
X74803000Y-27432000D01*
X75057000Y-27432000D01*
X75057000Y-28574915D01*
X75279039Y-28696904D01*
X75413087Y-28656246D01*
X75667420Y-28536037D01*
X75893414Y-28368519D01*
X76082385Y-28160131D01*
X76227070Y-27918881D01*
X76321909Y-27654040D01*
X76200624Y-27432000D01*
X75057000Y-27432000D01*
X74803000Y-27432000D01*
X73659376Y-27432000D01*
X73538091Y-27654040D01*
X72176405Y-27654040D01*
X72212000Y-27475095D01*
X72212000Y-27134905D01*
X72176406Y-26955960D01*
X73538091Y-26955960D01*
X73659376Y-27178000D01*
X74803000Y-27178000D01*
X74803000Y-26035085D01*
X75057000Y-26035085D01*
X75057000Y-27178000D01*
X76200624Y-27178000D01*
X76224163Y-27134905D01*
X80823000Y-27134905D01*
X80823000Y-27475095D01*
X80889368Y-27808747D01*
X81019553Y-28123041D01*
X81208552Y-28405898D01*
X81449102Y-28646448D01*
X81731959Y-28835447D01*
X82046253Y-28965632D01*
X82379905Y-29032000D01*
X82720095Y-29032000D01*
X83053747Y-28965632D01*
X83368041Y-28835447D01*
X83650898Y-28646448D01*
X83891448Y-28405898D01*
X84080447Y-28123041D01*
X84210632Y-27808747D01*
X84241405Y-27654040D01*
X85603091Y-27654040D01*
X85697930Y-27918881D01*
X85842615Y-28160131D01*
X86031586Y-28368519D01*
X86257580Y-28536037D01*
X86511913Y-28656246D01*
X86645961Y-28696904D01*
X86868000Y-28574915D01*
X86868000Y-27432000D01*
X87122000Y-27432000D01*
X87122000Y-28574915D01*
X87344039Y-28696904D01*
X87478087Y-28656246D01*
X87732420Y-28536037D01*
X87958414Y-28368519D01*
X88147385Y-28160131D01*
X88292070Y-27918881D01*
X88386909Y-27654040D01*
X88265624Y-27432000D01*
X87122000Y-27432000D01*
X86868000Y-27432000D01*
X85724376Y-27432000D01*
X85603091Y-27654040D01*
X84241405Y-27654040D01*
X84277000Y-27475095D01*
X84277000Y-27134905D01*
X84241406Y-26955960D01*
X85603091Y-26955960D01*
X85724376Y-27178000D01*
X86868000Y-27178000D01*
X86868000Y-26035085D01*
X87122000Y-26035085D01*
X87122000Y-27178000D01*
X88265624Y-27178000D01*
X88386909Y-26955960D01*
X88292070Y-26691119D01*
X88147385Y-26449869D01*
X87958414Y-26241481D01*
X87732420Y-26073963D01*
X87478087Y-25953754D01*
X87344039Y-25913096D01*
X87122000Y-26035085D01*
X86868000Y-26035085D01*
X86645961Y-25913096D01*
X86511913Y-25953754D01*
X86257580Y-26073963D01*
X86031586Y-26241481D01*
X85842615Y-26449869D01*
X85697930Y-26691119D01*
X85603091Y-26955960D01*
X84241406Y-26955960D01*
X84210632Y-26801253D01*
X84080447Y-26486959D01*
X83891448Y-26204102D01*
X83650898Y-25963552D01*
X83368041Y-25774553D01*
X83053747Y-25644368D01*
X82720095Y-25578000D01*
X82379905Y-25578000D01*
X82046253Y-25644368D01*
X81731959Y-25774553D01*
X81449102Y-25963552D01*
X81208552Y-26204102D01*
X81019553Y-26486959D01*
X80889368Y-26801253D01*
X80823000Y-27134905D01*
X76224163Y-27134905D01*
X76321909Y-26955960D01*
X76227070Y-26691119D01*
X76082385Y-26449869D01*
X75893414Y-26241481D01*
X75667420Y-26073963D01*
X75413087Y-25953754D01*
X75279039Y-25913096D01*
X75057000Y-26035085D01*
X74803000Y-26035085D01*
X74580961Y-25913096D01*
X74446913Y-25953754D01*
X74192580Y-26073963D01*
X73966586Y-26241481D01*
X73777615Y-26449869D01*
X73632930Y-26691119D01*
X73538091Y-26955960D01*
X72176406Y-26955960D01*
X72145632Y-26801253D01*
X72015447Y-26486959D01*
X71826448Y-26204102D01*
X71585898Y-25963552D01*
X71303041Y-25774553D01*
X70988747Y-25644368D01*
X70655095Y-25578000D01*
X70314905Y-25578000D01*
X69981253Y-25644368D01*
X69666959Y-25774553D01*
X69384102Y-25963552D01*
X69143552Y-26204102D01*
X68954553Y-26486959D01*
X68824368Y-26801253D01*
X68758000Y-27134905D01*
X61937000Y-27134905D01*
X61937000Y-21297000D01*
X141263000Y-21297000D01*
X141263001Y-117133000D01*
M02*
