G04 #@! TF.GenerationSoftware,KiCad,Pcbnew,5.1.4+dfsg1-1*
G04 #@! TF.CreationDate,2020-03-02T18:27:02+01:00*
G04 #@! TF.ProjectId,1_solar_bank,315f736f-6c61-4725-9f62-616e6b2e6b69,rev?*
G04 #@! TF.SameCoordinates,Original*
G04 #@! TF.FileFunction,Copper,L1,Top*
G04 #@! TF.FilePolarity,Positive*
%FSLAX46Y46*%
G04 Gerber Fmt 4.6, Leading zero omitted, Abs format (unit mm)*
G04 Created by KiCad (PCBNEW 5.1.4+dfsg1-1) date 2020-03-02 18:27:02*
%MOMM*%
%LPD*%
G04 APERTURE LIST*
%ADD10C,0.300000*%
%ADD11C,1.400000*%
%ADD12R,0.730000X1.210000*%
%ADD13C,1.600000*%
%ADD14O,1.600000X1.600000*%
%ADD15R,1.700000X1.700000*%
%ADD16O,1.700000X1.700000*%
%ADD17R,0.600000X1.300000*%
%ADD18R,1.000000X1.500000*%
%ADD19R,3.810000X1.930400*%
%ADD20R,3.000000X3.000000*%
%ADD21C,3.000000*%
%ADD22C,0.800000*%
%ADD23C,0.800000*%
%ADD24C,0.500000*%
G04 APERTURE END LIST*
D10*
X90606857Y-57090571D02*
X90606857Y-58162000D01*
X90535428Y-58376285D01*
X90392571Y-58519142D01*
X90178285Y-58590571D01*
X90035428Y-58590571D01*
X91964000Y-57590571D02*
X91964000Y-58590571D01*
X91606857Y-57019142D02*
X91249714Y-58090571D01*
X92178285Y-58090571D01*
X94321142Y-57090571D02*
X94321142Y-58162000D01*
X94249714Y-58376285D01*
X94106857Y-58519142D01*
X93892571Y-58590571D01*
X93749714Y-58590571D01*
X95821142Y-58590571D02*
X94964000Y-58590571D01*
X95392571Y-58590571D02*
X95392571Y-57090571D01*
X95249714Y-57304857D01*
X95106857Y-57447714D01*
X94964000Y-57519142D01*
X55427857Y-56328571D02*
X55427857Y-57400000D01*
X55356428Y-57614285D01*
X55213571Y-57757142D01*
X54999285Y-57828571D01*
X54856428Y-57828571D01*
X55999285Y-56328571D02*
X56927857Y-56328571D01*
X56427857Y-56900000D01*
X56642142Y-56900000D01*
X56785000Y-56971428D01*
X56856428Y-57042857D01*
X56927857Y-57185714D01*
X56927857Y-57542857D01*
X56856428Y-57685714D01*
X56785000Y-57757142D01*
X56642142Y-57828571D01*
X56213571Y-57828571D01*
X56070714Y-57757142D01*
X55999285Y-57685714D01*
X59142142Y-56328571D02*
X59142142Y-57400000D01*
X59070714Y-57614285D01*
X58927857Y-57757142D01*
X58713571Y-57828571D01*
X58570714Y-57828571D01*
X59785000Y-56471428D02*
X59856428Y-56400000D01*
X59999285Y-56328571D01*
X60356428Y-56328571D01*
X60499285Y-56400000D01*
X60570714Y-56471428D01*
X60642142Y-56614285D01*
X60642142Y-56757142D01*
X60570714Y-56971428D01*
X59713571Y-57828571D01*
X60642142Y-57828571D01*
X110263571Y-115867142D02*
X111763571Y-115367142D01*
X110263571Y-114867142D01*
X111620714Y-113510000D02*
X111692142Y-113581428D01*
X111763571Y-113795714D01*
X111763571Y-113938571D01*
X111692142Y-114152857D01*
X111549285Y-114295714D01*
X111406428Y-114367142D01*
X111120714Y-114438571D01*
X110906428Y-114438571D01*
X110620714Y-114367142D01*
X110477857Y-114295714D01*
X110335000Y-114152857D01*
X110263571Y-113938571D01*
X110263571Y-113795714D01*
X110335000Y-113581428D01*
X110406428Y-113510000D01*
X111620714Y-112010000D02*
X111692142Y-112081428D01*
X111763571Y-112295714D01*
X111763571Y-112438571D01*
X111692142Y-112652857D01*
X111549285Y-112795714D01*
X111406428Y-112867142D01*
X111120714Y-112938571D01*
X110906428Y-112938571D01*
X110620714Y-112867142D01*
X110477857Y-112795714D01*
X110335000Y-112652857D01*
X110263571Y-112438571D01*
X110263571Y-112295714D01*
X110335000Y-112081428D01*
X110406428Y-112010000D01*
X112885000Y-114867142D02*
X112813571Y-115010000D01*
X112813571Y-115224285D01*
X112885000Y-115438571D01*
X113027857Y-115581428D01*
X113170714Y-115652857D01*
X113456428Y-115724285D01*
X113670714Y-115724285D01*
X113956428Y-115652857D01*
X114099285Y-115581428D01*
X114242142Y-115438571D01*
X114313571Y-115224285D01*
X114313571Y-115081428D01*
X114242142Y-114867142D01*
X114170714Y-114795714D01*
X113670714Y-114795714D01*
X113670714Y-115081428D01*
X114313571Y-114152857D02*
X112813571Y-114152857D01*
X114313571Y-113295714D01*
X112813571Y-113295714D01*
X114313571Y-112581428D02*
X112813571Y-112581428D01*
X112813571Y-112224285D01*
X112885000Y-112010000D01*
X113027857Y-111867142D01*
X113170714Y-111795714D01*
X113456428Y-111724285D01*
X113670714Y-111724285D01*
X113956428Y-111795714D01*
X114099285Y-111867142D01*
X114242142Y-112010000D01*
X114313571Y-112224285D01*
X114313571Y-112581428D01*
X115363571Y-115867142D02*
X116863571Y-115367142D01*
X115363571Y-114867142D01*
X116863571Y-113510000D02*
X116149285Y-114010000D01*
X116863571Y-114367142D02*
X115363571Y-114367142D01*
X115363571Y-113795714D01*
X115435000Y-113652857D01*
X115506428Y-113581428D01*
X115649285Y-113510000D01*
X115863571Y-113510000D01*
X116006428Y-113581428D01*
X116077857Y-113652857D01*
X116149285Y-113795714D01*
X116149285Y-114367142D01*
X116077857Y-112867142D02*
X116077857Y-112367142D01*
X116863571Y-112152857D02*
X116863571Y-112867142D01*
X115363571Y-112867142D01*
X115363571Y-112152857D01*
X116077857Y-111010000D02*
X116077857Y-111510000D01*
X116863571Y-111510000D02*
X115363571Y-111510000D01*
X115363571Y-110795714D01*
X117913571Y-115867142D02*
X119413571Y-115367142D01*
X117913571Y-114867142D01*
X117913571Y-114081428D02*
X117913571Y-113795714D01*
X117985000Y-113652857D01*
X118127857Y-113510000D01*
X118413571Y-113438571D01*
X118913571Y-113438571D01*
X119199285Y-113510000D01*
X119342142Y-113652857D01*
X119413571Y-113795714D01*
X119413571Y-114081428D01*
X119342142Y-114224285D01*
X119199285Y-114367142D01*
X118913571Y-114438571D01*
X118413571Y-114438571D01*
X118127857Y-114367142D01*
X117985000Y-114224285D01*
X117913571Y-114081428D01*
X119413571Y-112081428D02*
X119413571Y-112795714D01*
X117913571Y-112795714D01*
X117913571Y-111795714D02*
X117913571Y-110938571D01*
X119413571Y-111367142D02*
X117913571Y-111367142D01*
X119413571Y-109652857D02*
X119413571Y-110510000D01*
X119413571Y-110081428D02*
X117913571Y-110081428D01*
X118127857Y-110224285D01*
X118270714Y-110367142D01*
X118342142Y-110510000D01*
X121535000Y-115724285D02*
X121535000Y-115010000D01*
X121963571Y-115867142D02*
X120463571Y-115367142D01*
X121963571Y-114867142D01*
X121963571Y-114367142D02*
X120463571Y-114367142D01*
X121535000Y-113867142D01*
X120463571Y-113367142D01*
X121963571Y-113367142D01*
X121963571Y-112652857D02*
X120463571Y-112652857D01*
X120463571Y-112081428D01*
X120535000Y-111938571D01*
X120606428Y-111867142D01*
X120749285Y-111795714D01*
X120963571Y-111795714D01*
X121106428Y-111867142D01*
X121177857Y-111938571D01*
X121249285Y-112081428D01*
X121249285Y-112652857D01*
X121963571Y-110367142D02*
X121963571Y-111224285D01*
X121963571Y-110795714D02*
X120463571Y-110795714D01*
X120677857Y-110938571D01*
X120820714Y-111081428D01*
X120892142Y-111224285D01*
X123727857Y-115152857D02*
X123799285Y-114938571D01*
X123870714Y-114867142D01*
X124013571Y-114795714D01*
X124227857Y-114795714D01*
X124370714Y-114867142D01*
X124442142Y-114938571D01*
X124513571Y-115081428D01*
X124513571Y-115652857D01*
X123013571Y-115652857D01*
X123013571Y-115152857D01*
X123085000Y-115010000D01*
X123156428Y-114938571D01*
X123299285Y-114867142D01*
X123442142Y-114867142D01*
X123585000Y-114938571D01*
X123656428Y-115010000D01*
X123727857Y-115152857D01*
X123727857Y-115652857D01*
X124513571Y-113367142D02*
X124513571Y-114224285D01*
X124513571Y-113795714D02*
X123013571Y-113795714D01*
X123227857Y-113938571D01*
X123370714Y-114081428D01*
X123442142Y-114224285D01*
X125563571Y-115867142D02*
X127063571Y-115367142D01*
X125563571Y-114867142D01*
X125563571Y-114081428D02*
X125563571Y-113795714D01*
X125635000Y-113652857D01*
X125777857Y-113510000D01*
X126063571Y-113438571D01*
X126563571Y-113438571D01*
X126849285Y-113510000D01*
X126992142Y-113652857D01*
X127063571Y-113795714D01*
X127063571Y-114081428D01*
X126992142Y-114224285D01*
X126849285Y-114367142D01*
X126563571Y-114438571D01*
X126063571Y-114438571D01*
X125777857Y-114367142D01*
X125635000Y-114224285D01*
X125563571Y-114081428D01*
X127063571Y-112081428D02*
X127063571Y-112795714D01*
X125563571Y-112795714D01*
X125563571Y-111795714D02*
X125563571Y-110938571D01*
X127063571Y-111367142D02*
X125563571Y-111367142D01*
X125706428Y-110510000D02*
X125635000Y-110438571D01*
X125563571Y-110295714D01*
X125563571Y-109938571D01*
X125635000Y-109795714D01*
X125706428Y-109724285D01*
X125849285Y-109652857D01*
X125992142Y-109652857D01*
X126206428Y-109724285D01*
X127063571Y-110581428D01*
X127063571Y-109652857D01*
X129185000Y-115724285D02*
X129185000Y-115010000D01*
X129613571Y-115867142D02*
X128113571Y-115367142D01*
X129613571Y-114867142D01*
X129613571Y-114367142D02*
X128113571Y-114367142D01*
X129185000Y-113867142D01*
X128113571Y-113367142D01*
X129613571Y-113367142D01*
X129613571Y-112652857D02*
X128113571Y-112652857D01*
X128113571Y-112081428D01*
X128185000Y-111938571D01*
X128256428Y-111867142D01*
X128399285Y-111795714D01*
X128613571Y-111795714D01*
X128756428Y-111867142D01*
X128827857Y-111938571D01*
X128899285Y-112081428D01*
X128899285Y-112652857D01*
X128256428Y-111224285D02*
X128185000Y-111152857D01*
X128113571Y-111010000D01*
X128113571Y-110652857D01*
X128185000Y-110510000D01*
X128256428Y-110438571D01*
X128399285Y-110367142D01*
X128542142Y-110367142D01*
X128756428Y-110438571D01*
X129613571Y-111295714D01*
X129613571Y-110367142D01*
X131377857Y-115152857D02*
X131449285Y-114938571D01*
X131520714Y-114867142D01*
X131663571Y-114795714D01*
X131877857Y-114795714D01*
X132020714Y-114867142D01*
X132092142Y-114938571D01*
X132163571Y-115081428D01*
X132163571Y-115652857D01*
X130663571Y-115652857D01*
X130663571Y-115152857D01*
X130735000Y-115010000D01*
X130806428Y-114938571D01*
X130949285Y-114867142D01*
X131092142Y-114867142D01*
X131235000Y-114938571D01*
X131306428Y-115010000D01*
X131377857Y-115152857D01*
X131377857Y-115652857D01*
X130806428Y-114224285D02*
X130735000Y-114152857D01*
X130663571Y-114010000D01*
X130663571Y-113652857D01*
X130735000Y-113510000D01*
X130806428Y-113438571D01*
X130949285Y-113367142D01*
X131092142Y-113367142D01*
X131306428Y-113438571D01*
X132163571Y-114295714D01*
X132163571Y-113367142D01*
D11*
X74930000Y-58420000D03*
X74930000Y-55880000D03*
D12*
X104140000Y-67466000D03*
X104140000Y-64106000D03*
D13*
X85090000Y-95885000D03*
D14*
X69850000Y-95885000D03*
X85090000Y-78105000D03*
D13*
X69850000Y-78105000D03*
X69850000Y-71120000D03*
D14*
X85090000Y-71120000D03*
D15*
X81280000Y-114300000D03*
D16*
X83820000Y-114300000D03*
X86360000Y-114300000D03*
X88900000Y-114300000D03*
X91440000Y-114300000D03*
X93980000Y-114300000D03*
X96520000Y-114300000D03*
X99060000Y-114300000D03*
X101600000Y-114300000D03*
D11*
X86995000Y-58420000D03*
X86995000Y-55880000D03*
X69850000Y-55880000D03*
X69850000Y-58420000D03*
X81915000Y-55880000D03*
X81915000Y-58420000D03*
X66040000Y-98425000D03*
X66040000Y-100965000D03*
D17*
X74930000Y-49945000D03*
X73980000Y-47845000D03*
X75880000Y-47845000D03*
X70800000Y-47845000D03*
X68900000Y-47845000D03*
X69850000Y-49945000D03*
X86995000Y-49945000D03*
X86045000Y-47845000D03*
X87945000Y-47845000D03*
X82865000Y-47845000D03*
X80965000Y-47845000D03*
X81915000Y-49945000D03*
D13*
X74930000Y-41021000D03*
D14*
X74930000Y-25781000D03*
X69850000Y-88900000D03*
D13*
X85090000Y-88900000D03*
D14*
X70485000Y-41021000D03*
D13*
X70485000Y-25781000D03*
X86995000Y-41021000D03*
D14*
X86995000Y-25781000D03*
D13*
X69850000Y-102870000D03*
D14*
X85090000Y-102870000D03*
X82550000Y-41021000D03*
D13*
X82550000Y-25781000D03*
D14*
X69850000Y-83820000D03*
D13*
X85090000Y-83820000D03*
D12*
X104140000Y-92300000D03*
X104140000Y-95660000D03*
D18*
X108120000Y-98115000D03*
D19*
X111220000Y-99615000D03*
X133890000Y-88345000D03*
D18*
X136990000Y-89845000D03*
D19*
X111220000Y-80565000D03*
D18*
X108120000Y-79065000D03*
X136990000Y-70795000D03*
D19*
X133890000Y-69295000D03*
X111220000Y-61515000D03*
D18*
X108120000Y-60015000D03*
X136990000Y-51745000D03*
D19*
X133890000Y-50245000D03*
X111220000Y-42465000D03*
D18*
X108120000Y-40965000D03*
X136990000Y-32695000D03*
D19*
X133890000Y-31195000D03*
D20*
X104140000Y-102616000D03*
X139700000Y-102616000D03*
X104140000Y-88138000D03*
X139446000Y-69850000D03*
X104140000Y-71120000D03*
X104140000Y-58420000D03*
X139446000Y-50038000D03*
X104140000Y-39116000D03*
X139192000Y-25908000D03*
X104394000Y-25654000D03*
X139700000Y-88138000D03*
X104140000Y-77216000D03*
X139446000Y-77216000D03*
X139446000Y-58166000D03*
X104140000Y-50038000D03*
X139192000Y-39116000D03*
D21*
X108458000Y-70866000D03*
X100838000Y-64262000D03*
X77724000Y-61976000D03*
X64516000Y-52324000D03*
X99314000Y-58166000D03*
X90424002Y-109728000D03*
X98552001Y-107187999D03*
X78994000Y-52324000D03*
X90447601Y-85828399D03*
X81280000Y-69596000D03*
X87376000Y-74676000D03*
X76708000Y-81280000D03*
X92456000Y-30480000D03*
X72644000Y-34036000D03*
X57404000Y-40132000D03*
X58420000Y-69596000D03*
X58420000Y-91948000D03*
X76708000Y-99568000D03*
X82296000Y-109728000D03*
X65024000Y-112776000D03*
X76708000Y-91948000D03*
X58420000Y-81280000D03*
X58420000Y-99568000D03*
X84836000Y-34036000D03*
X73152000Y-44704000D03*
X85344000Y-44704000D03*
X74676000Y-114300000D03*
X78232000Y-38862000D03*
X97536000Y-39624000D03*
D22*
X101600000Y-114300000D03*
D21*
X90932000Y-44704000D03*
X91440000Y-52324000D03*
X84328000Y-52324000D03*
X72136000Y-52324000D03*
X66548000Y-44704000D03*
X79756000Y-44704000D03*
D23*
X136990000Y-98214000D02*
X135335000Y-99869000D01*
X136990000Y-90099000D02*
X136990000Y-98214000D01*
X135073000Y-99869000D02*
X134921000Y-99869000D01*
X137820000Y-102616000D02*
X135073000Y-99869000D01*
X139700000Y-102616000D02*
X137820000Y-102616000D01*
X135335000Y-99869000D02*
X134921000Y-99869000D01*
X134921000Y-99869000D02*
X111220000Y-99869000D01*
X136990000Y-88715000D02*
X136990000Y-89845000D01*
X137567000Y-88138000D02*
X136990000Y-88715000D01*
X139700000Y-88138000D02*
X137567000Y-88138000D01*
X109681000Y-88345000D02*
X133890000Y-88345000D01*
X108120000Y-86784000D02*
X109681000Y-88345000D01*
X108120000Y-78815000D02*
X108120000Y-79065000D01*
X106521000Y-77216000D02*
X108120000Y-78815000D01*
X104140000Y-77216000D02*
X106521000Y-77216000D01*
X108120000Y-79065000D02*
X108120000Y-84920000D01*
X108120000Y-84920000D02*
X108120000Y-86784000D01*
X106766000Y-88138000D02*
X108120000Y-86784000D01*
X104140000Y-88138000D02*
X106766000Y-88138000D01*
X137870000Y-70795000D02*
X136990000Y-70795000D01*
X139446000Y-69219000D02*
X137870000Y-70795000D01*
X135335000Y-80565000D02*
X111220000Y-80565000D01*
X139446000Y-76454000D02*
X135335000Y-80565000D01*
X136990000Y-70795000D02*
X139446000Y-73251000D01*
X139446000Y-73251000D02*
X139446000Y-76454000D01*
X133890000Y-69295000D02*
X110029000Y-69295000D01*
X110029000Y-69295000D02*
X108458000Y-70866000D01*
X80772000Y-64262000D02*
X98716680Y-64262000D01*
X98716680Y-64262000D02*
X100838000Y-64262000D01*
X108458000Y-70866000D02*
X108204000Y-71120000D01*
X108204000Y-71120000D02*
X104140000Y-71120000D01*
X80772000Y-64262000D02*
X80010000Y-64262000D01*
X80010000Y-64262000D02*
X77724000Y-61976000D01*
X64516000Y-51054000D02*
X64516000Y-52324000D01*
X68900000Y-47845000D02*
X67725000Y-47845000D01*
X67725000Y-47845000D02*
X64516000Y-51054000D01*
X108120000Y-60015000D02*
X107879000Y-60015000D01*
X108120000Y-59765000D02*
X108120000Y-60015000D01*
X105735000Y-60015000D02*
X104140000Y-58420000D01*
X108120000Y-60015000D02*
X105735000Y-60015000D01*
X104140000Y-58420000D02*
X104140000Y-64106000D01*
X104140000Y-58420000D02*
X99568000Y-58420000D01*
X99568000Y-58420000D02*
X99314000Y-58166000D01*
X137870000Y-51745000D02*
X136990000Y-51745000D01*
X139446000Y-50169000D02*
X137870000Y-51745000D01*
X139446000Y-57658000D02*
X135335000Y-61769000D01*
X135335000Y-61769000D02*
X111220000Y-61769000D01*
X136990000Y-51999000D02*
X139446000Y-54455000D01*
X139446000Y-54455000D02*
X139446000Y-57658000D01*
X109681000Y-50245000D02*
X133890000Y-50245000D01*
X108120000Y-48684000D02*
X109681000Y-50245000D01*
X104140000Y-50038000D02*
X106512000Y-50038000D01*
X106512000Y-50038000D02*
X108120000Y-48430000D01*
X108120000Y-40965000D02*
X108120000Y-48430000D01*
X108120000Y-48430000D02*
X108120000Y-48684000D01*
X105989000Y-40965000D02*
X108120000Y-40965000D01*
X104140000Y-39116000D02*
X105989000Y-40965000D01*
X137870000Y-32695000D02*
X136990000Y-32695000D01*
X139192000Y-31373000D02*
X137870000Y-32695000D01*
X139192000Y-25908000D02*
X139192000Y-31373000D01*
X135335000Y-42465000D02*
X111220000Y-42465000D01*
X138176000Y-39624000D02*
X135335000Y-42465000D01*
X136990000Y-32695000D02*
X138176000Y-33881000D01*
X138176000Y-33881000D02*
X138176000Y-39624000D01*
X104140000Y-95900000D02*
X104140000Y-95660000D01*
X106355000Y-98115000D02*
X104140000Y-95900000D01*
X108120000Y-98115000D02*
X106355000Y-98115000D01*
X104140000Y-102616000D02*
X104140000Y-95660000D01*
X90932002Y-110236000D02*
X90424002Y-109728000D01*
X104140000Y-102616000D02*
X104140000Y-107696000D01*
X101600000Y-110236000D02*
X90932002Y-110236000D01*
X104140000Y-107696000D02*
X101600000Y-110236000D01*
X78994000Y-50166000D02*
X78994000Y-52324000D01*
X80965000Y-47845000D02*
X80965000Y-48195000D01*
X80965000Y-48195000D02*
X78994000Y-50166000D01*
X98552001Y-105066679D02*
X98552001Y-107187999D01*
X90447601Y-85828399D02*
X98552001Y-93932799D01*
X98552001Y-93932799D02*
X98552001Y-105066679D01*
X83312000Y-67564000D02*
X81280000Y-69596000D01*
X104140000Y-67564000D02*
X83312000Y-67564000D01*
X90424000Y-74676000D02*
X87376000Y-74676000D01*
X97282000Y-88392000D02*
X97282000Y-81534000D01*
X97282000Y-81534000D02*
X90424000Y-74676000D01*
X104140000Y-92300000D02*
X101190000Y-92300000D01*
X101190000Y-92300000D02*
X97282000Y-88392000D01*
X74676000Y-114300000D02*
X74676000Y-114300000D01*
X78232000Y-38862000D02*
X77216000Y-39878000D01*
X77216000Y-39878000D02*
X77216000Y-45059000D01*
X77216000Y-45059000D02*
X75880000Y-46395000D01*
X75880000Y-46395000D02*
X75880000Y-47845000D01*
X95504000Y-39624000D02*
X90932000Y-44196000D01*
X90932000Y-44196000D02*
X90932000Y-44704000D01*
X97536000Y-39624000D02*
X95504000Y-39624000D01*
X87945000Y-45659000D02*
X87945000Y-47845000D01*
X90932000Y-44704000D02*
X88900000Y-44704000D01*
X88900000Y-44704000D02*
X87945000Y-45659000D01*
X131605000Y-31195000D02*
X131558000Y-31242000D01*
X133890000Y-31195000D02*
X131605000Y-31195000D01*
X131558000Y-31242000D02*
X104902000Y-31242000D01*
X104902000Y-31242000D02*
X104648000Y-31496000D01*
X104648000Y-25908000D02*
X104648000Y-31496000D01*
X104394000Y-25654000D02*
X104648000Y-25908000D01*
X91440000Y-51307968D02*
X91440000Y-52324000D01*
X104648000Y-31496000D02*
X100330000Y-35814000D01*
X100330000Y-42417968D02*
X91440000Y-51307968D01*
X100330000Y-35814000D02*
X100330000Y-42417968D01*
X81915000Y-50817000D02*
X83422000Y-52324000D01*
X81915000Y-49945000D02*
X81915000Y-50817000D01*
X83422000Y-52324000D02*
X84328000Y-52324000D01*
X71120000Y-52324000D02*
X72136000Y-52324000D01*
X69850000Y-49945000D02*
X69850000Y-51054000D01*
X69850000Y-51054000D02*
X71120000Y-52324000D01*
X74250000Y-49945000D02*
X74930000Y-49945000D01*
X73580000Y-49945000D02*
X74250000Y-49945000D01*
X71480000Y-47845000D02*
X73580000Y-49945000D01*
X70800000Y-47845000D02*
X71480000Y-47845000D01*
X69088000Y-44704000D02*
X66548000Y-44704000D01*
X70800000Y-47845000D02*
X70800000Y-46416000D01*
X70800000Y-46416000D02*
X69088000Y-44704000D01*
X86315000Y-49945000D02*
X86995000Y-49945000D01*
X85645000Y-49945000D02*
X86315000Y-49945000D01*
X83545000Y-47845000D02*
X85645000Y-49945000D01*
X82865000Y-47845000D02*
X83545000Y-47845000D01*
X81280000Y-44704000D02*
X79756000Y-44704000D01*
X82865000Y-47845000D02*
X82865000Y-46289000D01*
X82865000Y-46289000D02*
X81280000Y-44704000D01*
D24*
G36*
X141225000Y-20301856D02*
G01*
X141225000Y-20845779D01*
X95755283Y-21340015D01*
X95710519Y-21344550D01*
X95663546Y-21358530D01*
X95620203Y-21381404D01*
X95582156Y-21412295D01*
X95550866Y-21450015D01*
X95527537Y-21493115D01*
X95513064Y-21539938D01*
X95508003Y-21588684D01*
X95420706Y-38175189D01*
X95219750Y-38194981D01*
X94946424Y-38277894D01*
X94694526Y-38412536D01*
X94684231Y-38420985D01*
X94529058Y-38548332D01*
X94529055Y-38548335D01*
X94473735Y-38593735D01*
X94428334Y-38649056D01*
X90923391Y-42154000D01*
X90680847Y-42154000D01*
X90188193Y-42251995D01*
X89724122Y-42444220D01*
X89306470Y-42723286D01*
X88951286Y-43078470D01*
X88834368Y-43253450D01*
X88828785Y-43254000D01*
X88828775Y-43254000D01*
X88615750Y-43274981D01*
X88342424Y-43357894D01*
X88090526Y-43492536D01*
X87869735Y-43673735D01*
X87824330Y-43729061D01*
X86970057Y-44583334D01*
X86914735Y-44628736D01*
X86733536Y-44849527D01*
X86598894Y-45101425D01*
X86515981Y-45374751D01*
X86495000Y-45587776D01*
X86495000Y-45587785D01*
X86487986Y-45659000D01*
X86495000Y-45730215D01*
X86495000Y-46448394D01*
X86493594Y-46447967D01*
X86345000Y-46433332D01*
X86284500Y-46437000D01*
X86095000Y-46626500D01*
X86095000Y-47595000D01*
X86315000Y-47595000D01*
X86315000Y-48095000D01*
X86095000Y-48095000D01*
X86095000Y-48115000D01*
X85995000Y-48115000D01*
X85995000Y-48095000D01*
X85845610Y-48095000D01*
X85775000Y-48024390D01*
X85775000Y-47595000D01*
X85995000Y-47595000D01*
X85995000Y-46626500D01*
X85805500Y-46437000D01*
X85745000Y-46433332D01*
X85596406Y-46447967D01*
X85453522Y-46491311D01*
X85321840Y-46561696D01*
X85206419Y-46656419D01*
X85111696Y-46771840D01*
X85041311Y-46903522D01*
X84997967Y-47046406D01*
X84983332Y-47195000D01*
X84984001Y-47233392D01*
X84620670Y-46870061D01*
X84575265Y-46814735D01*
X84354474Y-46633536D01*
X84315000Y-46612437D01*
X84315000Y-46360214D01*
X84322014Y-46288999D01*
X84315000Y-46217784D01*
X84315000Y-46217775D01*
X84294019Y-46004750D01*
X84211106Y-45731424D01*
X84076464Y-45479526D01*
X84017324Y-45407464D01*
X83940668Y-45314058D01*
X83940665Y-45314055D01*
X83895265Y-45258735D01*
X83839944Y-45213334D01*
X82355670Y-43729061D01*
X82310265Y-43673735D01*
X82089474Y-43492536D01*
X81971111Y-43429270D01*
X81736714Y-43078470D01*
X81381530Y-42723286D01*
X80963878Y-42444220D01*
X80499807Y-42251995D01*
X80007153Y-42154000D01*
X79504847Y-42154000D01*
X79012193Y-42251995D01*
X78666000Y-42395393D01*
X78666000Y-41375629D01*
X78975807Y-41314005D01*
X79439878Y-41121780D01*
X79590706Y-41021000D01*
X80691049Y-41021000D01*
X80726768Y-41383663D01*
X80832553Y-41732390D01*
X81004339Y-42053778D01*
X81235523Y-42335477D01*
X81517222Y-42566661D01*
X81838610Y-42738447D01*
X82187337Y-42844232D01*
X82459118Y-42871000D01*
X82640882Y-42871000D01*
X82912663Y-42844232D01*
X83261390Y-42738447D01*
X83582778Y-42566661D01*
X83864477Y-42335477D01*
X84095661Y-42053778D01*
X84267447Y-41732390D01*
X84373232Y-41383663D01*
X84408951Y-41021000D01*
X84391006Y-40838791D01*
X85145000Y-40838791D01*
X85145000Y-41203209D01*
X85216095Y-41560625D01*
X85355552Y-41897303D01*
X85558011Y-42200306D01*
X85815694Y-42457989D01*
X86118697Y-42660448D01*
X86455375Y-42799905D01*
X86812791Y-42871000D01*
X87177209Y-42871000D01*
X87534625Y-42799905D01*
X87871303Y-42660448D01*
X88174306Y-42457989D01*
X88431989Y-42200306D01*
X88634448Y-41897303D01*
X88773905Y-41560625D01*
X88845000Y-41203209D01*
X88845000Y-40838791D01*
X88773905Y-40481375D01*
X88634448Y-40144697D01*
X88431989Y-39841694D01*
X88174306Y-39584011D01*
X87871303Y-39381552D01*
X87534625Y-39242095D01*
X87177209Y-39171000D01*
X86812791Y-39171000D01*
X86455375Y-39242095D01*
X86118697Y-39381552D01*
X85815694Y-39584011D01*
X85558011Y-39841694D01*
X85355552Y-40144697D01*
X85216095Y-40481375D01*
X85145000Y-40838791D01*
X84391006Y-40838791D01*
X84373232Y-40658337D01*
X84267447Y-40309610D01*
X84095661Y-39988222D01*
X83864477Y-39706523D01*
X83582778Y-39475339D01*
X83261390Y-39303553D01*
X82912663Y-39197768D01*
X82640882Y-39171000D01*
X82459118Y-39171000D01*
X82187337Y-39197768D01*
X81838610Y-39303553D01*
X81517222Y-39475339D01*
X81235523Y-39706523D01*
X81004339Y-39988222D01*
X80832553Y-40309610D01*
X80726768Y-40658337D01*
X80691049Y-41021000D01*
X79590706Y-41021000D01*
X79857530Y-40842714D01*
X80212714Y-40487530D01*
X80491780Y-40069878D01*
X80684005Y-39605807D01*
X80782000Y-39113153D01*
X80782000Y-38610847D01*
X80684005Y-38118193D01*
X80491780Y-37654122D01*
X80212714Y-37236470D01*
X79857530Y-36881286D01*
X79439878Y-36602220D01*
X78975807Y-36409995D01*
X78483153Y-36312000D01*
X77980847Y-36312000D01*
X77488193Y-36409995D01*
X77024122Y-36602220D01*
X76606470Y-36881286D01*
X76251286Y-37236470D01*
X75972220Y-37654122D01*
X75779995Y-38118193D01*
X75682000Y-38610847D01*
X75682000Y-39113153D01*
X75729020Y-39349540D01*
X75469625Y-39242095D01*
X75112209Y-39171000D01*
X74747791Y-39171000D01*
X74390375Y-39242095D01*
X74053697Y-39381552D01*
X73750694Y-39584011D01*
X73493011Y-39841694D01*
X73290552Y-40144697D01*
X73151095Y-40481375D01*
X73080000Y-40838791D01*
X73080000Y-41203209D01*
X73151095Y-41560625D01*
X73290552Y-41897303D01*
X73493011Y-42200306D01*
X73750694Y-42457989D01*
X74053697Y-42660448D01*
X74390375Y-42799905D01*
X74747791Y-42871000D01*
X75112209Y-42871000D01*
X75469625Y-42799905D01*
X75766001Y-42677142D01*
X75766001Y-44458389D01*
X74905056Y-45319334D01*
X74849735Y-45364736D01*
X74804335Y-45420056D01*
X74804332Y-45420059D01*
X74704171Y-45542106D01*
X74668536Y-45585527D01*
X74533894Y-45837425D01*
X74450981Y-46110751D01*
X74430000Y-46323776D01*
X74430000Y-46323785D01*
X74422986Y-46395000D01*
X74428199Y-46447928D01*
X74280000Y-46433332D01*
X74219500Y-46437000D01*
X74030000Y-46626500D01*
X74030000Y-47595000D01*
X74250000Y-47595000D01*
X74250000Y-48095000D01*
X74030000Y-48095000D01*
X74030000Y-48115000D01*
X73930000Y-48115000D01*
X73930000Y-48095000D01*
X73780610Y-48095000D01*
X73710000Y-48024390D01*
X73710000Y-47595000D01*
X73930000Y-47595000D01*
X73930000Y-46626500D01*
X73740500Y-46437000D01*
X73680000Y-46433332D01*
X73531406Y-46447967D01*
X73388522Y-46491311D01*
X73256840Y-46561696D01*
X73141419Y-46656419D01*
X73046696Y-46771840D01*
X72976311Y-46903522D01*
X72932967Y-47046406D01*
X72918332Y-47195000D01*
X72919001Y-47233392D01*
X72555670Y-46870061D01*
X72510265Y-46814735D01*
X72289474Y-46633536D01*
X72250000Y-46612437D01*
X72250000Y-46487225D01*
X72257015Y-46416000D01*
X72229019Y-46131750D01*
X72190493Y-46004749D01*
X72146106Y-45858424D01*
X72011464Y-45606526D01*
X71830265Y-45385735D01*
X71774939Y-45340330D01*
X70163670Y-43729061D01*
X70118265Y-43673735D01*
X69897474Y-43492536D01*
X69645576Y-43357894D01*
X69372250Y-43274981D01*
X69159225Y-43254000D01*
X69159215Y-43254000D01*
X69088000Y-43246986D01*
X69016785Y-43254000D01*
X68645999Y-43254000D01*
X68528714Y-43078470D01*
X68173530Y-42723286D01*
X67755878Y-42444220D01*
X67291807Y-42251995D01*
X66799153Y-42154000D01*
X66296847Y-42154000D01*
X65804193Y-42251995D01*
X65340122Y-42444220D01*
X64922470Y-42723286D01*
X64567286Y-43078470D01*
X64288220Y-43496122D01*
X64095995Y-43960193D01*
X63998000Y-44452847D01*
X63998000Y-44955153D01*
X64095995Y-45447807D01*
X64288220Y-45911878D01*
X64567286Y-46329530D01*
X64922470Y-46684714D01*
X65340122Y-46963780D01*
X65804193Y-47156005D01*
X66270609Y-47248781D01*
X63559151Y-49960240D01*
X63308122Y-50064220D01*
X62890470Y-50343286D01*
X62535286Y-50698470D01*
X62256220Y-51116122D01*
X62063995Y-51580193D01*
X61966000Y-52072847D01*
X61966000Y-52575153D01*
X62063995Y-53067807D01*
X62256220Y-53531878D01*
X62535286Y-53949530D01*
X62890470Y-54304714D01*
X63308122Y-54583780D01*
X63772193Y-54776005D01*
X64264847Y-54874000D01*
X64767153Y-54874000D01*
X65259807Y-54776005D01*
X65723878Y-54583780D01*
X66141530Y-54304714D01*
X66496714Y-53949530D01*
X66775780Y-53531878D01*
X66968005Y-53067807D01*
X67066000Y-52575153D01*
X67066000Y-52072847D01*
X66968005Y-51580193D01*
X66775780Y-51116122D01*
X66667115Y-50953494D01*
X68166655Y-49453955D01*
X68196238Y-49469767D01*
X68394164Y-49529807D01*
X68458772Y-49536170D01*
X68420981Y-49660751D01*
X68400000Y-49873776D01*
X68400000Y-50982785D01*
X68392986Y-51054000D01*
X68400000Y-51125215D01*
X68400000Y-51125225D01*
X68420981Y-51338250D01*
X68503894Y-51611576D01*
X68586663Y-51766425D01*
X68638536Y-51863473D01*
X68774332Y-52028941D01*
X68774336Y-52028945D01*
X68819736Y-52084265D01*
X68875056Y-52129665D01*
X69651914Y-52906523D01*
X69683995Y-53067807D01*
X69876220Y-53531878D01*
X70155286Y-53949530D01*
X70433095Y-54227339D01*
X70360456Y-54197251D01*
X70022360Y-54130000D01*
X69677640Y-54130000D01*
X69339544Y-54197251D01*
X69021064Y-54329170D01*
X68734440Y-54520686D01*
X68490686Y-54764440D01*
X68299170Y-55051064D01*
X68167251Y-55369544D01*
X68100000Y-55707640D01*
X68100000Y-56052360D01*
X68167251Y-56390456D01*
X68299170Y-56708936D01*
X68490686Y-56995560D01*
X68645126Y-57150000D01*
X68490686Y-57304440D01*
X68299170Y-57591064D01*
X68167251Y-57909544D01*
X68100000Y-58247640D01*
X68100000Y-58592360D01*
X68167251Y-58930456D01*
X68299170Y-59248936D01*
X68490686Y-59535560D01*
X68734440Y-59779314D01*
X69021064Y-59970830D01*
X69339544Y-60102749D01*
X69677640Y-60170000D01*
X70022360Y-60170000D01*
X70360456Y-60102749D01*
X70678936Y-59970830D01*
X70965560Y-59779314D01*
X71209314Y-59535560D01*
X71400830Y-59248936D01*
X71532749Y-58930456D01*
X71600000Y-58592360D01*
X71600000Y-58247640D01*
X71532749Y-57909544D01*
X71400830Y-57591064D01*
X71209314Y-57304440D01*
X71054874Y-57150000D01*
X71209314Y-56995560D01*
X71400830Y-56708936D01*
X71532749Y-56390456D01*
X71600000Y-56052360D01*
X71600000Y-55707640D01*
X73180000Y-55707640D01*
X73180000Y-56052360D01*
X73247251Y-56390456D01*
X73379170Y-56708936D01*
X73570686Y-56995560D01*
X73725126Y-57150000D01*
X73570686Y-57304440D01*
X73379170Y-57591064D01*
X73247251Y-57909544D01*
X73180000Y-58247640D01*
X73180000Y-58592360D01*
X73247251Y-58930456D01*
X73379170Y-59248936D01*
X73570686Y-59535560D01*
X73814440Y-59779314D01*
X74101064Y-59970830D01*
X74419544Y-60102749D01*
X74757640Y-60170000D01*
X75102360Y-60170000D01*
X75440456Y-60102749D01*
X75758936Y-59970830D01*
X76045560Y-59779314D01*
X76289314Y-59535560D01*
X76480830Y-59248936D01*
X76612749Y-58930456D01*
X76680000Y-58592360D01*
X76680000Y-58247640D01*
X76612749Y-57909544D01*
X76480830Y-57591064D01*
X76289314Y-57304440D01*
X76134874Y-57150000D01*
X76289314Y-56995560D01*
X76480830Y-56708936D01*
X76612749Y-56390456D01*
X76680000Y-56052360D01*
X76680000Y-55707640D01*
X76612749Y-55369544D01*
X76480830Y-55051064D01*
X76289314Y-54764440D01*
X76045560Y-54520686D01*
X75758936Y-54329170D01*
X75440456Y-54197251D01*
X75102360Y-54130000D01*
X74757640Y-54130000D01*
X74419544Y-54197251D01*
X74101064Y-54329170D01*
X73814440Y-54520686D01*
X73570686Y-54764440D01*
X73379170Y-55051064D01*
X73247251Y-55369544D01*
X73180000Y-55707640D01*
X71600000Y-55707640D01*
X71532749Y-55369544D01*
X71400830Y-55051064D01*
X71209314Y-54764440D01*
X71099741Y-54654867D01*
X71392193Y-54776005D01*
X71884847Y-54874000D01*
X72387153Y-54874000D01*
X72879807Y-54776005D01*
X73343878Y-54583780D01*
X73761530Y-54304714D01*
X74116714Y-53949530D01*
X74395780Y-53531878D01*
X74588005Y-53067807D01*
X74686000Y-52575153D01*
X74686000Y-52072847D01*
X74601345Y-51647258D01*
X74630000Y-51650080D01*
X75230000Y-51650080D01*
X75435836Y-51629807D01*
X75633762Y-51569767D01*
X75816171Y-51472267D01*
X75976054Y-51341054D01*
X76107267Y-51181171D01*
X76204767Y-50998762D01*
X76264807Y-50800836D01*
X76285080Y-50595000D01*
X76285080Y-50472993D01*
X76359019Y-50229250D01*
X76387015Y-49945000D01*
X76359019Y-49660750D01*
X76321228Y-49536170D01*
X76385836Y-49529807D01*
X76583762Y-49469767D01*
X76766171Y-49372267D01*
X76926054Y-49241054D01*
X77057267Y-49081171D01*
X77154767Y-48898762D01*
X77214807Y-48700836D01*
X77235080Y-48495000D01*
X77235080Y-48372993D01*
X77309019Y-48129250D01*
X77330000Y-47916225D01*
X77330000Y-46995609D01*
X77885683Y-46439927D01*
X78130470Y-46684714D01*
X78548122Y-46963780D01*
X79012193Y-47156005D01*
X79504847Y-47254000D01*
X79609920Y-47254000D01*
X79609920Y-47317008D01*
X79535981Y-47560751D01*
X79534598Y-47574792D01*
X78019057Y-49090334D01*
X77963735Y-49135736D01*
X77918335Y-49191056D01*
X77918332Y-49191059D01*
X77864488Y-49256668D01*
X77782536Y-49356527D01*
X77647894Y-49608425D01*
X77564981Y-49881751D01*
X77544000Y-50094776D01*
X77544000Y-50094785D01*
X77536986Y-50166000D01*
X77542964Y-50226693D01*
X77368470Y-50343286D01*
X77013286Y-50698470D01*
X76734220Y-51116122D01*
X76541995Y-51580193D01*
X76444000Y-52072847D01*
X76444000Y-52575153D01*
X76541995Y-53067807D01*
X76734220Y-53531878D01*
X77013286Y-53949530D01*
X77368470Y-54304714D01*
X77786122Y-54583780D01*
X78250193Y-54776005D01*
X78742847Y-54874000D01*
X79245153Y-54874000D01*
X79737807Y-54776005D01*
X80201878Y-54583780D01*
X80619530Y-54304714D01*
X80974714Y-53949530D01*
X81253780Y-53531878D01*
X81446005Y-53067807D01*
X81544000Y-52575153D01*
X81544000Y-52496609D01*
X81816600Y-52769210D01*
X81875995Y-53067807D01*
X82068220Y-53531878D01*
X82347286Y-53949530D01*
X82702470Y-54304714D01*
X82731136Y-54323868D01*
X82425456Y-54197251D01*
X82087360Y-54130000D01*
X81742640Y-54130000D01*
X81404544Y-54197251D01*
X81086064Y-54329170D01*
X80799440Y-54520686D01*
X80555686Y-54764440D01*
X80364170Y-55051064D01*
X80232251Y-55369544D01*
X80165000Y-55707640D01*
X80165000Y-56052360D01*
X80232251Y-56390456D01*
X80364170Y-56708936D01*
X80555686Y-56995560D01*
X80710126Y-57150000D01*
X80555686Y-57304440D01*
X80364170Y-57591064D01*
X80232251Y-57909544D01*
X80165000Y-58247640D01*
X80165000Y-58592360D01*
X80232251Y-58930456D01*
X80364170Y-59248936D01*
X80555686Y-59535560D01*
X80799440Y-59779314D01*
X81086064Y-59970830D01*
X81404544Y-60102749D01*
X81742640Y-60170000D01*
X82087360Y-60170000D01*
X82425456Y-60102749D01*
X82743936Y-59970830D01*
X83030560Y-59779314D01*
X83274314Y-59535560D01*
X83465830Y-59248936D01*
X83597749Y-58930456D01*
X83665000Y-58592360D01*
X83665000Y-58247640D01*
X83597749Y-57909544D01*
X83465830Y-57591064D01*
X83274314Y-57304440D01*
X83119874Y-57150000D01*
X83274314Y-56995560D01*
X83465830Y-56708936D01*
X83597749Y-56390456D01*
X83665000Y-56052360D01*
X83665000Y-55707640D01*
X83597749Y-55369544D01*
X83465830Y-55051064D01*
X83274314Y-54764440D01*
X83040356Y-54530482D01*
X83120122Y-54583780D01*
X83584193Y-54776005D01*
X84076847Y-54874000D01*
X84579153Y-54874000D01*
X85071807Y-54776005D01*
X85535878Y-54583780D01*
X85953530Y-54304714D01*
X86308714Y-53949530D01*
X86587780Y-53531878D01*
X86780005Y-53067807D01*
X86878000Y-52575153D01*
X86878000Y-52072847D01*
X86793906Y-51650080D01*
X87295000Y-51650080D01*
X87500836Y-51629807D01*
X87698762Y-51569767D01*
X87881171Y-51472267D01*
X88041054Y-51341054D01*
X88172267Y-51181171D01*
X88269767Y-50998762D01*
X88329807Y-50800836D01*
X88350080Y-50595000D01*
X88350080Y-50472993D01*
X88424019Y-50229250D01*
X88452015Y-49945000D01*
X88424019Y-49660750D01*
X88386228Y-49536170D01*
X88450836Y-49529807D01*
X88648762Y-49469767D01*
X88831171Y-49372267D01*
X88991054Y-49241054D01*
X89122267Y-49081171D01*
X89219767Y-48898762D01*
X89279807Y-48700836D01*
X89300080Y-48495000D01*
X89300080Y-48372993D01*
X89374019Y-48129250D01*
X89395000Y-47916225D01*
X89395000Y-46743868D01*
X89724122Y-46963780D01*
X90188193Y-47156005D01*
X90680847Y-47254000D01*
X91183153Y-47254000D01*
X91675807Y-47156005D01*
X92139878Y-46963780D01*
X92557530Y-46684714D01*
X92912714Y-46329530D01*
X93191780Y-45911878D01*
X93384005Y-45447807D01*
X93482000Y-44955153D01*
X93482000Y-44452847D01*
X93384005Y-43960193D01*
X93335505Y-43843104D01*
X95401749Y-41776860D01*
X95383132Y-45314227D01*
X90857438Y-49839921D01*
X90696193Y-49871995D01*
X90232122Y-50064220D01*
X89814470Y-50343286D01*
X89459286Y-50698470D01*
X89180220Y-51116122D01*
X88987995Y-51580193D01*
X88890000Y-52072847D01*
X88890000Y-52575153D01*
X88987995Y-53067807D01*
X89180220Y-53531878D01*
X89459286Y-53949530D01*
X89814470Y-54304714D01*
X90232122Y-54583780D01*
X90696193Y-54776005D01*
X91188847Y-54874000D01*
X91691153Y-54874000D01*
X92183807Y-54776005D01*
X92647878Y-54583780D01*
X93065530Y-54304714D01*
X93420714Y-53949530D01*
X93699780Y-53531878D01*
X93892005Y-53067807D01*
X93990000Y-52575153D01*
X93990000Y-52072847D01*
X93892005Y-51580193D01*
X93699780Y-51116122D01*
X93692841Y-51105736D01*
X95361432Y-49437145D01*
X95328433Y-55707000D01*
X88744873Y-55707000D01*
X88677749Y-55369544D01*
X88545830Y-55051064D01*
X88354314Y-54764440D01*
X88110560Y-54520686D01*
X87823936Y-54329170D01*
X87505456Y-54197251D01*
X87167360Y-54130000D01*
X86822640Y-54130000D01*
X86484544Y-54197251D01*
X86166064Y-54329170D01*
X85879440Y-54520686D01*
X85635686Y-54764440D01*
X85444170Y-55051064D01*
X85312251Y-55369544D01*
X85245000Y-55707640D01*
X85245000Y-56052360D01*
X85312251Y-56390456D01*
X85444170Y-56708936D01*
X85635686Y-56995560D01*
X85790126Y-57150000D01*
X85635686Y-57304440D01*
X85444170Y-57591064D01*
X85312251Y-57909544D01*
X85245000Y-58247640D01*
X85245000Y-58592360D01*
X85312251Y-58930456D01*
X85444170Y-59248936D01*
X85635686Y-59535560D01*
X85879440Y-59779314D01*
X86166064Y-59970830D01*
X86484544Y-60102749D01*
X86822640Y-60170000D01*
X87167360Y-60170000D01*
X87505456Y-60102749D01*
X87823936Y-59970830D01*
X88110560Y-59779314D01*
X88354314Y-59535560D01*
X88545830Y-59248936D01*
X88621143Y-59067115D01*
X88621143Y-60357000D01*
X95303959Y-60357000D01*
X95291038Y-62812000D01*
X80610610Y-62812000D01*
X80232815Y-62434205D01*
X80274000Y-62227153D01*
X80274000Y-61724847D01*
X80176005Y-61232193D01*
X79983780Y-60768122D01*
X79704714Y-60350470D01*
X79349530Y-59995286D01*
X78931878Y-59716220D01*
X78467807Y-59523995D01*
X77975153Y-59426000D01*
X77472847Y-59426000D01*
X76980193Y-59523995D01*
X76516122Y-59716220D01*
X76098470Y-59995286D01*
X75743286Y-60350470D01*
X75464220Y-60768122D01*
X75271995Y-61232193D01*
X75174000Y-61724847D01*
X75174000Y-62227153D01*
X75271995Y-62719807D01*
X75464220Y-63183878D01*
X75743286Y-63601530D01*
X76098470Y-63956714D01*
X76516122Y-64235780D01*
X76980193Y-64428005D01*
X77472847Y-64526000D01*
X77975153Y-64526000D01*
X78182205Y-64484815D01*
X78934334Y-65236944D01*
X78979735Y-65292265D01*
X79035055Y-65337665D01*
X79035058Y-65337668D01*
X79154092Y-65435356D01*
X79200526Y-65473464D01*
X79452424Y-65608106D01*
X79725750Y-65691019D01*
X79938775Y-65712000D01*
X79938784Y-65712000D01*
X80009999Y-65719014D01*
X80081214Y-65712000D01*
X95275775Y-65712000D01*
X95273659Y-66114000D01*
X83383215Y-66114000D01*
X83312000Y-66106986D01*
X83240785Y-66114000D01*
X83240775Y-66114000D01*
X83027750Y-66134981D01*
X82754424Y-66217894D01*
X82647906Y-66274829D01*
X82502526Y-66352536D01*
X82337058Y-66488332D01*
X82337055Y-66488335D01*
X82281735Y-66533735D01*
X82236334Y-66589056D01*
X81738205Y-67087185D01*
X81531153Y-67046000D01*
X81028847Y-67046000D01*
X80536193Y-67143995D01*
X80072122Y-67336220D01*
X79654470Y-67615286D01*
X79299286Y-67970470D01*
X79020220Y-68388122D01*
X78827995Y-68852193D01*
X78730000Y-69344847D01*
X78730000Y-69847153D01*
X78827995Y-70339807D01*
X79020220Y-70803878D01*
X79299286Y-71221530D01*
X79654470Y-71576714D01*
X80072122Y-71855780D01*
X80536193Y-72048005D01*
X81028847Y-72146000D01*
X81531153Y-72146000D01*
X82023807Y-72048005D01*
X82487878Y-71855780D01*
X82905530Y-71576714D01*
X83242812Y-71239432D01*
X83266768Y-71482663D01*
X83372553Y-71831390D01*
X83544339Y-72152778D01*
X83775523Y-72434477D01*
X84057222Y-72665661D01*
X84378610Y-72837447D01*
X84727337Y-72943232D01*
X84999118Y-72970000D01*
X85180882Y-72970000D01*
X85452663Y-72943232D01*
X85524235Y-72921521D01*
X85395286Y-73050470D01*
X85116220Y-73468122D01*
X84923995Y-73932193D01*
X84826000Y-74424847D01*
X84826000Y-74927153D01*
X84923995Y-75419807D01*
X85116220Y-75883878D01*
X85377109Y-76274327D01*
X85180882Y-76255000D01*
X84999118Y-76255000D01*
X84727337Y-76281768D01*
X84378610Y-76387553D01*
X84057222Y-76559339D01*
X83775523Y-76790523D01*
X83544339Y-77072222D01*
X83372553Y-77393610D01*
X83266768Y-77742337D01*
X83231049Y-78105000D01*
X83266768Y-78467663D01*
X83372553Y-78816390D01*
X83544339Y-79137778D01*
X83775523Y-79419477D01*
X84057222Y-79650661D01*
X84378610Y-79822447D01*
X84727337Y-79928232D01*
X84999118Y-79955000D01*
X85180882Y-79955000D01*
X85452663Y-79928232D01*
X85801390Y-79822447D01*
X86122778Y-79650661D01*
X86404477Y-79419477D01*
X86635661Y-79137778D01*
X86807447Y-78816390D01*
X86913232Y-78467663D01*
X86948951Y-78105000D01*
X86913232Y-77742337D01*
X86807447Y-77393610D01*
X86669438Y-77135413D01*
X87124847Y-77226000D01*
X87627153Y-77226000D01*
X88119807Y-77128005D01*
X88583878Y-76935780D01*
X89001530Y-76656714D01*
X89356714Y-76301530D01*
X89473999Y-76126000D01*
X89823391Y-76126000D01*
X95192705Y-81495314D01*
X95155911Y-88486100D01*
X92956416Y-86286604D01*
X92997601Y-86079552D01*
X92997601Y-85577246D01*
X92899606Y-85084592D01*
X92707381Y-84620521D01*
X92428315Y-84202869D01*
X92073131Y-83847685D01*
X91655479Y-83568619D01*
X91191408Y-83376394D01*
X90698754Y-83278399D01*
X90196448Y-83278399D01*
X89703794Y-83376394D01*
X89239723Y-83568619D01*
X88822071Y-83847685D01*
X88466887Y-84202869D01*
X88187821Y-84620521D01*
X87995596Y-85084592D01*
X87897601Y-85577246D01*
X87897601Y-86079552D01*
X87995596Y-86572206D01*
X88187821Y-87036277D01*
X88466887Y-87453929D01*
X88822071Y-87809113D01*
X89239723Y-88088179D01*
X89703794Y-88280404D01*
X90196448Y-88378399D01*
X90698754Y-88378399D01*
X90905806Y-88337214D01*
X95134439Y-92565847D01*
X95049070Y-108786000D01*
X92793913Y-108786000D01*
X92683782Y-108520122D01*
X92404716Y-108102470D01*
X92049532Y-107747286D01*
X91631880Y-107468220D01*
X91167809Y-107275995D01*
X90675155Y-107178000D01*
X90172849Y-107178000D01*
X89680195Y-107275995D01*
X89216124Y-107468220D01*
X88798472Y-107747286D01*
X88443288Y-108102470D01*
X88164222Y-108520122D01*
X87971997Y-108984193D01*
X87874002Y-109476847D01*
X87874002Y-109979153D01*
X87971997Y-110471807D01*
X88164222Y-110935878D01*
X88443288Y-111353530D01*
X88798472Y-111708714D01*
X89216124Y-111987780D01*
X89680195Y-112180005D01*
X90172849Y-112278000D01*
X90675155Y-112278000D01*
X91167809Y-112180005D01*
X91631880Y-111987780D01*
X92049532Y-111708714D01*
X92072246Y-111686000D01*
X95033807Y-111686000D01*
X95028438Y-112706015D01*
X94710617Y-112536136D01*
X94352465Y-112427492D01*
X94073337Y-112400000D01*
X93886663Y-112400000D01*
X93607535Y-112427492D01*
X93249383Y-112536136D01*
X92919309Y-112712564D01*
X92710000Y-112884340D01*
X92500691Y-112712564D01*
X92170617Y-112536136D01*
X91812465Y-112427492D01*
X91533337Y-112400000D01*
X91346663Y-112400000D01*
X91067535Y-112427492D01*
X90709383Y-112536136D01*
X90379309Y-112712564D01*
X90170000Y-112884340D01*
X89960691Y-112712564D01*
X89630617Y-112536136D01*
X89272465Y-112427492D01*
X88993337Y-112400000D01*
X88806663Y-112400000D01*
X88527535Y-112427492D01*
X88169383Y-112536136D01*
X87839309Y-112712564D01*
X87630000Y-112884340D01*
X87420691Y-112712564D01*
X87090617Y-112536136D01*
X86732465Y-112427492D01*
X86453337Y-112400000D01*
X86266663Y-112400000D01*
X85987535Y-112427492D01*
X85629383Y-112536136D01*
X85299309Y-112712564D01*
X85009997Y-112949997D01*
X84884254Y-113103215D01*
X84816739Y-113038174D01*
X84551417Y-112867966D01*
X84315410Y-112770218D01*
X84070000Y-112903704D01*
X84070000Y-114050000D01*
X84090000Y-114050000D01*
X84090000Y-114550000D01*
X84070000Y-114550000D01*
X84070000Y-115696296D01*
X84315410Y-115829782D01*
X84551417Y-115732034D01*
X84816739Y-115561826D01*
X84884254Y-115496785D01*
X85009997Y-115650003D01*
X85299309Y-115887436D01*
X85629383Y-116063864D01*
X85987535Y-116172508D01*
X86266663Y-116200000D01*
X86453337Y-116200000D01*
X86732465Y-116172508D01*
X87090617Y-116063864D01*
X87420691Y-115887436D01*
X87630000Y-115715660D01*
X87839309Y-115887436D01*
X88169383Y-116063864D01*
X88527535Y-116172508D01*
X88806663Y-116200000D01*
X88993337Y-116200000D01*
X89272465Y-116172508D01*
X89630617Y-116063864D01*
X89960691Y-115887436D01*
X90170000Y-115715660D01*
X90379309Y-115887436D01*
X90709383Y-116063864D01*
X91067535Y-116172508D01*
X91346663Y-116200000D01*
X91533337Y-116200000D01*
X91812465Y-116172508D01*
X92170617Y-116063864D01*
X92500691Y-115887436D01*
X92710000Y-115715660D01*
X92919309Y-115887436D01*
X93249383Y-116063864D01*
X93607535Y-116172508D01*
X93886663Y-116200000D01*
X94073337Y-116200000D01*
X94352465Y-116172508D01*
X94710617Y-116063864D01*
X95011612Y-115902979D01*
X95002446Y-117644415D01*
X60375000Y-117116850D01*
X60375000Y-114048847D01*
X72126000Y-114048847D01*
X72126000Y-114551153D01*
X72223995Y-115043807D01*
X72416220Y-115507878D01*
X72695286Y-115925530D01*
X73050470Y-116280714D01*
X73468122Y-116559780D01*
X73932193Y-116752005D01*
X74424847Y-116850000D01*
X74927153Y-116850000D01*
X75419807Y-116752005D01*
X75883878Y-116559780D01*
X76301530Y-116280714D01*
X76656714Y-115925530D01*
X76935780Y-115507878D01*
X77128005Y-115043807D01*
X77226000Y-114551153D01*
X77226000Y-114048847D01*
X77128005Y-113556193D01*
X77084019Y-113450000D01*
X79374920Y-113450000D01*
X79374920Y-115150000D01*
X79395193Y-115355836D01*
X79455233Y-115553762D01*
X79552733Y-115736171D01*
X79683946Y-115896054D01*
X79843829Y-116027267D01*
X80026238Y-116124767D01*
X80224164Y-116184807D01*
X80430000Y-116205080D01*
X82130000Y-116205080D01*
X82335836Y-116184807D01*
X82533762Y-116124767D01*
X82716171Y-116027267D01*
X82876054Y-115896054D01*
X83007267Y-115736171D01*
X83029677Y-115694245D01*
X83088583Y-115732034D01*
X83324590Y-115829782D01*
X83570000Y-115696296D01*
X83570000Y-114550000D01*
X83550000Y-114550000D01*
X83550000Y-114050000D01*
X83570000Y-114050000D01*
X83570000Y-112903704D01*
X83324590Y-112770218D01*
X83088583Y-112867966D01*
X83029677Y-112905755D01*
X83007267Y-112863829D01*
X82876054Y-112703946D01*
X82716171Y-112572733D01*
X82533762Y-112475233D01*
X82335836Y-112415193D01*
X82130000Y-112394920D01*
X80430000Y-112394920D01*
X80224164Y-112415193D01*
X80026238Y-112475233D01*
X79843829Y-112572733D01*
X79683946Y-112703946D01*
X79552733Y-112863829D01*
X79455233Y-113046238D01*
X79395193Y-113244164D01*
X79374920Y-113450000D01*
X77084019Y-113450000D01*
X76935780Y-113092122D01*
X76656714Y-112674470D01*
X76301530Y-112319286D01*
X75883878Y-112040220D01*
X75419807Y-111847995D01*
X74927153Y-111750000D01*
X74424847Y-111750000D01*
X73932193Y-111847995D01*
X73468122Y-112040220D01*
X73050470Y-112319286D01*
X72695286Y-112674470D01*
X72416220Y-113092122D01*
X72223995Y-113556193D01*
X72126000Y-114048847D01*
X60375000Y-114048847D01*
X60375000Y-110602806D01*
X60380201Y-110550000D01*
X60359445Y-110339263D01*
X60297976Y-110136625D01*
X60198154Y-109949872D01*
X60063817Y-109786183D01*
X59900128Y-109651846D01*
X59713375Y-109552024D01*
X59510737Y-109490555D01*
X59352806Y-109475000D01*
X59300000Y-109469799D01*
X59247194Y-109475000D01*
X51900000Y-109475000D01*
X51900000Y-98252640D01*
X64290000Y-98252640D01*
X64290000Y-98597360D01*
X64357251Y-98935456D01*
X64489170Y-99253936D01*
X64680686Y-99540560D01*
X64835126Y-99695000D01*
X64680686Y-99849440D01*
X64489170Y-100136064D01*
X64357251Y-100454544D01*
X64290000Y-100792640D01*
X64290000Y-101137360D01*
X64357251Y-101475456D01*
X64489170Y-101793936D01*
X64680686Y-102080560D01*
X64924440Y-102324314D01*
X65211064Y-102515830D01*
X65529544Y-102647749D01*
X65867640Y-102715000D01*
X66212360Y-102715000D01*
X66349149Y-102687791D01*
X68000000Y-102687791D01*
X68000000Y-103052209D01*
X68071095Y-103409625D01*
X68210552Y-103746303D01*
X68413011Y-104049306D01*
X68670694Y-104306989D01*
X68973697Y-104509448D01*
X69310375Y-104648905D01*
X69667791Y-104720000D01*
X70032209Y-104720000D01*
X70389625Y-104648905D01*
X70726303Y-104509448D01*
X71029306Y-104306989D01*
X71286989Y-104049306D01*
X71489448Y-103746303D01*
X71628905Y-103409625D01*
X71700000Y-103052209D01*
X71700000Y-102870000D01*
X83231049Y-102870000D01*
X83266768Y-103232663D01*
X83372553Y-103581390D01*
X83544339Y-103902778D01*
X83775523Y-104184477D01*
X84057222Y-104415661D01*
X84378610Y-104587447D01*
X84727337Y-104693232D01*
X84999118Y-104720000D01*
X85180882Y-104720000D01*
X85452663Y-104693232D01*
X85801390Y-104587447D01*
X86122778Y-104415661D01*
X86404477Y-104184477D01*
X86635661Y-103902778D01*
X86807447Y-103581390D01*
X86913232Y-103232663D01*
X86948951Y-102870000D01*
X86913232Y-102507337D01*
X86807447Y-102158610D01*
X86635661Y-101837222D01*
X86404477Y-101555523D01*
X86122778Y-101324339D01*
X85801390Y-101152553D01*
X85452663Y-101046768D01*
X85180882Y-101020000D01*
X84999118Y-101020000D01*
X84727337Y-101046768D01*
X84378610Y-101152553D01*
X84057222Y-101324339D01*
X83775523Y-101555523D01*
X83544339Y-101837222D01*
X83372553Y-102158610D01*
X83266768Y-102507337D01*
X83231049Y-102870000D01*
X71700000Y-102870000D01*
X71700000Y-102687791D01*
X71628905Y-102330375D01*
X71489448Y-101993697D01*
X71286989Y-101690694D01*
X71029306Y-101433011D01*
X70726303Y-101230552D01*
X70389625Y-101091095D01*
X70032209Y-101020000D01*
X69667791Y-101020000D01*
X69310375Y-101091095D01*
X68973697Y-101230552D01*
X68670694Y-101433011D01*
X68413011Y-101690694D01*
X68210552Y-101993697D01*
X68071095Y-102330375D01*
X68000000Y-102687791D01*
X66349149Y-102687791D01*
X66550456Y-102647749D01*
X66868936Y-102515830D01*
X67155560Y-102324314D01*
X67399314Y-102080560D01*
X67590830Y-101793936D01*
X67722749Y-101475456D01*
X67790000Y-101137360D01*
X67790000Y-100792640D01*
X67722749Y-100454544D01*
X67590830Y-100136064D01*
X67399314Y-99849440D01*
X67244874Y-99695000D01*
X67399314Y-99540560D01*
X67590830Y-99253936D01*
X67722749Y-98935456D01*
X67790000Y-98597360D01*
X67790000Y-98252640D01*
X67722749Y-97914544D01*
X67590830Y-97596064D01*
X67399314Y-97309440D01*
X67155560Y-97065686D01*
X66868936Y-96874170D01*
X66550456Y-96742251D01*
X66212360Y-96675000D01*
X65867640Y-96675000D01*
X65529544Y-96742251D01*
X65211064Y-96874170D01*
X64924440Y-97065686D01*
X64680686Y-97309440D01*
X64489170Y-97596064D01*
X64357251Y-97914544D01*
X64290000Y-98252640D01*
X51900000Y-98252640D01*
X51900000Y-96372489D01*
X68370231Y-96372489D01*
X68458931Y-96586654D01*
X68622546Y-96844556D01*
X68833331Y-97065583D01*
X69083186Y-97241241D01*
X69362510Y-97364779D01*
X69600000Y-97233321D01*
X69600000Y-96135000D01*
X70100000Y-96135000D01*
X70100000Y-97233321D01*
X70337490Y-97364779D01*
X70616814Y-97241241D01*
X70866669Y-97065583D01*
X71077454Y-96844556D01*
X71241069Y-96586654D01*
X71329769Y-96372489D01*
X71195471Y-96135000D01*
X70100000Y-96135000D01*
X69600000Y-96135000D01*
X68504529Y-96135000D01*
X68370231Y-96372489D01*
X51900000Y-96372489D01*
X51900000Y-95702791D01*
X83240000Y-95702791D01*
X83240000Y-96067209D01*
X83311095Y-96424625D01*
X83450552Y-96761303D01*
X83653011Y-97064306D01*
X83910694Y-97321989D01*
X84213697Y-97524448D01*
X84550375Y-97663905D01*
X84907791Y-97735000D01*
X85272209Y-97735000D01*
X85629625Y-97663905D01*
X85966303Y-97524448D01*
X86269306Y-97321989D01*
X86526989Y-97064306D01*
X86729448Y-96761303D01*
X86868905Y-96424625D01*
X86940000Y-96067209D01*
X86940000Y-95702791D01*
X86868905Y-95345375D01*
X86729448Y-95008697D01*
X86526989Y-94705694D01*
X86269306Y-94448011D01*
X85966303Y-94245552D01*
X85629625Y-94106095D01*
X85272209Y-94035000D01*
X84907791Y-94035000D01*
X84550375Y-94106095D01*
X84213697Y-94245552D01*
X83910694Y-94448011D01*
X83653011Y-94705694D01*
X83450552Y-95008697D01*
X83311095Y-95345375D01*
X83240000Y-95702791D01*
X51900000Y-95702791D01*
X51900000Y-95397511D01*
X68370231Y-95397511D01*
X68504529Y-95635000D01*
X69600000Y-95635000D01*
X69600000Y-94536679D01*
X70100000Y-94536679D01*
X70100000Y-95635000D01*
X71195471Y-95635000D01*
X71329769Y-95397511D01*
X71241069Y-95183346D01*
X71077454Y-94925444D01*
X70866669Y-94704417D01*
X70616814Y-94528759D01*
X70337490Y-94405221D01*
X70100000Y-94536679D01*
X69600000Y-94536679D01*
X69362510Y-94405221D01*
X69083186Y-94528759D01*
X68833331Y-94704417D01*
X68622546Y-94925444D01*
X68458931Y-95183346D01*
X68370231Y-95397511D01*
X51900000Y-95397511D01*
X51900000Y-89387489D01*
X68370231Y-89387489D01*
X68458931Y-89601654D01*
X68622546Y-89859556D01*
X68833331Y-90080583D01*
X69083186Y-90256241D01*
X69362510Y-90379779D01*
X69600000Y-90248321D01*
X69600000Y-89150000D01*
X70100000Y-89150000D01*
X70100000Y-90248321D01*
X70337490Y-90379779D01*
X70616814Y-90256241D01*
X70866669Y-90080583D01*
X71077454Y-89859556D01*
X71241069Y-89601654D01*
X71329769Y-89387489D01*
X71195471Y-89150000D01*
X70100000Y-89150000D01*
X69600000Y-89150000D01*
X68504529Y-89150000D01*
X68370231Y-89387489D01*
X51900000Y-89387489D01*
X51900000Y-88717791D01*
X83240000Y-88717791D01*
X83240000Y-89082209D01*
X83311095Y-89439625D01*
X83450552Y-89776303D01*
X83653011Y-90079306D01*
X83910694Y-90336989D01*
X84213697Y-90539448D01*
X84550375Y-90678905D01*
X84907791Y-90750000D01*
X85272209Y-90750000D01*
X85629625Y-90678905D01*
X85966303Y-90539448D01*
X86269306Y-90336989D01*
X86526989Y-90079306D01*
X86729448Y-89776303D01*
X86868905Y-89439625D01*
X86940000Y-89082209D01*
X86940000Y-88717791D01*
X86868905Y-88360375D01*
X86729448Y-88023697D01*
X86526989Y-87720694D01*
X86269306Y-87463011D01*
X85966303Y-87260552D01*
X85629625Y-87121095D01*
X85272209Y-87050000D01*
X84907791Y-87050000D01*
X84550375Y-87121095D01*
X84213697Y-87260552D01*
X83910694Y-87463011D01*
X83653011Y-87720694D01*
X83450552Y-88023697D01*
X83311095Y-88360375D01*
X83240000Y-88717791D01*
X51900000Y-88717791D01*
X51900000Y-88412511D01*
X68370231Y-88412511D01*
X68504529Y-88650000D01*
X69600000Y-88650000D01*
X69600000Y-87551679D01*
X70100000Y-87551679D01*
X70100000Y-88650000D01*
X71195471Y-88650000D01*
X71329769Y-88412511D01*
X71241069Y-88198346D01*
X71077454Y-87940444D01*
X70866669Y-87719417D01*
X70616814Y-87543759D01*
X70337490Y-87420221D01*
X70100000Y-87551679D01*
X69600000Y-87551679D01*
X69362510Y-87420221D01*
X69083186Y-87543759D01*
X68833331Y-87719417D01*
X68622546Y-87940444D01*
X68458931Y-88198346D01*
X68370231Y-88412511D01*
X51900000Y-88412511D01*
X51900000Y-84307489D01*
X68370231Y-84307489D01*
X68458931Y-84521654D01*
X68622546Y-84779556D01*
X68833331Y-85000583D01*
X69083186Y-85176241D01*
X69362510Y-85299779D01*
X69600000Y-85168321D01*
X69600000Y-84070000D01*
X70100000Y-84070000D01*
X70100000Y-85168321D01*
X70337490Y-85299779D01*
X70616814Y-85176241D01*
X70866669Y-85000583D01*
X71077454Y-84779556D01*
X71241069Y-84521654D01*
X71329769Y-84307489D01*
X71195471Y-84070000D01*
X70100000Y-84070000D01*
X69600000Y-84070000D01*
X68504529Y-84070000D01*
X68370231Y-84307489D01*
X51900000Y-84307489D01*
X51900000Y-83637791D01*
X83240000Y-83637791D01*
X83240000Y-84002209D01*
X83311095Y-84359625D01*
X83450552Y-84696303D01*
X83653011Y-84999306D01*
X83910694Y-85256989D01*
X84213697Y-85459448D01*
X84550375Y-85598905D01*
X84907791Y-85670000D01*
X85272209Y-85670000D01*
X85629625Y-85598905D01*
X85966303Y-85459448D01*
X86269306Y-85256989D01*
X86526989Y-84999306D01*
X86729448Y-84696303D01*
X86868905Y-84359625D01*
X86940000Y-84002209D01*
X86940000Y-83637791D01*
X86868905Y-83280375D01*
X86729448Y-82943697D01*
X86526989Y-82640694D01*
X86269306Y-82383011D01*
X85966303Y-82180552D01*
X85629625Y-82041095D01*
X85272209Y-81970000D01*
X84907791Y-81970000D01*
X84550375Y-82041095D01*
X84213697Y-82180552D01*
X83910694Y-82383011D01*
X83653011Y-82640694D01*
X83450552Y-82943697D01*
X83311095Y-83280375D01*
X83240000Y-83637791D01*
X51900000Y-83637791D01*
X51900000Y-83332511D01*
X68370231Y-83332511D01*
X68504529Y-83570000D01*
X69600000Y-83570000D01*
X69600000Y-82471679D01*
X70100000Y-82471679D01*
X70100000Y-83570000D01*
X71195471Y-83570000D01*
X71329769Y-83332511D01*
X71241069Y-83118346D01*
X71077454Y-82860444D01*
X70866669Y-82639417D01*
X70616814Y-82463759D01*
X70337490Y-82340221D01*
X70100000Y-82471679D01*
X69600000Y-82471679D01*
X69362510Y-82340221D01*
X69083186Y-82463759D01*
X68833331Y-82639417D01*
X68622546Y-82860444D01*
X68458931Y-83118346D01*
X68370231Y-83332511D01*
X51900000Y-83332511D01*
X51900000Y-77922791D01*
X68000000Y-77922791D01*
X68000000Y-78287209D01*
X68071095Y-78644625D01*
X68210552Y-78981303D01*
X68413011Y-79284306D01*
X68670694Y-79541989D01*
X68973697Y-79744448D01*
X69310375Y-79883905D01*
X69667791Y-79955000D01*
X70032209Y-79955000D01*
X70389625Y-79883905D01*
X70726303Y-79744448D01*
X71029306Y-79541989D01*
X71286989Y-79284306D01*
X71489448Y-78981303D01*
X71628905Y-78644625D01*
X71700000Y-78287209D01*
X71700000Y-77922791D01*
X71628905Y-77565375D01*
X71489448Y-77228697D01*
X71286989Y-76925694D01*
X71029306Y-76668011D01*
X70726303Y-76465552D01*
X70389625Y-76326095D01*
X70032209Y-76255000D01*
X69667791Y-76255000D01*
X69310375Y-76326095D01*
X68973697Y-76465552D01*
X68670694Y-76668011D01*
X68413011Y-76925694D01*
X68210552Y-77228697D01*
X68071095Y-77565375D01*
X68000000Y-77922791D01*
X51900000Y-77922791D01*
X51900000Y-70937791D01*
X68000000Y-70937791D01*
X68000000Y-71302209D01*
X68071095Y-71659625D01*
X68210552Y-71996303D01*
X68413011Y-72299306D01*
X68670694Y-72556989D01*
X68973697Y-72759448D01*
X69310375Y-72898905D01*
X69667791Y-72970000D01*
X70032209Y-72970000D01*
X70389625Y-72898905D01*
X70726303Y-72759448D01*
X71029306Y-72556989D01*
X71286989Y-72299306D01*
X71489448Y-71996303D01*
X71628905Y-71659625D01*
X71700000Y-71302209D01*
X71700000Y-70937791D01*
X71628905Y-70580375D01*
X71489448Y-70243697D01*
X71286989Y-69940694D01*
X71029306Y-69683011D01*
X70726303Y-69480552D01*
X70389625Y-69341095D01*
X70032209Y-69270000D01*
X69667791Y-69270000D01*
X69310375Y-69341095D01*
X68973697Y-69480552D01*
X68670694Y-69683011D01*
X68413011Y-69940694D01*
X68210552Y-70243697D01*
X68071095Y-70580375D01*
X68000000Y-70937791D01*
X51900000Y-70937791D01*
X51900000Y-54945000D01*
X53442143Y-54945000D01*
X53442143Y-59595000D01*
X62127857Y-59595000D01*
X62127857Y-54945000D01*
X53442143Y-54945000D01*
X51900000Y-54945000D01*
X51900000Y-41021000D01*
X68626049Y-41021000D01*
X68661768Y-41383663D01*
X68767553Y-41732390D01*
X68939339Y-42053778D01*
X69170523Y-42335477D01*
X69452222Y-42566661D01*
X69773610Y-42738447D01*
X70122337Y-42844232D01*
X70394118Y-42871000D01*
X70575882Y-42871000D01*
X70847663Y-42844232D01*
X71196390Y-42738447D01*
X71517778Y-42566661D01*
X71799477Y-42335477D01*
X72030661Y-42053778D01*
X72202447Y-41732390D01*
X72308232Y-41383663D01*
X72343951Y-41021000D01*
X72308232Y-40658337D01*
X72202447Y-40309610D01*
X72030661Y-39988222D01*
X71799477Y-39706523D01*
X71517778Y-39475339D01*
X71196390Y-39303553D01*
X70847663Y-39197768D01*
X70575882Y-39171000D01*
X70394118Y-39171000D01*
X70122337Y-39197768D01*
X69773610Y-39303553D01*
X69452222Y-39475339D01*
X69170523Y-39706523D01*
X68939339Y-39988222D01*
X68767553Y-40309610D01*
X68661768Y-40658337D01*
X68626049Y-41021000D01*
X51900000Y-41021000D01*
X51900000Y-28625000D01*
X59247194Y-28625000D01*
X59300000Y-28630201D01*
X59352806Y-28625000D01*
X59510737Y-28609445D01*
X59713375Y-28547976D01*
X59900128Y-28448154D01*
X60063817Y-28313817D01*
X60198154Y-28150128D01*
X60297976Y-27963375D01*
X60359445Y-27760737D01*
X60380201Y-27550000D01*
X60375000Y-27497194D01*
X60375000Y-25598791D01*
X68635000Y-25598791D01*
X68635000Y-25963209D01*
X68706095Y-26320625D01*
X68845552Y-26657303D01*
X69048011Y-26960306D01*
X69305694Y-27217989D01*
X69608697Y-27420448D01*
X69945375Y-27559905D01*
X70302791Y-27631000D01*
X70667209Y-27631000D01*
X71024625Y-27559905D01*
X71361303Y-27420448D01*
X71664306Y-27217989D01*
X71921989Y-26960306D01*
X72124448Y-26657303D01*
X72263905Y-26320625D01*
X72274275Y-26268490D01*
X73450221Y-26268490D01*
X73573759Y-26547814D01*
X73749417Y-26797669D01*
X73970444Y-27008454D01*
X74228346Y-27172069D01*
X74442511Y-27260769D01*
X74680000Y-27126471D01*
X74680000Y-26031000D01*
X75180000Y-26031000D01*
X75180000Y-27126471D01*
X75417489Y-27260769D01*
X75631654Y-27172069D01*
X75889556Y-27008454D01*
X76110583Y-26797669D01*
X76286241Y-26547814D01*
X76409779Y-26268490D01*
X76278321Y-26031000D01*
X75180000Y-26031000D01*
X74680000Y-26031000D01*
X73581679Y-26031000D01*
X73450221Y-26268490D01*
X72274275Y-26268490D01*
X72335000Y-25963209D01*
X72335000Y-25598791D01*
X80700000Y-25598791D01*
X80700000Y-25963209D01*
X80771095Y-26320625D01*
X80910552Y-26657303D01*
X81113011Y-26960306D01*
X81370694Y-27217989D01*
X81673697Y-27420448D01*
X82010375Y-27559905D01*
X82367791Y-27631000D01*
X82732209Y-27631000D01*
X83089625Y-27559905D01*
X83426303Y-27420448D01*
X83729306Y-27217989D01*
X83986989Y-26960306D01*
X84189448Y-26657303D01*
X84328905Y-26320625D01*
X84339275Y-26268490D01*
X85515221Y-26268490D01*
X85638759Y-26547814D01*
X85814417Y-26797669D01*
X86035444Y-27008454D01*
X86293346Y-27172069D01*
X86507511Y-27260769D01*
X86745000Y-27126471D01*
X86745000Y-26031000D01*
X87245000Y-26031000D01*
X87245000Y-27126471D01*
X87482489Y-27260769D01*
X87696654Y-27172069D01*
X87954556Y-27008454D01*
X88175583Y-26797669D01*
X88351241Y-26547814D01*
X88474779Y-26268490D01*
X88343321Y-26031000D01*
X87245000Y-26031000D01*
X86745000Y-26031000D01*
X85646679Y-26031000D01*
X85515221Y-26268490D01*
X84339275Y-26268490D01*
X84400000Y-25963209D01*
X84400000Y-25598791D01*
X84339276Y-25293510D01*
X85515221Y-25293510D01*
X85646679Y-25531000D01*
X86745000Y-25531000D01*
X86745000Y-24435529D01*
X87245000Y-24435529D01*
X87245000Y-25531000D01*
X88343321Y-25531000D01*
X88474779Y-25293510D01*
X88351241Y-25014186D01*
X88175583Y-24764331D01*
X87954556Y-24553546D01*
X87696654Y-24389931D01*
X87482489Y-24301231D01*
X87245000Y-24435529D01*
X86745000Y-24435529D01*
X86507511Y-24301231D01*
X86293346Y-24389931D01*
X86035444Y-24553546D01*
X85814417Y-24764331D01*
X85638759Y-25014186D01*
X85515221Y-25293510D01*
X84339276Y-25293510D01*
X84328905Y-25241375D01*
X84189448Y-24904697D01*
X83986989Y-24601694D01*
X83729306Y-24344011D01*
X83426303Y-24141552D01*
X83089625Y-24002095D01*
X82732209Y-23931000D01*
X82367791Y-23931000D01*
X82010375Y-24002095D01*
X81673697Y-24141552D01*
X81370694Y-24344011D01*
X81113011Y-24601694D01*
X80910552Y-24904697D01*
X80771095Y-25241375D01*
X80700000Y-25598791D01*
X72335000Y-25598791D01*
X72274276Y-25293510D01*
X73450221Y-25293510D01*
X73581679Y-25531000D01*
X74680000Y-25531000D01*
X74680000Y-24435529D01*
X75180000Y-24435529D01*
X75180000Y-25531000D01*
X76278321Y-25531000D01*
X76409779Y-25293510D01*
X76286241Y-25014186D01*
X76110583Y-24764331D01*
X75889556Y-24553546D01*
X75631654Y-24389931D01*
X75417489Y-24301231D01*
X75180000Y-24435529D01*
X74680000Y-24435529D01*
X74442511Y-24301231D01*
X74228346Y-24389931D01*
X73970444Y-24553546D01*
X73749417Y-24764331D01*
X73573759Y-25014186D01*
X73450221Y-25293510D01*
X72274276Y-25293510D01*
X72263905Y-25241375D01*
X72124448Y-24904697D01*
X71921989Y-24601694D01*
X71664306Y-24344011D01*
X71361303Y-24141552D01*
X71024625Y-24002095D01*
X70667209Y-23931000D01*
X70302791Y-23931000D01*
X69945375Y-24002095D01*
X69608697Y-24141552D01*
X69305694Y-24344011D01*
X69048011Y-24601694D01*
X68845552Y-24904697D01*
X68706095Y-25241375D01*
X68635000Y-25598791D01*
X60375000Y-25598791D01*
X60375000Y-20150000D01*
X127614879Y-20150000D01*
X141225000Y-20301856D01*
X141225000Y-20301856D01*
G37*
X141225000Y-20301856D02*
X141225000Y-20845779D01*
X95755283Y-21340015D01*
X95710519Y-21344550D01*
X95663546Y-21358530D01*
X95620203Y-21381404D01*
X95582156Y-21412295D01*
X95550866Y-21450015D01*
X95527537Y-21493115D01*
X95513064Y-21539938D01*
X95508003Y-21588684D01*
X95420706Y-38175189D01*
X95219750Y-38194981D01*
X94946424Y-38277894D01*
X94694526Y-38412536D01*
X94684231Y-38420985D01*
X94529058Y-38548332D01*
X94529055Y-38548335D01*
X94473735Y-38593735D01*
X94428334Y-38649056D01*
X90923391Y-42154000D01*
X90680847Y-42154000D01*
X90188193Y-42251995D01*
X89724122Y-42444220D01*
X89306470Y-42723286D01*
X88951286Y-43078470D01*
X88834368Y-43253450D01*
X88828785Y-43254000D01*
X88828775Y-43254000D01*
X88615750Y-43274981D01*
X88342424Y-43357894D01*
X88090526Y-43492536D01*
X87869735Y-43673735D01*
X87824330Y-43729061D01*
X86970057Y-44583334D01*
X86914735Y-44628736D01*
X86733536Y-44849527D01*
X86598894Y-45101425D01*
X86515981Y-45374751D01*
X86495000Y-45587776D01*
X86495000Y-45587785D01*
X86487986Y-45659000D01*
X86495000Y-45730215D01*
X86495000Y-46448394D01*
X86493594Y-46447967D01*
X86345000Y-46433332D01*
X86284500Y-46437000D01*
X86095000Y-46626500D01*
X86095000Y-47595000D01*
X86315000Y-47595000D01*
X86315000Y-48095000D01*
X86095000Y-48095000D01*
X86095000Y-48115000D01*
X85995000Y-48115000D01*
X85995000Y-48095000D01*
X85845610Y-48095000D01*
X85775000Y-48024390D01*
X85775000Y-47595000D01*
X85995000Y-47595000D01*
X85995000Y-46626500D01*
X85805500Y-46437000D01*
X85745000Y-46433332D01*
X85596406Y-46447967D01*
X85453522Y-46491311D01*
X85321840Y-46561696D01*
X85206419Y-46656419D01*
X85111696Y-46771840D01*
X85041311Y-46903522D01*
X84997967Y-47046406D01*
X84983332Y-47195000D01*
X84984001Y-47233392D01*
X84620670Y-46870061D01*
X84575265Y-46814735D01*
X84354474Y-46633536D01*
X84315000Y-46612437D01*
X84315000Y-46360214D01*
X84322014Y-46288999D01*
X84315000Y-46217784D01*
X84315000Y-46217775D01*
X84294019Y-46004750D01*
X84211106Y-45731424D01*
X84076464Y-45479526D01*
X84017324Y-45407464D01*
X83940668Y-45314058D01*
X83940665Y-45314055D01*
X83895265Y-45258735D01*
X83839944Y-45213334D01*
X82355670Y-43729061D01*
X82310265Y-43673735D01*
X82089474Y-43492536D01*
X81971111Y-43429270D01*
X81736714Y-43078470D01*
X81381530Y-42723286D01*
X80963878Y-42444220D01*
X80499807Y-42251995D01*
X80007153Y-42154000D01*
X79504847Y-42154000D01*
X79012193Y-42251995D01*
X78666000Y-42395393D01*
X78666000Y-41375629D01*
X78975807Y-41314005D01*
X79439878Y-41121780D01*
X79590706Y-41021000D01*
X80691049Y-41021000D01*
X80726768Y-41383663D01*
X80832553Y-41732390D01*
X81004339Y-42053778D01*
X81235523Y-42335477D01*
X81517222Y-42566661D01*
X81838610Y-42738447D01*
X82187337Y-42844232D01*
X82459118Y-42871000D01*
X82640882Y-42871000D01*
X82912663Y-42844232D01*
X83261390Y-42738447D01*
X83582778Y-42566661D01*
X83864477Y-42335477D01*
X84095661Y-42053778D01*
X84267447Y-41732390D01*
X84373232Y-41383663D01*
X84408951Y-41021000D01*
X84391006Y-40838791D01*
X85145000Y-40838791D01*
X85145000Y-41203209D01*
X85216095Y-41560625D01*
X85355552Y-41897303D01*
X85558011Y-42200306D01*
X85815694Y-42457989D01*
X86118697Y-42660448D01*
X86455375Y-42799905D01*
X86812791Y-42871000D01*
X87177209Y-42871000D01*
X87534625Y-42799905D01*
X87871303Y-42660448D01*
X88174306Y-42457989D01*
X88431989Y-42200306D01*
X88634448Y-41897303D01*
X88773905Y-41560625D01*
X88845000Y-41203209D01*
X88845000Y-40838791D01*
X88773905Y-40481375D01*
X88634448Y-40144697D01*
X88431989Y-39841694D01*
X88174306Y-39584011D01*
X87871303Y-39381552D01*
X87534625Y-39242095D01*
X87177209Y-39171000D01*
X86812791Y-39171000D01*
X86455375Y-39242095D01*
X86118697Y-39381552D01*
X85815694Y-39584011D01*
X85558011Y-39841694D01*
X85355552Y-40144697D01*
X85216095Y-40481375D01*
X85145000Y-40838791D01*
X84391006Y-40838791D01*
X84373232Y-40658337D01*
X84267447Y-40309610D01*
X84095661Y-39988222D01*
X83864477Y-39706523D01*
X83582778Y-39475339D01*
X83261390Y-39303553D01*
X82912663Y-39197768D01*
X82640882Y-39171000D01*
X82459118Y-39171000D01*
X82187337Y-39197768D01*
X81838610Y-39303553D01*
X81517222Y-39475339D01*
X81235523Y-39706523D01*
X81004339Y-39988222D01*
X80832553Y-40309610D01*
X80726768Y-40658337D01*
X80691049Y-41021000D01*
X79590706Y-41021000D01*
X79857530Y-40842714D01*
X80212714Y-40487530D01*
X80491780Y-40069878D01*
X80684005Y-39605807D01*
X80782000Y-39113153D01*
X80782000Y-38610847D01*
X80684005Y-38118193D01*
X80491780Y-37654122D01*
X80212714Y-37236470D01*
X79857530Y-36881286D01*
X79439878Y-36602220D01*
X78975807Y-36409995D01*
X78483153Y-36312000D01*
X77980847Y-36312000D01*
X77488193Y-36409995D01*
X77024122Y-36602220D01*
X76606470Y-36881286D01*
X76251286Y-37236470D01*
X75972220Y-37654122D01*
X75779995Y-38118193D01*
X75682000Y-38610847D01*
X75682000Y-39113153D01*
X75729020Y-39349540D01*
X75469625Y-39242095D01*
X75112209Y-39171000D01*
X74747791Y-39171000D01*
X74390375Y-39242095D01*
X74053697Y-39381552D01*
X73750694Y-39584011D01*
X73493011Y-39841694D01*
X73290552Y-40144697D01*
X73151095Y-40481375D01*
X73080000Y-40838791D01*
X73080000Y-41203209D01*
X73151095Y-41560625D01*
X73290552Y-41897303D01*
X73493011Y-42200306D01*
X73750694Y-42457989D01*
X74053697Y-42660448D01*
X74390375Y-42799905D01*
X74747791Y-42871000D01*
X75112209Y-42871000D01*
X75469625Y-42799905D01*
X75766001Y-42677142D01*
X75766001Y-44458389D01*
X74905056Y-45319334D01*
X74849735Y-45364736D01*
X74804335Y-45420056D01*
X74804332Y-45420059D01*
X74704171Y-45542106D01*
X74668536Y-45585527D01*
X74533894Y-45837425D01*
X74450981Y-46110751D01*
X74430000Y-46323776D01*
X74430000Y-46323785D01*
X74422986Y-46395000D01*
X74428199Y-46447928D01*
X74280000Y-46433332D01*
X74219500Y-46437000D01*
X74030000Y-46626500D01*
X74030000Y-47595000D01*
X74250000Y-47595000D01*
X74250000Y-48095000D01*
X74030000Y-48095000D01*
X74030000Y-48115000D01*
X73930000Y-48115000D01*
X73930000Y-48095000D01*
X73780610Y-48095000D01*
X73710000Y-48024390D01*
X73710000Y-47595000D01*
X73930000Y-47595000D01*
X73930000Y-46626500D01*
X73740500Y-46437000D01*
X73680000Y-46433332D01*
X73531406Y-46447967D01*
X73388522Y-46491311D01*
X73256840Y-46561696D01*
X73141419Y-46656419D01*
X73046696Y-46771840D01*
X72976311Y-46903522D01*
X72932967Y-47046406D01*
X72918332Y-47195000D01*
X72919001Y-47233392D01*
X72555670Y-46870061D01*
X72510265Y-46814735D01*
X72289474Y-46633536D01*
X72250000Y-46612437D01*
X72250000Y-46487225D01*
X72257015Y-46416000D01*
X72229019Y-46131750D01*
X72190493Y-46004749D01*
X72146106Y-45858424D01*
X72011464Y-45606526D01*
X71830265Y-45385735D01*
X71774939Y-45340330D01*
X70163670Y-43729061D01*
X70118265Y-43673735D01*
X69897474Y-43492536D01*
X69645576Y-43357894D01*
X69372250Y-43274981D01*
X69159225Y-43254000D01*
X69159215Y-43254000D01*
X69088000Y-43246986D01*
X69016785Y-43254000D01*
X68645999Y-43254000D01*
X68528714Y-43078470D01*
X68173530Y-42723286D01*
X67755878Y-42444220D01*
X67291807Y-42251995D01*
X66799153Y-42154000D01*
X66296847Y-42154000D01*
X65804193Y-42251995D01*
X65340122Y-42444220D01*
X64922470Y-42723286D01*
X64567286Y-43078470D01*
X64288220Y-43496122D01*
X64095995Y-43960193D01*
X63998000Y-44452847D01*
X63998000Y-44955153D01*
X64095995Y-45447807D01*
X64288220Y-45911878D01*
X64567286Y-46329530D01*
X64922470Y-46684714D01*
X65340122Y-46963780D01*
X65804193Y-47156005D01*
X66270609Y-47248781D01*
X63559151Y-49960240D01*
X63308122Y-50064220D01*
X62890470Y-50343286D01*
X62535286Y-50698470D01*
X62256220Y-51116122D01*
X62063995Y-51580193D01*
X61966000Y-52072847D01*
X61966000Y-52575153D01*
X62063995Y-53067807D01*
X62256220Y-53531878D01*
X62535286Y-53949530D01*
X62890470Y-54304714D01*
X63308122Y-54583780D01*
X63772193Y-54776005D01*
X64264847Y-54874000D01*
X64767153Y-54874000D01*
X65259807Y-54776005D01*
X65723878Y-54583780D01*
X66141530Y-54304714D01*
X66496714Y-53949530D01*
X66775780Y-53531878D01*
X66968005Y-53067807D01*
X67066000Y-52575153D01*
X67066000Y-52072847D01*
X66968005Y-51580193D01*
X66775780Y-51116122D01*
X66667115Y-50953494D01*
X68166655Y-49453955D01*
X68196238Y-49469767D01*
X68394164Y-49529807D01*
X68458772Y-49536170D01*
X68420981Y-49660751D01*
X68400000Y-49873776D01*
X68400000Y-50982785D01*
X68392986Y-51054000D01*
X68400000Y-51125215D01*
X68400000Y-51125225D01*
X68420981Y-51338250D01*
X68503894Y-51611576D01*
X68586663Y-51766425D01*
X68638536Y-51863473D01*
X68774332Y-52028941D01*
X68774336Y-52028945D01*
X68819736Y-52084265D01*
X68875056Y-52129665D01*
X69651914Y-52906523D01*
X69683995Y-53067807D01*
X69876220Y-53531878D01*
X70155286Y-53949530D01*
X70433095Y-54227339D01*
X70360456Y-54197251D01*
X70022360Y-54130000D01*
X69677640Y-54130000D01*
X69339544Y-54197251D01*
X69021064Y-54329170D01*
X68734440Y-54520686D01*
X68490686Y-54764440D01*
X68299170Y-55051064D01*
X68167251Y-55369544D01*
X68100000Y-55707640D01*
X68100000Y-56052360D01*
X68167251Y-56390456D01*
X68299170Y-56708936D01*
X68490686Y-56995560D01*
X68645126Y-57150000D01*
X68490686Y-57304440D01*
X68299170Y-57591064D01*
X68167251Y-57909544D01*
X68100000Y-58247640D01*
X68100000Y-58592360D01*
X68167251Y-58930456D01*
X68299170Y-59248936D01*
X68490686Y-59535560D01*
X68734440Y-59779314D01*
X69021064Y-59970830D01*
X69339544Y-60102749D01*
X69677640Y-60170000D01*
X70022360Y-60170000D01*
X70360456Y-60102749D01*
X70678936Y-59970830D01*
X70965560Y-59779314D01*
X71209314Y-59535560D01*
X71400830Y-59248936D01*
X71532749Y-58930456D01*
X71600000Y-58592360D01*
X71600000Y-58247640D01*
X71532749Y-57909544D01*
X71400830Y-57591064D01*
X71209314Y-57304440D01*
X71054874Y-57150000D01*
X71209314Y-56995560D01*
X71400830Y-56708936D01*
X71532749Y-56390456D01*
X71600000Y-56052360D01*
X71600000Y-55707640D01*
X73180000Y-55707640D01*
X73180000Y-56052360D01*
X73247251Y-56390456D01*
X73379170Y-56708936D01*
X73570686Y-56995560D01*
X73725126Y-57150000D01*
X73570686Y-57304440D01*
X73379170Y-57591064D01*
X73247251Y-57909544D01*
X73180000Y-58247640D01*
X73180000Y-58592360D01*
X73247251Y-58930456D01*
X73379170Y-59248936D01*
X73570686Y-59535560D01*
X73814440Y-59779314D01*
X74101064Y-59970830D01*
X74419544Y-60102749D01*
X74757640Y-60170000D01*
X75102360Y-60170000D01*
X75440456Y-60102749D01*
X75758936Y-59970830D01*
X76045560Y-59779314D01*
X76289314Y-59535560D01*
X76480830Y-59248936D01*
X76612749Y-58930456D01*
X76680000Y-58592360D01*
X76680000Y-58247640D01*
X76612749Y-57909544D01*
X76480830Y-57591064D01*
X76289314Y-57304440D01*
X76134874Y-57150000D01*
X76289314Y-56995560D01*
X76480830Y-56708936D01*
X76612749Y-56390456D01*
X76680000Y-56052360D01*
X76680000Y-55707640D01*
X76612749Y-55369544D01*
X76480830Y-55051064D01*
X76289314Y-54764440D01*
X76045560Y-54520686D01*
X75758936Y-54329170D01*
X75440456Y-54197251D01*
X75102360Y-54130000D01*
X74757640Y-54130000D01*
X74419544Y-54197251D01*
X74101064Y-54329170D01*
X73814440Y-54520686D01*
X73570686Y-54764440D01*
X73379170Y-55051064D01*
X73247251Y-55369544D01*
X73180000Y-55707640D01*
X71600000Y-55707640D01*
X71532749Y-55369544D01*
X71400830Y-55051064D01*
X71209314Y-54764440D01*
X71099741Y-54654867D01*
X71392193Y-54776005D01*
X71884847Y-54874000D01*
X72387153Y-54874000D01*
X72879807Y-54776005D01*
X73343878Y-54583780D01*
X73761530Y-54304714D01*
X74116714Y-53949530D01*
X74395780Y-53531878D01*
X74588005Y-53067807D01*
X74686000Y-52575153D01*
X74686000Y-52072847D01*
X74601345Y-51647258D01*
X74630000Y-51650080D01*
X75230000Y-51650080D01*
X75435836Y-51629807D01*
X75633762Y-51569767D01*
X75816171Y-51472267D01*
X75976054Y-51341054D01*
X76107267Y-51181171D01*
X76204767Y-50998762D01*
X76264807Y-50800836D01*
X76285080Y-50595000D01*
X76285080Y-50472993D01*
X76359019Y-50229250D01*
X76387015Y-49945000D01*
X76359019Y-49660750D01*
X76321228Y-49536170D01*
X76385836Y-49529807D01*
X76583762Y-49469767D01*
X76766171Y-49372267D01*
X76926054Y-49241054D01*
X77057267Y-49081171D01*
X77154767Y-48898762D01*
X77214807Y-48700836D01*
X77235080Y-48495000D01*
X77235080Y-48372993D01*
X77309019Y-48129250D01*
X77330000Y-47916225D01*
X77330000Y-46995609D01*
X77885683Y-46439927D01*
X78130470Y-46684714D01*
X78548122Y-46963780D01*
X79012193Y-47156005D01*
X79504847Y-47254000D01*
X79609920Y-47254000D01*
X79609920Y-47317008D01*
X79535981Y-47560751D01*
X79534598Y-47574792D01*
X78019057Y-49090334D01*
X77963735Y-49135736D01*
X77918335Y-49191056D01*
X77918332Y-49191059D01*
X77864488Y-49256668D01*
X77782536Y-49356527D01*
X77647894Y-49608425D01*
X77564981Y-49881751D01*
X77544000Y-50094776D01*
X77544000Y-50094785D01*
X77536986Y-50166000D01*
X77542964Y-50226693D01*
X77368470Y-50343286D01*
X77013286Y-50698470D01*
X76734220Y-51116122D01*
X76541995Y-51580193D01*
X76444000Y-52072847D01*
X76444000Y-52575153D01*
X76541995Y-53067807D01*
X76734220Y-53531878D01*
X77013286Y-53949530D01*
X77368470Y-54304714D01*
X77786122Y-54583780D01*
X78250193Y-54776005D01*
X78742847Y-54874000D01*
X79245153Y-54874000D01*
X79737807Y-54776005D01*
X80201878Y-54583780D01*
X80619530Y-54304714D01*
X80974714Y-53949530D01*
X81253780Y-53531878D01*
X81446005Y-53067807D01*
X81544000Y-52575153D01*
X81544000Y-52496609D01*
X81816600Y-52769210D01*
X81875995Y-53067807D01*
X82068220Y-53531878D01*
X82347286Y-53949530D01*
X82702470Y-54304714D01*
X82731136Y-54323868D01*
X82425456Y-54197251D01*
X82087360Y-54130000D01*
X81742640Y-54130000D01*
X81404544Y-54197251D01*
X81086064Y-54329170D01*
X80799440Y-54520686D01*
X80555686Y-54764440D01*
X80364170Y-55051064D01*
X80232251Y-55369544D01*
X80165000Y-55707640D01*
X80165000Y-56052360D01*
X80232251Y-56390456D01*
X80364170Y-56708936D01*
X80555686Y-56995560D01*
X80710126Y-57150000D01*
X80555686Y-57304440D01*
X80364170Y-57591064D01*
X80232251Y-57909544D01*
X80165000Y-58247640D01*
X80165000Y-58592360D01*
X80232251Y-58930456D01*
X80364170Y-59248936D01*
X80555686Y-59535560D01*
X80799440Y-59779314D01*
X81086064Y-59970830D01*
X81404544Y-60102749D01*
X81742640Y-60170000D01*
X82087360Y-60170000D01*
X82425456Y-60102749D01*
X82743936Y-59970830D01*
X83030560Y-59779314D01*
X83274314Y-59535560D01*
X83465830Y-59248936D01*
X83597749Y-58930456D01*
X83665000Y-58592360D01*
X83665000Y-58247640D01*
X83597749Y-57909544D01*
X83465830Y-57591064D01*
X83274314Y-57304440D01*
X83119874Y-57150000D01*
X83274314Y-56995560D01*
X83465830Y-56708936D01*
X83597749Y-56390456D01*
X83665000Y-56052360D01*
X83665000Y-55707640D01*
X83597749Y-55369544D01*
X83465830Y-55051064D01*
X83274314Y-54764440D01*
X83040356Y-54530482D01*
X83120122Y-54583780D01*
X83584193Y-54776005D01*
X84076847Y-54874000D01*
X84579153Y-54874000D01*
X85071807Y-54776005D01*
X85535878Y-54583780D01*
X85953530Y-54304714D01*
X86308714Y-53949530D01*
X86587780Y-53531878D01*
X86780005Y-53067807D01*
X86878000Y-52575153D01*
X86878000Y-52072847D01*
X86793906Y-51650080D01*
X87295000Y-51650080D01*
X87500836Y-51629807D01*
X87698762Y-51569767D01*
X87881171Y-51472267D01*
X88041054Y-51341054D01*
X88172267Y-51181171D01*
X88269767Y-50998762D01*
X88329807Y-50800836D01*
X88350080Y-50595000D01*
X88350080Y-50472993D01*
X88424019Y-50229250D01*
X88452015Y-49945000D01*
X88424019Y-49660750D01*
X88386228Y-49536170D01*
X88450836Y-49529807D01*
X88648762Y-49469767D01*
X88831171Y-49372267D01*
X88991054Y-49241054D01*
X89122267Y-49081171D01*
X89219767Y-48898762D01*
X89279807Y-48700836D01*
X89300080Y-48495000D01*
X89300080Y-48372993D01*
X89374019Y-48129250D01*
X89395000Y-47916225D01*
X89395000Y-46743868D01*
X89724122Y-46963780D01*
X90188193Y-47156005D01*
X90680847Y-47254000D01*
X91183153Y-47254000D01*
X91675807Y-47156005D01*
X92139878Y-46963780D01*
X92557530Y-46684714D01*
X92912714Y-46329530D01*
X93191780Y-45911878D01*
X93384005Y-45447807D01*
X93482000Y-44955153D01*
X93482000Y-44452847D01*
X93384005Y-43960193D01*
X93335505Y-43843104D01*
X95401749Y-41776860D01*
X95383132Y-45314227D01*
X90857438Y-49839921D01*
X90696193Y-49871995D01*
X90232122Y-50064220D01*
X89814470Y-50343286D01*
X89459286Y-50698470D01*
X89180220Y-51116122D01*
X88987995Y-51580193D01*
X88890000Y-52072847D01*
X88890000Y-52575153D01*
X88987995Y-53067807D01*
X89180220Y-53531878D01*
X89459286Y-53949530D01*
X89814470Y-54304714D01*
X90232122Y-54583780D01*
X90696193Y-54776005D01*
X91188847Y-54874000D01*
X91691153Y-54874000D01*
X92183807Y-54776005D01*
X92647878Y-54583780D01*
X93065530Y-54304714D01*
X93420714Y-53949530D01*
X93699780Y-53531878D01*
X93892005Y-53067807D01*
X93990000Y-52575153D01*
X93990000Y-52072847D01*
X93892005Y-51580193D01*
X93699780Y-51116122D01*
X93692841Y-51105736D01*
X95361432Y-49437145D01*
X95328433Y-55707000D01*
X88744873Y-55707000D01*
X88677749Y-55369544D01*
X88545830Y-55051064D01*
X88354314Y-54764440D01*
X88110560Y-54520686D01*
X87823936Y-54329170D01*
X87505456Y-54197251D01*
X87167360Y-54130000D01*
X86822640Y-54130000D01*
X86484544Y-54197251D01*
X86166064Y-54329170D01*
X85879440Y-54520686D01*
X85635686Y-54764440D01*
X85444170Y-55051064D01*
X85312251Y-55369544D01*
X85245000Y-55707640D01*
X85245000Y-56052360D01*
X85312251Y-56390456D01*
X85444170Y-56708936D01*
X85635686Y-56995560D01*
X85790126Y-57150000D01*
X85635686Y-57304440D01*
X85444170Y-57591064D01*
X85312251Y-57909544D01*
X85245000Y-58247640D01*
X85245000Y-58592360D01*
X85312251Y-58930456D01*
X85444170Y-59248936D01*
X85635686Y-59535560D01*
X85879440Y-59779314D01*
X86166064Y-59970830D01*
X86484544Y-60102749D01*
X86822640Y-60170000D01*
X87167360Y-60170000D01*
X87505456Y-60102749D01*
X87823936Y-59970830D01*
X88110560Y-59779314D01*
X88354314Y-59535560D01*
X88545830Y-59248936D01*
X88621143Y-59067115D01*
X88621143Y-60357000D01*
X95303959Y-60357000D01*
X95291038Y-62812000D01*
X80610610Y-62812000D01*
X80232815Y-62434205D01*
X80274000Y-62227153D01*
X80274000Y-61724847D01*
X80176005Y-61232193D01*
X79983780Y-60768122D01*
X79704714Y-60350470D01*
X79349530Y-59995286D01*
X78931878Y-59716220D01*
X78467807Y-59523995D01*
X77975153Y-59426000D01*
X77472847Y-59426000D01*
X76980193Y-59523995D01*
X76516122Y-59716220D01*
X76098470Y-59995286D01*
X75743286Y-60350470D01*
X75464220Y-60768122D01*
X75271995Y-61232193D01*
X75174000Y-61724847D01*
X75174000Y-62227153D01*
X75271995Y-62719807D01*
X75464220Y-63183878D01*
X75743286Y-63601530D01*
X76098470Y-63956714D01*
X76516122Y-64235780D01*
X76980193Y-64428005D01*
X77472847Y-64526000D01*
X77975153Y-64526000D01*
X78182205Y-64484815D01*
X78934334Y-65236944D01*
X78979735Y-65292265D01*
X79035055Y-65337665D01*
X79035058Y-65337668D01*
X79154092Y-65435356D01*
X79200526Y-65473464D01*
X79452424Y-65608106D01*
X79725750Y-65691019D01*
X79938775Y-65712000D01*
X79938784Y-65712000D01*
X80009999Y-65719014D01*
X80081214Y-65712000D01*
X95275775Y-65712000D01*
X95273659Y-66114000D01*
X83383215Y-66114000D01*
X83312000Y-66106986D01*
X83240785Y-66114000D01*
X83240775Y-66114000D01*
X83027750Y-66134981D01*
X82754424Y-66217894D01*
X82647906Y-66274829D01*
X82502526Y-66352536D01*
X82337058Y-66488332D01*
X82337055Y-66488335D01*
X82281735Y-66533735D01*
X82236334Y-66589056D01*
X81738205Y-67087185D01*
X81531153Y-67046000D01*
X81028847Y-67046000D01*
X80536193Y-67143995D01*
X80072122Y-67336220D01*
X79654470Y-67615286D01*
X79299286Y-67970470D01*
X79020220Y-68388122D01*
X78827995Y-68852193D01*
X78730000Y-69344847D01*
X78730000Y-69847153D01*
X78827995Y-70339807D01*
X79020220Y-70803878D01*
X79299286Y-71221530D01*
X79654470Y-71576714D01*
X80072122Y-71855780D01*
X80536193Y-72048005D01*
X81028847Y-72146000D01*
X81531153Y-72146000D01*
X82023807Y-72048005D01*
X82487878Y-71855780D01*
X82905530Y-71576714D01*
X83242812Y-71239432D01*
X83266768Y-71482663D01*
X83372553Y-71831390D01*
X83544339Y-72152778D01*
X83775523Y-72434477D01*
X84057222Y-72665661D01*
X84378610Y-72837447D01*
X84727337Y-72943232D01*
X84999118Y-72970000D01*
X85180882Y-72970000D01*
X85452663Y-72943232D01*
X85524235Y-72921521D01*
X85395286Y-73050470D01*
X85116220Y-73468122D01*
X84923995Y-73932193D01*
X84826000Y-74424847D01*
X84826000Y-74927153D01*
X84923995Y-75419807D01*
X85116220Y-75883878D01*
X85377109Y-76274327D01*
X85180882Y-76255000D01*
X84999118Y-76255000D01*
X84727337Y-76281768D01*
X84378610Y-76387553D01*
X84057222Y-76559339D01*
X83775523Y-76790523D01*
X83544339Y-77072222D01*
X83372553Y-77393610D01*
X83266768Y-77742337D01*
X83231049Y-78105000D01*
X83266768Y-78467663D01*
X83372553Y-78816390D01*
X83544339Y-79137778D01*
X83775523Y-79419477D01*
X84057222Y-79650661D01*
X84378610Y-79822447D01*
X84727337Y-79928232D01*
X84999118Y-79955000D01*
X85180882Y-79955000D01*
X85452663Y-79928232D01*
X85801390Y-79822447D01*
X86122778Y-79650661D01*
X86404477Y-79419477D01*
X86635661Y-79137778D01*
X86807447Y-78816390D01*
X86913232Y-78467663D01*
X86948951Y-78105000D01*
X86913232Y-77742337D01*
X86807447Y-77393610D01*
X86669438Y-77135413D01*
X87124847Y-77226000D01*
X87627153Y-77226000D01*
X88119807Y-77128005D01*
X88583878Y-76935780D01*
X89001530Y-76656714D01*
X89356714Y-76301530D01*
X89473999Y-76126000D01*
X89823391Y-76126000D01*
X95192705Y-81495314D01*
X95155911Y-88486100D01*
X92956416Y-86286604D01*
X92997601Y-86079552D01*
X92997601Y-85577246D01*
X92899606Y-85084592D01*
X92707381Y-84620521D01*
X92428315Y-84202869D01*
X92073131Y-83847685D01*
X91655479Y-83568619D01*
X91191408Y-83376394D01*
X90698754Y-83278399D01*
X90196448Y-83278399D01*
X89703794Y-83376394D01*
X89239723Y-83568619D01*
X88822071Y-83847685D01*
X88466887Y-84202869D01*
X88187821Y-84620521D01*
X87995596Y-85084592D01*
X87897601Y-85577246D01*
X87897601Y-86079552D01*
X87995596Y-86572206D01*
X88187821Y-87036277D01*
X88466887Y-87453929D01*
X88822071Y-87809113D01*
X89239723Y-88088179D01*
X89703794Y-88280404D01*
X90196448Y-88378399D01*
X90698754Y-88378399D01*
X90905806Y-88337214D01*
X95134439Y-92565847D01*
X95049070Y-108786000D01*
X92793913Y-108786000D01*
X92683782Y-108520122D01*
X92404716Y-108102470D01*
X92049532Y-107747286D01*
X91631880Y-107468220D01*
X91167809Y-107275995D01*
X90675155Y-107178000D01*
X90172849Y-107178000D01*
X89680195Y-107275995D01*
X89216124Y-107468220D01*
X88798472Y-107747286D01*
X88443288Y-108102470D01*
X88164222Y-108520122D01*
X87971997Y-108984193D01*
X87874002Y-109476847D01*
X87874002Y-109979153D01*
X87971997Y-110471807D01*
X88164222Y-110935878D01*
X88443288Y-111353530D01*
X88798472Y-111708714D01*
X89216124Y-111987780D01*
X89680195Y-112180005D01*
X90172849Y-112278000D01*
X90675155Y-112278000D01*
X91167809Y-112180005D01*
X91631880Y-111987780D01*
X92049532Y-111708714D01*
X92072246Y-111686000D01*
X95033807Y-111686000D01*
X95028438Y-112706015D01*
X94710617Y-112536136D01*
X94352465Y-112427492D01*
X94073337Y-112400000D01*
X93886663Y-112400000D01*
X93607535Y-112427492D01*
X93249383Y-112536136D01*
X92919309Y-112712564D01*
X92710000Y-112884340D01*
X92500691Y-112712564D01*
X92170617Y-112536136D01*
X91812465Y-112427492D01*
X91533337Y-112400000D01*
X91346663Y-112400000D01*
X91067535Y-112427492D01*
X90709383Y-112536136D01*
X90379309Y-112712564D01*
X90170000Y-112884340D01*
X89960691Y-112712564D01*
X89630617Y-112536136D01*
X89272465Y-112427492D01*
X88993337Y-112400000D01*
X88806663Y-112400000D01*
X88527535Y-112427492D01*
X88169383Y-112536136D01*
X87839309Y-112712564D01*
X87630000Y-112884340D01*
X87420691Y-112712564D01*
X87090617Y-112536136D01*
X86732465Y-112427492D01*
X86453337Y-112400000D01*
X86266663Y-112400000D01*
X85987535Y-112427492D01*
X85629383Y-112536136D01*
X85299309Y-112712564D01*
X85009997Y-112949997D01*
X84884254Y-113103215D01*
X84816739Y-113038174D01*
X84551417Y-112867966D01*
X84315410Y-112770218D01*
X84070000Y-112903704D01*
X84070000Y-114050000D01*
X84090000Y-114050000D01*
X84090000Y-114550000D01*
X84070000Y-114550000D01*
X84070000Y-115696296D01*
X84315410Y-115829782D01*
X84551417Y-115732034D01*
X84816739Y-115561826D01*
X84884254Y-115496785D01*
X85009997Y-115650003D01*
X85299309Y-115887436D01*
X85629383Y-116063864D01*
X85987535Y-116172508D01*
X86266663Y-116200000D01*
X86453337Y-116200000D01*
X86732465Y-116172508D01*
X87090617Y-116063864D01*
X87420691Y-115887436D01*
X87630000Y-115715660D01*
X87839309Y-115887436D01*
X88169383Y-116063864D01*
X88527535Y-116172508D01*
X88806663Y-116200000D01*
X88993337Y-116200000D01*
X89272465Y-116172508D01*
X89630617Y-116063864D01*
X89960691Y-115887436D01*
X90170000Y-115715660D01*
X90379309Y-115887436D01*
X90709383Y-116063864D01*
X91067535Y-116172508D01*
X91346663Y-116200000D01*
X91533337Y-116200000D01*
X91812465Y-116172508D01*
X92170617Y-116063864D01*
X92500691Y-115887436D01*
X92710000Y-115715660D01*
X92919309Y-115887436D01*
X93249383Y-116063864D01*
X93607535Y-116172508D01*
X93886663Y-116200000D01*
X94073337Y-116200000D01*
X94352465Y-116172508D01*
X94710617Y-116063864D01*
X95011612Y-115902979D01*
X95002446Y-117644415D01*
X60375000Y-117116850D01*
X60375000Y-114048847D01*
X72126000Y-114048847D01*
X72126000Y-114551153D01*
X72223995Y-115043807D01*
X72416220Y-115507878D01*
X72695286Y-115925530D01*
X73050470Y-116280714D01*
X73468122Y-116559780D01*
X73932193Y-116752005D01*
X74424847Y-116850000D01*
X74927153Y-116850000D01*
X75419807Y-116752005D01*
X75883878Y-116559780D01*
X76301530Y-116280714D01*
X76656714Y-115925530D01*
X76935780Y-115507878D01*
X77128005Y-115043807D01*
X77226000Y-114551153D01*
X77226000Y-114048847D01*
X77128005Y-113556193D01*
X77084019Y-113450000D01*
X79374920Y-113450000D01*
X79374920Y-115150000D01*
X79395193Y-115355836D01*
X79455233Y-115553762D01*
X79552733Y-115736171D01*
X79683946Y-115896054D01*
X79843829Y-116027267D01*
X80026238Y-116124767D01*
X80224164Y-116184807D01*
X80430000Y-116205080D01*
X82130000Y-116205080D01*
X82335836Y-116184807D01*
X82533762Y-116124767D01*
X82716171Y-116027267D01*
X82876054Y-115896054D01*
X83007267Y-115736171D01*
X83029677Y-115694245D01*
X83088583Y-115732034D01*
X83324590Y-115829782D01*
X83570000Y-115696296D01*
X83570000Y-114550000D01*
X83550000Y-114550000D01*
X83550000Y-114050000D01*
X83570000Y-114050000D01*
X83570000Y-112903704D01*
X83324590Y-112770218D01*
X83088583Y-112867966D01*
X83029677Y-112905755D01*
X83007267Y-112863829D01*
X82876054Y-112703946D01*
X82716171Y-112572733D01*
X82533762Y-112475233D01*
X82335836Y-112415193D01*
X82130000Y-112394920D01*
X80430000Y-112394920D01*
X80224164Y-112415193D01*
X80026238Y-112475233D01*
X79843829Y-112572733D01*
X79683946Y-112703946D01*
X79552733Y-112863829D01*
X79455233Y-113046238D01*
X79395193Y-113244164D01*
X79374920Y-113450000D01*
X77084019Y-113450000D01*
X76935780Y-113092122D01*
X76656714Y-112674470D01*
X76301530Y-112319286D01*
X75883878Y-112040220D01*
X75419807Y-111847995D01*
X74927153Y-111750000D01*
X74424847Y-111750000D01*
X73932193Y-111847995D01*
X73468122Y-112040220D01*
X73050470Y-112319286D01*
X72695286Y-112674470D01*
X72416220Y-113092122D01*
X72223995Y-113556193D01*
X72126000Y-114048847D01*
X60375000Y-114048847D01*
X60375000Y-110602806D01*
X60380201Y-110550000D01*
X60359445Y-110339263D01*
X60297976Y-110136625D01*
X60198154Y-109949872D01*
X60063817Y-109786183D01*
X59900128Y-109651846D01*
X59713375Y-109552024D01*
X59510737Y-109490555D01*
X59352806Y-109475000D01*
X59300000Y-109469799D01*
X59247194Y-109475000D01*
X51900000Y-109475000D01*
X51900000Y-98252640D01*
X64290000Y-98252640D01*
X64290000Y-98597360D01*
X64357251Y-98935456D01*
X64489170Y-99253936D01*
X64680686Y-99540560D01*
X64835126Y-99695000D01*
X64680686Y-99849440D01*
X64489170Y-100136064D01*
X64357251Y-100454544D01*
X64290000Y-100792640D01*
X64290000Y-101137360D01*
X64357251Y-101475456D01*
X64489170Y-101793936D01*
X64680686Y-102080560D01*
X64924440Y-102324314D01*
X65211064Y-102515830D01*
X65529544Y-102647749D01*
X65867640Y-102715000D01*
X66212360Y-102715000D01*
X66349149Y-102687791D01*
X68000000Y-102687791D01*
X68000000Y-103052209D01*
X68071095Y-103409625D01*
X68210552Y-103746303D01*
X68413011Y-104049306D01*
X68670694Y-104306989D01*
X68973697Y-104509448D01*
X69310375Y-104648905D01*
X69667791Y-104720000D01*
X70032209Y-104720000D01*
X70389625Y-104648905D01*
X70726303Y-104509448D01*
X71029306Y-104306989D01*
X71286989Y-104049306D01*
X71489448Y-103746303D01*
X71628905Y-103409625D01*
X71700000Y-103052209D01*
X71700000Y-102870000D01*
X83231049Y-102870000D01*
X83266768Y-103232663D01*
X83372553Y-103581390D01*
X83544339Y-103902778D01*
X83775523Y-104184477D01*
X84057222Y-104415661D01*
X84378610Y-104587447D01*
X84727337Y-104693232D01*
X84999118Y-104720000D01*
X85180882Y-104720000D01*
X85452663Y-104693232D01*
X85801390Y-104587447D01*
X86122778Y-104415661D01*
X86404477Y-104184477D01*
X86635661Y-103902778D01*
X86807447Y-103581390D01*
X86913232Y-103232663D01*
X86948951Y-102870000D01*
X86913232Y-102507337D01*
X86807447Y-102158610D01*
X86635661Y-101837222D01*
X86404477Y-101555523D01*
X86122778Y-101324339D01*
X85801390Y-101152553D01*
X85452663Y-101046768D01*
X85180882Y-101020000D01*
X84999118Y-101020000D01*
X84727337Y-101046768D01*
X84378610Y-101152553D01*
X84057222Y-101324339D01*
X83775523Y-101555523D01*
X83544339Y-101837222D01*
X83372553Y-102158610D01*
X83266768Y-102507337D01*
X83231049Y-102870000D01*
X71700000Y-102870000D01*
X71700000Y-102687791D01*
X71628905Y-102330375D01*
X71489448Y-101993697D01*
X71286989Y-101690694D01*
X71029306Y-101433011D01*
X70726303Y-101230552D01*
X70389625Y-101091095D01*
X70032209Y-101020000D01*
X69667791Y-101020000D01*
X69310375Y-101091095D01*
X68973697Y-101230552D01*
X68670694Y-101433011D01*
X68413011Y-101690694D01*
X68210552Y-101993697D01*
X68071095Y-102330375D01*
X68000000Y-102687791D01*
X66349149Y-102687791D01*
X66550456Y-102647749D01*
X66868936Y-102515830D01*
X67155560Y-102324314D01*
X67399314Y-102080560D01*
X67590830Y-101793936D01*
X67722749Y-101475456D01*
X67790000Y-101137360D01*
X67790000Y-100792640D01*
X67722749Y-100454544D01*
X67590830Y-100136064D01*
X67399314Y-99849440D01*
X67244874Y-99695000D01*
X67399314Y-99540560D01*
X67590830Y-99253936D01*
X67722749Y-98935456D01*
X67790000Y-98597360D01*
X67790000Y-98252640D01*
X67722749Y-97914544D01*
X67590830Y-97596064D01*
X67399314Y-97309440D01*
X67155560Y-97065686D01*
X66868936Y-96874170D01*
X66550456Y-96742251D01*
X66212360Y-96675000D01*
X65867640Y-96675000D01*
X65529544Y-96742251D01*
X65211064Y-96874170D01*
X64924440Y-97065686D01*
X64680686Y-97309440D01*
X64489170Y-97596064D01*
X64357251Y-97914544D01*
X64290000Y-98252640D01*
X51900000Y-98252640D01*
X51900000Y-96372489D01*
X68370231Y-96372489D01*
X68458931Y-96586654D01*
X68622546Y-96844556D01*
X68833331Y-97065583D01*
X69083186Y-97241241D01*
X69362510Y-97364779D01*
X69600000Y-97233321D01*
X69600000Y-96135000D01*
X70100000Y-96135000D01*
X70100000Y-97233321D01*
X70337490Y-97364779D01*
X70616814Y-97241241D01*
X70866669Y-97065583D01*
X71077454Y-96844556D01*
X71241069Y-96586654D01*
X71329769Y-96372489D01*
X71195471Y-96135000D01*
X70100000Y-96135000D01*
X69600000Y-96135000D01*
X68504529Y-96135000D01*
X68370231Y-96372489D01*
X51900000Y-96372489D01*
X51900000Y-95702791D01*
X83240000Y-95702791D01*
X83240000Y-96067209D01*
X83311095Y-96424625D01*
X83450552Y-96761303D01*
X83653011Y-97064306D01*
X83910694Y-97321989D01*
X84213697Y-97524448D01*
X84550375Y-97663905D01*
X84907791Y-97735000D01*
X85272209Y-97735000D01*
X85629625Y-97663905D01*
X85966303Y-97524448D01*
X86269306Y-97321989D01*
X86526989Y-97064306D01*
X86729448Y-96761303D01*
X86868905Y-96424625D01*
X86940000Y-96067209D01*
X86940000Y-95702791D01*
X86868905Y-95345375D01*
X86729448Y-95008697D01*
X86526989Y-94705694D01*
X86269306Y-94448011D01*
X85966303Y-94245552D01*
X85629625Y-94106095D01*
X85272209Y-94035000D01*
X84907791Y-94035000D01*
X84550375Y-94106095D01*
X84213697Y-94245552D01*
X83910694Y-94448011D01*
X83653011Y-94705694D01*
X83450552Y-95008697D01*
X83311095Y-95345375D01*
X83240000Y-95702791D01*
X51900000Y-95702791D01*
X51900000Y-95397511D01*
X68370231Y-95397511D01*
X68504529Y-95635000D01*
X69600000Y-95635000D01*
X69600000Y-94536679D01*
X70100000Y-94536679D01*
X70100000Y-95635000D01*
X71195471Y-95635000D01*
X71329769Y-95397511D01*
X71241069Y-95183346D01*
X71077454Y-94925444D01*
X70866669Y-94704417D01*
X70616814Y-94528759D01*
X70337490Y-94405221D01*
X70100000Y-94536679D01*
X69600000Y-94536679D01*
X69362510Y-94405221D01*
X69083186Y-94528759D01*
X68833331Y-94704417D01*
X68622546Y-94925444D01*
X68458931Y-95183346D01*
X68370231Y-95397511D01*
X51900000Y-95397511D01*
X51900000Y-89387489D01*
X68370231Y-89387489D01*
X68458931Y-89601654D01*
X68622546Y-89859556D01*
X68833331Y-90080583D01*
X69083186Y-90256241D01*
X69362510Y-90379779D01*
X69600000Y-90248321D01*
X69600000Y-89150000D01*
X70100000Y-89150000D01*
X70100000Y-90248321D01*
X70337490Y-90379779D01*
X70616814Y-90256241D01*
X70866669Y-90080583D01*
X71077454Y-89859556D01*
X71241069Y-89601654D01*
X71329769Y-89387489D01*
X71195471Y-89150000D01*
X70100000Y-89150000D01*
X69600000Y-89150000D01*
X68504529Y-89150000D01*
X68370231Y-89387489D01*
X51900000Y-89387489D01*
X51900000Y-88717791D01*
X83240000Y-88717791D01*
X83240000Y-89082209D01*
X83311095Y-89439625D01*
X83450552Y-89776303D01*
X83653011Y-90079306D01*
X83910694Y-90336989D01*
X84213697Y-90539448D01*
X84550375Y-90678905D01*
X84907791Y-90750000D01*
X85272209Y-90750000D01*
X85629625Y-90678905D01*
X85966303Y-90539448D01*
X86269306Y-90336989D01*
X86526989Y-90079306D01*
X86729448Y-89776303D01*
X86868905Y-89439625D01*
X86940000Y-89082209D01*
X86940000Y-88717791D01*
X86868905Y-88360375D01*
X86729448Y-88023697D01*
X86526989Y-87720694D01*
X86269306Y-87463011D01*
X85966303Y-87260552D01*
X85629625Y-87121095D01*
X85272209Y-87050000D01*
X84907791Y-87050000D01*
X84550375Y-87121095D01*
X84213697Y-87260552D01*
X83910694Y-87463011D01*
X83653011Y-87720694D01*
X83450552Y-88023697D01*
X83311095Y-88360375D01*
X83240000Y-88717791D01*
X51900000Y-88717791D01*
X51900000Y-88412511D01*
X68370231Y-88412511D01*
X68504529Y-88650000D01*
X69600000Y-88650000D01*
X69600000Y-87551679D01*
X70100000Y-87551679D01*
X70100000Y-88650000D01*
X71195471Y-88650000D01*
X71329769Y-88412511D01*
X71241069Y-88198346D01*
X71077454Y-87940444D01*
X70866669Y-87719417D01*
X70616814Y-87543759D01*
X70337490Y-87420221D01*
X70100000Y-87551679D01*
X69600000Y-87551679D01*
X69362510Y-87420221D01*
X69083186Y-87543759D01*
X68833331Y-87719417D01*
X68622546Y-87940444D01*
X68458931Y-88198346D01*
X68370231Y-88412511D01*
X51900000Y-88412511D01*
X51900000Y-84307489D01*
X68370231Y-84307489D01*
X68458931Y-84521654D01*
X68622546Y-84779556D01*
X68833331Y-85000583D01*
X69083186Y-85176241D01*
X69362510Y-85299779D01*
X69600000Y-85168321D01*
X69600000Y-84070000D01*
X70100000Y-84070000D01*
X70100000Y-85168321D01*
X70337490Y-85299779D01*
X70616814Y-85176241D01*
X70866669Y-85000583D01*
X71077454Y-84779556D01*
X71241069Y-84521654D01*
X71329769Y-84307489D01*
X71195471Y-84070000D01*
X70100000Y-84070000D01*
X69600000Y-84070000D01*
X68504529Y-84070000D01*
X68370231Y-84307489D01*
X51900000Y-84307489D01*
X51900000Y-83637791D01*
X83240000Y-83637791D01*
X83240000Y-84002209D01*
X83311095Y-84359625D01*
X83450552Y-84696303D01*
X83653011Y-84999306D01*
X83910694Y-85256989D01*
X84213697Y-85459448D01*
X84550375Y-85598905D01*
X84907791Y-85670000D01*
X85272209Y-85670000D01*
X85629625Y-85598905D01*
X85966303Y-85459448D01*
X86269306Y-85256989D01*
X86526989Y-84999306D01*
X86729448Y-84696303D01*
X86868905Y-84359625D01*
X86940000Y-84002209D01*
X86940000Y-83637791D01*
X86868905Y-83280375D01*
X86729448Y-82943697D01*
X86526989Y-82640694D01*
X86269306Y-82383011D01*
X85966303Y-82180552D01*
X85629625Y-82041095D01*
X85272209Y-81970000D01*
X84907791Y-81970000D01*
X84550375Y-82041095D01*
X84213697Y-82180552D01*
X83910694Y-82383011D01*
X83653011Y-82640694D01*
X83450552Y-82943697D01*
X83311095Y-83280375D01*
X83240000Y-83637791D01*
X51900000Y-83637791D01*
X51900000Y-83332511D01*
X68370231Y-83332511D01*
X68504529Y-83570000D01*
X69600000Y-83570000D01*
X69600000Y-82471679D01*
X70100000Y-82471679D01*
X70100000Y-83570000D01*
X71195471Y-83570000D01*
X71329769Y-83332511D01*
X71241069Y-83118346D01*
X71077454Y-82860444D01*
X70866669Y-82639417D01*
X70616814Y-82463759D01*
X70337490Y-82340221D01*
X70100000Y-82471679D01*
X69600000Y-82471679D01*
X69362510Y-82340221D01*
X69083186Y-82463759D01*
X68833331Y-82639417D01*
X68622546Y-82860444D01*
X68458931Y-83118346D01*
X68370231Y-83332511D01*
X51900000Y-83332511D01*
X51900000Y-77922791D01*
X68000000Y-77922791D01*
X68000000Y-78287209D01*
X68071095Y-78644625D01*
X68210552Y-78981303D01*
X68413011Y-79284306D01*
X68670694Y-79541989D01*
X68973697Y-79744448D01*
X69310375Y-79883905D01*
X69667791Y-79955000D01*
X70032209Y-79955000D01*
X70389625Y-79883905D01*
X70726303Y-79744448D01*
X71029306Y-79541989D01*
X71286989Y-79284306D01*
X71489448Y-78981303D01*
X71628905Y-78644625D01*
X71700000Y-78287209D01*
X71700000Y-77922791D01*
X71628905Y-77565375D01*
X71489448Y-77228697D01*
X71286989Y-76925694D01*
X71029306Y-76668011D01*
X70726303Y-76465552D01*
X70389625Y-76326095D01*
X70032209Y-76255000D01*
X69667791Y-76255000D01*
X69310375Y-76326095D01*
X68973697Y-76465552D01*
X68670694Y-76668011D01*
X68413011Y-76925694D01*
X68210552Y-77228697D01*
X68071095Y-77565375D01*
X68000000Y-77922791D01*
X51900000Y-77922791D01*
X51900000Y-70937791D01*
X68000000Y-70937791D01*
X68000000Y-71302209D01*
X68071095Y-71659625D01*
X68210552Y-71996303D01*
X68413011Y-72299306D01*
X68670694Y-72556989D01*
X68973697Y-72759448D01*
X69310375Y-72898905D01*
X69667791Y-72970000D01*
X70032209Y-72970000D01*
X70389625Y-72898905D01*
X70726303Y-72759448D01*
X71029306Y-72556989D01*
X71286989Y-72299306D01*
X71489448Y-71996303D01*
X71628905Y-71659625D01*
X71700000Y-71302209D01*
X71700000Y-70937791D01*
X71628905Y-70580375D01*
X71489448Y-70243697D01*
X71286989Y-69940694D01*
X71029306Y-69683011D01*
X70726303Y-69480552D01*
X70389625Y-69341095D01*
X70032209Y-69270000D01*
X69667791Y-69270000D01*
X69310375Y-69341095D01*
X68973697Y-69480552D01*
X68670694Y-69683011D01*
X68413011Y-69940694D01*
X68210552Y-70243697D01*
X68071095Y-70580375D01*
X68000000Y-70937791D01*
X51900000Y-70937791D01*
X51900000Y-54945000D01*
X53442143Y-54945000D01*
X53442143Y-59595000D01*
X62127857Y-59595000D01*
X62127857Y-54945000D01*
X53442143Y-54945000D01*
X51900000Y-54945000D01*
X51900000Y-41021000D01*
X68626049Y-41021000D01*
X68661768Y-41383663D01*
X68767553Y-41732390D01*
X68939339Y-42053778D01*
X69170523Y-42335477D01*
X69452222Y-42566661D01*
X69773610Y-42738447D01*
X70122337Y-42844232D01*
X70394118Y-42871000D01*
X70575882Y-42871000D01*
X70847663Y-42844232D01*
X71196390Y-42738447D01*
X71517778Y-42566661D01*
X71799477Y-42335477D01*
X72030661Y-42053778D01*
X72202447Y-41732390D01*
X72308232Y-41383663D01*
X72343951Y-41021000D01*
X72308232Y-40658337D01*
X72202447Y-40309610D01*
X72030661Y-39988222D01*
X71799477Y-39706523D01*
X71517778Y-39475339D01*
X71196390Y-39303553D01*
X70847663Y-39197768D01*
X70575882Y-39171000D01*
X70394118Y-39171000D01*
X70122337Y-39197768D01*
X69773610Y-39303553D01*
X69452222Y-39475339D01*
X69170523Y-39706523D01*
X68939339Y-39988222D01*
X68767553Y-40309610D01*
X68661768Y-40658337D01*
X68626049Y-41021000D01*
X51900000Y-41021000D01*
X51900000Y-28625000D01*
X59247194Y-28625000D01*
X59300000Y-28630201D01*
X59352806Y-28625000D01*
X59510737Y-28609445D01*
X59713375Y-28547976D01*
X59900128Y-28448154D01*
X60063817Y-28313817D01*
X60198154Y-28150128D01*
X60297976Y-27963375D01*
X60359445Y-27760737D01*
X60380201Y-27550000D01*
X60375000Y-27497194D01*
X60375000Y-25598791D01*
X68635000Y-25598791D01*
X68635000Y-25963209D01*
X68706095Y-26320625D01*
X68845552Y-26657303D01*
X69048011Y-26960306D01*
X69305694Y-27217989D01*
X69608697Y-27420448D01*
X69945375Y-27559905D01*
X70302791Y-27631000D01*
X70667209Y-27631000D01*
X71024625Y-27559905D01*
X71361303Y-27420448D01*
X71664306Y-27217989D01*
X71921989Y-26960306D01*
X72124448Y-26657303D01*
X72263905Y-26320625D01*
X72274275Y-26268490D01*
X73450221Y-26268490D01*
X73573759Y-26547814D01*
X73749417Y-26797669D01*
X73970444Y-27008454D01*
X74228346Y-27172069D01*
X74442511Y-27260769D01*
X74680000Y-27126471D01*
X74680000Y-26031000D01*
X75180000Y-26031000D01*
X75180000Y-27126471D01*
X75417489Y-27260769D01*
X75631654Y-27172069D01*
X75889556Y-27008454D01*
X76110583Y-26797669D01*
X76286241Y-26547814D01*
X76409779Y-26268490D01*
X76278321Y-26031000D01*
X75180000Y-26031000D01*
X74680000Y-26031000D01*
X73581679Y-26031000D01*
X73450221Y-26268490D01*
X72274275Y-26268490D01*
X72335000Y-25963209D01*
X72335000Y-25598791D01*
X80700000Y-25598791D01*
X80700000Y-25963209D01*
X80771095Y-26320625D01*
X80910552Y-26657303D01*
X81113011Y-26960306D01*
X81370694Y-27217989D01*
X81673697Y-27420448D01*
X82010375Y-27559905D01*
X82367791Y-27631000D01*
X82732209Y-27631000D01*
X83089625Y-27559905D01*
X83426303Y-27420448D01*
X83729306Y-27217989D01*
X83986989Y-26960306D01*
X84189448Y-26657303D01*
X84328905Y-26320625D01*
X84339275Y-26268490D01*
X85515221Y-26268490D01*
X85638759Y-26547814D01*
X85814417Y-26797669D01*
X86035444Y-27008454D01*
X86293346Y-27172069D01*
X86507511Y-27260769D01*
X86745000Y-27126471D01*
X86745000Y-26031000D01*
X87245000Y-26031000D01*
X87245000Y-27126471D01*
X87482489Y-27260769D01*
X87696654Y-27172069D01*
X87954556Y-27008454D01*
X88175583Y-26797669D01*
X88351241Y-26547814D01*
X88474779Y-26268490D01*
X88343321Y-26031000D01*
X87245000Y-26031000D01*
X86745000Y-26031000D01*
X85646679Y-26031000D01*
X85515221Y-26268490D01*
X84339275Y-26268490D01*
X84400000Y-25963209D01*
X84400000Y-25598791D01*
X84339276Y-25293510D01*
X85515221Y-25293510D01*
X85646679Y-25531000D01*
X86745000Y-25531000D01*
X86745000Y-24435529D01*
X87245000Y-24435529D01*
X87245000Y-25531000D01*
X88343321Y-25531000D01*
X88474779Y-25293510D01*
X88351241Y-25014186D01*
X88175583Y-24764331D01*
X87954556Y-24553546D01*
X87696654Y-24389931D01*
X87482489Y-24301231D01*
X87245000Y-24435529D01*
X86745000Y-24435529D01*
X86507511Y-24301231D01*
X86293346Y-24389931D01*
X86035444Y-24553546D01*
X85814417Y-24764331D01*
X85638759Y-25014186D01*
X85515221Y-25293510D01*
X84339276Y-25293510D01*
X84328905Y-25241375D01*
X84189448Y-24904697D01*
X83986989Y-24601694D01*
X83729306Y-24344011D01*
X83426303Y-24141552D01*
X83089625Y-24002095D01*
X82732209Y-23931000D01*
X82367791Y-23931000D01*
X82010375Y-24002095D01*
X81673697Y-24141552D01*
X81370694Y-24344011D01*
X81113011Y-24601694D01*
X80910552Y-24904697D01*
X80771095Y-25241375D01*
X80700000Y-25598791D01*
X72335000Y-25598791D01*
X72274276Y-25293510D01*
X73450221Y-25293510D01*
X73581679Y-25531000D01*
X74680000Y-25531000D01*
X74680000Y-24435529D01*
X75180000Y-24435529D01*
X75180000Y-25531000D01*
X76278321Y-25531000D01*
X76409779Y-25293510D01*
X76286241Y-25014186D01*
X76110583Y-24764331D01*
X75889556Y-24553546D01*
X75631654Y-24389931D01*
X75417489Y-24301231D01*
X75180000Y-24435529D01*
X74680000Y-24435529D01*
X74442511Y-24301231D01*
X74228346Y-24389931D01*
X73970444Y-24553546D01*
X73749417Y-24764331D01*
X73573759Y-25014186D01*
X73450221Y-25293510D01*
X72274276Y-25293510D01*
X72263905Y-25241375D01*
X72124448Y-24904697D01*
X71921989Y-24601694D01*
X71664306Y-24344011D01*
X71361303Y-24141552D01*
X71024625Y-24002095D01*
X70667209Y-23931000D01*
X70302791Y-23931000D01*
X69945375Y-24002095D01*
X69608697Y-24141552D01*
X69305694Y-24344011D01*
X69048011Y-24601694D01*
X68845552Y-24904697D01*
X68706095Y-25241375D01*
X68635000Y-25598791D01*
X60375000Y-25598791D01*
X60375000Y-20150000D01*
X127614879Y-20150000D01*
X141225000Y-20301856D01*
M02*
