G04 #@! TF.GenerationSoftware,KiCad,Pcbnew,5.1.4+dfsg1-1*
G04 #@! TF.CreationDate,2020-03-02T18:27:02+01:00*
G04 #@! TF.ProjectId,1_solar_bank,315f736f-6c61-4725-9f62-616e6b2e6b69,rev?*
G04 #@! TF.SameCoordinates,Original*
G04 #@! TF.FileFunction,Copper,L2,Bot*
G04 #@! TF.FilePolarity,Positive*
%FSLAX46Y46*%
G04 Gerber Fmt 4.6, Leading zero omitted, Abs format (unit mm)*
G04 Created by KiCad (PCBNEW 5.1.4+dfsg1-1) date 2020-03-02 18:27:02*
%MOMM*%
%LPD*%
G04 APERTURE LIST*
%ADD10C,1.400000*%
%ADD11C,1.600000*%
%ADD12O,1.600000X1.600000*%
%ADD13R,1.700000X1.700000*%
%ADD14O,1.700000X1.700000*%
%ADD15C,3.000000*%
%ADD16C,0.800000*%
%ADD17C,0.800000*%
%ADD18C,0.400000*%
G04 APERTURE END LIST*
D10*
X74930000Y-58420000D03*
X74930000Y-55880000D03*
D11*
X85090000Y-95885000D03*
D12*
X69850000Y-95885000D03*
X85090000Y-78105000D03*
D11*
X69850000Y-78105000D03*
X69850000Y-71120000D03*
D12*
X85090000Y-71120000D03*
D13*
X81280000Y-114300000D03*
D14*
X83820000Y-114300000D03*
X86360000Y-114300000D03*
X88900000Y-114300000D03*
X91440000Y-114300000D03*
X93980000Y-114300000D03*
X96520000Y-114300000D03*
X99060000Y-114300000D03*
X101600000Y-114300000D03*
D10*
X86995000Y-58420000D03*
X86995000Y-55880000D03*
X69850000Y-55880000D03*
X69850000Y-58420000D03*
X81915000Y-55880000D03*
X81915000Y-58420000D03*
X66040000Y-98425000D03*
X66040000Y-100965000D03*
D11*
X74930000Y-41021000D03*
D12*
X74930000Y-25781000D03*
X69850000Y-88900000D03*
D11*
X85090000Y-88900000D03*
D12*
X70485000Y-41021000D03*
D11*
X70485000Y-25781000D03*
X86995000Y-41021000D03*
D12*
X86995000Y-25781000D03*
D11*
X69850000Y-102870000D03*
D12*
X85090000Y-102870000D03*
X82550000Y-41021000D03*
D11*
X82550000Y-25781000D03*
D12*
X69850000Y-83820000D03*
D11*
X85090000Y-83820000D03*
D15*
X108458000Y-70866000D03*
X100838000Y-64262000D03*
X77724000Y-61976000D03*
X64516000Y-52324000D03*
X99314000Y-58166000D03*
X90424002Y-109728000D03*
X98552001Y-107187999D03*
X78994000Y-52324000D03*
X90447601Y-85828399D03*
X81280000Y-69596000D03*
X87376000Y-74676000D03*
X76708000Y-81280000D03*
X92456000Y-30480000D03*
X72644000Y-34036000D03*
X57404000Y-40132000D03*
X58420000Y-69596000D03*
X58420000Y-91948000D03*
X76708000Y-99568000D03*
X82296000Y-109728000D03*
X65024000Y-112776000D03*
X76708000Y-91948000D03*
X58420000Y-81280000D03*
X58420000Y-99568000D03*
X84836000Y-34036000D03*
X73152000Y-44704000D03*
X85344000Y-44704000D03*
X74676000Y-114300000D03*
X78232000Y-38862000D03*
X97536000Y-39624000D03*
D16*
X101600000Y-114300000D03*
D15*
X90932000Y-44704000D03*
X91440000Y-52324000D03*
X84328000Y-52324000D03*
X72136000Y-52324000D03*
X66548000Y-44704000D03*
X79756000Y-44704000D03*
D17*
X100838000Y-66802000D02*
X100838000Y-64262000D01*
X108458000Y-70866000D02*
X104902000Y-70866000D01*
X104902000Y-70866000D02*
X100838000Y-66802000D01*
X74930000Y-58420000D02*
X69850000Y-58420000D01*
X77724000Y-61214000D02*
X74930000Y-58420000D01*
X77724000Y-61976000D02*
X77724000Y-61214000D01*
X66294000Y-52324000D02*
X69850000Y-55880000D01*
X64516000Y-52324000D02*
X66294000Y-52324000D01*
X81788000Y-85598000D02*
X85090000Y-88900000D01*
X68580000Y-55880000D02*
X66548000Y-57912000D01*
X69850000Y-55880000D02*
X68580000Y-55880000D01*
X66548000Y-60452000D02*
X81788000Y-75692000D01*
X66548000Y-57912000D02*
X66548000Y-60452000D01*
X81788000Y-75692000D02*
X81788000Y-85598000D01*
X88900000Y-88900000D02*
X85090000Y-88900000D01*
X92524002Y-92524002D02*
X88900000Y-88900000D01*
X91440000Y-114300000D02*
X92524002Y-113215998D01*
X92524002Y-113215998D02*
X92524002Y-92524002D01*
X105664000Y-116586000D02*
X112268000Y-109982000D01*
X112268000Y-109982000D02*
X112268000Y-71120000D01*
X112268000Y-71120000D02*
X100813999Y-59665999D01*
X96520000Y-114300000D02*
X98806000Y-116586000D01*
X100813999Y-59665999D02*
X99314000Y-58166000D01*
X98806000Y-116586000D02*
X105664000Y-116586000D01*
X88900000Y-111252000D02*
X88900000Y-114300000D01*
X90424002Y-109728000D02*
X90424000Y-109728000D01*
X90424000Y-109728000D02*
X88900000Y-111252000D01*
X99060000Y-107695998D02*
X98552001Y-107187999D01*
X99060000Y-114300000D02*
X99060000Y-107695998D01*
X78994000Y-52324000D02*
X78994000Y-52959018D01*
X81915000Y-55880000D02*
X78994000Y-52959000D01*
X78994000Y-52959000D02*
X78994000Y-52324000D01*
X87098399Y-85828399D02*
X85090000Y-83820000D01*
X90447601Y-85828399D02*
X87098399Y-85828399D01*
X81280000Y-55880000D02*
X81915000Y-55880000D01*
X90424000Y-78486000D02*
X90424000Y-70104000D01*
X85090000Y-83820000D02*
X90424000Y-78486000D01*
X90424000Y-70104000D02*
X79756000Y-59436000D01*
X79756000Y-59436000D02*
X79756000Y-57404000D01*
X79756000Y-57404000D02*
X81280000Y-55880000D01*
X83566000Y-69596000D02*
X85090000Y-71120000D01*
X81280000Y-69596000D02*
X83566000Y-69596000D01*
X87376000Y-75819000D02*
X85090000Y-78105000D01*
X87376000Y-74676000D02*
X87376000Y-75819000D01*
X86360000Y-104648000D02*
X86360000Y-114300000D01*
X85090000Y-102870000D02*
X85090000Y-103378000D01*
X85090000Y-103378000D02*
X86360000Y-104648000D01*
X85090000Y-102870000D02*
X85090000Y-95885000D01*
X74676000Y-114300000D02*
X81280000Y-114300000D01*
X64135000Y-98425000D02*
X66040000Y-98425000D01*
X74676000Y-114300000D02*
X68072000Y-107696000D01*
X68072000Y-107696000D02*
X65024000Y-107696000D01*
X61976000Y-104648000D02*
X61976000Y-100584000D01*
X65024000Y-107696000D02*
X61976000Y-104648000D01*
X61976000Y-100584000D02*
X64135000Y-98425000D01*
X66040000Y-81915000D02*
X69850000Y-78105000D01*
X66040000Y-98425000D02*
X66040000Y-81915000D01*
X69850000Y-78105000D02*
X69850000Y-71120000D01*
X61214000Y-34798000D02*
X70231000Y-25781000D01*
X70231000Y-25781000D02*
X70485000Y-25781000D01*
X69850000Y-71120000D02*
X61214000Y-62484000D01*
X61214000Y-62484000D02*
X61214000Y-34798000D01*
X72644000Y-23368000D02*
X80137000Y-23368000D01*
X80137000Y-23368000D02*
X82550000Y-25781000D01*
X70485000Y-25781000D02*
X70485000Y-25527000D01*
X70485000Y-25527000D02*
X72644000Y-23368000D01*
X93980000Y-110871000D02*
X93980000Y-114300000D01*
X80010000Y-37084000D02*
X90170000Y-37084000D01*
X78232000Y-38862000D02*
X80010000Y-37084000D01*
X90170000Y-37084000D02*
X95250000Y-42164000D01*
X95250000Y-42164000D02*
X95250000Y-109601000D01*
X95250000Y-109601000D02*
X93980000Y-110871000D01*
X78232000Y-38862000D02*
X77089000Y-38862000D01*
X77089000Y-38862000D02*
X74930000Y-41021000D01*
X96520000Y-61217202D02*
X97536000Y-62233202D01*
X97536000Y-62233202D02*
X97536000Y-101092000D01*
X96520000Y-40640000D02*
X96520000Y-61217202D01*
X97536000Y-101092000D02*
X101600000Y-105156000D01*
X101600000Y-105156000D02*
X101600000Y-114300000D01*
X97536000Y-39624000D02*
X96520000Y-40640000D01*
X87249000Y-41021000D02*
X86995000Y-41021000D01*
X90932000Y-44704000D02*
X87249000Y-41021000D01*
X81915000Y-58420000D02*
X86995000Y-58420000D01*
X91440000Y-53975000D02*
X91440000Y-52324000D01*
X86995000Y-58420000D02*
X91440000Y-53975000D01*
X86995000Y-54483000D02*
X86995000Y-55880000D01*
X84328000Y-52324000D02*
X84836000Y-52324000D01*
X84836000Y-52324000D02*
X86995000Y-54483000D01*
X74930000Y-55118000D02*
X74930000Y-55880000D01*
X72136000Y-52324000D02*
X74930000Y-55118000D01*
X67945000Y-102870000D02*
X66040000Y-100965000D01*
X69850000Y-102870000D02*
X67945000Y-102870000D01*
X70231000Y-41021000D02*
X70485000Y-41021000D01*
X66548000Y-44704000D02*
X70231000Y-41021000D01*
X79756006Y-44704006D02*
X80264006Y-44704006D01*
X82550000Y-41021000D02*
X82550000Y-42545000D01*
X79756000Y-44704000D02*
X79756006Y-44704006D01*
X80391000Y-44704000D02*
X79756000Y-44704000D01*
X82550000Y-42545000D02*
X80391000Y-44704000D01*
D18*
G36*
X141275000Y-20424192D02*
G01*
X141275001Y-27499639D01*
X141270041Y-27550000D01*
X141289831Y-27750935D01*
X141348442Y-27944148D01*
X141443620Y-28122215D01*
X141571709Y-28278291D01*
X141727785Y-28406380D01*
X141905852Y-28501558D01*
X142099065Y-28560169D01*
X142249649Y-28575000D01*
X142249650Y-28575000D01*
X142300000Y-28579959D01*
X142350351Y-28575000D01*
X149750000Y-28575000D01*
X149750001Y-109525000D01*
X142350350Y-109525000D01*
X142300000Y-109520041D01*
X142249649Y-109525000D01*
X142099065Y-109539831D01*
X141905852Y-109598442D01*
X141727785Y-109693620D01*
X141571709Y-109821709D01*
X141443620Y-109977785D01*
X141348442Y-110155852D01*
X141289831Y-110349065D01*
X141270041Y-110550000D01*
X141275000Y-110600351D01*
X141275001Y-117773612D01*
X106977915Y-117251983D01*
X113209324Y-111020575D01*
X113262738Y-110976739D01*
X113306576Y-110923323D01*
X113306581Y-110923318D01*
X113371395Y-110844341D01*
X113437690Y-110763562D01*
X113567690Y-110520349D01*
X113631291Y-110310684D01*
X113647743Y-110256449D01*
X113664894Y-110082310D01*
X113668000Y-110050777D01*
X113668000Y-110050770D01*
X113674773Y-109982001D01*
X113668000Y-109913232D01*
X113668000Y-71188769D01*
X113674773Y-71120000D01*
X113668000Y-71051231D01*
X113668000Y-71051223D01*
X113647743Y-70845552D01*
X113623517Y-70765690D01*
X113567690Y-70581650D01*
X113522407Y-70496933D01*
X113437690Y-70338438D01*
X113262739Y-70125261D01*
X113209319Y-70081420D01*
X101852586Y-58724688D01*
X101852581Y-58724682D01*
X101768561Y-58640662D01*
X101814000Y-58412228D01*
X101814000Y-57919772D01*
X101717926Y-57436777D01*
X101529471Y-56981806D01*
X101255876Y-56572343D01*
X100907657Y-56224124D01*
X100498194Y-55950529D01*
X100043223Y-55762074D01*
X99560228Y-55666000D01*
X99067772Y-55666000D01*
X98584777Y-55762074D01*
X98129806Y-55950529D01*
X97920000Y-56090717D01*
X97920000Y-42096595D01*
X98265223Y-42027926D01*
X98720194Y-41839471D01*
X99129657Y-41565876D01*
X99477876Y-41217657D01*
X99751471Y-40808194D01*
X99939926Y-40353223D01*
X100036000Y-39870228D01*
X100036000Y-39377772D01*
X99939926Y-38894777D01*
X99751471Y-38439806D01*
X99477876Y-38030343D01*
X99129657Y-37682124D01*
X98720194Y-37408529D01*
X98265223Y-37220074D01*
X97782228Y-37124000D01*
X97289772Y-37124000D01*
X96806777Y-37220074D01*
X96351806Y-37408529D01*
X95942343Y-37682124D01*
X95594124Y-38030343D01*
X95320529Y-38439806D01*
X95132074Y-38894777D01*
X95036000Y-39377772D01*
X95036000Y-39870228D01*
X95060799Y-39994900D01*
X91208584Y-36142686D01*
X91164739Y-36089261D01*
X90951562Y-35914310D01*
X90708349Y-35784310D01*
X90444448Y-35704257D01*
X90238777Y-35684000D01*
X90238769Y-35684000D01*
X90170000Y-35677227D01*
X90101231Y-35684000D01*
X80078769Y-35684000D01*
X80010000Y-35677227D01*
X79941231Y-35684000D01*
X79941223Y-35684000D01*
X79735552Y-35704257D01*
X79471650Y-35784310D01*
X79455881Y-35792739D01*
X79228438Y-35914310D01*
X79015261Y-36089261D01*
X78971420Y-36142681D01*
X78706663Y-36407439D01*
X78478228Y-36362000D01*
X77985772Y-36362000D01*
X77502777Y-36458074D01*
X77047806Y-36646529D01*
X76638343Y-36920124D01*
X76290124Y-37268343D01*
X76016529Y-37677806D01*
X75828074Y-38132777D01*
X75825529Y-38145572D01*
X74749452Y-39221649D01*
X74404959Y-39290173D01*
X74077380Y-39425861D01*
X73782567Y-39622849D01*
X73531849Y-39873567D01*
X73334861Y-40168380D01*
X73199173Y-40495959D01*
X73130000Y-40843716D01*
X73130000Y-41198284D01*
X73199173Y-41546041D01*
X73334861Y-41873620D01*
X73531849Y-42168433D01*
X73782567Y-42419151D01*
X74077380Y-42616139D01*
X74404959Y-42751827D01*
X74752716Y-42821000D01*
X75107284Y-42821000D01*
X75455041Y-42751827D01*
X75782620Y-42616139D01*
X76077433Y-42419151D01*
X76328151Y-42168433D01*
X76525139Y-41873620D01*
X76660827Y-41546041D01*
X76729351Y-41201548D01*
X76931285Y-40999614D01*
X77047806Y-41077471D01*
X77502777Y-41265926D01*
X77985772Y-41362000D01*
X78478228Y-41362000D01*
X78961223Y-41265926D01*
X79416194Y-41077471D01*
X79825657Y-40803876D01*
X80173876Y-40455657D01*
X80447471Y-40046194D01*
X80635926Y-39591223D01*
X80732000Y-39108228D01*
X80732000Y-38615772D01*
X80705789Y-38484000D01*
X89590102Y-38484000D01*
X93850000Y-42743899D01*
X93850000Y-51625314D01*
X93843926Y-51594777D01*
X93655471Y-51139806D01*
X93381876Y-50730343D01*
X93033657Y-50382124D01*
X92624194Y-50108529D01*
X92169223Y-49920074D01*
X91686228Y-49824000D01*
X91193772Y-49824000D01*
X90710777Y-49920074D01*
X90255806Y-50108529D01*
X89846343Y-50382124D01*
X89498124Y-50730343D01*
X89224529Y-51139806D01*
X89036074Y-51594777D01*
X88940000Y-52077772D01*
X88940000Y-52570228D01*
X89036074Y-53053223D01*
X89224529Y-53508194D01*
X89498124Y-53917657D01*
X89507784Y-53927317D01*
X88444977Y-54990124D01*
X88395000Y-54915328D01*
X88395000Y-54551768D01*
X88401773Y-54482999D01*
X88395000Y-54414230D01*
X88395000Y-54414223D01*
X88374743Y-54208552D01*
X88294690Y-53944651D01*
X88164690Y-53701438D01*
X88100883Y-53623690D01*
X88033582Y-53541683D01*
X88033576Y-53541677D01*
X87989738Y-53488261D01*
X87936324Y-53444425D01*
X86828000Y-52336102D01*
X86828000Y-52077772D01*
X86731926Y-51594777D01*
X86543471Y-51139806D01*
X86269876Y-50730343D01*
X85921657Y-50382124D01*
X85512194Y-50108529D01*
X85057223Y-49920074D01*
X84574228Y-49824000D01*
X84081772Y-49824000D01*
X83598777Y-49920074D01*
X83143806Y-50108529D01*
X82734343Y-50382124D01*
X82386124Y-50730343D01*
X82112529Y-51139806D01*
X81924074Y-51594777D01*
X81828000Y-52077772D01*
X81828000Y-52570228D01*
X81924074Y-53053223D01*
X82112529Y-53508194D01*
X82386124Y-53917657D01*
X82734343Y-54265876D01*
X83143806Y-54539471D01*
X83598777Y-54727926D01*
X84081772Y-54824000D01*
X84574228Y-54824000D01*
X85057223Y-54727926D01*
X85200627Y-54668526D01*
X85535891Y-55003790D01*
X85488479Y-55074748D01*
X85360330Y-55384128D01*
X85295000Y-55712565D01*
X85295000Y-56047435D01*
X85360330Y-56375872D01*
X85488479Y-56685252D01*
X85674523Y-56963687D01*
X85730836Y-57020000D01*
X83179164Y-57020000D01*
X83235477Y-56963687D01*
X83421521Y-56685252D01*
X83549670Y-56375872D01*
X83615000Y-56047435D01*
X83615000Y-55712565D01*
X83549670Y-55384128D01*
X83421521Y-55074748D01*
X83235477Y-54796313D01*
X82998687Y-54559523D01*
X82720252Y-54373479D01*
X82410872Y-54245330D01*
X82222824Y-54207925D01*
X81301329Y-53286430D01*
X81397926Y-53053223D01*
X81494000Y-52570228D01*
X81494000Y-52077772D01*
X81397926Y-51594777D01*
X81209471Y-51139806D01*
X80935876Y-50730343D01*
X80587657Y-50382124D01*
X80178194Y-50108529D01*
X79723223Y-49920074D01*
X79240228Y-49824000D01*
X78747772Y-49824000D01*
X78264777Y-49920074D01*
X77809806Y-50108529D01*
X77400343Y-50382124D01*
X77052124Y-50730343D01*
X76778529Y-51139806D01*
X76590074Y-51594777D01*
X76494000Y-52077772D01*
X76494000Y-52570228D01*
X76590074Y-53053223D01*
X76778529Y-53508194D01*
X77052124Y-53917657D01*
X77400343Y-54265876D01*
X77809806Y-54539471D01*
X78264777Y-54727926D01*
X78747772Y-54824000D01*
X78879102Y-54824000D01*
X79617601Y-55562500D01*
X78814681Y-56365421D01*
X78761262Y-56409261D01*
X78717421Y-56462681D01*
X78717418Y-56462684D01*
X78688646Y-56497743D01*
X78586311Y-56622438D01*
X78456311Y-56865651D01*
X78376257Y-57129553D01*
X78349227Y-57404000D01*
X78356001Y-57472779D01*
X78356000Y-59367230D01*
X78349227Y-59436000D01*
X78356000Y-59504769D01*
X78356000Y-59504776D01*
X78360818Y-59553693D01*
X77970228Y-59476000D01*
X77965899Y-59476000D01*
X76602075Y-58112177D01*
X76564670Y-57924128D01*
X76436521Y-57614748D01*
X76250477Y-57336313D01*
X76064164Y-57150000D01*
X76250477Y-56963687D01*
X76436521Y-56685252D01*
X76564670Y-56375872D01*
X76630000Y-56047435D01*
X76630000Y-55712565D01*
X76564670Y-55384128D01*
X76436521Y-55074748D01*
X76314532Y-54892179D01*
X76309743Y-54843552D01*
X76295413Y-54796313D01*
X76229690Y-54579650D01*
X76141267Y-54414224D01*
X76099690Y-54336438D01*
X76028298Y-54249448D01*
X75968582Y-54176683D01*
X75968576Y-54176677D01*
X75924738Y-54123261D01*
X75871324Y-54079425D01*
X74590561Y-52798663D01*
X74636000Y-52570228D01*
X74636000Y-52077772D01*
X74539926Y-51594777D01*
X74351471Y-51139806D01*
X74077876Y-50730343D01*
X73729657Y-50382124D01*
X73320194Y-50108529D01*
X72865223Y-49920074D01*
X72382228Y-49824000D01*
X71889772Y-49824000D01*
X71406777Y-49920074D01*
X70951806Y-50108529D01*
X70542343Y-50382124D01*
X70194124Y-50730343D01*
X69920529Y-51139806D01*
X69732074Y-51594777D01*
X69636000Y-52077772D01*
X69636000Y-52570228D01*
X69732074Y-53053223D01*
X69920529Y-53508194D01*
X70194124Y-53917657D01*
X70542343Y-54265876D01*
X70951806Y-54539471D01*
X71406777Y-54727926D01*
X71889772Y-54824000D01*
X72382228Y-54824000D01*
X72610663Y-54778561D01*
X73282206Y-55450105D01*
X73230000Y-55712565D01*
X73230000Y-56047435D01*
X73295330Y-56375872D01*
X73423479Y-56685252D01*
X73609523Y-56963687D01*
X73665836Y-57020000D01*
X71114164Y-57020000D01*
X71170477Y-56963687D01*
X71356521Y-56685252D01*
X71484670Y-56375872D01*
X71550000Y-56047435D01*
X71550000Y-55712565D01*
X71484670Y-55384128D01*
X71356521Y-55074748D01*
X71170477Y-54796313D01*
X70933687Y-54559523D01*
X70655252Y-54373479D01*
X70345872Y-54245330D01*
X70157824Y-54207925D01*
X67332584Y-51382686D01*
X67288739Y-51329261D01*
X67075562Y-51154310D01*
X66832349Y-51024310D01*
X66609036Y-50956569D01*
X66457876Y-50730343D01*
X66109657Y-50382124D01*
X65700194Y-50108529D01*
X65245223Y-49920074D01*
X64762228Y-49824000D01*
X64269772Y-49824000D01*
X63786777Y-49920074D01*
X63331806Y-50108529D01*
X62922343Y-50382124D01*
X62614000Y-50690467D01*
X62614000Y-44457772D01*
X64048000Y-44457772D01*
X64048000Y-44950228D01*
X64144074Y-45433223D01*
X64332529Y-45888194D01*
X64606124Y-46297657D01*
X64954343Y-46645876D01*
X65363806Y-46919471D01*
X65818777Y-47107926D01*
X66301772Y-47204000D01*
X66794228Y-47204000D01*
X67277223Y-47107926D01*
X67732194Y-46919471D01*
X68141657Y-46645876D01*
X68489876Y-46297657D01*
X68763471Y-45888194D01*
X68951926Y-45433223D01*
X69048000Y-44950228D01*
X69048000Y-44457772D01*
X77256000Y-44457772D01*
X77256000Y-44950228D01*
X77352074Y-45433223D01*
X77540529Y-45888194D01*
X77814124Y-46297657D01*
X78162343Y-46645876D01*
X78571806Y-46919471D01*
X79026777Y-47107926D01*
X79509772Y-47204000D01*
X80002228Y-47204000D01*
X80485223Y-47107926D01*
X80940194Y-46919471D01*
X81349657Y-46645876D01*
X81697876Y-46297657D01*
X81971471Y-45888194D01*
X82159926Y-45433223D01*
X82256000Y-44950228D01*
X82256000Y-44818898D01*
X83491319Y-43583580D01*
X83544739Y-43539739D01*
X83719690Y-43326562D01*
X83849690Y-43083349D01*
X83929743Y-42819448D01*
X83950000Y-42613777D01*
X83950000Y-42613770D01*
X83956773Y-42545001D01*
X83950000Y-42476232D01*
X83950000Y-42152451D01*
X84053887Y-42025865D01*
X84221029Y-41713163D01*
X84323955Y-41373862D01*
X84358709Y-41021000D01*
X84341248Y-40843716D01*
X85195000Y-40843716D01*
X85195000Y-41198284D01*
X85264173Y-41546041D01*
X85399861Y-41873620D01*
X85596849Y-42168433D01*
X85847567Y-42419151D01*
X86142380Y-42616139D01*
X86469959Y-42751827D01*
X86817716Y-42821000D01*
X87069102Y-42821000D01*
X88477439Y-44229337D01*
X88432000Y-44457772D01*
X88432000Y-44950228D01*
X88528074Y-45433223D01*
X88716529Y-45888194D01*
X88990124Y-46297657D01*
X89338343Y-46645876D01*
X89747806Y-46919471D01*
X90202777Y-47107926D01*
X90685772Y-47204000D01*
X91178228Y-47204000D01*
X91661223Y-47107926D01*
X92116194Y-46919471D01*
X92525657Y-46645876D01*
X92873876Y-46297657D01*
X93147471Y-45888194D01*
X93335926Y-45433223D01*
X93432000Y-44950228D01*
X93432000Y-44457772D01*
X93335926Y-43974777D01*
X93147471Y-43519806D01*
X92873876Y-43110343D01*
X92525657Y-42762124D01*
X92116194Y-42488529D01*
X91661223Y-42300074D01*
X91178228Y-42204000D01*
X90685772Y-42204000D01*
X90457337Y-42249439D01*
X88731282Y-40523384D01*
X88725827Y-40495959D01*
X88590139Y-40168380D01*
X88393151Y-39873567D01*
X88142433Y-39622849D01*
X87847620Y-39425861D01*
X87520041Y-39290173D01*
X87172284Y-39221000D01*
X86817716Y-39221000D01*
X86469959Y-39290173D01*
X86142380Y-39425861D01*
X85847567Y-39622849D01*
X85596849Y-39873567D01*
X85399861Y-40168380D01*
X85264173Y-40495959D01*
X85195000Y-40843716D01*
X84341248Y-40843716D01*
X84323955Y-40668138D01*
X84221029Y-40328837D01*
X84053887Y-40016135D01*
X83828950Y-39742050D01*
X83554865Y-39517113D01*
X83242163Y-39349971D01*
X82902862Y-39247045D01*
X82638424Y-39221000D01*
X82461576Y-39221000D01*
X82197138Y-39247045D01*
X81857837Y-39349971D01*
X81545135Y-39517113D01*
X81271050Y-39742050D01*
X81046113Y-40016135D01*
X80878971Y-40328837D01*
X80776045Y-40668138D01*
X80741291Y-41021000D01*
X80776045Y-41373862D01*
X80878971Y-41713163D01*
X81046113Y-42025865D01*
X81065551Y-42049550D01*
X80718430Y-42396671D01*
X80485223Y-42300074D01*
X80002228Y-42204000D01*
X79509772Y-42204000D01*
X79026777Y-42300074D01*
X78571806Y-42488529D01*
X78162343Y-42762124D01*
X77814124Y-43110343D01*
X77540529Y-43519806D01*
X77352074Y-43974777D01*
X77256000Y-44457772D01*
X69048000Y-44457772D01*
X69002561Y-44229337D01*
X70410899Y-42821000D01*
X70573424Y-42821000D01*
X70837862Y-42794955D01*
X71177163Y-42692029D01*
X71489865Y-42524887D01*
X71763950Y-42299950D01*
X71988887Y-42025865D01*
X72156029Y-41713163D01*
X72258955Y-41373862D01*
X72293709Y-41021000D01*
X72258955Y-40668138D01*
X72156029Y-40328837D01*
X71988887Y-40016135D01*
X71763950Y-39742050D01*
X71489865Y-39517113D01*
X71177163Y-39349971D01*
X70837862Y-39247045D01*
X70573424Y-39221000D01*
X70396576Y-39221000D01*
X70132138Y-39247045D01*
X69792837Y-39349971D01*
X69480135Y-39517113D01*
X69206050Y-39742050D01*
X68981113Y-40016135D01*
X68813971Y-40328837D01*
X68757672Y-40514429D01*
X67022663Y-42249439D01*
X66794228Y-42204000D01*
X66301772Y-42204000D01*
X65818777Y-42300074D01*
X65363806Y-42488529D01*
X64954343Y-42762124D01*
X64606124Y-43110343D01*
X64332529Y-43519806D01*
X64144074Y-43974777D01*
X64048000Y-44457772D01*
X62614000Y-44457772D01*
X62614000Y-35377898D01*
X70410899Y-27581000D01*
X70662284Y-27581000D01*
X71010041Y-27511827D01*
X71337620Y-27376139D01*
X71632433Y-27179151D01*
X71883151Y-26928433D01*
X72080139Y-26633620D01*
X72214810Y-26308496D01*
X73517256Y-26308496D01*
X73647311Y-26573973D01*
X73826659Y-26808976D01*
X74048408Y-27004475D01*
X74304036Y-27152956D01*
X74402506Y-27193733D01*
X74630000Y-27077750D01*
X74630000Y-26081000D01*
X75230000Y-26081000D01*
X75230000Y-27077750D01*
X75457494Y-27193733D01*
X75555964Y-27152956D01*
X75811592Y-27004475D01*
X76033341Y-26808976D01*
X76212689Y-26573973D01*
X76342744Y-26308496D01*
X76230869Y-26081000D01*
X75230000Y-26081000D01*
X74630000Y-26081000D01*
X73629131Y-26081000D01*
X73517256Y-26308496D01*
X72214810Y-26308496D01*
X72215827Y-26306041D01*
X72285000Y-25958284D01*
X72285000Y-25706898D01*
X73223899Y-24768000D01*
X73815230Y-24768000D01*
X73647311Y-24988027D01*
X73517256Y-25253504D01*
X73629131Y-25481000D01*
X74630000Y-25481000D01*
X74630000Y-25461000D01*
X75230000Y-25461000D01*
X75230000Y-25481000D01*
X76230869Y-25481000D01*
X76342744Y-25253504D01*
X76212689Y-24988027D01*
X76044770Y-24768000D01*
X79557102Y-24768000D01*
X80750649Y-25961548D01*
X80819173Y-26306041D01*
X80954861Y-26633620D01*
X81151849Y-26928433D01*
X81402567Y-27179151D01*
X81697380Y-27376139D01*
X82024959Y-27511827D01*
X82372716Y-27581000D01*
X82727284Y-27581000D01*
X83075041Y-27511827D01*
X83402620Y-27376139D01*
X83697433Y-27179151D01*
X83948151Y-26928433D01*
X84145139Y-26633620D01*
X84279810Y-26308496D01*
X85582256Y-26308496D01*
X85712311Y-26573973D01*
X85891659Y-26808976D01*
X86113408Y-27004475D01*
X86369036Y-27152956D01*
X86467506Y-27193733D01*
X86695000Y-27077750D01*
X86695000Y-26081000D01*
X87295000Y-26081000D01*
X87295000Y-27077750D01*
X87522494Y-27193733D01*
X87620964Y-27152956D01*
X87876592Y-27004475D01*
X88098341Y-26808976D01*
X88277689Y-26573973D01*
X88407744Y-26308496D01*
X88295869Y-26081000D01*
X87295000Y-26081000D01*
X86695000Y-26081000D01*
X85694131Y-26081000D01*
X85582256Y-26308496D01*
X84279810Y-26308496D01*
X84280827Y-26306041D01*
X84350000Y-25958284D01*
X84350000Y-25603716D01*
X84280827Y-25255959D01*
X84279811Y-25253504D01*
X85582256Y-25253504D01*
X85694131Y-25481000D01*
X86695000Y-25481000D01*
X86695000Y-24484250D01*
X87295000Y-24484250D01*
X87295000Y-25481000D01*
X88295869Y-25481000D01*
X88407744Y-25253504D01*
X88277689Y-24988027D01*
X88098341Y-24753024D01*
X87876592Y-24557525D01*
X87620964Y-24409044D01*
X87522494Y-24368267D01*
X87295000Y-24484250D01*
X86695000Y-24484250D01*
X86467506Y-24368267D01*
X86369036Y-24409044D01*
X86113408Y-24557525D01*
X85891659Y-24753024D01*
X85712311Y-24988027D01*
X85582256Y-25253504D01*
X84279811Y-25253504D01*
X84145139Y-24928380D01*
X83948151Y-24633567D01*
X83697433Y-24382849D01*
X83402620Y-24185861D01*
X83075041Y-24050173D01*
X82730548Y-23981649D01*
X81175584Y-22426686D01*
X81131739Y-22373261D01*
X80918562Y-22198310D01*
X80675349Y-22068310D01*
X80411448Y-21988257D01*
X80205777Y-21968000D01*
X80205769Y-21968000D01*
X80137000Y-21961227D01*
X80068231Y-21968000D01*
X72712768Y-21968000D01*
X72643999Y-21961227D01*
X72575230Y-21968000D01*
X72575223Y-21968000D01*
X72369552Y-21988257D01*
X72105651Y-22068310D01*
X71862438Y-22198310D01*
X71649261Y-22373261D01*
X71605420Y-22426681D01*
X69987384Y-24044718D01*
X69959959Y-24050173D01*
X69632380Y-24185861D01*
X69337567Y-24382849D01*
X69086849Y-24633567D01*
X68889861Y-24928380D01*
X68754173Y-25255959D01*
X68748718Y-25283383D01*
X60272682Y-33759420D01*
X60219262Y-33803261D01*
X60175421Y-33856681D01*
X60175418Y-33856684D01*
X60120752Y-33923295D01*
X60044311Y-34016438D01*
X59914311Y-34259651D01*
X59834257Y-34523553D01*
X59807227Y-34798000D01*
X59814001Y-34866779D01*
X59814000Y-62415231D01*
X59807227Y-62484000D01*
X59814000Y-62552769D01*
X59814000Y-62552776D01*
X59834257Y-62758447D01*
X59914310Y-63022348D01*
X60044310Y-63265561D01*
X60118321Y-63355743D01*
X60157015Y-63402891D01*
X60219261Y-63478738D01*
X60272682Y-63522580D01*
X68050649Y-71300548D01*
X68119173Y-71645041D01*
X68254861Y-71972620D01*
X68450001Y-72264667D01*
X68450000Y-76960334D01*
X68254861Y-77252380D01*
X68119173Y-77579959D01*
X68050649Y-77924452D01*
X65098682Y-80876420D01*
X65045262Y-80920261D01*
X65001421Y-80973681D01*
X65001418Y-80973684D01*
X64946752Y-81040295D01*
X64870311Y-81133438D01*
X64740311Y-81376651D01*
X64660257Y-81640553D01*
X64633227Y-81915000D01*
X64640001Y-81983779D01*
X64640000Y-97025000D01*
X64203768Y-97025000D01*
X64134999Y-97018227D01*
X64066230Y-97025000D01*
X64066223Y-97025000D01*
X63860552Y-97045257D01*
X63596651Y-97125310D01*
X63353438Y-97255310D01*
X63140261Y-97430261D01*
X63096420Y-97483681D01*
X61034681Y-99545420D01*
X60981262Y-99589261D01*
X60937421Y-99642681D01*
X60937418Y-99642684D01*
X60935909Y-99644523D01*
X60806311Y-99802438D01*
X60737315Y-99931521D01*
X60676311Y-100045651D01*
X60596257Y-100309553D01*
X60569227Y-100584000D01*
X60576001Y-100652779D01*
X60576000Y-104579231D01*
X60569227Y-104648000D01*
X60576000Y-104716769D01*
X60576000Y-104716776D01*
X60596257Y-104922447D01*
X60676310Y-105186348D01*
X60806310Y-105429561D01*
X60981261Y-105642738D01*
X61034682Y-105686580D01*
X63985420Y-108637319D01*
X64029261Y-108690739D01*
X64242438Y-108865690D01*
X64485651Y-108995690D01*
X64749552Y-109075743D01*
X64955223Y-109096000D01*
X64955231Y-109096000D01*
X65024000Y-109102773D01*
X65092769Y-109096000D01*
X67492102Y-109096000D01*
X72221439Y-113825337D01*
X72176000Y-114053772D01*
X72176000Y-114546228D01*
X72272074Y-115029223D01*
X72460529Y-115484194D01*
X72734124Y-115893657D01*
X73082343Y-116241876D01*
X73491806Y-116515471D01*
X73946777Y-116703926D01*
X74195449Y-116753390D01*
X60325000Y-116542433D01*
X60325000Y-110600351D01*
X60329959Y-110550000D01*
X60310169Y-110349065D01*
X60251558Y-110155852D01*
X60156380Y-109977785D01*
X60028291Y-109821709D01*
X59872215Y-109693620D01*
X59694148Y-109598442D01*
X59500935Y-109539831D01*
X59350351Y-109525000D01*
X59300000Y-109520041D01*
X59249650Y-109525000D01*
X51850000Y-109525000D01*
X51850000Y-28575000D01*
X59249649Y-28575000D01*
X59300000Y-28579959D01*
X59350350Y-28575000D01*
X59350351Y-28575000D01*
X59500935Y-28560169D01*
X59694148Y-28501558D01*
X59872215Y-28406380D01*
X60028291Y-28278291D01*
X60156380Y-28122215D01*
X60251558Y-27944148D01*
X60310169Y-27750935D01*
X60329959Y-27550000D01*
X60325000Y-27499649D01*
X60325000Y-20100000D01*
X109220477Y-20100000D01*
X141275000Y-20424192D01*
X141275000Y-20424192D01*
G37*
X141275000Y-20424192D02*
X141275001Y-27499639D01*
X141270041Y-27550000D01*
X141289831Y-27750935D01*
X141348442Y-27944148D01*
X141443620Y-28122215D01*
X141571709Y-28278291D01*
X141727785Y-28406380D01*
X141905852Y-28501558D01*
X142099065Y-28560169D01*
X142249649Y-28575000D01*
X142249650Y-28575000D01*
X142300000Y-28579959D01*
X142350351Y-28575000D01*
X149750000Y-28575000D01*
X149750001Y-109525000D01*
X142350350Y-109525000D01*
X142300000Y-109520041D01*
X142249649Y-109525000D01*
X142099065Y-109539831D01*
X141905852Y-109598442D01*
X141727785Y-109693620D01*
X141571709Y-109821709D01*
X141443620Y-109977785D01*
X141348442Y-110155852D01*
X141289831Y-110349065D01*
X141270041Y-110550000D01*
X141275000Y-110600351D01*
X141275001Y-117773612D01*
X106977915Y-117251983D01*
X113209324Y-111020575D01*
X113262738Y-110976739D01*
X113306576Y-110923323D01*
X113306581Y-110923318D01*
X113371395Y-110844341D01*
X113437690Y-110763562D01*
X113567690Y-110520349D01*
X113631291Y-110310684D01*
X113647743Y-110256449D01*
X113664894Y-110082310D01*
X113668000Y-110050777D01*
X113668000Y-110050770D01*
X113674773Y-109982001D01*
X113668000Y-109913232D01*
X113668000Y-71188769D01*
X113674773Y-71120000D01*
X113668000Y-71051231D01*
X113668000Y-71051223D01*
X113647743Y-70845552D01*
X113623517Y-70765690D01*
X113567690Y-70581650D01*
X113522407Y-70496933D01*
X113437690Y-70338438D01*
X113262739Y-70125261D01*
X113209319Y-70081420D01*
X101852586Y-58724688D01*
X101852581Y-58724682D01*
X101768561Y-58640662D01*
X101814000Y-58412228D01*
X101814000Y-57919772D01*
X101717926Y-57436777D01*
X101529471Y-56981806D01*
X101255876Y-56572343D01*
X100907657Y-56224124D01*
X100498194Y-55950529D01*
X100043223Y-55762074D01*
X99560228Y-55666000D01*
X99067772Y-55666000D01*
X98584777Y-55762074D01*
X98129806Y-55950529D01*
X97920000Y-56090717D01*
X97920000Y-42096595D01*
X98265223Y-42027926D01*
X98720194Y-41839471D01*
X99129657Y-41565876D01*
X99477876Y-41217657D01*
X99751471Y-40808194D01*
X99939926Y-40353223D01*
X100036000Y-39870228D01*
X100036000Y-39377772D01*
X99939926Y-38894777D01*
X99751471Y-38439806D01*
X99477876Y-38030343D01*
X99129657Y-37682124D01*
X98720194Y-37408529D01*
X98265223Y-37220074D01*
X97782228Y-37124000D01*
X97289772Y-37124000D01*
X96806777Y-37220074D01*
X96351806Y-37408529D01*
X95942343Y-37682124D01*
X95594124Y-38030343D01*
X95320529Y-38439806D01*
X95132074Y-38894777D01*
X95036000Y-39377772D01*
X95036000Y-39870228D01*
X95060799Y-39994900D01*
X91208584Y-36142686D01*
X91164739Y-36089261D01*
X90951562Y-35914310D01*
X90708349Y-35784310D01*
X90444448Y-35704257D01*
X90238777Y-35684000D01*
X90238769Y-35684000D01*
X90170000Y-35677227D01*
X90101231Y-35684000D01*
X80078769Y-35684000D01*
X80010000Y-35677227D01*
X79941231Y-35684000D01*
X79941223Y-35684000D01*
X79735552Y-35704257D01*
X79471650Y-35784310D01*
X79455881Y-35792739D01*
X79228438Y-35914310D01*
X79015261Y-36089261D01*
X78971420Y-36142681D01*
X78706663Y-36407439D01*
X78478228Y-36362000D01*
X77985772Y-36362000D01*
X77502777Y-36458074D01*
X77047806Y-36646529D01*
X76638343Y-36920124D01*
X76290124Y-37268343D01*
X76016529Y-37677806D01*
X75828074Y-38132777D01*
X75825529Y-38145572D01*
X74749452Y-39221649D01*
X74404959Y-39290173D01*
X74077380Y-39425861D01*
X73782567Y-39622849D01*
X73531849Y-39873567D01*
X73334861Y-40168380D01*
X73199173Y-40495959D01*
X73130000Y-40843716D01*
X73130000Y-41198284D01*
X73199173Y-41546041D01*
X73334861Y-41873620D01*
X73531849Y-42168433D01*
X73782567Y-42419151D01*
X74077380Y-42616139D01*
X74404959Y-42751827D01*
X74752716Y-42821000D01*
X75107284Y-42821000D01*
X75455041Y-42751827D01*
X75782620Y-42616139D01*
X76077433Y-42419151D01*
X76328151Y-42168433D01*
X76525139Y-41873620D01*
X76660827Y-41546041D01*
X76729351Y-41201548D01*
X76931285Y-40999614D01*
X77047806Y-41077471D01*
X77502777Y-41265926D01*
X77985772Y-41362000D01*
X78478228Y-41362000D01*
X78961223Y-41265926D01*
X79416194Y-41077471D01*
X79825657Y-40803876D01*
X80173876Y-40455657D01*
X80447471Y-40046194D01*
X80635926Y-39591223D01*
X80732000Y-39108228D01*
X80732000Y-38615772D01*
X80705789Y-38484000D01*
X89590102Y-38484000D01*
X93850000Y-42743899D01*
X93850000Y-51625314D01*
X93843926Y-51594777D01*
X93655471Y-51139806D01*
X93381876Y-50730343D01*
X93033657Y-50382124D01*
X92624194Y-50108529D01*
X92169223Y-49920074D01*
X91686228Y-49824000D01*
X91193772Y-49824000D01*
X90710777Y-49920074D01*
X90255806Y-50108529D01*
X89846343Y-50382124D01*
X89498124Y-50730343D01*
X89224529Y-51139806D01*
X89036074Y-51594777D01*
X88940000Y-52077772D01*
X88940000Y-52570228D01*
X89036074Y-53053223D01*
X89224529Y-53508194D01*
X89498124Y-53917657D01*
X89507784Y-53927317D01*
X88444977Y-54990124D01*
X88395000Y-54915328D01*
X88395000Y-54551768D01*
X88401773Y-54482999D01*
X88395000Y-54414230D01*
X88395000Y-54414223D01*
X88374743Y-54208552D01*
X88294690Y-53944651D01*
X88164690Y-53701438D01*
X88100883Y-53623690D01*
X88033582Y-53541683D01*
X88033576Y-53541677D01*
X87989738Y-53488261D01*
X87936324Y-53444425D01*
X86828000Y-52336102D01*
X86828000Y-52077772D01*
X86731926Y-51594777D01*
X86543471Y-51139806D01*
X86269876Y-50730343D01*
X85921657Y-50382124D01*
X85512194Y-50108529D01*
X85057223Y-49920074D01*
X84574228Y-49824000D01*
X84081772Y-49824000D01*
X83598777Y-49920074D01*
X83143806Y-50108529D01*
X82734343Y-50382124D01*
X82386124Y-50730343D01*
X82112529Y-51139806D01*
X81924074Y-51594777D01*
X81828000Y-52077772D01*
X81828000Y-52570228D01*
X81924074Y-53053223D01*
X82112529Y-53508194D01*
X82386124Y-53917657D01*
X82734343Y-54265876D01*
X83143806Y-54539471D01*
X83598777Y-54727926D01*
X84081772Y-54824000D01*
X84574228Y-54824000D01*
X85057223Y-54727926D01*
X85200627Y-54668526D01*
X85535891Y-55003790D01*
X85488479Y-55074748D01*
X85360330Y-55384128D01*
X85295000Y-55712565D01*
X85295000Y-56047435D01*
X85360330Y-56375872D01*
X85488479Y-56685252D01*
X85674523Y-56963687D01*
X85730836Y-57020000D01*
X83179164Y-57020000D01*
X83235477Y-56963687D01*
X83421521Y-56685252D01*
X83549670Y-56375872D01*
X83615000Y-56047435D01*
X83615000Y-55712565D01*
X83549670Y-55384128D01*
X83421521Y-55074748D01*
X83235477Y-54796313D01*
X82998687Y-54559523D01*
X82720252Y-54373479D01*
X82410872Y-54245330D01*
X82222824Y-54207925D01*
X81301329Y-53286430D01*
X81397926Y-53053223D01*
X81494000Y-52570228D01*
X81494000Y-52077772D01*
X81397926Y-51594777D01*
X81209471Y-51139806D01*
X80935876Y-50730343D01*
X80587657Y-50382124D01*
X80178194Y-50108529D01*
X79723223Y-49920074D01*
X79240228Y-49824000D01*
X78747772Y-49824000D01*
X78264777Y-49920074D01*
X77809806Y-50108529D01*
X77400343Y-50382124D01*
X77052124Y-50730343D01*
X76778529Y-51139806D01*
X76590074Y-51594777D01*
X76494000Y-52077772D01*
X76494000Y-52570228D01*
X76590074Y-53053223D01*
X76778529Y-53508194D01*
X77052124Y-53917657D01*
X77400343Y-54265876D01*
X77809806Y-54539471D01*
X78264777Y-54727926D01*
X78747772Y-54824000D01*
X78879102Y-54824000D01*
X79617601Y-55562500D01*
X78814681Y-56365421D01*
X78761262Y-56409261D01*
X78717421Y-56462681D01*
X78717418Y-56462684D01*
X78688646Y-56497743D01*
X78586311Y-56622438D01*
X78456311Y-56865651D01*
X78376257Y-57129553D01*
X78349227Y-57404000D01*
X78356001Y-57472779D01*
X78356000Y-59367230D01*
X78349227Y-59436000D01*
X78356000Y-59504769D01*
X78356000Y-59504776D01*
X78360818Y-59553693D01*
X77970228Y-59476000D01*
X77965899Y-59476000D01*
X76602075Y-58112177D01*
X76564670Y-57924128D01*
X76436521Y-57614748D01*
X76250477Y-57336313D01*
X76064164Y-57150000D01*
X76250477Y-56963687D01*
X76436521Y-56685252D01*
X76564670Y-56375872D01*
X76630000Y-56047435D01*
X76630000Y-55712565D01*
X76564670Y-55384128D01*
X76436521Y-55074748D01*
X76314532Y-54892179D01*
X76309743Y-54843552D01*
X76295413Y-54796313D01*
X76229690Y-54579650D01*
X76141267Y-54414224D01*
X76099690Y-54336438D01*
X76028298Y-54249448D01*
X75968582Y-54176683D01*
X75968576Y-54176677D01*
X75924738Y-54123261D01*
X75871324Y-54079425D01*
X74590561Y-52798663D01*
X74636000Y-52570228D01*
X74636000Y-52077772D01*
X74539926Y-51594777D01*
X74351471Y-51139806D01*
X74077876Y-50730343D01*
X73729657Y-50382124D01*
X73320194Y-50108529D01*
X72865223Y-49920074D01*
X72382228Y-49824000D01*
X71889772Y-49824000D01*
X71406777Y-49920074D01*
X70951806Y-50108529D01*
X70542343Y-50382124D01*
X70194124Y-50730343D01*
X69920529Y-51139806D01*
X69732074Y-51594777D01*
X69636000Y-52077772D01*
X69636000Y-52570228D01*
X69732074Y-53053223D01*
X69920529Y-53508194D01*
X70194124Y-53917657D01*
X70542343Y-54265876D01*
X70951806Y-54539471D01*
X71406777Y-54727926D01*
X71889772Y-54824000D01*
X72382228Y-54824000D01*
X72610663Y-54778561D01*
X73282206Y-55450105D01*
X73230000Y-55712565D01*
X73230000Y-56047435D01*
X73295330Y-56375872D01*
X73423479Y-56685252D01*
X73609523Y-56963687D01*
X73665836Y-57020000D01*
X71114164Y-57020000D01*
X71170477Y-56963687D01*
X71356521Y-56685252D01*
X71484670Y-56375872D01*
X71550000Y-56047435D01*
X71550000Y-55712565D01*
X71484670Y-55384128D01*
X71356521Y-55074748D01*
X71170477Y-54796313D01*
X70933687Y-54559523D01*
X70655252Y-54373479D01*
X70345872Y-54245330D01*
X70157824Y-54207925D01*
X67332584Y-51382686D01*
X67288739Y-51329261D01*
X67075562Y-51154310D01*
X66832349Y-51024310D01*
X66609036Y-50956569D01*
X66457876Y-50730343D01*
X66109657Y-50382124D01*
X65700194Y-50108529D01*
X65245223Y-49920074D01*
X64762228Y-49824000D01*
X64269772Y-49824000D01*
X63786777Y-49920074D01*
X63331806Y-50108529D01*
X62922343Y-50382124D01*
X62614000Y-50690467D01*
X62614000Y-44457772D01*
X64048000Y-44457772D01*
X64048000Y-44950228D01*
X64144074Y-45433223D01*
X64332529Y-45888194D01*
X64606124Y-46297657D01*
X64954343Y-46645876D01*
X65363806Y-46919471D01*
X65818777Y-47107926D01*
X66301772Y-47204000D01*
X66794228Y-47204000D01*
X67277223Y-47107926D01*
X67732194Y-46919471D01*
X68141657Y-46645876D01*
X68489876Y-46297657D01*
X68763471Y-45888194D01*
X68951926Y-45433223D01*
X69048000Y-44950228D01*
X69048000Y-44457772D01*
X77256000Y-44457772D01*
X77256000Y-44950228D01*
X77352074Y-45433223D01*
X77540529Y-45888194D01*
X77814124Y-46297657D01*
X78162343Y-46645876D01*
X78571806Y-46919471D01*
X79026777Y-47107926D01*
X79509772Y-47204000D01*
X80002228Y-47204000D01*
X80485223Y-47107926D01*
X80940194Y-46919471D01*
X81349657Y-46645876D01*
X81697876Y-46297657D01*
X81971471Y-45888194D01*
X82159926Y-45433223D01*
X82256000Y-44950228D01*
X82256000Y-44818898D01*
X83491319Y-43583580D01*
X83544739Y-43539739D01*
X83719690Y-43326562D01*
X83849690Y-43083349D01*
X83929743Y-42819448D01*
X83950000Y-42613777D01*
X83950000Y-42613770D01*
X83956773Y-42545001D01*
X83950000Y-42476232D01*
X83950000Y-42152451D01*
X84053887Y-42025865D01*
X84221029Y-41713163D01*
X84323955Y-41373862D01*
X84358709Y-41021000D01*
X84341248Y-40843716D01*
X85195000Y-40843716D01*
X85195000Y-41198284D01*
X85264173Y-41546041D01*
X85399861Y-41873620D01*
X85596849Y-42168433D01*
X85847567Y-42419151D01*
X86142380Y-42616139D01*
X86469959Y-42751827D01*
X86817716Y-42821000D01*
X87069102Y-42821000D01*
X88477439Y-44229337D01*
X88432000Y-44457772D01*
X88432000Y-44950228D01*
X88528074Y-45433223D01*
X88716529Y-45888194D01*
X88990124Y-46297657D01*
X89338343Y-46645876D01*
X89747806Y-46919471D01*
X90202777Y-47107926D01*
X90685772Y-47204000D01*
X91178228Y-47204000D01*
X91661223Y-47107926D01*
X92116194Y-46919471D01*
X92525657Y-46645876D01*
X92873876Y-46297657D01*
X93147471Y-45888194D01*
X93335926Y-45433223D01*
X93432000Y-44950228D01*
X93432000Y-44457772D01*
X93335926Y-43974777D01*
X93147471Y-43519806D01*
X92873876Y-43110343D01*
X92525657Y-42762124D01*
X92116194Y-42488529D01*
X91661223Y-42300074D01*
X91178228Y-42204000D01*
X90685772Y-42204000D01*
X90457337Y-42249439D01*
X88731282Y-40523384D01*
X88725827Y-40495959D01*
X88590139Y-40168380D01*
X88393151Y-39873567D01*
X88142433Y-39622849D01*
X87847620Y-39425861D01*
X87520041Y-39290173D01*
X87172284Y-39221000D01*
X86817716Y-39221000D01*
X86469959Y-39290173D01*
X86142380Y-39425861D01*
X85847567Y-39622849D01*
X85596849Y-39873567D01*
X85399861Y-40168380D01*
X85264173Y-40495959D01*
X85195000Y-40843716D01*
X84341248Y-40843716D01*
X84323955Y-40668138D01*
X84221029Y-40328837D01*
X84053887Y-40016135D01*
X83828950Y-39742050D01*
X83554865Y-39517113D01*
X83242163Y-39349971D01*
X82902862Y-39247045D01*
X82638424Y-39221000D01*
X82461576Y-39221000D01*
X82197138Y-39247045D01*
X81857837Y-39349971D01*
X81545135Y-39517113D01*
X81271050Y-39742050D01*
X81046113Y-40016135D01*
X80878971Y-40328837D01*
X80776045Y-40668138D01*
X80741291Y-41021000D01*
X80776045Y-41373862D01*
X80878971Y-41713163D01*
X81046113Y-42025865D01*
X81065551Y-42049550D01*
X80718430Y-42396671D01*
X80485223Y-42300074D01*
X80002228Y-42204000D01*
X79509772Y-42204000D01*
X79026777Y-42300074D01*
X78571806Y-42488529D01*
X78162343Y-42762124D01*
X77814124Y-43110343D01*
X77540529Y-43519806D01*
X77352074Y-43974777D01*
X77256000Y-44457772D01*
X69048000Y-44457772D01*
X69002561Y-44229337D01*
X70410899Y-42821000D01*
X70573424Y-42821000D01*
X70837862Y-42794955D01*
X71177163Y-42692029D01*
X71489865Y-42524887D01*
X71763950Y-42299950D01*
X71988887Y-42025865D01*
X72156029Y-41713163D01*
X72258955Y-41373862D01*
X72293709Y-41021000D01*
X72258955Y-40668138D01*
X72156029Y-40328837D01*
X71988887Y-40016135D01*
X71763950Y-39742050D01*
X71489865Y-39517113D01*
X71177163Y-39349971D01*
X70837862Y-39247045D01*
X70573424Y-39221000D01*
X70396576Y-39221000D01*
X70132138Y-39247045D01*
X69792837Y-39349971D01*
X69480135Y-39517113D01*
X69206050Y-39742050D01*
X68981113Y-40016135D01*
X68813971Y-40328837D01*
X68757672Y-40514429D01*
X67022663Y-42249439D01*
X66794228Y-42204000D01*
X66301772Y-42204000D01*
X65818777Y-42300074D01*
X65363806Y-42488529D01*
X64954343Y-42762124D01*
X64606124Y-43110343D01*
X64332529Y-43519806D01*
X64144074Y-43974777D01*
X64048000Y-44457772D01*
X62614000Y-44457772D01*
X62614000Y-35377898D01*
X70410899Y-27581000D01*
X70662284Y-27581000D01*
X71010041Y-27511827D01*
X71337620Y-27376139D01*
X71632433Y-27179151D01*
X71883151Y-26928433D01*
X72080139Y-26633620D01*
X72214810Y-26308496D01*
X73517256Y-26308496D01*
X73647311Y-26573973D01*
X73826659Y-26808976D01*
X74048408Y-27004475D01*
X74304036Y-27152956D01*
X74402506Y-27193733D01*
X74630000Y-27077750D01*
X74630000Y-26081000D01*
X75230000Y-26081000D01*
X75230000Y-27077750D01*
X75457494Y-27193733D01*
X75555964Y-27152956D01*
X75811592Y-27004475D01*
X76033341Y-26808976D01*
X76212689Y-26573973D01*
X76342744Y-26308496D01*
X76230869Y-26081000D01*
X75230000Y-26081000D01*
X74630000Y-26081000D01*
X73629131Y-26081000D01*
X73517256Y-26308496D01*
X72214810Y-26308496D01*
X72215827Y-26306041D01*
X72285000Y-25958284D01*
X72285000Y-25706898D01*
X73223899Y-24768000D01*
X73815230Y-24768000D01*
X73647311Y-24988027D01*
X73517256Y-25253504D01*
X73629131Y-25481000D01*
X74630000Y-25481000D01*
X74630000Y-25461000D01*
X75230000Y-25461000D01*
X75230000Y-25481000D01*
X76230869Y-25481000D01*
X76342744Y-25253504D01*
X76212689Y-24988027D01*
X76044770Y-24768000D01*
X79557102Y-24768000D01*
X80750649Y-25961548D01*
X80819173Y-26306041D01*
X80954861Y-26633620D01*
X81151849Y-26928433D01*
X81402567Y-27179151D01*
X81697380Y-27376139D01*
X82024959Y-27511827D01*
X82372716Y-27581000D01*
X82727284Y-27581000D01*
X83075041Y-27511827D01*
X83402620Y-27376139D01*
X83697433Y-27179151D01*
X83948151Y-26928433D01*
X84145139Y-26633620D01*
X84279810Y-26308496D01*
X85582256Y-26308496D01*
X85712311Y-26573973D01*
X85891659Y-26808976D01*
X86113408Y-27004475D01*
X86369036Y-27152956D01*
X86467506Y-27193733D01*
X86695000Y-27077750D01*
X86695000Y-26081000D01*
X87295000Y-26081000D01*
X87295000Y-27077750D01*
X87522494Y-27193733D01*
X87620964Y-27152956D01*
X87876592Y-27004475D01*
X88098341Y-26808976D01*
X88277689Y-26573973D01*
X88407744Y-26308496D01*
X88295869Y-26081000D01*
X87295000Y-26081000D01*
X86695000Y-26081000D01*
X85694131Y-26081000D01*
X85582256Y-26308496D01*
X84279810Y-26308496D01*
X84280827Y-26306041D01*
X84350000Y-25958284D01*
X84350000Y-25603716D01*
X84280827Y-25255959D01*
X84279811Y-25253504D01*
X85582256Y-25253504D01*
X85694131Y-25481000D01*
X86695000Y-25481000D01*
X86695000Y-24484250D01*
X87295000Y-24484250D01*
X87295000Y-25481000D01*
X88295869Y-25481000D01*
X88407744Y-25253504D01*
X88277689Y-24988027D01*
X88098341Y-24753024D01*
X87876592Y-24557525D01*
X87620964Y-24409044D01*
X87522494Y-24368267D01*
X87295000Y-24484250D01*
X86695000Y-24484250D01*
X86467506Y-24368267D01*
X86369036Y-24409044D01*
X86113408Y-24557525D01*
X85891659Y-24753024D01*
X85712311Y-24988027D01*
X85582256Y-25253504D01*
X84279811Y-25253504D01*
X84145139Y-24928380D01*
X83948151Y-24633567D01*
X83697433Y-24382849D01*
X83402620Y-24185861D01*
X83075041Y-24050173D01*
X82730548Y-23981649D01*
X81175584Y-22426686D01*
X81131739Y-22373261D01*
X80918562Y-22198310D01*
X80675349Y-22068310D01*
X80411448Y-21988257D01*
X80205777Y-21968000D01*
X80205769Y-21968000D01*
X80137000Y-21961227D01*
X80068231Y-21968000D01*
X72712768Y-21968000D01*
X72643999Y-21961227D01*
X72575230Y-21968000D01*
X72575223Y-21968000D01*
X72369552Y-21988257D01*
X72105651Y-22068310D01*
X71862438Y-22198310D01*
X71649261Y-22373261D01*
X71605420Y-22426681D01*
X69987384Y-24044718D01*
X69959959Y-24050173D01*
X69632380Y-24185861D01*
X69337567Y-24382849D01*
X69086849Y-24633567D01*
X68889861Y-24928380D01*
X68754173Y-25255959D01*
X68748718Y-25283383D01*
X60272682Y-33759420D01*
X60219262Y-33803261D01*
X60175421Y-33856681D01*
X60175418Y-33856684D01*
X60120752Y-33923295D01*
X60044311Y-34016438D01*
X59914311Y-34259651D01*
X59834257Y-34523553D01*
X59807227Y-34798000D01*
X59814001Y-34866779D01*
X59814000Y-62415231D01*
X59807227Y-62484000D01*
X59814000Y-62552769D01*
X59814000Y-62552776D01*
X59834257Y-62758447D01*
X59914310Y-63022348D01*
X60044310Y-63265561D01*
X60118321Y-63355743D01*
X60157015Y-63402891D01*
X60219261Y-63478738D01*
X60272682Y-63522580D01*
X68050649Y-71300548D01*
X68119173Y-71645041D01*
X68254861Y-71972620D01*
X68450001Y-72264667D01*
X68450000Y-76960334D01*
X68254861Y-77252380D01*
X68119173Y-77579959D01*
X68050649Y-77924452D01*
X65098682Y-80876420D01*
X65045262Y-80920261D01*
X65001421Y-80973681D01*
X65001418Y-80973684D01*
X64946752Y-81040295D01*
X64870311Y-81133438D01*
X64740311Y-81376651D01*
X64660257Y-81640553D01*
X64633227Y-81915000D01*
X64640001Y-81983779D01*
X64640000Y-97025000D01*
X64203768Y-97025000D01*
X64134999Y-97018227D01*
X64066230Y-97025000D01*
X64066223Y-97025000D01*
X63860552Y-97045257D01*
X63596651Y-97125310D01*
X63353438Y-97255310D01*
X63140261Y-97430261D01*
X63096420Y-97483681D01*
X61034681Y-99545420D01*
X60981262Y-99589261D01*
X60937421Y-99642681D01*
X60937418Y-99642684D01*
X60935909Y-99644523D01*
X60806311Y-99802438D01*
X60737315Y-99931521D01*
X60676311Y-100045651D01*
X60596257Y-100309553D01*
X60569227Y-100584000D01*
X60576001Y-100652779D01*
X60576000Y-104579231D01*
X60569227Y-104648000D01*
X60576000Y-104716769D01*
X60576000Y-104716776D01*
X60596257Y-104922447D01*
X60676310Y-105186348D01*
X60806310Y-105429561D01*
X60981261Y-105642738D01*
X61034682Y-105686580D01*
X63985420Y-108637319D01*
X64029261Y-108690739D01*
X64242438Y-108865690D01*
X64485651Y-108995690D01*
X64749552Y-109075743D01*
X64955223Y-109096000D01*
X64955231Y-109096000D01*
X65024000Y-109102773D01*
X65092769Y-109096000D01*
X67492102Y-109096000D01*
X72221439Y-113825337D01*
X72176000Y-114053772D01*
X72176000Y-114546228D01*
X72272074Y-115029223D01*
X72460529Y-115484194D01*
X72734124Y-115893657D01*
X73082343Y-116241876D01*
X73491806Y-116515471D01*
X73946777Y-116703926D01*
X74195449Y-116753390D01*
X60325000Y-116542433D01*
X60325000Y-110600351D01*
X60329959Y-110550000D01*
X60310169Y-110349065D01*
X60251558Y-110155852D01*
X60156380Y-109977785D01*
X60028291Y-109821709D01*
X59872215Y-109693620D01*
X59694148Y-109598442D01*
X59500935Y-109539831D01*
X59350351Y-109525000D01*
X59300000Y-109520041D01*
X59249650Y-109525000D01*
X51850000Y-109525000D01*
X51850000Y-28575000D01*
X59249649Y-28575000D01*
X59300000Y-28579959D01*
X59350350Y-28575000D01*
X59350351Y-28575000D01*
X59500935Y-28560169D01*
X59694148Y-28501558D01*
X59872215Y-28406380D01*
X60028291Y-28278291D01*
X60156380Y-28122215D01*
X60251558Y-27944148D01*
X60310169Y-27750935D01*
X60329959Y-27550000D01*
X60325000Y-27499649D01*
X60325000Y-20100000D01*
X109220477Y-20100000D01*
X141275000Y-20424192D01*
G36*
X62922343Y-54265876D02*
G01*
X63331806Y-54539471D01*
X63786777Y-54727926D01*
X64269772Y-54824000D01*
X64762228Y-54824000D01*
X65245223Y-54727926D01*
X65700194Y-54539471D01*
X66109657Y-54265876D01*
X66182817Y-54192716D01*
X67235101Y-55245000D01*
X65606682Y-56873420D01*
X65553261Y-56917262D01*
X65509420Y-56970682D01*
X65509418Y-56970684D01*
X65488387Y-56996311D01*
X65378310Y-57130439D01*
X65248310Y-57373652D01*
X65168257Y-57637553D01*
X65148000Y-57843224D01*
X65148000Y-57843231D01*
X65141227Y-57912000D01*
X65148000Y-57980770D01*
X65148001Y-60383221D01*
X65141227Y-60452000D01*
X65168257Y-60726447D01*
X65240830Y-60965688D01*
X65248311Y-60990349D01*
X65378311Y-61233562D01*
X65454752Y-61326705D01*
X65509418Y-61393316D01*
X65509421Y-61393319D01*
X65553262Y-61446739D01*
X65606682Y-61490580D01*
X80388000Y-76271899D01*
X80388001Y-85529221D01*
X80381227Y-85598000D01*
X80408257Y-85872447D01*
X80469588Y-86074627D01*
X80488311Y-86136349D01*
X80618311Y-86379562D01*
X80694752Y-86472705D01*
X80749418Y-86539316D01*
X80749421Y-86539319D01*
X80793262Y-86592739D01*
X80846682Y-86636580D01*
X83290649Y-89080548D01*
X83359173Y-89425041D01*
X83494861Y-89752620D01*
X83691849Y-90047433D01*
X83942567Y-90298151D01*
X84237380Y-90495139D01*
X84564959Y-90630827D01*
X84912716Y-90700000D01*
X85267284Y-90700000D01*
X85615041Y-90630827D01*
X85942620Y-90495139D01*
X86234666Y-90300000D01*
X88320102Y-90300000D01*
X91124003Y-93103902D01*
X91124002Y-107318261D01*
X90670230Y-107228000D01*
X90177774Y-107228000D01*
X89694779Y-107324074D01*
X89239808Y-107512529D01*
X88830345Y-107786124D01*
X88482126Y-108134343D01*
X88208531Y-108543806D01*
X88020076Y-108998777D01*
X87924002Y-109481772D01*
X87924002Y-109974228D01*
X87969440Y-110202662D01*
X87958682Y-110213420D01*
X87905261Y-110257262D01*
X87861420Y-110310682D01*
X87861418Y-110310684D01*
X87829920Y-110349065D01*
X87760000Y-110434262D01*
X87760000Y-104716768D01*
X87766773Y-104647999D01*
X87760000Y-104579230D01*
X87760000Y-104579223D01*
X87739743Y-104373552D01*
X87739497Y-104372739D01*
X87691551Y-104214683D01*
X87659690Y-104109651D01*
X87529690Y-103866438D01*
X87468907Y-103792374D01*
X87398582Y-103706683D01*
X87398576Y-103706677D01*
X87354738Y-103653261D01*
X87301323Y-103609425D01*
X86868510Y-103176612D01*
X86898709Y-102870000D01*
X86863955Y-102517138D01*
X86761029Y-102177837D01*
X86593887Y-101865135D01*
X86490000Y-101738549D01*
X86490000Y-97029666D01*
X86685139Y-96737620D01*
X86820827Y-96410041D01*
X86890000Y-96062284D01*
X86890000Y-95707716D01*
X86820827Y-95359959D01*
X86685139Y-95032380D01*
X86488151Y-94737567D01*
X86237433Y-94486849D01*
X85942620Y-94289861D01*
X85615041Y-94154173D01*
X85267284Y-94085000D01*
X84912716Y-94085000D01*
X84564959Y-94154173D01*
X84237380Y-94289861D01*
X83942567Y-94486849D01*
X83691849Y-94737567D01*
X83494861Y-95032380D01*
X83359173Y-95359959D01*
X83290000Y-95707716D01*
X83290000Y-96062284D01*
X83359173Y-96410041D01*
X83494861Y-96737620D01*
X83690001Y-97029667D01*
X83690000Y-101738549D01*
X83586113Y-101865135D01*
X83418971Y-102177837D01*
X83316045Y-102517138D01*
X83281291Y-102870000D01*
X83316045Y-103222862D01*
X83418971Y-103562163D01*
X83586113Y-103874865D01*
X83811050Y-104148950D01*
X84085135Y-104373887D01*
X84118188Y-104391554D01*
X84148681Y-104416579D01*
X84960000Y-105227899D01*
X84960001Y-113089732D01*
X84889176Y-113176032D01*
X84739033Y-113041915D01*
X84475934Y-112886794D01*
X84355470Y-112836909D01*
X84120000Y-112951979D01*
X84120000Y-114000000D01*
X84140000Y-114000000D01*
X84140000Y-114600000D01*
X84120000Y-114600000D01*
X84120000Y-115648021D01*
X84355470Y-115763091D01*
X84475934Y-115713206D01*
X84739033Y-115558085D01*
X84889176Y-115423968D01*
X85045523Y-115614477D01*
X85327222Y-115845661D01*
X85648610Y-116017447D01*
X85997337Y-116123232D01*
X86269118Y-116150000D01*
X86450882Y-116150000D01*
X86722663Y-116123232D01*
X87071390Y-116017447D01*
X87392778Y-115845661D01*
X87630000Y-115650978D01*
X87867222Y-115845661D01*
X88188610Y-116017447D01*
X88537337Y-116123232D01*
X88809118Y-116150000D01*
X88990882Y-116150000D01*
X89262663Y-116123232D01*
X89611390Y-116017447D01*
X89932778Y-115845661D01*
X90170000Y-115650978D01*
X90407222Y-115845661D01*
X90728610Y-116017447D01*
X91077337Y-116123232D01*
X91349118Y-116150000D01*
X91530882Y-116150000D01*
X91802663Y-116123232D01*
X92151390Y-116017447D01*
X92472778Y-115845661D01*
X92710000Y-115650978D01*
X92947222Y-115845661D01*
X93268610Y-116017447D01*
X93617337Y-116123232D01*
X93889118Y-116150000D01*
X94070882Y-116150000D01*
X94342663Y-116123232D01*
X94691390Y-116017447D01*
X95012778Y-115845661D01*
X95250000Y-115650978D01*
X95487222Y-115845661D01*
X95808610Y-116017447D01*
X96157337Y-116123232D01*
X96385839Y-116145737D01*
X97345585Y-117105484D01*
X75088284Y-116766969D01*
X75405223Y-116703926D01*
X75860194Y-116515471D01*
X76269657Y-116241876D01*
X76617876Y-115893657D01*
X76747274Y-115700000D01*
X79590094Y-115700000D01*
X79594508Y-115708258D01*
X79719472Y-115860528D01*
X79871742Y-115985492D01*
X80045465Y-116078349D01*
X80233966Y-116135530D01*
X80430000Y-116154838D01*
X82130000Y-116154838D01*
X82326034Y-116135530D01*
X82514535Y-116078349D01*
X82688258Y-115985492D01*
X82840528Y-115860528D01*
X82965492Y-115708258D01*
X83011065Y-115622998D01*
X83164066Y-115713206D01*
X83284530Y-115763091D01*
X83520000Y-115648021D01*
X83520000Y-114600000D01*
X83500000Y-114600000D01*
X83500000Y-114000000D01*
X83520000Y-114000000D01*
X83520000Y-112951979D01*
X83284530Y-112836909D01*
X83164066Y-112886794D01*
X83011065Y-112977002D01*
X82965492Y-112891742D01*
X82840528Y-112739472D01*
X82688258Y-112614508D01*
X82514535Y-112521651D01*
X82326034Y-112464470D01*
X82130000Y-112445162D01*
X80430000Y-112445162D01*
X80233966Y-112464470D01*
X80045465Y-112521651D01*
X79871742Y-112614508D01*
X79719472Y-112739472D01*
X79594508Y-112891742D01*
X79590094Y-112900000D01*
X76747274Y-112900000D01*
X76617876Y-112706343D01*
X76269657Y-112358124D01*
X75860194Y-112084529D01*
X75405223Y-111896074D01*
X74922228Y-111800000D01*
X74429772Y-111800000D01*
X74201337Y-111845439D01*
X69110584Y-106754686D01*
X69066739Y-106701261D01*
X68853562Y-106526310D01*
X68610349Y-106396310D01*
X68346448Y-106316257D01*
X68140777Y-106296000D01*
X68140769Y-106296000D01*
X68072000Y-106289227D01*
X68003231Y-106296000D01*
X65603899Y-106296000D01*
X63376000Y-104068102D01*
X63376000Y-101163898D01*
X64714899Y-99825000D01*
X64775836Y-99825000D01*
X64719523Y-99881313D01*
X64533479Y-100159748D01*
X64405330Y-100469128D01*
X64340000Y-100797565D01*
X64340000Y-101132435D01*
X64405330Y-101460872D01*
X64533479Y-101770252D01*
X64719523Y-102048687D01*
X64956313Y-102285477D01*
X65234748Y-102471521D01*
X65544128Y-102599670D01*
X65732177Y-102637075D01*
X66906420Y-103811319D01*
X66950261Y-103864739D01*
X67003681Y-103908580D01*
X67003683Y-103908582D01*
X67049943Y-103946546D01*
X67163438Y-104039690D01*
X67406651Y-104169690D01*
X67670552Y-104249743D01*
X67876223Y-104270000D01*
X67876231Y-104270000D01*
X67945000Y-104276773D01*
X68013769Y-104270000D01*
X68705334Y-104270000D01*
X68997380Y-104465139D01*
X69324959Y-104600827D01*
X69672716Y-104670000D01*
X70027284Y-104670000D01*
X70375041Y-104600827D01*
X70702620Y-104465139D01*
X70997433Y-104268151D01*
X71248151Y-104017433D01*
X71445139Y-103722620D01*
X71580827Y-103395041D01*
X71650000Y-103047284D01*
X71650000Y-102692716D01*
X71580827Y-102344959D01*
X71445139Y-102017380D01*
X71248151Y-101722567D01*
X70997433Y-101471849D01*
X70702620Y-101274861D01*
X70375041Y-101139173D01*
X70027284Y-101070000D01*
X69672716Y-101070000D01*
X69324959Y-101139173D01*
X68997380Y-101274861D01*
X68705334Y-101470000D01*
X68524899Y-101470000D01*
X67712075Y-100657177D01*
X67674670Y-100469128D01*
X67546521Y-100159748D01*
X67360477Y-99881313D01*
X67174164Y-99695000D01*
X67360477Y-99508687D01*
X67546521Y-99230252D01*
X67674670Y-98920872D01*
X67740000Y-98592435D01*
X67740000Y-98257565D01*
X67674670Y-97929128D01*
X67546521Y-97619748D01*
X67440000Y-97460328D01*
X67440000Y-96412494D01*
X68437267Y-96412494D01*
X68478044Y-96510964D01*
X68626525Y-96766592D01*
X68822024Y-96988341D01*
X69057027Y-97167689D01*
X69322504Y-97297744D01*
X69550000Y-97185869D01*
X69550000Y-96185000D01*
X70150000Y-96185000D01*
X70150000Y-97185869D01*
X70377496Y-97297744D01*
X70642973Y-97167689D01*
X70877976Y-96988341D01*
X71073475Y-96766592D01*
X71221956Y-96510964D01*
X71262733Y-96412494D01*
X71146750Y-96185000D01*
X70150000Y-96185000D01*
X69550000Y-96185000D01*
X68553250Y-96185000D01*
X68437267Y-96412494D01*
X67440000Y-96412494D01*
X67440000Y-95357506D01*
X68437267Y-95357506D01*
X68553250Y-95585000D01*
X69550000Y-95585000D01*
X69550000Y-94584131D01*
X70150000Y-94584131D01*
X70150000Y-95585000D01*
X71146750Y-95585000D01*
X71262733Y-95357506D01*
X71221956Y-95259036D01*
X71073475Y-95003408D01*
X70877976Y-94781659D01*
X70642973Y-94602311D01*
X70377496Y-94472256D01*
X70150000Y-94584131D01*
X69550000Y-94584131D01*
X69322504Y-94472256D01*
X69057027Y-94602311D01*
X68822024Y-94781659D01*
X68626525Y-95003408D01*
X68478044Y-95259036D01*
X68437267Y-95357506D01*
X67440000Y-95357506D01*
X67440000Y-89427494D01*
X68437267Y-89427494D01*
X68478044Y-89525964D01*
X68626525Y-89781592D01*
X68822024Y-90003341D01*
X69057027Y-90182689D01*
X69322504Y-90312744D01*
X69550000Y-90200869D01*
X69550000Y-89200000D01*
X70150000Y-89200000D01*
X70150000Y-90200869D01*
X70377496Y-90312744D01*
X70642973Y-90182689D01*
X70877976Y-90003341D01*
X71073475Y-89781592D01*
X71221956Y-89525964D01*
X71262733Y-89427494D01*
X71146750Y-89200000D01*
X70150000Y-89200000D01*
X69550000Y-89200000D01*
X68553250Y-89200000D01*
X68437267Y-89427494D01*
X67440000Y-89427494D01*
X67440000Y-88372506D01*
X68437267Y-88372506D01*
X68553250Y-88600000D01*
X69550000Y-88600000D01*
X69550000Y-87599131D01*
X70150000Y-87599131D01*
X70150000Y-88600000D01*
X71146750Y-88600000D01*
X71262733Y-88372506D01*
X71221956Y-88274036D01*
X71073475Y-88018408D01*
X70877976Y-87796659D01*
X70642973Y-87617311D01*
X70377496Y-87487256D01*
X70150000Y-87599131D01*
X69550000Y-87599131D01*
X69322504Y-87487256D01*
X69057027Y-87617311D01*
X68822024Y-87796659D01*
X68626525Y-88018408D01*
X68478044Y-88274036D01*
X68437267Y-88372506D01*
X67440000Y-88372506D01*
X67440000Y-84347494D01*
X68437267Y-84347494D01*
X68478044Y-84445964D01*
X68626525Y-84701592D01*
X68822024Y-84923341D01*
X69057027Y-85102689D01*
X69322504Y-85232744D01*
X69550000Y-85120869D01*
X69550000Y-84120000D01*
X70150000Y-84120000D01*
X70150000Y-85120869D01*
X70377496Y-85232744D01*
X70642973Y-85102689D01*
X70877976Y-84923341D01*
X71073475Y-84701592D01*
X71221956Y-84445964D01*
X71262733Y-84347494D01*
X71146750Y-84120000D01*
X70150000Y-84120000D01*
X69550000Y-84120000D01*
X68553250Y-84120000D01*
X68437267Y-84347494D01*
X67440000Y-84347494D01*
X67440000Y-83292506D01*
X68437267Y-83292506D01*
X68553250Y-83520000D01*
X69550000Y-83520000D01*
X69550000Y-82519131D01*
X70150000Y-82519131D01*
X70150000Y-83520000D01*
X71146750Y-83520000D01*
X71262733Y-83292506D01*
X71221956Y-83194036D01*
X71073475Y-82938408D01*
X70877976Y-82716659D01*
X70642973Y-82537311D01*
X70377496Y-82407256D01*
X70150000Y-82519131D01*
X69550000Y-82519131D01*
X69322504Y-82407256D01*
X69057027Y-82537311D01*
X68822024Y-82716659D01*
X68626525Y-82938408D01*
X68478044Y-83194036D01*
X68437267Y-83292506D01*
X67440000Y-83292506D01*
X67440000Y-82494898D01*
X70030548Y-79904351D01*
X70375041Y-79835827D01*
X70702620Y-79700139D01*
X70997433Y-79503151D01*
X71248151Y-79252433D01*
X71445139Y-78957620D01*
X71580827Y-78630041D01*
X71650000Y-78282284D01*
X71650000Y-77927716D01*
X71580827Y-77579959D01*
X71445139Y-77252380D01*
X71250000Y-76960334D01*
X71250000Y-72264666D01*
X71445139Y-71972620D01*
X71580827Y-71645041D01*
X71650000Y-71297284D01*
X71650000Y-70942716D01*
X71580827Y-70594959D01*
X71445139Y-70267380D01*
X71248151Y-69972567D01*
X70997433Y-69721849D01*
X70702620Y-69524861D01*
X70375041Y-69389173D01*
X70030548Y-69320649D01*
X62614000Y-61904102D01*
X62614000Y-53957533D01*
X62922343Y-54265876D01*
X62922343Y-54265876D01*
G37*
X62922343Y-54265876D02*
X63331806Y-54539471D01*
X63786777Y-54727926D01*
X64269772Y-54824000D01*
X64762228Y-54824000D01*
X65245223Y-54727926D01*
X65700194Y-54539471D01*
X66109657Y-54265876D01*
X66182817Y-54192716D01*
X67235101Y-55245000D01*
X65606682Y-56873420D01*
X65553261Y-56917262D01*
X65509420Y-56970682D01*
X65509418Y-56970684D01*
X65488387Y-56996311D01*
X65378310Y-57130439D01*
X65248310Y-57373652D01*
X65168257Y-57637553D01*
X65148000Y-57843224D01*
X65148000Y-57843231D01*
X65141227Y-57912000D01*
X65148000Y-57980770D01*
X65148001Y-60383221D01*
X65141227Y-60452000D01*
X65168257Y-60726447D01*
X65240830Y-60965688D01*
X65248311Y-60990349D01*
X65378311Y-61233562D01*
X65454752Y-61326705D01*
X65509418Y-61393316D01*
X65509421Y-61393319D01*
X65553262Y-61446739D01*
X65606682Y-61490580D01*
X80388000Y-76271899D01*
X80388001Y-85529221D01*
X80381227Y-85598000D01*
X80408257Y-85872447D01*
X80469588Y-86074627D01*
X80488311Y-86136349D01*
X80618311Y-86379562D01*
X80694752Y-86472705D01*
X80749418Y-86539316D01*
X80749421Y-86539319D01*
X80793262Y-86592739D01*
X80846682Y-86636580D01*
X83290649Y-89080548D01*
X83359173Y-89425041D01*
X83494861Y-89752620D01*
X83691849Y-90047433D01*
X83942567Y-90298151D01*
X84237380Y-90495139D01*
X84564959Y-90630827D01*
X84912716Y-90700000D01*
X85267284Y-90700000D01*
X85615041Y-90630827D01*
X85942620Y-90495139D01*
X86234666Y-90300000D01*
X88320102Y-90300000D01*
X91124003Y-93103902D01*
X91124002Y-107318261D01*
X90670230Y-107228000D01*
X90177774Y-107228000D01*
X89694779Y-107324074D01*
X89239808Y-107512529D01*
X88830345Y-107786124D01*
X88482126Y-108134343D01*
X88208531Y-108543806D01*
X88020076Y-108998777D01*
X87924002Y-109481772D01*
X87924002Y-109974228D01*
X87969440Y-110202662D01*
X87958682Y-110213420D01*
X87905261Y-110257262D01*
X87861420Y-110310682D01*
X87861418Y-110310684D01*
X87829920Y-110349065D01*
X87760000Y-110434262D01*
X87760000Y-104716768D01*
X87766773Y-104647999D01*
X87760000Y-104579230D01*
X87760000Y-104579223D01*
X87739743Y-104373552D01*
X87739497Y-104372739D01*
X87691551Y-104214683D01*
X87659690Y-104109651D01*
X87529690Y-103866438D01*
X87468907Y-103792374D01*
X87398582Y-103706683D01*
X87398576Y-103706677D01*
X87354738Y-103653261D01*
X87301323Y-103609425D01*
X86868510Y-103176612D01*
X86898709Y-102870000D01*
X86863955Y-102517138D01*
X86761029Y-102177837D01*
X86593887Y-101865135D01*
X86490000Y-101738549D01*
X86490000Y-97029666D01*
X86685139Y-96737620D01*
X86820827Y-96410041D01*
X86890000Y-96062284D01*
X86890000Y-95707716D01*
X86820827Y-95359959D01*
X86685139Y-95032380D01*
X86488151Y-94737567D01*
X86237433Y-94486849D01*
X85942620Y-94289861D01*
X85615041Y-94154173D01*
X85267284Y-94085000D01*
X84912716Y-94085000D01*
X84564959Y-94154173D01*
X84237380Y-94289861D01*
X83942567Y-94486849D01*
X83691849Y-94737567D01*
X83494861Y-95032380D01*
X83359173Y-95359959D01*
X83290000Y-95707716D01*
X83290000Y-96062284D01*
X83359173Y-96410041D01*
X83494861Y-96737620D01*
X83690001Y-97029667D01*
X83690000Y-101738549D01*
X83586113Y-101865135D01*
X83418971Y-102177837D01*
X83316045Y-102517138D01*
X83281291Y-102870000D01*
X83316045Y-103222862D01*
X83418971Y-103562163D01*
X83586113Y-103874865D01*
X83811050Y-104148950D01*
X84085135Y-104373887D01*
X84118188Y-104391554D01*
X84148681Y-104416579D01*
X84960000Y-105227899D01*
X84960001Y-113089732D01*
X84889176Y-113176032D01*
X84739033Y-113041915D01*
X84475934Y-112886794D01*
X84355470Y-112836909D01*
X84120000Y-112951979D01*
X84120000Y-114000000D01*
X84140000Y-114000000D01*
X84140000Y-114600000D01*
X84120000Y-114600000D01*
X84120000Y-115648021D01*
X84355470Y-115763091D01*
X84475934Y-115713206D01*
X84739033Y-115558085D01*
X84889176Y-115423968D01*
X85045523Y-115614477D01*
X85327222Y-115845661D01*
X85648610Y-116017447D01*
X85997337Y-116123232D01*
X86269118Y-116150000D01*
X86450882Y-116150000D01*
X86722663Y-116123232D01*
X87071390Y-116017447D01*
X87392778Y-115845661D01*
X87630000Y-115650978D01*
X87867222Y-115845661D01*
X88188610Y-116017447D01*
X88537337Y-116123232D01*
X88809118Y-116150000D01*
X88990882Y-116150000D01*
X89262663Y-116123232D01*
X89611390Y-116017447D01*
X89932778Y-115845661D01*
X90170000Y-115650978D01*
X90407222Y-115845661D01*
X90728610Y-116017447D01*
X91077337Y-116123232D01*
X91349118Y-116150000D01*
X91530882Y-116150000D01*
X91802663Y-116123232D01*
X92151390Y-116017447D01*
X92472778Y-115845661D01*
X92710000Y-115650978D01*
X92947222Y-115845661D01*
X93268610Y-116017447D01*
X93617337Y-116123232D01*
X93889118Y-116150000D01*
X94070882Y-116150000D01*
X94342663Y-116123232D01*
X94691390Y-116017447D01*
X95012778Y-115845661D01*
X95250000Y-115650978D01*
X95487222Y-115845661D01*
X95808610Y-116017447D01*
X96157337Y-116123232D01*
X96385839Y-116145737D01*
X97345585Y-117105484D01*
X75088284Y-116766969D01*
X75405223Y-116703926D01*
X75860194Y-116515471D01*
X76269657Y-116241876D01*
X76617876Y-115893657D01*
X76747274Y-115700000D01*
X79590094Y-115700000D01*
X79594508Y-115708258D01*
X79719472Y-115860528D01*
X79871742Y-115985492D01*
X80045465Y-116078349D01*
X80233966Y-116135530D01*
X80430000Y-116154838D01*
X82130000Y-116154838D01*
X82326034Y-116135530D01*
X82514535Y-116078349D01*
X82688258Y-115985492D01*
X82840528Y-115860528D01*
X82965492Y-115708258D01*
X83011065Y-115622998D01*
X83164066Y-115713206D01*
X83284530Y-115763091D01*
X83520000Y-115648021D01*
X83520000Y-114600000D01*
X83500000Y-114600000D01*
X83500000Y-114000000D01*
X83520000Y-114000000D01*
X83520000Y-112951979D01*
X83284530Y-112836909D01*
X83164066Y-112886794D01*
X83011065Y-112977002D01*
X82965492Y-112891742D01*
X82840528Y-112739472D01*
X82688258Y-112614508D01*
X82514535Y-112521651D01*
X82326034Y-112464470D01*
X82130000Y-112445162D01*
X80430000Y-112445162D01*
X80233966Y-112464470D01*
X80045465Y-112521651D01*
X79871742Y-112614508D01*
X79719472Y-112739472D01*
X79594508Y-112891742D01*
X79590094Y-112900000D01*
X76747274Y-112900000D01*
X76617876Y-112706343D01*
X76269657Y-112358124D01*
X75860194Y-112084529D01*
X75405223Y-111896074D01*
X74922228Y-111800000D01*
X74429772Y-111800000D01*
X74201337Y-111845439D01*
X69110584Y-106754686D01*
X69066739Y-106701261D01*
X68853562Y-106526310D01*
X68610349Y-106396310D01*
X68346448Y-106316257D01*
X68140777Y-106296000D01*
X68140769Y-106296000D01*
X68072000Y-106289227D01*
X68003231Y-106296000D01*
X65603899Y-106296000D01*
X63376000Y-104068102D01*
X63376000Y-101163898D01*
X64714899Y-99825000D01*
X64775836Y-99825000D01*
X64719523Y-99881313D01*
X64533479Y-100159748D01*
X64405330Y-100469128D01*
X64340000Y-100797565D01*
X64340000Y-101132435D01*
X64405330Y-101460872D01*
X64533479Y-101770252D01*
X64719523Y-102048687D01*
X64956313Y-102285477D01*
X65234748Y-102471521D01*
X65544128Y-102599670D01*
X65732177Y-102637075D01*
X66906420Y-103811319D01*
X66950261Y-103864739D01*
X67003681Y-103908580D01*
X67003683Y-103908582D01*
X67049943Y-103946546D01*
X67163438Y-104039690D01*
X67406651Y-104169690D01*
X67670552Y-104249743D01*
X67876223Y-104270000D01*
X67876231Y-104270000D01*
X67945000Y-104276773D01*
X68013769Y-104270000D01*
X68705334Y-104270000D01*
X68997380Y-104465139D01*
X69324959Y-104600827D01*
X69672716Y-104670000D01*
X70027284Y-104670000D01*
X70375041Y-104600827D01*
X70702620Y-104465139D01*
X70997433Y-104268151D01*
X71248151Y-104017433D01*
X71445139Y-103722620D01*
X71580827Y-103395041D01*
X71650000Y-103047284D01*
X71650000Y-102692716D01*
X71580827Y-102344959D01*
X71445139Y-102017380D01*
X71248151Y-101722567D01*
X70997433Y-101471849D01*
X70702620Y-101274861D01*
X70375041Y-101139173D01*
X70027284Y-101070000D01*
X69672716Y-101070000D01*
X69324959Y-101139173D01*
X68997380Y-101274861D01*
X68705334Y-101470000D01*
X68524899Y-101470000D01*
X67712075Y-100657177D01*
X67674670Y-100469128D01*
X67546521Y-100159748D01*
X67360477Y-99881313D01*
X67174164Y-99695000D01*
X67360477Y-99508687D01*
X67546521Y-99230252D01*
X67674670Y-98920872D01*
X67740000Y-98592435D01*
X67740000Y-98257565D01*
X67674670Y-97929128D01*
X67546521Y-97619748D01*
X67440000Y-97460328D01*
X67440000Y-96412494D01*
X68437267Y-96412494D01*
X68478044Y-96510964D01*
X68626525Y-96766592D01*
X68822024Y-96988341D01*
X69057027Y-97167689D01*
X69322504Y-97297744D01*
X69550000Y-97185869D01*
X69550000Y-96185000D01*
X70150000Y-96185000D01*
X70150000Y-97185869D01*
X70377496Y-97297744D01*
X70642973Y-97167689D01*
X70877976Y-96988341D01*
X71073475Y-96766592D01*
X71221956Y-96510964D01*
X71262733Y-96412494D01*
X71146750Y-96185000D01*
X70150000Y-96185000D01*
X69550000Y-96185000D01*
X68553250Y-96185000D01*
X68437267Y-96412494D01*
X67440000Y-96412494D01*
X67440000Y-95357506D01*
X68437267Y-95357506D01*
X68553250Y-95585000D01*
X69550000Y-95585000D01*
X69550000Y-94584131D01*
X70150000Y-94584131D01*
X70150000Y-95585000D01*
X71146750Y-95585000D01*
X71262733Y-95357506D01*
X71221956Y-95259036D01*
X71073475Y-95003408D01*
X70877976Y-94781659D01*
X70642973Y-94602311D01*
X70377496Y-94472256D01*
X70150000Y-94584131D01*
X69550000Y-94584131D01*
X69322504Y-94472256D01*
X69057027Y-94602311D01*
X68822024Y-94781659D01*
X68626525Y-95003408D01*
X68478044Y-95259036D01*
X68437267Y-95357506D01*
X67440000Y-95357506D01*
X67440000Y-89427494D01*
X68437267Y-89427494D01*
X68478044Y-89525964D01*
X68626525Y-89781592D01*
X68822024Y-90003341D01*
X69057027Y-90182689D01*
X69322504Y-90312744D01*
X69550000Y-90200869D01*
X69550000Y-89200000D01*
X70150000Y-89200000D01*
X70150000Y-90200869D01*
X70377496Y-90312744D01*
X70642973Y-90182689D01*
X70877976Y-90003341D01*
X71073475Y-89781592D01*
X71221956Y-89525964D01*
X71262733Y-89427494D01*
X71146750Y-89200000D01*
X70150000Y-89200000D01*
X69550000Y-89200000D01*
X68553250Y-89200000D01*
X68437267Y-89427494D01*
X67440000Y-89427494D01*
X67440000Y-88372506D01*
X68437267Y-88372506D01*
X68553250Y-88600000D01*
X69550000Y-88600000D01*
X69550000Y-87599131D01*
X70150000Y-87599131D01*
X70150000Y-88600000D01*
X71146750Y-88600000D01*
X71262733Y-88372506D01*
X71221956Y-88274036D01*
X71073475Y-88018408D01*
X70877976Y-87796659D01*
X70642973Y-87617311D01*
X70377496Y-87487256D01*
X70150000Y-87599131D01*
X69550000Y-87599131D01*
X69322504Y-87487256D01*
X69057027Y-87617311D01*
X68822024Y-87796659D01*
X68626525Y-88018408D01*
X68478044Y-88274036D01*
X68437267Y-88372506D01*
X67440000Y-88372506D01*
X67440000Y-84347494D01*
X68437267Y-84347494D01*
X68478044Y-84445964D01*
X68626525Y-84701592D01*
X68822024Y-84923341D01*
X69057027Y-85102689D01*
X69322504Y-85232744D01*
X69550000Y-85120869D01*
X69550000Y-84120000D01*
X70150000Y-84120000D01*
X70150000Y-85120869D01*
X70377496Y-85232744D01*
X70642973Y-85102689D01*
X70877976Y-84923341D01*
X71073475Y-84701592D01*
X71221956Y-84445964D01*
X71262733Y-84347494D01*
X71146750Y-84120000D01*
X70150000Y-84120000D01*
X69550000Y-84120000D01*
X68553250Y-84120000D01*
X68437267Y-84347494D01*
X67440000Y-84347494D01*
X67440000Y-83292506D01*
X68437267Y-83292506D01*
X68553250Y-83520000D01*
X69550000Y-83520000D01*
X69550000Y-82519131D01*
X70150000Y-82519131D01*
X70150000Y-83520000D01*
X71146750Y-83520000D01*
X71262733Y-83292506D01*
X71221956Y-83194036D01*
X71073475Y-82938408D01*
X70877976Y-82716659D01*
X70642973Y-82537311D01*
X70377496Y-82407256D01*
X70150000Y-82519131D01*
X69550000Y-82519131D01*
X69322504Y-82407256D01*
X69057027Y-82537311D01*
X68822024Y-82716659D01*
X68626525Y-82938408D01*
X68478044Y-83194036D01*
X68437267Y-83292506D01*
X67440000Y-83292506D01*
X67440000Y-82494898D01*
X70030548Y-79904351D01*
X70375041Y-79835827D01*
X70702620Y-79700139D01*
X70997433Y-79503151D01*
X71248151Y-79252433D01*
X71445139Y-78957620D01*
X71580827Y-78630041D01*
X71650000Y-78282284D01*
X71650000Y-77927716D01*
X71580827Y-77579959D01*
X71445139Y-77252380D01*
X71250000Y-76960334D01*
X71250000Y-72264666D01*
X71445139Y-71972620D01*
X71580827Y-71645041D01*
X71650000Y-71297284D01*
X71650000Y-70942716D01*
X71580827Y-70594959D01*
X71445139Y-70267380D01*
X71248151Y-69972567D01*
X70997433Y-69721849D01*
X70702620Y-69524861D01*
X70375041Y-69389173D01*
X70030548Y-69320649D01*
X62614000Y-61904102D01*
X62614000Y-53957533D01*
X62922343Y-54265876D01*
M02*
