M48
; DRILL file {KiCad 5.1.4+dfsg1-1} date lun. 02 mars 2020 18:27:06 CET
; FORMAT={-:-/ absolute / inch / decimal}
; #@! TF.CreationDate,2020-03-02T18:27:06+01:00
; #@! TF.GenerationSoftware,Kicad,Pcbnew,5.1.4+dfsg1-1
FMAT,2
INCH
T1C0.0157
T2C0.0276
T3C0.0315
T4C0.0394
%
G90
G05
T1
X4.0Y-4.5
T2
X2.6Y-3.875
X2.6Y-3.975
X3.425Y-2.2
X3.425Y-2.3
X3.225Y-2.2
X3.225Y-2.3
X2.95Y-2.2
X2.95Y-2.3
X2.75Y-2.2
X2.75Y-2.3
T3
X3.425Y-1.015
X3.425Y-1.615
X3.25Y-1.015
X3.25Y-1.615
X2.75Y-3.775
X3.35Y-3.775
X2.75Y-2.8
X3.35Y-2.8
X2.75Y-3.075
X3.35Y-3.075
X2.775Y-1.015
X2.775Y-1.615
X2.75Y-3.5
X3.35Y-3.5
X2.75Y-4.05
X3.35Y-4.05
X2.75Y-3.3
X3.35Y-3.3
X2.95Y-1.015
X2.95Y-1.615
T4
X2.26Y-1.58
X2.3Y-2.74
X2.3Y-3.2
X2.3Y-3.62
X2.3Y-3.92
X2.54Y-2.06
X2.56Y-4.44
X2.62Y-1.76
X2.84Y-2.06
X2.86Y-1.34
X2.88Y-1.76
X2.94Y-4.5
X3.02Y-3.2
X3.02Y-3.62
X3.02Y-3.92
X3.06Y-2.44
X3.08Y-1.53
X3.11Y-2.06
X3.14Y-1.76
X3.2Y-2.74
X3.24Y-4.32
X3.32Y-2.06
X3.34Y-1.34
X3.36Y-1.76
X3.44Y-2.94
X3.56Y-4.32
X3.5609Y-3.3791
X3.58Y-1.76
X3.6Y-2.06
X3.64Y-1.2
X3.84Y-1.56
X3.88Y-4.22
X3.91Y-2.29
X3.97Y-2.53
X4.27Y-2.79
X3.2Y-4.5
X3.3Y-4.5
X3.4Y-4.5
X3.5Y-4.5
X3.6Y-4.5
X3.7Y-4.5
X3.8Y-4.5
X3.9Y-4.5
X4.0Y-4.5
T0
M30
